<svg width="114" height="91" viewBox="0 0 114 91" fill="none" xmlns="http://www.w3.org/2000/svg">
<path d="M38.5304 52.3524L41.4704 57.0657L44.4528 52.3791L65.9851 18.5426C68.795 14.1271 75.3791 14.5773 77.5618 19.3341C78.4835 21.3428 78.3396 23.6792 77.1784 25.5596L47.8814 73.0042C44.9508 77.7502 38.0492 77.7502 35.1186 73.0042L5.81438 25.548C4.64264 23.6504 4.47802 21.2983 5.374 19.256C7.566 14.2597 14.4589 13.7616 17.3464 18.3908L38.5304 52.3524Z" stroke="white" stroke-opacity="0.5" stroke-width="7"/>
<path d="M69.5304 38.6476L72.4704 33.9343L75.4528 38.6209L96.9851 72.4574C99.795 76.8729 106.379 76.4227 108.562 71.6659C109.483 69.6572 109.34 67.3208 108.178 65.4404L78.8814 17.9958C75.9508 13.2498 69.0492 13.2498 66.1186 17.9958L36.8144 65.452C35.6426 67.3496 35.478 69.7017 36.374 71.744C38.566 76.7403 45.4589 77.2384 48.3464 72.6092L69.5304 38.6476Z" stroke="#59DBAE" stroke-width="7"/>
</svg>
