<svg width="131" height="131" viewBox="0 0 131 131" fill="none" xmlns="http://www.w3.org/2000/svg">
<rect width="131" height="131" rx="20" fill="#2D4F6C"/>
<path d="M47.5304 72.3524L50.4704 77.0657L53.4528 72.3791L74.9851 38.5426C77.795 34.1271 84.3791 34.5773 86.5618 39.3341C87.4834 41.3428 87.3396 43.6792 86.1784 45.5596L56.8814 93.0042C53.9508 97.7502 47.0492 97.7502 44.1186 93.0042L14.8144 45.548C13.6426 43.6504 13.478 41.2983 14.374 39.256C16.566 34.2597 23.4589 33.7616 26.3464 38.3908L47.5304 72.3524Z" stroke="white" stroke-opacity="0.5" stroke-width="7"/>
<path d="M78.5304 58.6476L81.4704 53.9343L84.4528 58.6209L105.985 92.4574C108.795 96.8729 115.379 96.4227 117.562 91.6659C118.483 89.6572 118.34 87.3208 117.178 85.4404L87.8814 37.9958C84.9508 33.2498 78.0492 33.2498 75.1186 37.9958L45.8144 85.452C44.6426 87.3496 44.478 89.7017 45.374 91.744C47.566 96.7403 54.4589 97.2384 57.3464 92.6092L78.5304 58.6476Z" stroke="#59DBAE" stroke-width="7"/>
</svg>
