<svg width="136" height="82" viewBox="0 0 136 82" fill="none" xmlns="http://www.w3.org/2000/svg">
<path d="M57.4229 30.8937L59.1066 33.5929L60.8145 30.909L73.1455 11.5317C74.7547 9.00307 78.5252 9.26089 79.7752 11.985C80.303 13.1353 80.2206 14.4733 79.5557 15.5502L62.778 42.7205C61.0997 45.4384 57.1474 45.4384 55.4691 42.7205L38.6873 15.5435C38.0163 14.4568 37.922 13.1098 38.4351 11.9403C39.6904 9.07899 43.6378 8.79374 45.2914 11.4448L57.4229 30.8937Z" stroke="white" stroke-opacity="0.5" stroke-width="4.00872"/>
<path d="M75.1758 23.0454L76.8594 20.3462L78.5674 23.0301L90.8984 42.4074C92.5075 44.936 96.2781 44.6782 97.5281 41.9541C98.0559 40.8038 97.9735 39.4658 97.3085 38.3889L80.5309 11.2186C78.8526 8.50072 74.9002 8.50072 73.2219 11.2186L56.4402 38.3956C55.7691 39.4823 55.6749 40.8293 56.188 41.9988C57.4433 44.8601 61.3906 45.1453 63.0443 42.4943L75.1758 23.0454Z" stroke="#59DBAE" stroke-width="4.00872"/>
<path d="M8.24715 79.7002C7.21825 79.7002 6.3096 79.5733 5.52122 79.3194C4.73284 79.0521 4.06472 78.6579 3.51686 78.1368C2.98236 77.6157 2.57481 76.9676 2.2942 76.1926C2.02695 75.4042 1.89333 74.4956 1.89333 73.4667V67.0327C1.89333 66.418 2.05368 65.957 2.37437 65.6496C2.69507 65.3289 3.14939 65.1686 3.73734 65.1686C4.33865 65.1686 4.79297 65.3289 5.1003 65.6496C5.421 65.957 5.58135 66.418 5.58135 67.0327V73.5067C5.58135 74.5356 5.80851 75.3107 6.26283 75.8318C6.71716 76.3529 7.37859 76.6135 8.24715 76.6135C9.10234 76.6135 9.7571 76.3529 10.2114 75.8318C10.6657 75.3107 10.8929 74.5356 10.8929 73.5067V67.0327C10.8929 66.418 11.0466 65.957 11.3539 65.6496C11.6746 65.3289 12.1289 65.1686 12.7169 65.1686C13.3048 65.1686 13.7525 65.3289 14.0598 65.6496C14.3671 65.957 14.5208 66.418 14.5208 67.0327V73.4667C14.5208 74.843 14.2803 75.9988 13.7992 76.9342C13.3315 77.8562 12.63 78.551 11.6947 79.0187C10.7593 79.4731 9.61012 79.7002 8.24715 79.7002ZM26.5706 79.6601C25.9827 79.6601 25.5283 79.4998 25.2076 79.1791C24.8869 78.845 24.7266 78.384 24.7266 77.7961V67.213C24.7266 66.6117 24.8869 66.1507 25.2076 65.83C25.5417 65.5093 26.0027 65.349 26.5907 65.349H31.5214C33.1249 65.349 34.3609 65.7632 35.2294 66.5917C36.1114 67.4068 36.5523 68.5359 36.5523 69.9791C36.5523 71.4222 36.1114 72.558 35.2294 73.3865C34.3609 74.2016 33.1249 74.6091 31.5214 74.6091H28.4146V77.7961C28.4146 78.384 28.261 78.845 27.9536 79.1791C27.6463 79.4998 27.1853 79.6601 26.5706 79.6601ZM28.4146 71.783H30.88C31.5748 71.783 32.1093 71.636 32.4835 71.342C32.8576 71.0347 33.0447 70.5804 33.0447 69.9791C33.0447 69.3644 32.8576 68.9101 32.4835 68.6161C32.1093 68.3221 31.5748 68.1751 30.88 68.1751H28.4146V71.783Z" fill="#59DBAE"/>
<path d="M46.8065 79.4797C46.5125 79.4797 46.2854 79.4062 46.125 79.2593C45.978 79.0989 45.9045 78.8717 45.9045 78.5778V66.251C45.9045 65.957 45.978 65.7365 46.125 65.5895C46.2854 65.4292 46.5125 65.349 46.8065 65.349H50.6749C52.9599 65.349 54.7237 65.9503 55.9664 67.1529C57.2091 68.3555 57.8305 70.106 57.8305 72.4043C57.8305 73.5535 57.6701 74.5691 57.3494 75.451C57.0421 76.3195 56.5811 77.0545 55.9664 77.6558C55.3518 78.2571 54.6035 78.7114 53.7216 79.0187C52.8396 79.3261 51.8241 79.4797 50.6749 79.4797H46.8065ZM47.5481 78.0767H50.5547C51.49 78.0767 52.2985 77.9564 52.9799 77.7159C53.6748 77.4754 54.2494 77.1213 54.7037 76.6536C55.1714 76.1859 55.5188 75.598 55.746 74.8898C55.9731 74.1682 56.0867 73.3397 56.0867 72.4043C56.0867 70.5202 55.6257 69.1105 54.7037 68.1751C53.7817 67.2264 52.3987 66.752 50.5547 66.752H47.5481V78.0767ZM73.8854 79.6601C72.5759 79.6601 71.4334 79.3662 70.458 78.7782C69.4959 78.1769 68.7476 77.3351 68.2131 76.2527C67.6919 75.1704 67.4314 73.8876 67.4314 72.4043C67.4314 71.2819 67.5784 70.2797 67.8723 69.3978C68.1797 68.5025 68.614 67.7475 69.1752 67.1329C69.7364 66.5048 70.4112 66.0238 71.1996 65.6897C72.0013 65.3423 72.8966 65.1686 73.8854 65.1686C75.2217 65.1686 76.3708 65.4626 77.3329 66.0505C78.3084 66.6385 79.0567 67.4736 79.5778 68.556C80.1123 69.625 80.3795 70.9011 80.3795 72.3843C80.3795 73.5067 80.2259 74.5156 79.9185 75.4109C79.6112 76.3062 79.1769 77.0678 78.6157 77.6959C78.0545 78.3239 77.373 78.8116 76.5713 79.159C75.7829 79.4931 74.8876 79.6601 73.8854 79.6601ZM73.8854 78.1969C74.901 78.1969 75.7562 77.9698 76.451 77.5155C77.1592 77.0611 77.7004 76.3997 78.0745 75.5311C78.4487 74.6626 78.6358 73.6203 78.6358 72.4043C78.6358 70.5737 78.2215 69.1573 77.393 68.1551C76.5779 67.1396 75.4087 66.6318 73.8854 66.6318C72.8966 66.6318 72.0481 66.8589 71.3399 67.3133C70.645 67.7676 70.1105 68.429 69.7364 69.2976C69.3622 70.1528 69.1752 71.1884 69.1752 72.4043C69.1752 74.2216 69.5894 75.6447 70.4179 76.6736C71.2463 77.6892 72.4022 78.1969 73.8854 78.1969ZM95.0197 79.62C94.7792 79.62 94.5854 79.5599 94.4384 79.4396C94.2914 79.306 94.1712 79.1123 94.0776 78.8584L89.648 66.2109C89.5545 65.9303 89.5745 65.6964 89.7081 65.5093C89.8551 65.3089 90.0823 65.2087 90.3896 65.2087C90.6168 65.2087 90.7972 65.2688 90.9308 65.3891C91.0644 65.496 91.178 65.6697 91.2715 65.9102L95.4206 78.0767H94.719L98.9482 65.9703C99.0418 65.7165 99.1553 65.5294 99.289 65.4091C99.4226 65.2755 99.603 65.2087 99.8301 65.2087C100.044 65.2087 100.211 65.2755 100.331 65.4091C100.465 65.5294 100.578 65.7165 100.672 65.9703L104.841 78.0767H104.22L108.409 65.9102C108.476 65.6831 108.576 65.5093 108.709 65.3891C108.856 65.2688 109.044 65.2087 109.271 65.2087C109.551 65.2087 109.758 65.3022 109.892 65.4893C110.026 65.6764 110.039 65.9169 109.932 66.2109L105.482 78.8584C105.389 79.1123 105.269 79.306 105.122 79.4396C104.988 79.5599 104.794 79.62 104.54 79.62C104.3 79.62 104.106 79.5599 103.959 79.4396C103.826 79.306 103.705 79.1123 103.598 78.8584L99.5696 67.2531H100.011L95.9417 78.8584C95.8482 79.1123 95.7346 79.306 95.6009 79.4396C95.4673 79.5599 95.2736 79.62 95.0197 79.62ZM120.503 79.62C120.249 79.62 120.055 79.5532 119.922 79.4196C119.788 79.2726 119.721 79.0655 119.721 78.7983V66.0505C119.721 65.7833 119.788 65.5762 119.922 65.4292C120.055 65.2822 120.229 65.2087 120.443 65.2087C120.657 65.2087 120.81 65.2488 120.904 65.329C121.011 65.3958 121.131 65.5227 121.265 65.7098L130.004 77.3551H129.523V66.0104C129.523 65.7565 129.59 65.5628 129.723 65.4292C129.857 65.2822 130.051 65.2087 130.304 65.2087C130.545 65.2087 130.725 65.2822 130.846 65.4292C130.979 65.5628 131.046 65.7565 131.046 66.0104V78.8183C131.046 79.0722 130.986 79.2726 130.866 79.4196C130.759 79.5532 130.598 79.62 130.385 79.62C130.184 79.62 130.024 79.58 129.904 79.4998C129.783 79.4196 129.656 79.2927 129.523 79.119L120.804 67.4736H121.265V78.7983C121.265 79.0655 121.198 79.2726 121.064 79.4196C120.931 79.5532 120.744 79.62 120.503 79.62Z" fill="#F5F4F4"/>
</svg>
