<svg width="390" height="844" viewBox="0 0 390 844" fill="none" xmlns="http://www.w3.org/2000/svg">
<g clip-path="url(#clip0_96_777)">
<rect width="390" height="844" fill="#F5F4F4"/>
<rect width="390" height="140" fill="#00303F"/>
<path d="M184.423 59.8937L186.107 62.5929L187.815 59.909L200.146 40.5317C201.755 38.0031 205.525 38.2609 206.775 40.985C207.303 42.1353 207.221 43.4733 206.556 44.5502L189.778 71.7205C188.1 74.4384 184.147 74.4384 182.469 71.7205L165.687 44.5435C165.016 43.4568 164.922 42.1098 165.435 40.9403C166.69 38.079 170.638 37.7937 172.291 40.4448L184.423 59.8937Z" stroke="white" stroke-opacity="0.5" stroke-width="4.00872"/>
<path d="M202.176 52.0454L203.859 49.3462L205.567 52.0301L217.898 71.4074C219.508 73.936 223.278 73.6782 224.528 70.9541C225.056 69.8038 224.973 68.4658 224.309 67.3889L207.531 40.2186C205.853 37.5007 201.9 37.5007 200.222 40.2186L183.44 67.3956C182.769 68.4823 182.675 69.8293 183.188 70.9988C184.443 73.8601 188.391 74.1453 190.044 71.4943L202.176 52.0454Z" stroke="#59DBAE" stroke-width="4.00872"/>
<path d="M135.247 108.7C134.218 108.7 133.31 108.573 132.521 108.319C131.733 108.052 131.065 107.658 130.517 107.137C129.982 106.616 129.575 105.968 129.294 105.193C129.027 104.404 128.893 103.496 128.893 102.467V96.0327C128.893 95.418 129.054 94.957 129.374 94.6496C129.695 94.3289 130.149 94.1686 130.737 94.1686C131.339 94.1686 131.793 94.3289 132.1 94.6496C132.421 94.957 132.581 95.418 132.581 96.0327V102.507C132.581 103.536 132.809 104.311 133.263 104.832C133.717 105.353 134.379 105.614 135.247 105.614C136.102 105.614 136.757 105.353 137.211 104.832C137.666 104.311 137.893 103.536 137.893 102.507V96.0327C137.893 95.418 138.047 94.957 138.354 94.6496C138.675 94.3289 139.129 94.1686 139.717 94.1686C140.305 94.1686 140.752 94.3289 141.06 94.6496C141.367 94.957 141.521 95.418 141.521 96.0327V102.467C141.521 103.843 141.28 104.999 140.799 105.934C140.332 106.856 139.63 107.551 138.695 108.019C137.759 108.473 136.61 108.7 135.247 108.7ZM153.571 108.66C152.983 108.66 152.528 108.5 152.208 108.179C151.887 107.845 151.727 107.384 151.727 106.796V96.213C151.727 95.6117 151.887 95.1507 152.208 94.83C152.542 94.5093 153.003 94.349 153.591 94.349H158.521C160.125 94.349 161.361 94.7632 162.229 95.5917C163.111 96.4068 163.552 97.5359 163.552 98.9791C163.552 100.422 163.111 101.558 162.229 102.386C161.361 103.202 160.125 103.609 158.521 103.609H155.415V106.796C155.415 107.384 155.261 107.845 154.954 108.179C154.646 108.5 154.185 108.66 153.571 108.66ZM155.415 100.783H157.88C158.575 100.783 159.109 100.636 159.483 100.342C159.858 100.035 160.045 99.5804 160.045 98.9791C160.045 98.3644 159.858 97.9101 159.483 97.6161C159.109 97.3221 158.575 97.1751 157.88 97.1751H155.415V100.783Z" fill="#59DBAE"/>
<path d="M173.807 108.48C173.513 108.48 173.285 108.406 173.125 108.259C172.978 108.099 172.905 107.872 172.905 107.578V95.251C172.905 94.957 172.978 94.7365 173.125 94.5895C173.285 94.4292 173.513 94.349 173.807 94.349H177.675C179.96 94.349 181.724 94.9503 182.966 96.1529C184.209 97.3555 184.83 99.106 184.83 101.404C184.83 102.554 184.67 103.569 184.349 104.451C184.042 105.32 183.581 106.054 182.966 106.656C182.352 107.257 181.603 107.711 180.722 108.019C179.84 108.326 178.824 108.48 177.675 108.48H173.807ZM174.548 107.077H177.555C178.49 107.077 179.298 106.956 179.98 106.716C180.675 106.475 181.249 106.121 181.704 105.654C182.171 105.186 182.519 104.598 182.746 103.89C182.973 103.168 183.087 102.34 183.087 101.404C183.087 99.5202 182.626 98.1105 181.704 97.1751C180.782 96.2264 179.399 95.752 177.555 95.752H174.548V107.077ZM200.885 108.66C199.576 108.66 198.433 108.366 197.458 107.778C196.496 107.177 195.748 106.335 195.213 105.253C194.692 104.17 194.431 102.888 194.431 101.404C194.431 100.282 194.578 99.2797 194.872 98.3978C195.18 97.5025 195.614 96.7475 196.175 96.1329C196.736 95.5048 197.411 95.0238 198.2 94.6897C199.001 94.3423 199.897 94.1686 200.885 94.1686C202.222 94.1686 203.371 94.4626 204.333 95.0505C205.308 95.6385 206.057 96.4736 206.578 97.556C207.112 98.625 207.38 99.9011 207.38 101.384C207.38 102.507 207.226 103.516 206.919 104.411C206.611 105.306 206.177 106.068 205.616 106.696C205.054 107.324 204.373 107.812 203.571 108.159C202.783 108.493 201.888 108.66 200.885 108.66ZM200.885 107.197C201.901 107.197 202.756 106.97 203.451 106.515C204.159 106.061 204.7 105.4 205.075 104.531C205.449 103.663 205.636 102.62 205.636 101.404C205.636 99.5737 205.222 98.1573 204.393 97.1551C203.578 96.1396 202.409 95.6318 200.885 95.6318C199.897 95.6318 199.048 95.8589 198.34 96.3133C197.645 96.7676 197.111 97.429 196.736 98.2976C196.362 99.1528 196.175 100.188 196.175 101.404C196.175 103.222 196.589 104.645 197.418 105.674C198.246 106.689 199.402 107.197 200.885 107.197ZM222.02 108.62C221.779 108.62 221.585 108.56 221.438 108.44C221.291 108.306 221.171 108.112 221.078 107.858L216.648 95.2109C216.554 94.9303 216.575 94.6964 216.708 94.5093C216.855 94.3089 217.082 94.2087 217.39 94.2087C217.617 94.2087 217.797 94.2688 217.931 94.3891C218.064 94.496 218.178 94.6697 218.272 94.9102L222.421 107.077H221.719L225.948 94.9703C226.042 94.7165 226.155 94.5294 226.289 94.4091C226.423 94.2755 226.603 94.2087 226.83 94.2087C227.044 94.2087 227.211 94.2755 227.331 94.4091C227.465 94.5294 227.578 94.7165 227.672 94.9703L231.841 107.077H231.22L235.409 94.9102C235.476 94.6831 235.576 94.5093 235.709 94.3891C235.856 94.2688 236.044 94.2087 236.271 94.2087C236.551 94.2087 236.758 94.3022 236.892 94.4893C237.026 94.6764 237.039 94.9169 236.932 95.2109L232.482 107.858C232.389 108.112 232.269 108.306 232.122 108.44C231.988 108.56 231.794 108.62 231.54 108.62C231.3 108.62 231.106 108.56 230.959 108.44C230.826 108.306 230.705 108.112 230.598 107.858L226.57 96.2531H227.011L222.942 107.858C222.848 108.112 222.735 108.306 222.601 108.44C222.467 108.56 222.274 108.62 222.02 108.62ZM247.503 108.62C247.249 108.62 247.055 108.553 246.922 108.42C246.788 108.273 246.721 108.066 246.721 107.798V95.0505C246.721 94.7833 246.788 94.5762 246.922 94.4292C247.055 94.2822 247.229 94.2087 247.443 94.2087C247.657 94.2087 247.81 94.2488 247.904 94.329C248.011 94.3958 248.131 94.5227 248.265 94.7098L257.004 106.355H256.523V95.0104C256.523 94.7565 256.59 94.5628 256.723 94.4292C256.857 94.2822 257.051 94.2087 257.304 94.2087C257.545 94.2087 257.725 94.2822 257.846 94.4292C257.979 94.5628 258.046 94.7565 258.046 95.0104V107.818C258.046 108.072 257.986 108.273 257.866 108.42C257.759 108.553 257.598 108.62 257.385 108.62C257.184 108.62 257.024 108.58 256.904 108.5C256.783 108.42 256.656 108.293 256.523 108.119L247.804 96.4736H248.265V107.798C248.265 108.066 248.198 108.273 248.064 108.42C247.931 108.553 247.744 108.62 247.503 108.62Z" fill="#F5F4F4"/>
<rect width="390" height="70" transform="translate(0 774)" fill="#00303F"/>
<path d="M78 826.5V814.147H85V826.5H93.75V810.029H99L81.5 791.5L64 810.029H69.25V826.5H78Z" fill="white" fill-opacity="0.25"/>
<path d="M179 802H186.5V826.5H179V802ZM193 791.5H200V826.5H193V791.5ZM207 811.5H214V826.5H207V811.5Z" fill="white" fill-opacity="0.25"/>
<path d="M310 788C315.744 788 320.562 792.092 321.754 797.574L317.844 798.426C317.035 794.708 313.856 792 310 792C305.448 792 302 795.448 302 800V802H322C324.2 802 326 803.8 326 806V826C326 828.2 324.2 830 322 830H298C295.8 830 294 828.2 294 826V806C294 803.8 295.8 802 298 802V800C298 793.352 303.352 788 310 788ZM310 812C307.8 812 306 813.8 306 816C306 818.2 307.8 820 310 820C312.2 820 314 818.2 314 816C314 813.8 312.2 812 310 812Z" fill="#59DBAE"/>
<rect x="24" y="208" width="342" height="43" rx="5" fill="#00303F"/>
<path d="M85.996 235.144C85.5267 235.144 85.164 235.016 84.908 234.76C84.652 234.493 84.524 234.125 84.524 233.656V225.208C84.524 224.728 84.652 224.36 84.908 224.104C85.1747 223.848 85.5427 223.72 86.012 223.72H89.948C91.228 223.72 92.2147 224.035 92.908 224.664C93.612 225.283 93.964 226.147 93.964 227.256C93.964 227.971 93.804 228.595 93.484 229.128C93.1747 229.651 92.7213 230.056 92.124 230.344C91.5373 230.621 90.812 230.76 89.948 230.76L90.076 230.472H90.844C91.3027 230.472 91.708 230.584 92.06 230.808C92.412 231.021 92.7053 231.352 92.94 231.8L93.74 233.24C93.9107 233.549 93.9907 233.853 93.98 234.152C93.9693 234.44 93.852 234.68 93.628 234.872C93.4147 235.053 93.1 235.144 92.684 235.144C92.268 235.144 91.9267 235.059 91.66 234.888C91.404 234.717 91.1747 234.451 90.972 234.088L89.516 231.416C89.388 231.181 89.2227 231.021 89.02 230.936C88.828 230.84 88.604 230.792 88.348 230.792H87.468V233.656C87.468 234.125 87.3453 234.493 87.1 234.76C86.8547 235.016 86.4867 235.144 85.996 235.144ZM87.468 228.712H89.42C89.9853 228.712 90.4173 228.6 90.716 228.376C91.0147 228.152 91.164 227.805 91.164 227.336C91.164 226.888 91.0147 226.552 90.716 226.328C90.4173 226.093 89.9853 225.976 89.42 225.976H87.468V228.712ZM97.3569 235C96.8555 235 96.4715 234.872 96.2049 234.616C95.9489 234.349 95.8209 233.971 95.8209 233.48V225.24C95.8209 224.749 95.9489 224.376 96.2049 224.12C96.4715 223.853 96.8555 223.72 97.3569 223.72H102.781C103.165 223.72 103.453 223.816 103.645 224.008C103.837 224.2 103.933 224.477 103.933 224.84C103.933 225.213 103.837 225.501 103.645 225.704C103.453 225.896 103.165 225.992 102.781 225.992H98.6369V228.136H102.429C102.802 228.136 103.085 228.232 103.277 228.424C103.48 228.616 103.581 228.899 103.581 229.272C103.581 229.645 103.48 229.928 103.277 230.12C103.085 230.312 102.802 230.408 102.429 230.408H98.6369V232.728H102.781C103.165 232.728 103.453 232.829 103.645 233.032C103.837 233.224 103.933 233.501 103.933 233.864C103.933 234.237 103.837 234.52 103.645 234.712C103.453 234.904 103.165 235 102.781 235H97.3569ZM115.952 236.424C116.144 236.744 116.214 237.032 116.16 237.288C116.107 237.555 115.974 237.779 115.76 237.96C115.558 238.141 115.312 238.259 115.024 238.312C114.747 238.365 114.47 238.339 114.192 238.232C113.915 238.125 113.686 237.923 113.504 237.624L112.32 235.72C112.203 235.528 112.048 235.389 111.856 235.304C111.664 235.219 111.414 235.176 111.104 235.176L113.296 234.36C113.776 234.36 114.182 234.451 114.512 234.632C114.843 234.803 115.126 235.085 115.36 235.48L115.952 236.424ZM111.12 235.176C109.979 235.176 108.976 234.936 108.112 234.456C107.248 233.965 106.576 233.283 106.096 232.408C105.627 231.533 105.392 230.515 105.392 229.352C105.392 228.477 105.526 227.683 105.792 226.968C106.07 226.253 106.459 225.64 106.96 225.128C107.472 224.616 108.08 224.227 108.784 223.96C109.488 223.683 110.267 223.544 111.12 223.544C112.262 223.544 113.259 223.784 114.112 224.264C114.976 224.744 115.648 225.421 116.128 226.296C116.608 227.16 116.848 228.179 116.848 229.352C116.848 230.227 116.71 231.021 116.432 231.736C116.166 232.451 115.776 233.069 115.264 233.592C114.763 234.104 114.16 234.499 113.456 234.776C112.752 235.043 111.974 235.176 111.12 235.176ZM111.12 232.712C111.686 232.712 112.166 232.579 112.56 232.312C112.955 232.045 113.259 231.661 113.472 231.16C113.686 230.659 113.792 230.056 113.792 229.352C113.792 228.296 113.558 227.475 113.088 226.888C112.619 226.301 111.963 226.008 111.12 226.008C110.566 226.008 110.086 226.141 109.68 226.408C109.286 226.664 108.982 227.043 108.768 227.544C108.555 228.035 108.448 228.637 108.448 229.352C108.448 230.408 108.683 231.235 109.152 231.832C109.622 232.419 110.278 232.712 111.12 232.712ZM123.579 235.176C122.757 235.176 122.032 235.075 121.403 234.872C120.773 234.659 120.24 234.344 119.803 233.928C119.376 233.512 119.051 232.995 118.827 232.376C118.613 231.747 118.507 231.021 118.507 230.2V225.064C118.507 224.573 118.635 224.205 118.891 223.96C119.147 223.704 119.509 223.576 119.979 223.576C120.459 223.576 120.821 223.704 121.067 223.96C121.323 224.205 121.451 224.573 121.451 225.064V230.232C121.451 231.053 121.632 231.672 121.995 232.088C122.357 232.504 122.885 232.712 123.579 232.712C124.261 232.712 124.784 232.504 125.147 232.088C125.509 231.672 125.691 231.053 125.691 230.232V225.064C125.691 224.573 125.813 224.205 126.059 223.96C126.315 223.704 126.677 223.576 127.147 223.576C127.616 223.576 127.973 223.704 128.219 223.96C128.464 224.205 128.587 224.573 128.587 225.064V230.2C128.587 231.299 128.395 232.221 128.011 232.968C127.637 233.704 127.077 234.259 126.331 234.632C125.584 234.995 124.667 235.176 123.579 235.176ZM132.091 235C131.59 235 131.206 234.872 130.939 234.616C130.683 234.349 130.555 233.971 130.555 233.48V225.24C130.555 224.749 130.683 224.376 130.939 224.12C131.206 223.853 131.59 223.72 132.091 223.72H137.515C137.899 223.72 138.187 223.816 138.379 224.008C138.571 224.2 138.667 224.477 138.667 224.84C138.667 225.213 138.571 225.501 138.379 225.704C138.187 225.896 137.899 225.992 137.515 225.992H133.371V228.136H137.163C137.537 228.136 137.819 228.232 138.011 228.424C138.214 228.616 138.315 228.899 138.315 229.272C138.315 229.645 138.214 229.928 138.011 230.12C137.819 230.312 137.537 230.408 137.163 230.408H133.371V232.728H137.515C137.899 232.728 138.187 232.829 138.379 233.032C138.571 233.224 138.667 233.501 138.667 233.864C138.667 234.237 138.571 234.52 138.379 234.712C138.187 234.904 137.899 235 137.515 235H132.091ZM144.419 235.176C143.992 235.176 143.544 235.144 143.075 235.08C142.616 235.027 142.179 234.941 141.763 234.824C141.347 234.707 140.974 234.568 140.643 234.408C140.355 234.269 140.152 234.088 140.035 233.864C139.918 233.629 139.875 233.384 139.907 233.128C139.939 232.872 140.03 232.648 140.179 232.456C140.328 232.253 140.526 232.12 140.771 232.056C141.016 231.981 141.294 232.013 141.603 232.152C142.008 232.344 142.467 232.493 142.979 232.6C143.491 232.707 143.971 232.76 144.419 232.76C145.123 232.76 145.614 232.669 145.891 232.488C146.179 232.296 146.323 232.061 146.323 231.784C146.323 231.539 146.222 231.341 146.019 231.192C145.827 231.043 145.48 230.915 144.979 230.808L143.107 230.408C142.083 230.195 141.32 229.821 140.819 229.288C140.318 228.755 140.067 228.067 140.067 227.224C140.067 226.669 140.179 226.168 140.403 225.72C140.638 225.261 140.963 224.872 141.379 224.552C141.806 224.232 142.307 223.987 142.883 223.816C143.47 223.635 144.12 223.544 144.835 223.544C145.39 223.544 145.95 223.608 146.515 223.736C147.091 223.853 147.587 224.035 148.003 224.28C148.248 224.408 148.424 224.584 148.531 224.808C148.638 225.032 148.68 225.267 148.659 225.512C148.638 225.747 148.552 225.955 148.403 226.136C148.264 226.317 148.072 226.44 147.827 226.504C147.592 226.557 147.31 226.515 146.979 226.376C146.67 226.237 146.318 226.136 145.923 226.072C145.539 225.997 145.166 225.96 144.803 225.96C144.408 225.96 144.072 226.008 143.795 226.104C143.518 226.189 143.304 226.317 143.155 226.488C143.016 226.659 142.947 226.856 142.947 227.08C142.947 227.304 143.038 227.496 143.219 227.656C143.411 227.805 143.758 227.933 144.259 228.04L146.115 228.44C147.15 228.664 147.923 229.032 148.435 229.544C148.947 230.056 149.203 230.723 149.203 231.544C149.203 232.099 149.091 232.6 148.867 233.048C148.643 233.496 148.323 233.88 147.907 234.2C147.491 234.509 146.99 234.749 146.403 234.92C145.816 235.091 145.155 235.176 144.419 235.176ZM154.543 235.144C154.073 235.144 153.711 235.016 153.455 234.76C153.199 234.493 153.071 234.125 153.071 233.656V226.12H150.559C150.164 226.12 149.86 226.019 149.647 225.816C149.444 225.603 149.343 225.304 149.343 224.92C149.343 224.525 149.444 224.227 149.647 224.024C149.86 223.821 150.164 223.72 150.559 223.72H158.527C158.921 223.72 159.22 223.821 159.423 224.024C159.636 224.227 159.743 224.525 159.743 224.92C159.743 225.304 159.636 225.603 159.423 225.816C159.22 226.019 158.921 226.12 158.527 226.12H156.015V233.656C156.015 234.125 155.892 234.493 155.647 234.76C155.401 235.016 155.033 235.144 154.543 235.144ZM166.666 235.144C166.218 235.144 165.876 235.027 165.642 234.792C165.407 234.557 165.29 234.211 165.29 233.752V225.032C165.29 224.563 165.407 224.205 165.642 223.96C165.876 223.704 166.186 223.576 166.57 223.576C166.911 223.576 167.178 223.64 167.37 223.768C167.562 223.896 167.775 224.109 168.01 224.408L173.082 230.744H172.634V224.952C172.634 224.504 172.746 224.163 172.97 223.928C173.204 223.693 173.546 223.576 173.994 223.576C174.442 223.576 174.778 223.693 175.002 223.928C175.236 224.163 175.354 224.504 175.354 224.952V233.816C175.354 234.221 175.247 234.547 175.034 234.792C174.82 235.027 174.532 235.144 174.17 235.144C173.807 235.144 173.519 235.08 173.306 234.952C173.103 234.813 172.884 234.6 172.65 234.312L167.578 227.96H168.026V233.752C168.026 234.211 167.908 234.557 167.674 234.792C167.45 235.027 167.114 235.144 166.666 235.144ZM178.951 235C178.449 235 178.065 234.872 177.799 234.616C177.543 234.349 177.415 233.971 177.415 233.48V225.24C177.415 224.749 177.543 224.376 177.799 224.12C178.065 223.853 178.449 223.72 178.951 223.72H184.375C184.759 223.72 185.047 223.816 185.239 224.008C185.431 224.2 185.527 224.477 185.527 224.84C185.527 225.213 185.431 225.501 185.239 225.704C185.047 225.896 184.759 225.992 184.375 225.992H180.231V228.136H184.023C184.396 228.136 184.679 228.232 184.871 228.424C185.073 228.616 185.175 228.899 185.175 229.272C185.175 229.645 185.073 229.928 184.871 230.12C184.679 230.312 184.396 230.408 184.023 230.408H180.231V232.728H184.375C184.759 232.728 185.047 232.829 185.239 233.032C185.431 233.224 185.527 233.501 185.527 233.864C185.527 234.237 185.431 234.52 185.239 234.712C185.047 234.904 184.759 235 184.375 235H178.951ZM191.658 235.144C191.263 235.144 190.943 235.053 190.698 234.872C190.453 234.68 190.261 234.387 190.122 233.992L187.002 225.304C186.831 224.824 186.858 224.419 187.082 224.088C187.317 223.747 187.727 223.576 188.314 223.576C188.709 223.576 189.018 223.672 189.242 223.864C189.466 224.045 189.642 224.333 189.77 224.728L192.154 231.88H191.402L193.962 224.728C194.111 224.333 194.298 224.045 194.522 223.864C194.746 223.672 195.034 223.576 195.386 223.576C195.738 223.576 196.021 223.672 196.234 223.864C196.447 224.045 196.623 224.339 196.762 224.744L199.162 231.88H198.522L200.97 224.728C201.098 224.333 201.269 224.045 201.482 223.864C201.706 223.672 202.015 223.576 202.41 223.576C202.901 223.576 203.258 223.747 203.482 224.088C203.717 224.419 203.743 224.824 203.562 225.304L200.41 234.008C200.271 234.392 200.079 234.68 199.834 234.872C199.599 235.053 199.285 235.144 198.89 235.144C198.485 235.144 198.159 235.053 197.914 234.872C197.679 234.68 197.493 234.387 197.354 233.992L195.098 227.656H195.498L193.194 234.008C193.045 234.392 192.853 234.68 192.618 234.872C192.383 235.053 192.063 235.144 191.658 235.144ZM211.371 235.144C210.902 235.144 210.539 235.016 210.283 234.76C210.027 234.493 209.899 234.125 209.899 233.656V225.208C209.899 224.728 210.027 224.36 210.283 224.104C210.55 223.848 210.918 223.72 211.387 223.72H215.323C216.603 223.72 217.59 224.051 218.283 224.712C218.987 225.363 219.339 226.264 219.339 227.416C219.339 228.568 218.987 229.475 218.283 230.136C217.59 230.787 216.603 231.112 215.323 231.112H212.843V233.656C212.843 234.125 212.72 234.493 212.475 234.76C212.23 235.016 211.862 235.144 211.371 235.144ZM212.843 228.856H214.811C215.366 228.856 215.792 228.739 216.091 228.504C216.39 228.259 216.539 227.896 216.539 227.416C216.539 226.925 216.39 226.563 216.091 226.328C215.792 226.093 215.366 225.976 214.811 225.976H212.843V228.856ZM220.052 235.144C219.721 235.144 219.444 235.069 219.22 234.92C218.996 234.76 218.857 234.547 218.804 234.28C218.751 234.003 218.799 233.693 218.948 233.352L222.932 224.776C223.124 224.36 223.359 224.056 223.636 223.864C223.924 223.672 224.249 223.576 224.612 223.576C224.975 223.576 225.289 223.672 225.556 223.864C225.833 224.056 226.073 224.36 226.276 224.776L230.26 233.352C230.431 233.693 230.489 234.003 230.436 234.28C230.393 234.557 230.26 234.771 230.036 234.92C229.823 235.069 229.556 235.144 229.236 235.144C228.809 235.144 228.479 235.048 228.244 234.856C228.02 234.664 227.817 234.355 227.636 233.928L226.772 231.896L227.892 232.712H221.3L222.436 231.896L221.572 233.928C221.38 234.355 221.183 234.664 220.98 234.856C220.777 235.048 220.468 235.144 220.052 235.144ZM224.58 226.792L222.724 231.224L222.276 230.456H226.932L226.484 231.224L224.612 226.792H224.58ZM235.779 235.176C235.352 235.176 234.904 235.144 234.435 235.08C233.976 235.027 233.539 234.941 233.123 234.824C232.707 234.707 232.333 234.568 232.003 234.408C231.715 234.269 231.512 234.088 231.395 233.864C231.277 233.629 231.235 233.384 231.267 233.128C231.299 232.872 231.389 232.648 231.539 232.456C231.688 232.253 231.885 232.12 232.131 232.056C232.376 231.981 232.653 232.013 232.963 232.152C233.368 232.344 233.827 232.493 234.339 232.6C234.851 232.707 235.331 232.76 235.779 232.76C236.483 232.76 236.973 232.669 237.251 232.488C237.539 232.296 237.683 232.061 237.683 231.784C237.683 231.539 237.581 231.341 237.379 231.192C237.187 231.043 236.84 230.915 236.339 230.808L234.467 230.408C233.443 230.195 232.68 229.821 232.179 229.288C231.677 228.755 231.427 228.067 231.427 227.224C231.427 226.669 231.539 226.168 231.763 225.72C231.997 225.261 232.323 224.872 232.739 224.552C233.165 224.232 233.667 223.987 234.243 223.816C234.829 223.635 235.48 223.544 236.195 223.544C236.749 223.544 237.309 223.608 237.875 223.736C238.451 223.853 238.947 224.035 239.363 224.28C239.608 224.408 239.784 224.584 239.891 224.808C239.997 225.032 240.04 225.267 240.019 225.512C239.997 225.747 239.912 225.955 239.763 226.136C239.624 226.317 239.432 226.44 239.187 226.504C238.952 226.557 238.669 226.515 238.339 226.376C238.029 226.237 237.677 226.136 237.283 226.072C236.899 225.997 236.525 225.96 236.163 225.96C235.768 225.96 235.432 226.008 235.155 226.104C234.877 226.189 234.664 226.317 234.515 226.488C234.376 226.659 234.307 226.856 234.307 227.08C234.307 227.304 234.397 227.496 234.579 227.656C234.771 227.805 235.117 227.933 235.619 228.04L237.475 228.44C238.509 228.664 239.283 229.032 239.795 229.544C240.307 230.056 240.562 230.723 240.562 231.544C240.562 232.099 240.451 232.6 240.227 233.048C240.003 233.496 239.683 233.88 239.267 234.2C238.851 234.509 238.349 234.749 237.763 234.92C237.176 235.091 236.515 235.176 235.779 235.176ZM246.2 235.176C245.774 235.176 245.326 235.144 244.856 235.08C244.398 235.027 243.96 234.941 243.544 234.824C243.128 234.707 242.755 234.568 242.424 234.408C242.136 234.269 241.934 234.088 241.816 233.864C241.699 233.629 241.656 233.384 241.688 233.128C241.72 232.872 241.811 232.648 241.96 232.456C242.11 232.253 242.307 232.12 242.552 232.056C242.798 231.981 243.075 232.013 243.384 232.152C243.79 232.344 244.248 232.493 244.76 232.6C245.272 232.707 245.752 232.76 246.2 232.76C246.904 232.76 247.395 232.669 247.672 232.488C247.96 232.296 248.104 232.061 248.104 231.784C248.104 231.539 248.003 231.341 247.8 231.192C247.608 231.043 247.262 230.915 246.76 230.808L244.888 230.408C243.864 230.195 243.102 229.821 242.6 229.288C242.099 228.755 241.848 228.067 241.848 227.224C241.848 226.669 241.96 226.168 242.184 225.72C242.419 225.261 242.744 224.872 243.16 224.552C243.587 224.232 244.088 223.987 244.664 223.816C245.251 223.635 245.902 223.544 246.616 223.544C247.171 223.544 247.731 223.608 248.296 223.736C248.872 223.853 249.368 224.035 249.784 224.28C250.03 224.408 250.206 224.584 250.312 224.808C250.419 225.032 250.462 225.267 250.44 225.512C250.419 225.747 250.334 225.955 250.184 226.136C250.046 226.317 249.854 226.44 249.608 226.504C249.374 226.557 249.091 226.515 248.76 226.376C248.451 226.237 248.099 226.136 247.704 226.072C247.32 225.997 246.947 225.96 246.584 225.96C246.19 225.96 245.854 226.008 245.576 226.104C245.299 226.189 245.086 226.317 244.936 226.488C244.798 226.659 244.728 226.856 244.728 227.08C244.728 227.304 244.819 227.496 245 227.656C245.192 227.805 245.539 227.933 246.04 228.04L247.896 228.44C248.931 228.664 249.704 229.032 250.216 229.544C250.728 230.056 250.984 230.723 250.984 231.544C250.984 232.099 250.872 232.6 250.648 233.048C250.424 233.496 250.104 233.88 249.688 234.2C249.272 234.509 248.771 234.749 248.184 234.92C247.598 235.091 246.936 235.176 246.2 235.176ZM256.596 235.144C256.201 235.144 255.881 235.053 255.636 234.872C255.39 234.68 255.198 234.387 255.06 233.992L251.94 225.304C251.769 224.824 251.796 224.419 252.02 224.088C252.254 223.747 252.665 223.576 253.252 223.576C253.646 223.576 253.956 223.672 254.18 223.864C254.404 224.045 254.58 224.333 254.708 224.728L257.092 231.88H256.34L258.9 224.728C259.049 224.333 259.236 224.045 259.46 223.864C259.684 223.672 259.972 223.576 260.324 223.576C260.676 223.576 260.958 223.672 261.172 223.864C261.385 224.045 261.561 224.339 261.7 224.744L264.1 231.88H263.46L265.908 224.728C266.036 224.333 266.206 224.045 266.42 223.864C266.644 223.672 266.953 223.576 267.347 223.576C267.838 223.576 268.196 223.747 268.42 224.088C268.654 224.419 268.681 224.824 268.5 225.304L265.348 234.008C265.209 234.392 265.017 234.68 264.772 234.872C264.537 235.053 264.222 235.144 263.828 235.144C263.422 235.144 263.097 235.053 262.852 234.872C262.617 234.68 262.43 234.387 262.292 233.992L260.036 227.656H260.436L258.132 234.008C257.982 234.392 257.79 234.68 257.556 234.872C257.321 235.053 257.001 235.144 256.596 235.144ZM275.402 235.176C274.26 235.176 273.258 234.936 272.394 234.456C271.53 233.965 270.858 233.283 270.378 232.408C269.908 231.533 269.674 230.515 269.674 229.352C269.674 228.477 269.807 227.683 270.074 226.968C270.351 226.253 270.74 225.64 271.242 225.128C271.754 224.616 272.362 224.227 273.066 223.96C273.77 223.683 274.548 223.544 275.402 223.544C276.543 223.544 277.54 223.784 278.394 224.264C279.258 224.744 279.93 225.421 280.41 226.296C280.89 227.16 281.13 228.179 281.13 229.352C281.13 230.227 280.991 231.021 280.714 231.736C280.447 232.451 280.058 233.069 279.546 233.592C279.044 234.104 278.442 234.499 277.738 234.776C277.034 235.043 276.255 235.176 275.402 235.176ZM275.402 232.712C275.967 232.712 276.447 232.579 276.842 232.312C277.236 232.045 277.54 231.661 277.753 231.16C277.967 230.659 278.074 230.056 278.074 229.352C278.074 228.296 277.839 227.475 277.37 226.888C276.9 226.301 276.244 226.008 275.402 226.008C274.847 226.008 274.367 226.141 273.962 226.408C273.567 226.664 273.263 227.043 273.049 227.544C272.836 228.035 272.73 228.637 272.73 229.352C272.73 230.408 272.964 231.235 273.434 231.832C273.903 232.419 274.559 232.712 275.402 232.712ZM284.34 235.144C283.87 235.144 283.508 235.016 283.252 234.76C282.996 234.493 282.868 234.125 282.868 233.656V225.208C282.868 224.728 282.996 224.36 283.252 224.104C283.518 223.848 283.886 223.72 284.356 223.72H288.292C289.572 223.72 290.558 224.035 291.252 224.664C291.956 225.283 292.308 226.147 292.308 227.256C292.308 227.971 292.148 228.595 291.828 229.128C291.518 229.651 291.065 230.056 290.468 230.344C289.881 230.621 289.156 230.76 288.292 230.76L288.42 230.472H289.188C289.646 230.472 290.052 230.584 290.404 230.808C290.756 231.021 291.049 231.352 291.284 231.8L292.084 233.24C292.254 233.549 292.334 233.853 292.324 234.152C292.313 234.44 292.196 234.68 291.972 234.872C291.758 235.053 291.444 235.144 291.028 235.144C290.612 235.144 290.27 235.059 290.004 234.888C289.748 234.717 289.518 234.451 289.316 234.088L287.86 231.416C287.732 231.181 287.566 231.021 287.364 230.936C287.172 230.84 286.948 230.792 286.692 230.792H285.812V233.656C285.812 234.125 285.689 234.493 285.444 234.76C285.198 235.016 284.83 235.144 284.34 235.144ZM285.812 228.712H287.764C288.329 228.712 288.761 228.6 289.06 228.376C289.358 228.152 289.508 227.805 289.508 227.336C289.508 226.888 289.358 226.552 289.06 226.328C288.761 226.093 288.329 225.976 287.764 225.976H285.812V228.712ZM295.701 235C295.199 235 294.815 234.872 294.549 234.616C294.293 234.349 294.165 233.971 294.165 233.48V225.24C294.165 224.749 294.293 224.376 294.549 224.12C294.815 223.853 295.199 223.72 295.701 223.72H298.837C300.799 223.72 302.314 224.211 303.381 225.192C304.458 226.173 304.997 227.56 304.997 229.352C304.997 230.248 304.858 231.048 304.581 231.752C304.303 232.445 303.903 233.037 303.381 233.528C302.858 234.008 302.213 234.376 301.445 234.632C300.687 234.877 299.818 235 298.837 235H295.701ZM297.109 232.616H298.645C299.21 232.616 299.695 232.547 300.101 232.408C300.517 232.269 300.858 232.067 301.125 231.8C301.402 231.533 301.605 231.197 301.733 230.792C301.871 230.387 301.941 229.907 301.941 229.352C301.941 228.243 301.669 227.427 301.125 226.904C300.581 226.371 299.754 226.104 298.645 226.104H297.109V232.616Z" fill="white"/>
<rect x="24.5" y="299.5" width="341" height="86" rx="4.5" fill="white"/>
<path d="M144.109 328.108C143.205 328.108 142.437 327.936 141.805 327.592C141.181 327.24 140.705 326.74 140.377 326.092C140.057 325.444 139.897 324.672 139.897 323.776C139.897 323.104 139.989 322.504 140.173 321.976C140.357 321.44 140.625 320.984 140.977 320.608C141.337 320.224 141.769 319.932 142.273 319.732C142.785 319.532 143.361 319.432 144.001 319.432C144.497 319.432 144.977 319.5 145.441 319.636C145.905 319.764 146.329 319.976 146.713 320.272C146.809 320.344 146.869 320.428 146.893 320.524C146.925 320.62 146.929 320.716 146.905 320.812C146.881 320.908 146.833 320.992 146.761 321.064C146.697 321.136 146.613 321.18 146.509 321.196C146.413 321.204 146.309 321.172 146.197 321.1C145.869 320.86 145.525 320.688 145.165 320.584C144.813 320.48 144.425 320.428 144.001 320.428C143.369 320.428 142.833 320.56 142.393 320.824C141.953 321.08 141.621 321.46 141.397 321.964C141.181 322.46 141.073 323.064 141.073 323.776C141.073 324.872 141.329 325.704 141.841 326.272C142.361 326.84 143.129 327.124 144.145 327.124C144.521 327.124 144.885 327.088 145.237 327.016C145.597 326.944 145.941 326.844 146.269 326.716L146.029 327.316V324.424H144.397C144.253 324.424 144.137 324.384 144.049 324.304C143.969 324.224 143.929 324.116 143.929 323.98C143.929 323.844 143.969 323.74 144.049 323.668C144.137 323.596 144.253 323.56 144.397 323.56H146.521C146.665 323.56 146.777 323.6 146.857 323.68C146.945 323.76 146.989 323.876 146.989 324.028V327.112C146.989 327.24 146.965 327.352 146.917 327.448C146.869 327.536 146.789 327.6 146.677 327.64C146.341 327.776 145.941 327.888 145.477 327.976C145.013 328.064 144.557 328.108 144.109 328.108ZM152.324 328.108C151.764 328.108 151.268 328.036 150.836 327.892C150.412 327.74 150.056 327.52 149.768 327.232C149.48 326.936 149.26 326.572 149.108 326.14C148.964 325.7 148.892 325.192 148.892 324.616V320.02C148.892 319.828 148.94 319.688 149.036 319.6C149.132 319.504 149.268 319.456 149.444 319.456C149.628 319.456 149.768 319.504 149.864 319.6C149.96 319.688 150.008 319.828 150.008 320.02V324.58C150.008 325.436 150.204 326.076 150.596 326.5C150.988 326.916 151.564 327.124 152.324 327.124C153.084 327.124 153.66 326.916 154.052 326.5C154.444 326.076 154.64 325.436 154.64 324.58V320.02C154.64 319.828 154.688 319.688 154.784 319.6C154.88 319.504 155.016 319.456 155.192 319.456C155.368 319.456 155.504 319.504 155.6 319.6C155.696 319.688 155.744 319.828 155.744 320.02V324.616C155.744 325.376 155.612 326.016 155.348 326.536C155.092 327.056 154.708 327.448 154.196 327.712C153.692 327.976 153.068 328.108 152.324 328.108ZM158.329 328C158.137 328 157.989 327.948 157.885 327.844C157.781 327.74 157.729 327.592 157.729 327.4V320.14C157.729 319.948 157.781 319.8 157.885 319.696C157.989 319.592 158.137 319.54 158.329 319.54H162.745C162.897 319.54 163.013 319.58 163.093 319.66C163.181 319.732 163.225 319.84 163.225 319.984C163.225 320.136 163.181 320.252 163.093 320.332C163.013 320.412 162.897 320.452 162.745 320.452H158.809V323.248H162.493C162.645 323.248 162.761 323.288 162.841 323.368C162.921 323.448 162.961 323.56 162.961 323.704C162.961 323.856 162.921 323.972 162.841 324.052C162.761 324.124 162.645 324.16 162.493 324.16H158.809V327.088H162.745C162.897 327.088 163.013 327.128 163.093 327.208C163.181 327.28 163.225 327.392 163.225 327.544C163.225 327.696 163.181 327.812 163.093 327.892C163.013 327.964 162.897 328 162.745 328H158.329ZM167.415 328.108C167.039 328.108 166.675 328.076 166.323 328.012C165.971 327.956 165.639 327.868 165.327 327.748C165.015 327.628 164.735 327.48 164.487 327.304C164.383 327.232 164.307 327.144 164.259 327.04C164.219 326.936 164.207 326.836 164.223 326.74C164.247 326.636 164.291 326.548 164.355 326.476C164.427 326.404 164.511 326.36 164.607 326.344C164.703 326.328 164.807 326.36 164.919 326.44C165.287 326.688 165.671 326.868 166.071 326.98C166.479 327.092 166.927 327.148 167.415 327.148C168.119 327.148 168.635 327.02 168.963 326.764C169.299 326.508 169.467 326.172 169.467 325.756C169.467 325.412 169.347 325.144 169.107 324.952C168.867 324.752 168.463 324.596 167.895 324.484L166.623 324.22C165.871 324.06 165.307 323.796 164.931 323.428C164.563 323.06 164.379 322.568 164.379 321.952C164.379 321.576 164.455 321.236 164.607 320.932C164.759 320.62 164.975 320.352 165.255 320.128C165.535 319.904 165.863 319.732 166.239 319.612C166.623 319.492 167.047 319.432 167.511 319.432C168.007 319.432 168.471 319.5 168.903 319.636C169.343 319.772 169.739 319.972 170.091 320.236C170.187 320.308 170.251 320.396 170.283 320.5C170.315 320.596 170.319 320.692 170.295 320.788C170.279 320.884 170.235 320.964 170.163 321.028C170.099 321.092 170.015 321.128 169.911 321.136C169.815 321.144 169.707 321.108 169.587 321.028C169.267 320.804 168.939 320.644 168.603 320.548C168.267 320.444 167.899 320.392 167.499 320.392C167.091 320.392 166.735 320.456 166.431 320.584C166.135 320.712 165.903 320.892 165.735 321.124C165.575 321.348 165.495 321.612 165.495 321.916C165.495 322.284 165.607 322.572 165.831 322.78C166.055 322.988 166.431 323.148 166.959 323.26L168.219 323.512C169.019 323.68 169.611 323.94 169.995 324.292C170.387 324.636 170.583 325.1 170.583 325.684C170.583 326.052 170.507 326.384 170.355 326.68C170.211 326.976 170.003 327.232 169.731 327.448C169.459 327.656 169.127 327.82 168.735 327.94C168.343 328.052 167.903 328.108 167.415 328.108ZM174.513 328.084C174.329 328.084 174.189 328.036 174.093 327.94C173.997 327.836 173.949 327.692 173.949 327.508V320.488H171.321C171.169 320.488 171.049 320.448 170.961 320.368C170.873 320.28 170.829 320.16 170.829 320.008C170.829 319.856 170.873 319.74 170.961 319.66C171.049 319.58 171.169 319.54 171.321 319.54H177.693C177.853 319.54 177.973 319.58 178.053 319.66C178.141 319.74 178.185 319.856 178.185 320.008C178.185 320.16 178.141 320.28 178.053 320.368C177.973 320.448 177.853 320.488 177.693 320.488H175.065V327.508C175.065 327.692 175.017 327.836 174.921 327.94C174.833 328.036 174.697 328.084 174.513 328.084ZM182.855 328.084C182.679 328.084 182.543 328.036 182.447 327.94C182.351 327.836 182.303 327.692 182.303 327.508V320.104C182.303 319.92 182.351 319.78 182.447 319.684C182.551 319.588 182.691 319.54 182.867 319.54H185.723C186.635 319.54 187.335 319.764 187.823 320.212C188.319 320.66 188.567 321.288 188.567 322.096C188.567 322.912 188.319 323.544 187.823 323.992C187.335 324.44 186.635 324.664 185.723 324.664H183.419V327.508C183.419 327.692 183.371 327.836 183.275 327.94C183.187 328.036 183.047 328.084 182.855 328.084ZM183.419 323.764H185.579C186.203 323.764 186.671 323.624 186.983 323.344C187.303 323.056 187.463 322.64 187.463 322.096C187.463 321.552 187.303 321.144 186.983 320.872C186.671 320.592 186.203 320.452 185.579 320.452H183.419V323.764ZM188.957 328.084C188.813 328.084 188.697 328.052 188.609 327.988C188.529 327.924 188.481 327.836 188.465 327.724C188.449 327.612 188.473 327.488 188.537 327.352L191.813 319.936C191.885 319.768 191.977 319.648 192.089 319.576C192.201 319.496 192.325 319.456 192.461 319.456C192.597 319.456 192.717 319.496 192.821 319.576C192.933 319.648 193.029 319.768 193.109 319.936L196.385 327.352C196.449 327.488 196.473 327.616 196.457 327.736C196.449 327.848 196.405 327.936 196.325 328C196.245 328.056 196.133 328.084 195.989 328.084C195.829 328.084 195.701 328.044 195.605 327.964C195.509 327.876 195.425 327.752 195.353 327.592L194.501 325.6L195.017 325.888H189.881L190.397 325.6L189.545 327.592C189.473 327.768 189.393 327.896 189.305 327.976C189.217 328.048 189.101 328.084 188.957 328.084ZM192.437 320.8L190.565 325.228L190.277 324.976H194.621L194.345 325.228L192.461 320.8H192.437ZM200.567 328.108C200.191 328.108 199.827 328.076 199.475 328.012C199.123 327.956 198.791 327.868 198.479 327.748C198.167 327.628 197.887 327.48 197.639 327.304C197.535 327.232 197.459 327.144 197.411 327.04C197.371 326.936 197.359 326.836 197.375 326.74C197.399 326.636 197.443 326.548 197.507 326.476C197.579 326.404 197.663 326.36 197.759 326.344C197.855 326.328 197.959 326.36 198.071 326.44C198.439 326.688 198.823 326.868 199.223 326.98C199.631 327.092 200.079 327.148 200.567 327.148C201.271 327.148 201.787 327.02 202.115 326.764C202.451 326.508 202.619 326.172 202.619 325.756C202.619 325.412 202.499 325.144 202.259 324.952C202.019 324.752 201.615 324.596 201.047 324.484L199.775 324.22C199.023 324.06 198.459 323.796 198.083 323.428C197.715 323.06 197.531 322.568 197.531 321.952C197.531 321.576 197.607 321.236 197.759 320.932C197.911 320.62 198.127 320.352 198.407 320.128C198.687 319.904 199.015 319.732 199.391 319.612C199.775 319.492 200.199 319.432 200.663 319.432C201.159 319.432 201.623 319.5 202.055 319.636C202.495 319.772 202.891 319.972 203.243 320.236C203.339 320.308 203.403 320.396 203.435 320.5C203.467 320.596 203.471 320.692 203.447 320.788C203.431 320.884 203.387 320.964 203.315 321.028C203.251 321.092 203.167 321.128 203.063 321.136C202.967 321.144 202.859 321.108 202.739 321.028C202.419 320.804 202.091 320.644 201.755 320.548C201.419 320.444 201.051 320.392 200.651 320.392C200.243 320.392 199.887 320.456 199.583 320.584C199.287 320.712 199.055 320.892 198.887 321.124C198.727 321.348 198.647 321.612 198.647 321.916C198.647 322.284 198.759 322.572 198.983 322.78C199.207 322.988 199.583 323.148 200.111 323.26L201.371 323.512C202.171 323.68 202.763 323.94 203.147 324.292C203.539 324.636 203.735 325.1 203.735 325.684C203.735 326.052 203.659 326.384 203.507 326.68C203.363 326.976 203.155 327.232 202.883 327.448C202.611 327.656 202.279 327.82 201.887 327.94C201.495 328.052 201.055 328.108 200.567 328.108ZM207.985 328.108C207.609 328.108 207.245 328.076 206.893 328.012C206.541 327.956 206.209 327.868 205.897 327.748C205.585 327.628 205.305 327.48 205.057 327.304C204.953 327.232 204.877 327.144 204.829 327.04C204.789 326.936 204.777 326.836 204.793 326.74C204.817 326.636 204.861 326.548 204.925 326.476C204.997 326.404 205.081 326.36 205.177 326.344C205.273 326.328 205.377 326.36 205.489 326.44C205.857 326.688 206.241 326.868 206.641 326.98C207.049 327.092 207.497 327.148 207.985 327.148C208.689 327.148 209.205 327.02 209.533 326.764C209.869 326.508 210.037 326.172 210.037 325.756C210.037 325.412 209.917 325.144 209.677 324.952C209.437 324.752 209.033 324.596 208.465 324.484L207.193 324.22C206.441 324.06 205.877 323.796 205.501 323.428C205.133 323.06 204.949 322.568 204.949 321.952C204.949 321.576 205.025 321.236 205.177 320.932C205.329 320.62 205.545 320.352 205.825 320.128C206.105 319.904 206.433 319.732 206.809 319.612C207.193 319.492 207.617 319.432 208.081 319.432C208.577 319.432 209.041 319.5 209.473 319.636C209.913 319.772 210.309 319.972 210.661 320.236C210.757 320.308 210.821 320.396 210.853 320.5C210.885 320.596 210.889 320.692 210.865 320.788C210.849 320.884 210.805 320.964 210.733 321.028C210.669 321.092 210.585 321.128 210.481 321.136C210.385 321.144 210.277 321.108 210.157 321.028C209.837 320.804 209.509 320.644 209.173 320.548C208.837 320.444 208.469 320.392 208.069 320.392C207.661 320.392 207.305 320.456 207.001 320.584C206.705 320.712 206.473 320.892 206.305 321.124C206.145 321.348 206.065 321.612 206.065 321.916C206.065 322.284 206.177 322.572 206.401 322.78C206.625 322.988 207.001 323.148 207.529 323.26L208.789 323.512C209.589 323.68 210.181 323.94 210.565 324.292C210.957 324.636 211.153 325.1 211.153 325.684C211.153 326.052 211.077 326.384 210.925 326.68C210.781 326.976 210.573 327.232 210.301 327.448C210.029 327.656 209.697 327.82 209.305 327.94C208.913 328.052 208.473 328.108 207.985 328.108ZM215.263 328.084C215.103 328.084 214.975 328.044 214.879 327.964C214.783 327.884 214.703 327.756 214.639 327.58L212.023 320.116C211.951 319.932 211.959 319.776 212.047 319.648C212.143 319.52 212.299 319.456 212.515 319.456C212.667 319.456 212.787 319.492 212.875 319.564C212.963 319.636 213.035 319.756 213.091 319.924L215.503 327.004H215.071L217.543 319.948C217.607 319.78 217.683 319.656 217.771 319.576C217.859 319.496 217.975 319.456 218.119 319.456C218.271 319.456 218.387 319.496 218.467 319.576C218.555 319.656 218.627 319.784 218.683 319.96L221.107 327.004H220.723L223.159 319.924C223.215 319.764 223.287 319.648 223.375 319.576C223.463 319.496 223.587 319.456 223.747 319.456C223.931 319.456 224.067 319.52 224.155 319.648C224.243 319.776 224.255 319.932 224.191 320.116L221.551 327.592C221.495 327.76 221.419 327.884 221.323 327.964C221.227 328.044 221.099 328.084 220.939 328.084C220.771 328.084 220.639 328.044 220.543 327.964C220.447 327.884 220.367 327.756 220.303 327.58L217.963 320.86H218.227L215.875 327.592C215.811 327.76 215.731 327.884 215.635 327.964C215.547 328.044 215.423 328.084 215.263 328.084ZM229.146 328.108C228.346 328.108 227.654 327.932 227.07 327.58C226.486 327.22 226.03 326.716 225.702 326.068C225.382 325.412 225.222 324.644 225.222 323.764C225.222 323.1 225.314 322.504 225.498 321.976C225.682 321.44 225.942 320.984 226.278 320.608C226.622 320.224 227.034 319.932 227.514 319.732C228.002 319.532 228.546 319.432 229.146 319.432C229.946 319.432 230.638 319.608 231.222 319.96C231.806 320.312 232.258 320.812 232.578 321.46C232.898 322.108 233.058 322.872 233.058 323.752C233.058 324.416 232.966 325.016 232.782 325.552C232.598 326.088 232.334 326.548 231.99 326.932C231.654 327.316 231.246 327.608 230.766 327.808C230.286 328.008 229.746 328.108 229.146 328.108ZM229.146 327.124C229.722 327.124 230.214 326.992 230.622 326.728C231.03 326.464 231.342 326.08 231.558 325.576C231.782 325.072 231.894 324.468 231.894 323.764C231.894 322.7 231.654 321.876 231.174 321.292C230.702 320.708 230.026 320.416 229.146 320.416C228.57 320.416 228.074 320.548 227.658 320.812C227.25 321.068 226.938 321.448 226.722 321.952C226.506 322.448 226.398 323.052 226.398 323.764C226.398 324.82 226.638 325.644 227.118 326.236C227.598 326.828 228.274 327.124 229.146 327.124ZM235.343 328.084C235.167 328.084 235.031 328.036 234.935 327.94C234.839 327.836 234.791 327.692 234.791 327.508V320.104C234.791 319.92 234.839 319.78 234.935 319.684C235.039 319.588 235.179 319.54 235.355 319.54H238.211C239.123 319.54 239.823 319.756 240.311 320.188C240.807 320.612 241.055 321.216 241.055 322C241.055 322.512 240.943 322.952 240.719 323.32C240.495 323.68 240.171 323.956 239.747 324.148C239.323 324.34 238.811 324.436 238.211 324.436L238.331 324.268H238.595C238.915 324.268 239.191 324.348 239.423 324.508C239.663 324.668 239.875 324.924 240.059 325.276L241.163 327.304C241.235 327.432 241.267 327.556 241.259 327.676C241.251 327.796 241.207 327.896 241.127 327.976C241.047 328.048 240.931 328.084 240.779 328.084C240.619 328.084 240.491 328.052 240.395 327.988C240.299 327.916 240.215 327.812 240.143 327.676L238.847 325.3C238.671 324.964 238.471 324.744 238.247 324.64C238.023 324.528 237.723 324.472 237.347 324.472H235.907V327.508C235.907 327.692 235.859 327.836 235.763 327.94C235.675 328.036 235.535 328.084 235.343 328.084ZM235.907 323.608H238.031C238.671 323.608 239.151 323.476 239.471 323.212C239.791 322.94 239.951 322.544 239.951 322.024C239.951 321.504 239.791 321.112 239.471 320.848C239.151 320.584 238.671 320.452 238.031 320.452H235.907V323.608ZM243.466 328C243.274 328 243.126 327.948 243.022 327.844C242.918 327.74 242.866 327.592 242.866 327.4V320.14C242.866 319.948 242.918 319.8 243.022 319.696C243.126 319.592 243.274 319.54 243.466 319.54H245.782C247.166 319.54 248.23 319.904 248.974 320.632C249.726 321.352 250.102 322.396 250.102 323.764C250.102 324.444 250.006 325.048 249.814 325.576C249.622 326.104 249.342 326.548 248.974 326.908C248.606 327.26 248.154 327.532 247.618 327.724C247.09 327.908 246.478 328 245.782 328H243.466ZM243.982 327.052H245.71C246.254 327.052 246.726 326.984 247.126 326.848C247.526 326.712 247.858 326.508 248.122 326.236C248.394 325.964 248.598 325.624 248.734 325.216C248.87 324.8 248.938 324.316 248.938 323.764C248.938 322.668 248.666 321.848 248.122 321.304C247.586 320.76 246.782 320.488 245.71 320.488H243.982V327.052Z" fill="#00303F"/>
<path d="M135.114 363.224C134.516 363.224 134.036 363.064 133.674 362.744C133.311 362.403 133.119 361.976 133.098 361.464C133.098 360.952 133.311 360.429 133.738 359.896L138.698 353.816V355.992L134.09 350.36C133.642 349.805 133.428 349.272 133.45 348.76C133.471 348.248 133.663 347.832 134.026 347.512C134.388 347.192 134.868 347.032 135.466 347.032C136.042 347.032 136.522 347.128 136.906 347.32C137.29 347.512 137.652 347.832 137.994 348.28L141.418 352.664H139.722L143.146 348.28C143.508 347.832 143.882 347.512 144.266 347.32C144.65 347.128 145.119 347.032 145.674 347.032C146.271 347.032 146.751 347.203 147.114 347.544C147.476 347.864 147.658 348.28 147.658 348.792C147.679 349.304 147.466 349.827 147.018 350.36L142.41 355.992V353.816L147.402 359.896C147.85 360.408 148.063 360.92 148.042 361.432C148.02 361.944 147.818 362.371 147.434 362.712C147.071 363.053 146.591 363.224 145.994 363.224C145.418 363.224 144.938 363.128 144.554 362.936C144.191 362.723 143.828 362.403 143.466 361.976L139.722 357.208H141.354L137.61 361.976C137.268 362.381 136.906 362.691 136.522 362.904C136.159 363.117 135.69 363.224 135.114 363.224ZM155.3 369.048C154.746 369.048 154.287 368.899 153.924 368.6C153.562 368.301 153.348 367.907 153.284 367.416C153.22 366.947 153.306 366.445 153.54 365.912L155.684 361.176V363.16L150.02 350.168C149.807 349.613 149.732 349.101 149.796 348.632C149.882 348.141 150.116 347.757 150.5 347.48C150.906 347.181 151.46 347.032 152.164 347.032C152.74 347.032 153.199 347.171 153.54 347.448C153.903 347.704 154.234 348.205 154.532 348.952L158.308 358.552H157.284L161.188 348.92C161.487 348.195 161.818 347.704 162.18 347.448C162.564 347.171 163.076 347.032 163.716 347.032C164.271 347.032 164.708 347.181 165.028 347.48C165.37 347.757 165.572 348.131 165.636 348.6C165.722 349.069 165.636 349.581 165.38 350.136L157.86 367.192C157.54 367.917 157.178 368.408 156.772 368.664C156.388 368.92 155.898 369.048 155.3 369.048ZM169.138 363C168.668 363 168.274 362.883 167.954 362.648C167.634 362.392 167.42 362.072 167.314 361.688C167.207 361.304 167.207 360.888 167.314 360.44C167.442 359.992 167.687 359.576 168.049 359.192L175.89 349.784V350.904H168.946C168.37 350.904 167.922 350.744 167.602 350.424C167.282 350.104 167.122 349.667 167.122 349.112C167.122 348.515 167.282 348.067 167.602 347.768C167.922 347.448 168.37 347.288 168.946 347.288H178.194C178.77 347.288 179.228 347.416 179.57 347.672C179.911 347.928 180.135 348.248 180.242 348.632C180.37 348.995 180.38 349.4 180.274 349.848C180.188 350.275 179.964 350.68 179.602 351.064L171.57 360.664V359.416H178.994C180.21 359.416 180.818 360.013 180.818 361.208C180.818 361.784 180.658 362.232 180.338 362.552C180.018 362.851 179.57 363 178.994 363H169.138ZM189.057 363.352C188.139 363.352 187.211 363.224 186.273 362.968C185.334 362.712 184.459 362.328 183.649 361.816C183.222 361.603 182.923 361.304 182.753 360.92C182.603 360.515 182.561 360.109 182.625 359.704C182.689 359.299 182.849 358.947 183.105 358.648C183.361 358.328 183.681 358.125 184.065 358.04C184.47 357.933 184.929 357.997 185.441 358.232C186.102 358.595 186.731 358.851 187.329 359C187.947 359.149 188.545 359.224 189.121 359.224C190.251 359.224 191.211 358.968 192.001 358.456C192.79 357.944 193.377 357.176 193.761 356.152C194.166 355.107 194.369 353.837 194.369 352.344V350.264H194.817C194.646 351.267 194.294 352.131 193.761 352.856C193.227 353.581 192.555 354.136 191.745 354.52C190.934 354.904 190.038 355.096 189.057 355.096C187.798 355.096 186.667 354.787 185.665 354.168C184.662 353.528 183.873 352.653 183.297 351.544C182.721 350.435 182.433 349.187 182.433 347.8C182.433 346.307 182.753 344.984 183.393 343.832C184.033 342.659 184.929 341.741 186.081 341.08C187.233 340.419 188.555 340.088 190.049 340.088C191.99 340.088 193.622 340.536 194.945 341.432C196.289 342.307 197.313 343.597 198.017 345.304C198.721 346.989 199.073 349.027 199.073 351.416C199.073 353.315 198.838 355 198.369 356.472C197.921 357.944 197.27 359.192 196.417 360.216C195.563 361.24 194.507 362.019 193.249 362.552C192.011 363.085 190.614 363.352 189.057 363.352ZM190.337 351.224C190.998 351.224 191.574 351.075 192.065 350.776C192.577 350.456 192.971 350.019 193.249 349.464C193.526 348.909 193.665 348.28 193.665 347.576C193.665 346.851 193.526 346.211 193.249 345.656C192.971 345.101 192.577 344.675 192.065 344.376C191.574 344.077 190.998 343.928 190.337 343.928C189.675 343.928 189.099 344.077 188.609 344.376C188.118 344.675 187.723 345.101 187.425 345.656C187.147 346.211 187.009 346.851 187.009 347.576C187.009 348.28 187.147 348.909 187.425 349.464C187.723 350.019 188.118 350.456 188.609 350.776C189.099 351.075 189.675 351.224 190.337 351.224ZM208.244 363.352C207.327 363.352 206.399 363.224 205.46 362.968C204.521 362.712 203.647 362.328 202.836 361.816C202.409 361.603 202.111 361.304 201.94 360.92C201.791 360.515 201.748 360.109 201.812 359.704C201.876 359.299 202.036 358.947 202.292 358.648C202.548 358.328 202.868 358.125 203.252 358.04C203.657 357.933 204.116 357.997 204.628 358.232C205.289 358.595 205.919 358.851 206.516 359C207.135 359.149 207.732 359.224 208.308 359.224C209.439 359.224 210.399 358.968 211.188 358.456C211.977 357.944 212.564 357.176 212.948 356.152C213.353 355.107 213.556 353.837 213.556 352.344V350.264H214.004C213.833 351.267 213.481 352.131 212.948 352.856C212.415 353.581 211.743 354.136 210.932 354.52C210.121 354.904 209.225 355.096 208.244 355.096C206.985 355.096 205.855 354.787 204.852 354.168C203.849 353.528 203.06 352.653 202.484 351.544C201.908 350.435 201.62 349.187 201.62 347.8C201.62 346.307 201.94 344.984 202.58 343.832C203.22 342.659 204.116 341.741 205.268 341.08C206.42 340.419 207.743 340.088 209.236 340.088C211.177 340.088 212.809 340.536 214.132 341.432C215.476 342.307 216.5 343.597 217.204 345.304C217.908 346.989 218.26 349.027 218.26 351.416C218.26 353.315 218.025 355 217.556 356.472C217.108 357.944 216.457 359.192 215.604 360.216C214.751 361.24 213.695 362.019 212.436 362.552C211.199 363.085 209.801 363.352 208.244 363.352ZM209.524 351.224C210.185 351.224 210.761 351.075 211.252 350.776C211.764 350.456 212.159 350.019 212.436 349.464C212.713 348.909 212.852 348.28 212.852 347.576C212.852 346.851 212.713 346.211 212.436 345.656C212.159 345.101 211.764 344.675 211.252 344.376C210.761 344.077 210.185 343.928 209.524 343.928C208.863 343.928 208.287 344.077 207.796 344.376C207.305 344.675 206.911 345.101 206.612 345.656C206.335 346.211 206.196 346.851 206.196 347.576C206.196 348.28 206.335 348.909 206.612 349.464C206.911 350.019 207.305 350.456 207.796 350.776C208.287 351.075 208.863 351.224 209.524 351.224ZM229.288 363.352C227.496 363.352 225.96 363.096 224.68 362.584C223.4 362.072 222.418 361.336 221.736 360.376C221.053 359.395 220.712 358.221 220.712 356.856C220.712 355.789 220.925 354.84 221.352 354.008C221.8 353.176 222.408 352.504 223.176 351.992C223.944 351.48 224.808 351.16 225.768 351.032V351.864C224.424 351.565 223.336 350.915 222.504 349.912C221.693 348.888 221.288 347.661 221.288 346.232C221.288 344.952 221.608 343.853 222.248 342.936C222.909 342.019 223.837 341.315 225.032 340.824C226.248 340.333 227.666 340.088 229.288 340.088C230.93 340.088 232.349 340.333 233.544 340.824C234.738 341.315 235.666 342.019 236.328 342.936C236.989 343.853 237.319 344.952 237.319 346.232C237.319 347.192 237.128 348.067 236.744 348.856C236.381 349.645 235.858 350.296 235.176 350.808C234.514 351.32 233.746 351.651 232.872 351.8V351.032C234.344 351.245 235.538 351.875 236.456 352.92C237.394 353.965 237.864 355.277 237.864 356.856C237.864 358.221 237.522 359.395 236.84 360.376C236.157 361.336 235.176 362.072 233.896 362.584C232.616 363.096 231.08 363.352 229.288 363.352ZM229.288 359.544C230.61 359.544 231.613 359.288 232.296 358.776C232.978 358.264 233.32 357.507 233.32 356.504C233.32 355.501 232.978 354.755 232.296 354.264C231.613 353.752 230.61 353.496 229.288 353.496C227.965 353.496 226.962 353.752 226.28 354.264C225.597 354.755 225.256 355.501 225.256 356.504C225.256 357.507 225.597 358.264 226.28 358.776C226.962 359.288 227.965 359.544 229.288 359.544ZM229.288 349.688C230.013 349.688 230.632 349.571 231.144 349.336C231.677 349.101 232.072 348.76 232.328 348.312C232.605 347.864 232.744 347.352 232.744 346.776C232.744 345.88 232.434 345.176 231.816 344.664C231.218 344.152 230.376 343.896 229.288 343.896C228.2 343.896 227.357 344.152 226.76 344.664C226.162 345.176 225.864 345.88 225.864 346.776C225.864 347.672 226.162 348.387 226.76 348.92C227.357 349.432 228.2 349.688 229.288 349.688ZM254.107 369.048C253.318 369.048 252.72 368.835 252.315 368.408C251.91 368.003 251.707 367.395 251.707 366.584V360.056H252.059C251.718 361.037 251.067 361.837 250.107 362.456C249.168 363.053 248.08 363.352 246.843 363.352C245.478 363.352 244.272 363.021 243.227 362.36C242.203 361.699 241.403 360.749 240.827 359.512C240.251 358.275 239.963 356.813 239.963 355.128C239.963 353.443 240.251 351.992 240.827 350.776C241.403 349.56 242.203 348.621 243.227 347.96C244.272 347.299 245.478 346.968 246.843 346.968C248.102 346.968 249.211 347.288 250.171 347.928C251.152 348.547 251.792 349.368 252.091 350.392L251.739 351.64V349.464C251.739 348.675 251.942 348.077 252.347 347.672C252.774 347.245 253.371 347.032 254.139 347.032C254.907 347.032 255.494 347.245 255.899 347.672C256.326 348.077 256.539 348.675 256.539 349.464V366.584C256.539 367.395 256.326 368.003 255.899 368.408C255.472 368.835 254.875 369.048 254.107 369.048ZM248.283 359.736C248.987 359.736 249.595 359.565 250.107 359.224C250.619 358.883 251.024 358.381 251.323 357.72C251.622 357.037 251.771 356.173 251.771 355.128C251.771 353.571 251.451 352.429 250.811 351.704C250.171 350.957 249.328 350.584 248.283 350.584C247.6 350.584 246.992 350.744 246.459 351.064C245.947 351.384 245.542 351.885 245.243 352.568C244.966 353.229 244.827 354.083 244.827 355.128C244.827 356.685 245.147 357.848 245.787 358.616C246.427 359.363 247.259 359.736 248.283 359.736Z" fill="#00303F"/>
<rect x="24.5" y="299.5" width="341" height="86" rx="4.5" stroke="#C5C5C5"/>
<rect x="24" y="398" width="342" height="43" rx="5" fill="#59DBAE"/>
<path d="M179.22 425.176C177.972 425.176 176.9 424.936 176.004 424.456C175.108 423.976 174.42 423.299 173.94 422.424C173.471 421.549 173.236 420.525 173.236 419.352C173.236 418.477 173.369 417.683 173.636 416.968C173.913 416.253 174.308 415.64 174.82 415.128C175.343 414.616 175.972 414.227 176.708 413.96C177.455 413.683 178.292 413.544 179.22 413.544C179.711 413.544 180.217 413.603 180.74 413.72C181.273 413.827 181.743 413.992 182.148 414.216C182.447 414.376 182.655 414.579 182.772 414.824C182.889 415.069 182.927 415.32 182.884 415.576C182.852 415.832 182.761 416.061 182.612 416.264C182.463 416.467 182.271 416.605 182.036 416.68C181.801 416.744 181.545 416.707 181.268 416.568C180.948 416.419 180.628 416.307 180.308 416.232C179.999 416.147 179.673 416.104 179.332 416.104C178.671 416.104 178.116 416.232 177.668 416.488C177.231 416.733 176.9 417.096 176.676 417.576C176.452 418.056 176.34 418.648 176.34 419.352C176.34 420.056 176.452 420.653 176.676 421.144C176.9 421.624 177.231 421.992 177.668 422.248C178.116 422.493 178.671 422.616 179.332 422.616C179.609 422.616 179.908 422.584 180.228 422.52C180.548 422.445 180.863 422.333 181.172 422.184C181.492 422.045 181.775 422.008 182.02 422.072C182.276 422.136 182.479 422.264 182.628 422.456C182.788 422.648 182.889 422.872 182.932 423.128C182.975 423.373 182.937 423.619 182.82 423.864C182.713 424.109 182.521 424.307 182.244 424.456C181.871 424.68 181.407 424.856 180.852 424.984C180.308 425.112 179.764 425.176 179.22 425.176ZM189.605 425.176C188.463 425.176 187.461 424.936 186.597 424.456C185.733 423.965 185.061 423.283 184.581 422.408C184.111 421.533 183.877 420.515 183.877 419.352C183.877 418.477 184.01 417.683 184.277 416.968C184.554 416.253 184.943 415.64 185.445 415.128C185.957 414.616 186.565 414.227 187.269 413.96C187.973 413.683 188.751 413.544 189.605 413.544C190.746 413.544 191.743 413.784 192.597 414.264C193.461 414.744 194.133 415.421 194.613 416.296C195.093 417.16 195.333 418.179 195.333 419.352C195.333 420.227 195.194 421.021 194.917 421.736C194.65 422.451 194.261 423.069 193.749 423.592C193.247 424.104 192.645 424.499 191.941 424.776C191.237 425.043 190.458 425.176 189.605 425.176ZM189.605 422.712C190.17 422.712 190.65 422.579 191.045 422.312C191.439 422.045 191.743 421.661 191.957 421.16C192.17 420.659 192.277 420.056 192.277 419.352C192.277 418.296 192.042 417.475 191.573 416.888C191.103 416.301 190.447 416.008 189.605 416.008C189.05 416.008 188.57 416.141 188.165 416.408C187.77 416.664 187.466 417.043 187.253 417.544C187.039 418.035 186.933 418.637 186.933 419.352C186.933 420.408 187.167 421.235 187.637 421.832C188.106 422.419 188.762 422.712 189.605 422.712ZM198.543 425.144C198.074 425.144 197.711 425.016 197.455 424.76C197.199 424.493 197.071 424.125 197.071 423.656V415.208C197.071 414.728 197.199 414.36 197.455 414.104C197.722 413.848 198.09 413.72 198.559 413.72H202.495C203.775 413.72 204.762 414.051 205.455 414.712C206.159 415.363 206.511 416.264 206.511 417.416C206.511 418.568 206.159 419.475 205.455 420.136C204.762 420.787 203.775 421.112 202.495 421.112H200.015V423.656C200.015 424.125 199.892 424.493 199.647 424.76C199.402 425.016 199.034 425.144 198.543 425.144ZM200.015 418.856H201.983C202.538 418.856 202.964 418.739 203.263 418.504C203.562 418.259 203.711 417.896 203.711 417.416C203.711 416.925 203.562 416.563 203.263 416.328C202.964 416.093 202.538 415.976 201.983 415.976H200.015V418.856ZM211.996 425.144C211.526 425.144 211.164 425.016 210.908 424.76C210.652 424.493 210.524 424.115 210.524 423.624V419.24L211.132 420.856L207.452 415.56C207.27 415.304 207.19 415.021 207.212 414.712C207.244 414.392 207.372 414.125 207.596 413.912C207.83 413.688 208.161 413.576 208.588 413.576C208.886 413.576 209.158 413.651 209.404 413.8C209.649 413.939 209.878 414.179 210.092 414.52L212.332 417.816H211.756L213.996 414.504C214.22 414.163 214.449 413.923 214.684 413.784C214.918 413.645 215.196 413.576 215.516 413.576C215.921 413.576 216.236 413.677 216.46 413.88C216.684 414.083 216.801 414.339 216.812 414.648C216.833 414.957 216.737 415.272 216.524 415.592L212.876 420.856L213.468 419.24V423.624C213.468 424.637 212.977 425.144 211.996 425.144Z" fill="#00303F"/>
<path d="M171.716 480.176C171.289 480.176 170.841 480.144 170.372 480.08C169.913 480.027 169.476 479.941 169.06 479.824C168.644 479.707 168.271 479.568 167.94 479.408C167.652 479.269 167.449 479.088 167.332 478.864C167.215 478.629 167.172 478.384 167.204 478.128C167.236 477.872 167.327 477.648 167.476 477.456C167.625 477.253 167.823 477.12 168.068 477.056C168.313 476.981 168.591 477.013 168.9 477.152C169.305 477.344 169.764 477.493 170.276 477.6C170.788 477.707 171.268 477.76 171.716 477.76C172.42 477.76 172.911 477.669 173.188 477.488C173.476 477.296 173.62 477.061 173.62 476.784C173.62 476.539 173.519 476.341 173.316 476.192C173.124 476.043 172.777 475.915 172.276 475.808L170.404 475.408C169.38 475.195 168.617 474.821 168.116 474.288C167.615 473.755 167.364 473.067 167.364 472.224C167.364 471.669 167.476 471.168 167.7 470.72C167.935 470.261 168.26 469.872 168.676 469.552C169.103 469.232 169.604 468.987 170.18 468.816C170.767 468.635 171.417 468.544 172.132 468.544C172.687 468.544 173.247 468.608 173.812 468.736C174.388 468.853 174.884 469.035 175.3 469.28C175.545 469.408 175.721 469.584 175.828 469.808C175.935 470.032 175.977 470.267 175.956 470.512C175.935 470.747 175.849 470.955 175.7 471.136C175.561 471.317 175.369 471.44 175.124 471.504C174.889 471.557 174.607 471.515 174.276 471.376C173.967 471.237 173.615 471.136 173.22 471.072C172.836 470.997 172.463 470.96 172.1 470.96C171.705 470.96 171.369 471.008 171.092 471.104C170.815 471.189 170.601 471.317 170.452 471.488C170.313 471.659 170.244 471.856 170.244 472.08C170.244 472.304 170.335 472.496 170.516 472.656C170.708 472.805 171.055 472.933 171.556 473.04L173.412 473.44C174.447 473.664 175.22 474.032 175.732 474.544C176.244 475.056 176.5 475.723 176.5 476.544C176.5 477.099 176.388 477.6 176.164 478.048C175.94 478.496 175.62 478.88 175.204 479.2C174.788 479.509 174.287 479.749 173.7 479.92C173.113 480.091 172.452 480.176 171.716 480.176ZM179.418 480.144C178.949 480.144 178.586 480.016 178.33 479.76C178.074 479.493 177.946 479.12 177.946 478.64V470.08C177.946 469.589 178.074 469.216 178.33 468.96C178.586 468.704 178.949 468.576 179.418 468.576C179.898 468.576 180.261 468.704 180.506 468.96C180.762 469.216 180.89 469.589 180.89 470.08V473.072H185.546V470.08C185.546 469.589 185.669 469.216 185.914 468.96C186.17 468.704 186.538 468.576 187.018 468.576C187.487 468.576 187.845 468.704 188.09 468.96C188.346 469.216 188.474 469.589 188.474 470.08V478.64C188.474 479.12 188.346 479.493 188.09 479.76C187.845 480.016 187.487 480.144 187.018 480.144C186.538 480.144 186.17 480.016 185.914 479.76C185.669 479.493 185.546 479.12 185.546 478.64V475.488H180.89V478.64C180.89 479.12 180.767 479.493 180.522 479.76C180.277 480.016 179.909 480.144 179.418 480.144ZM191.052 480.144C190.721 480.144 190.444 480.069 190.22 479.92C189.996 479.76 189.857 479.547 189.804 479.28C189.751 479.003 189.799 478.693 189.948 478.352L193.932 469.776C194.124 469.36 194.359 469.056 194.636 468.864C194.924 468.672 195.249 468.576 195.612 468.576C195.975 468.576 196.289 468.672 196.556 468.864C196.833 469.056 197.073 469.36 197.276 469.776L201.26 478.352C201.431 478.693 201.489 479.003 201.436 479.28C201.393 479.557 201.26 479.771 201.036 479.92C200.823 480.069 200.556 480.144 200.236 480.144C199.809 480.144 199.479 480.048 199.244 479.856C199.02 479.664 198.817 479.355 198.636 478.928L197.772 476.896L198.892 477.712H192.3L193.436 476.896L192.572 478.928C192.38 479.355 192.183 479.664 191.98 479.856C191.777 480.048 191.468 480.144 191.052 480.144ZM195.58 471.792L193.724 476.224L193.276 475.456H197.932L197.484 476.224L195.612 471.792H195.58ZM204.199 480.144C203.73 480.144 203.367 480.016 203.111 479.76C202.855 479.493 202.727 479.125 202.727 478.656V470.208C202.727 469.728 202.855 469.36 203.111 469.104C203.378 468.848 203.746 468.72 204.215 468.72H208.151C209.431 468.72 210.418 469.035 211.111 469.664C211.815 470.283 212.167 471.147 212.167 472.256C212.167 472.971 212.007 473.595 211.687 474.128C211.378 474.651 210.924 475.056 210.327 475.344C209.74 475.621 209.015 475.76 208.151 475.76L208.279 475.472H209.047C209.506 475.472 209.911 475.584 210.263 475.808C210.615 476.021 210.908 476.352 211.143 476.8L211.943 478.24C212.114 478.549 212.194 478.853 212.183 479.152C212.172 479.44 212.055 479.68 211.831 479.872C211.618 480.053 211.303 480.144 210.887 480.144C210.471 480.144 210.13 480.059 209.863 479.888C209.607 479.717 209.378 479.451 209.175 479.088L207.719 476.416C207.591 476.181 207.426 476.021 207.223 475.936C207.031 475.84 206.807 475.792 206.551 475.792H205.671V478.656C205.671 479.125 205.548 479.493 205.303 479.76C205.058 480.016 204.69 480.144 204.199 480.144ZM205.671 473.712H207.623C208.188 473.712 208.62 473.6 208.919 473.376C209.218 473.152 209.367 472.805 209.367 472.336C209.367 471.888 209.218 471.552 208.919 471.328C208.62 471.093 208.188 470.976 207.623 470.976H205.671V473.712ZM215.56 480C215.059 480 214.675 479.872 214.408 479.616C214.152 479.349 214.024 478.971 214.024 478.48V470.24C214.024 469.749 214.152 469.376 214.408 469.12C214.675 468.853 215.059 468.72 215.56 468.72H220.984C221.368 468.72 221.656 468.816 221.848 469.008C222.04 469.2 222.136 469.477 222.136 469.84C222.136 470.213 222.04 470.501 221.848 470.704C221.656 470.896 221.368 470.992 220.984 470.992H216.84V473.136H220.632C221.005 473.136 221.288 473.232 221.48 473.424C221.683 473.616 221.784 473.899 221.784 474.272C221.784 474.645 221.683 474.928 221.48 475.12C221.288 475.312 221.005 475.408 220.632 475.408H216.84V477.728H220.984C221.368 477.728 221.656 477.829 221.848 478.032C222.04 478.224 222.136 478.501 222.136 478.864C222.136 479.237 222.04 479.52 221.848 479.712C221.656 479.904 221.368 480 220.984 480H215.56Z" fill="#00303F"/>
<rect x="25.5" y="454.5" width="339" height="40" rx="3.5" stroke="#00303F" stroke-width="3"/>
<mask id="path-16-inside-1_96_777" fill="white">
<path d="M0 140H390V184H0V140Z"/>
</mask>
<path d="M0 140H390V184H0V140Z" fill="white"/>
<path d="M25.89 167C25.666 167 25.4933 166.939 25.372 166.818C25.2507 166.697 25.19 166.524 25.19 166.3V157.83C25.19 157.606 25.2507 157.433 25.372 157.312C25.4933 157.191 25.666 157.13 25.89 157.13H29.208C29.8893 157.13 30.468 157.233 30.944 157.438C31.4293 157.643 31.798 157.937 32.05 158.32C32.302 158.703 32.428 159.165 32.428 159.706C32.428 160.313 32.2507 160.821 31.896 161.232C31.5413 161.643 31.056 161.918 30.44 162.058V161.848C31.1307 161.932 31.672 162.189 32.064 162.618C32.4653 163.038 32.666 163.589 32.666 164.27C32.666 165.147 32.3767 165.824 31.798 166.3C31.2287 166.767 30.4213 167 29.376 167H25.89ZM26.45 165.978H29.236C29.964 165.978 30.5053 165.838 30.86 165.558C31.2147 165.269 31.392 164.83 31.392 164.242C31.392 163.654 31.2147 163.22 30.86 162.94C30.5053 162.66 29.964 162.52 29.236 162.52H26.45V165.978ZM26.45 161.484H29.012C29.7213 161.484 30.2533 161.344 30.608 161.064C30.972 160.775 31.154 160.359 31.154 159.818C31.154 159.277 30.972 158.866 30.608 158.586C30.2533 158.297 29.7213 158.152 29.012 158.152H26.45V161.484ZM36.96 167.126C36.4093 167.126 35.9473 167.023 35.574 166.818C35.21 166.613 34.9393 166.309 34.762 165.908C34.5846 165.507 34.496 165.003 34.496 164.396V160.728C34.496 160.513 34.5473 160.355 34.65 160.252C34.762 160.14 34.9206 160.084 35.126 160.084C35.3313 160.084 35.49 160.14 35.602 160.252C35.714 160.355 35.77 160.513 35.77 160.728V164.396C35.77 164.975 35.8866 165.404 36.12 165.684C36.3533 165.955 36.722 166.09 37.226 166.09C37.786 166.09 38.2386 165.903 38.584 165.53C38.9386 165.157 39.116 164.662 39.116 164.046V160.728C39.116 160.513 39.1673 160.355 39.27 160.252C39.382 160.14 39.5406 160.084 39.746 160.084C39.9513 160.084 40.11 160.14 40.222 160.252C40.334 160.355 40.39 160.513 40.39 160.728V166.44C40.39 166.879 40.1846 167.098 39.774 167.098C39.5686 167.098 39.41 167.042 39.298 166.93C39.1953 166.818 39.144 166.655 39.144 166.44V165.222L39.326 165.46C39.1393 166.001 38.836 166.417 38.416 166.706C38.0053 166.986 37.52 167.126 36.96 167.126ZM43.07 167.07C42.874 167.07 42.72 167.009 42.608 166.888C42.496 166.767 42.44 166.599 42.44 166.384V160.798C42.44 160.574 42.496 160.406 42.608 160.294C42.72 160.173 42.874 160.112 43.07 160.112C43.2753 160.112 43.434 160.173 43.546 160.294C43.658 160.406 43.714 160.574 43.714 160.798V166.384C43.714 166.599 43.658 166.767 43.546 166.888C43.4433 167.009 43.2846 167.07 43.07 167.07ZM43.07 158.6C42.818 158.6 42.6173 158.535 42.468 158.404C42.328 158.264 42.258 158.082 42.258 157.858C42.258 157.615 42.328 157.433 42.468 157.312C42.6173 157.181 42.818 157.116 43.07 157.116C43.3406 157.116 43.5413 157.181 43.672 157.312C43.812 157.433 43.882 157.615 43.882 157.858C43.882 158.082 43.812 158.264 43.672 158.404C43.5413 158.535 43.3406 158.6 43.07 158.6ZM47.9042 167.126C47.2042 167.126 46.6722 166.921 46.3082 166.51C45.9442 166.09 45.7622 165.488 45.7622 164.704V157.676C45.7622 157.461 45.8182 157.303 45.9302 157.2C46.0422 157.088 46.1962 157.032 46.3922 157.032C46.5976 157.032 46.7562 157.088 46.8682 157.2C46.9802 157.303 47.0362 157.461 47.0362 157.676V164.606C47.0362 165.091 47.1342 165.455 47.3302 165.698C47.5356 165.931 47.8249 166.048 48.1982 166.048C48.2822 166.048 48.3569 166.048 48.4222 166.048C48.4876 166.039 48.5529 166.029 48.6182 166.02C48.7209 166.011 48.7956 166.039 48.8422 166.104C48.8889 166.169 48.9122 166.3 48.9122 166.496C48.9122 166.673 48.8702 166.813 48.7862 166.916C48.7116 167.009 48.5856 167.07 48.4082 167.098C48.3242 167.107 48.2402 167.112 48.1562 167.112C48.0722 167.121 47.9882 167.126 47.9042 167.126ZM52.5088 167.126C51.9115 167.126 51.3841 166.986 50.9268 166.706C50.4788 166.417 50.1288 166.006 49.8768 165.474C49.6248 164.933 49.4988 164.303 49.4988 163.584C49.4988 162.856 49.6201 162.231 49.8628 161.708C50.1148 161.176 50.4648 160.77 50.9128 160.49C51.3701 160.201 51.9021 160.056 52.5088 160.056C53.1155 160.056 53.6381 160.21 54.0768 160.518C54.5155 160.817 54.8095 161.218 54.9588 161.722H54.8048V157.676C54.8048 157.461 54.8561 157.303 54.9588 157.2C55.0708 157.088 55.2295 157.032 55.4348 157.032C55.6401 157.032 55.7988 157.088 55.9108 157.2C56.0228 157.303 56.0788 157.461 56.0788 157.676V166.44C56.0788 166.655 56.0228 166.818 55.9108 166.93C55.7988 167.042 55.6401 167.098 55.4348 167.098C55.2388 167.098 55.0848 167.042 54.9728 166.93C54.8608 166.818 54.8048 166.655 54.8048 166.44V165.166L54.9588 165.418C54.8188 165.941 54.5248 166.356 54.0768 166.664C53.6381 166.972 53.1155 167.126 52.5088 167.126ZM52.8028 166.118C53.2135 166.118 53.5681 166.02 53.8668 165.824C54.1748 165.628 54.4081 165.343 54.5668 164.97C54.7348 164.597 54.8188 164.135 54.8188 163.584C54.8188 162.763 54.6368 162.137 54.2728 161.708C53.9088 161.279 53.4188 161.064 52.8028 161.064C52.4015 161.064 52.0468 161.162 51.7388 161.358C51.4401 161.545 51.2068 161.825 51.0388 162.198C50.8708 162.571 50.7868 163.033 50.7868 163.584C50.7868 164.405 50.9688 165.035 51.3328 165.474C51.7061 165.903 52.1961 166.118 52.8028 166.118ZM58.7516 167.07C58.5556 167.07 58.4016 167.009 58.2896 166.888C58.1776 166.767 58.1216 166.599 58.1216 166.384V160.798C58.1216 160.574 58.1776 160.406 58.2896 160.294C58.4016 160.173 58.5556 160.112 58.7516 160.112C58.9569 160.112 59.1156 160.173 59.2276 160.294C59.3396 160.406 59.3956 160.574 59.3956 160.798V166.384C59.3956 166.599 59.3396 166.767 59.2276 166.888C59.1249 167.009 58.9663 167.07 58.7516 167.07ZM58.7516 158.6C58.4996 158.6 58.2989 158.535 58.1496 158.404C58.0096 158.264 57.9396 158.082 57.9396 157.858C57.9396 157.615 58.0096 157.433 58.1496 157.312C58.2989 157.181 58.4996 157.116 58.7516 157.116C59.0223 157.116 59.2229 157.181 59.3536 157.312C59.4936 157.433 59.5636 157.615 59.5636 157.858C59.5636 158.082 59.4936 158.264 59.3536 158.404C59.2229 158.535 59.0223 158.6 58.7516 158.6ZM62.0739 167.098C61.8779 167.098 61.7239 167.042 61.6119 166.93C61.4999 166.818 61.4439 166.655 61.4439 166.44V160.728C61.4439 160.513 61.4999 160.355 61.6119 160.252C61.7239 160.14 61.8779 160.084 62.0739 160.084C62.2699 160.084 62.4192 160.14 62.5219 160.252C62.6339 160.355 62.6899 160.513 62.6899 160.728V161.876L62.5359 161.666C62.7319 161.134 63.0492 160.733 63.4879 160.462C63.9359 160.191 64.4445 160.056 65.0139 160.056C65.5645 160.056 66.0172 160.154 66.3719 160.35C66.7265 160.546 66.9925 160.845 67.1699 161.246C67.3472 161.647 67.4359 162.156 67.4359 162.772V166.44C67.4359 166.655 67.3799 166.818 67.2679 166.93C67.1652 167.042 67.0112 167.098 66.8059 167.098C66.6005 167.098 66.4419 167.042 66.3299 166.93C66.2179 166.818 66.1619 166.655 66.1619 166.44V162.842C66.1619 162.235 66.0452 161.792 65.8119 161.512C65.5785 161.232 65.2052 161.092 64.6919 161.092C64.0945 161.092 63.6139 161.279 63.2499 161.652C62.8952 162.016 62.7179 162.511 62.7179 163.136V166.44C62.7179 166.879 62.5032 167.098 62.0739 167.098ZM72.5216 169.646C72.0176 169.646 71.5276 169.59 71.0516 169.478C70.5849 169.366 70.1603 169.193 69.7776 168.96C69.6563 168.885 69.5723 168.797 69.5256 168.694C69.4883 168.601 69.4789 168.503 69.4976 168.4C69.5256 168.297 69.5723 168.204 69.6376 168.12C69.7123 168.045 69.7963 167.994 69.8896 167.966C69.9923 167.947 70.0949 167.971 70.1976 168.036C70.6083 168.269 71.0003 168.428 71.3736 168.512C71.7469 168.596 72.1016 168.638 72.4376 168.638C73.1003 168.638 73.5949 168.465 73.9216 168.12C74.2576 167.784 74.4256 167.289 74.4256 166.636V165.124H74.5516C74.4209 165.647 74.1269 166.062 73.6696 166.37C73.2216 166.678 72.6989 166.832 72.1016 166.832C71.4856 166.832 70.9489 166.692 70.4916 166.412C70.0343 166.123 69.6796 165.726 69.4276 165.222C69.1756 164.709 69.0496 164.116 69.0496 163.444C69.0496 162.931 69.1196 162.469 69.2596 162.058C69.4089 161.638 69.6143 161.283 69.8756 160.994C70.1463 160.695 70.4683 160.467 70.8416 160.308C71.2149 160.14 71.6349 160.056 72.1016 160.056C72.7083 160.056 73.2356 160.21 73.6836 160.518C74.1316 160.826 74.4209 161.241 74.5516 161.764L74.3976 161.96V160.728C74.3976 160.513 74.4536 160.355 74.5656 160.252C74.6776 160.14 74.8363 160.084 75.0416 160.084C75.2376 160.084 75.3916 160.14 75.5036 160.252C75.6156 160.355 75.6716 160.513 75.6716 160.728V166.468C75.6716 167.523 75.4009 168.316 74.8596 168.848C74.3276 169.38 73.5483 169.646 72.5216 169.646ZM72.3816 165.824C72.8016 165.824 73.1609 165.731 73.4596 165.544C73.7676 165.348 74.0009 165.073 74.1596 164.718C74.3276 164.354 74.4116 163.929 74.4116 163.444C74.4116 162.707 74.2296 162.128 73.8656 161.708C73.5016 161.279 73.0069 161.064 72.3816 161.064C71.9616 161.064 71.5976 161.162 71.2896 161.358C70.9909 161.545 70.7576 161.815 70.5896 162.17C70.4216 162.525 70.3376 162.949 70.3376 163.444C70.3376 164.172 70.5196 164.751 70.8836 165.18C71.2569 165.609 71.7563 165.824 72.3816 165.824ZM82.1338 167.098C81.9471 167.098 81.7978 167.042 81.6858 166.93C81.5831 166.818 81.5318 166.664 81.5318 166.468V157.69C81.5318 157.475 81.5831 157.312 81.6858 157.2C81.7885 157.088 81.9238 157.032 82.0918 157.032C82.2505 157.032 82.3718 157.06 82.4558 157.116C82.5398 157.172 82.6331 157.27 82.7358 157.41L88.6718 165.278H88.3218V157.662C88.3218 157.457 88.3731 157.303 88.4758 157.2C88.5878 157.088 88.7418 157.032 88.9378 157.032C89.1338 157.032 89.2831 157.088 89.3858 157.2C89.4885 157.303 89.5398 157.457 89.5398 157.662V166.468C89.5398 166.664 89.4885 166.818 89.3858 166.93C89.2925 167.042 89.1665 167.098 89.0078 167.098C88.8585 167.098 88.7325 167.065 88.6298 167C88.5365 166.944 88.4385 166.846 88.3358 166.706L82.4138 158.838H82.7358V166.468C82.7358 166.664 82.6845 166.818 82.5818 166.93C82.4791 167.042 82.3298 167.098 82.1338 167.098ZM93.9108 167.126C93.4441 167.126 93.0194 167.033 92.6368 166.846C92.2634 166.659 91.9694 166.407 91.7548 166.09C91.5494 165.773 91.4468 165.418 91.4468 165.026C91.4468 164.522 91.5728 164.125 91.8248 163.836C92.0768 163.547 92.5014 163.341 93.0988 163.22C93.6961 163.089 94.4988 163.024 95.5068 163.024H96.1648V163.836H95.5348C94.8161 163.836 94.2468 163.869 93.8268 163.934C93.4161 163.999 93.1268 164.116 92.9588 164.284C92.7908 164.443 92.7068 164.667 92.7068 164.956C92.7068 165.32 92.8328 165.619 93.0848 165.852C93.3461 166.085 93.7008 166.202 94.1488 166.202C94.5034 166.202 94.8161 166.118 95.0868 165.95C95.3574 165.773 95.5721 165.539 95.7308 165.25C95.8894 164.951 95.9688 164.611 95.9688 164.228V162.618C95.9688 162.067 95.8568 161.671 95.6328 161.428C95.4088 161.176 95.0308 161.05 94.4988 161.05C94.1908 161.05 93.8734 161.092 93.5468 161.176C93.2201 161.26 92.8794 161.391 92.5248 161.568C92.3848 161.633 92.2634 161.657 92.1608 161.638C92.0581 161.61 91.9741 161.554 91.9088 161.47C91.8528 161.377 91.8201 161.279 91.8108 161.176C91.8108 161.064 91.8341 160.957 91.8808 160.854C91.9368 160.751 92.0301 160.677 92.1608 160.63C92.5714 160.425 92.9774 160.28 93.3788 160.196C93.7894 160.103 94.1721 160.056 94.5268 160.056C95.1334 160.056 95.6328 160.154 96.0248 160.35C96.4168 160.537 96.7108 160.831 96.9068 161.232C97.1028 161.624 97.2008 162.128 97.2008 162.744V166.44C97.2008 166.655 97.1494 166.818 97.0468 166.93C96.9441 167.042 96.7948 167.098 96.5988 167.098C96.4121 167.098 96.2628 167.042 96.1508 166.93C96.0481 166.818 95.9968 166.655 95.9968 166.44V165.446H96.1228C96.0481 165.791 95.9081 166.09 95.7028 166.342C95.4974 166.594 95.2408 166.79 94.9328 166.93C94.6341 167.061 94.2934 167.126 93.9108 167.126ZM99.8636 167.098C99.6676 167.098 99.5136 167.042 99.4016 166.93C99.2896 166.818 99.2336 166.655 99.2336 166.44V160.728C99.2336 160.513 99.2896 160.355 99.4016 160.252C99.5136 160.14 99.6676 160.084 99.8636 160.084C100.06 160.084 100.209 160.14 100.312 160.252C100.424 160.355 100.48 160.513 100.48 160.728V161.918L100.326 161.666C100.503 161.153 100.788 160.756 101.18 160.476C101.581 160.196 102.057 160.056 102.608 160.056C103.186 160.056 103.653 160.196 104.008 160.476C104.362 160.747 104.6 161.162 104.722 161.722H104.526C104.694 161.209 104.992 160.803 105.422 160.504C105.86 160.205 106.369 160.056 106.948 160.056C107.461 160.056 107.881 160.159 108.208 160.364C108.544 160.56 108.796 160.859 108.964 161.26C109.132 161.652 109.216 162.156 109.216 162.772V166.44C109.216 166.655 109.16 166.818 109.048 166.93C108.936 167.042 108.782 167.098 108.586 167.098C108.38 167.098 108.222 167.042 108.11 166.93C107.998 166.818 107.942 166.655 107.942 166.44V162.828C107.942 162.231 107.839 161.792 107.634 161.512C107.428 161.232 107.083 161.092 106.598 161.092C106.066 161.092 105.641 161.279 105.324 161.652C105.016 162.016 104.862 162.52 104.862 163.164V166.44C104.862 166.655 104.806 166.818 104.694 166.93C104.591 167.042 104.437 167.098 104.232 167.098C104.026 167.098 103.868 167.042 103.756 166.93C103.644 166.818 103.588 166.655 103.588 166.44V162.828C103.588 162.231 103.485 161.792 103.28 161.512C103.074 161.232 102.729 161.092 102.244 161.092C101.712 161.092 101.287 161.279 100.97 161.652C100.662 162.016 100.508 162.52 100.508 163.164V166.44C100.508 166.879 100.293 167.098 99.8636 167.098ZM114.414 167.126C113.677 167.126 113.042 166.986 112.51 166.706C111.988 166.417 111.582 166.011 111.292 165.488C111.003 164.956 110.858 164.331 110.858 163.612C110.858 162.903 110.998 162.282 111.278 161.75C111.568 161.218 111.96 160.803 112.454 160.504C112.958 160.205 113.532 160.056 114.176 160.056C114.634 160.056 115.044 160.135 115.408 160.294C115.782 160.443 116.099 160.663 116.36 160.952C116.622 161.241 116.818 161.596 116.948 162.016C117.088 162.427 117.158 162.893 117.158 163.416C117.158 163.565 117.112 163.682 117.018 163.766C116.934 163.841 116.808 163.878 116.64 163.878H111.852V163.066H116.318L116.08 163.262C116.08 162.777 116.006 162.366 115.856 162.03C115.716 161.685 115.506 161.423 115.226 161.246C114.956 161.069 114.615 160.98 114.204 160.98C113.756 160.98 113.374 161.087 113.056 161.302C112.739 161.507 112.496 161.801 112.328 162.184C112.16 162.557 112.076 162.991 112.076 163.486V163.57C112.076 164.41 112.277 165.045 112.678 165.474C113.08 165.903 113.658 166.118 114.414 166.118C114.713 166.118 115.016 166.081 115.324 166.006C115.642 165.931 115.945 165.796 116.234 165.6C116.374 165.516 116.5 165.479 116.612 165.488C116.734 165.488 116.832 165.525 116.906 165.6C116.981 165.665 117.028 165.749 117.046 165.852C117.065 165.945 117.051 166.048 117.004 166.16C116.958 166.272 116.869 166.37 116.738 166.454C116.43 166.669 116.062 166.837 115.632 166.958C115.212 167.07 114.806 167.126 114.414 167.126Z" fill="#00303F"/>
<path d="M279.92 166C279.544 166 279.256 165.904 279.056 165.712C278.864 165.512 278.768 165.228 278.768 164.86V158.68C278.768 158.312 278.864 158.032 279.056 157.84C279.256 157.64 279.544 157.54 279.92 157.54H283.988C284.276 157.54 284.492 157.612 284.636 157.756C284.78 157.9 284.852 158.108 284.852 158.38C284.852 158.66 284.78 158.876 284.636 159.028C284.492 159.172 284.276 159.244 283.988 159.244H280.88V160.852H283.724C284.004 160.852 284.216 160.924 284.36 161.068C284.512 161.212 284.588 161.424 284.588 161.704C284.588 161.984 284.512 162.196 284.36 162.34C284.216 162.484 284.004 162.556 283.724 162.556H280.88V164.296H283.988C284.276 164.296 284.492 164.372 284.636 164.524C284.78 164.668 284.852 164.876 284.852 165.148C284.852 165.428 284.78 165.64 284.636 165.784C284.492 165.928 284.276 166 283.988 166H279.92ZM287.255 166C286.903 166 286.627 165.904 286.427 165.712C286.235 165.512 286.139 165.236 286.139 164.884V158.644C286.139 158.284 286.235 158.008 286.427 157.816C286.619 157.624 286.891 157.528 287.243 157.528C287.603 157.528 287.875 157.624 288.059 157.816C288.251 158.008 288.347 158.284 288.347 158.644V164.164H291.275C291.579 164.164 291.811 164.244 291.971 164.404C292.139 164.556 292.223 164.78 292.223 165.076C292.223 165.372 292.139 165.6 291.971 165.76C291.811 165.92 291.579 166 291.275 166H287.255ZM294.311 166C293.935 166 293.647 165.904 293.447 165.712C293.255 165.512 293.159 165.228 293.159 164.86V158.68C293.159 158.312 293.255 158.032 293.447 157.84C293.647 157.64 293.935 157.54 294.311 157.54H298.379C298.667 157.54 298.883 157.612 299.027 157.756C299.171 157.9 299.243 158.108 299.243 158.38C299.243 158.66 299.171 158.876 299.027 159.028C298.883 159.172 298.667 159.244 298.379 159.244H295.271V160.852H298.115C298.395 160.852 298.607 160.924 298.751 161.068C298.903 161.212 298.979 161.424 298.979 161.704C298.979 161.984 298.903 162.196 298.751 162.34C298.607 162.484 298.395 162.556 298.115 162.556H295.271V164.296H298.379C298.667 164.296 298.883 164.372 299.027 164.524C299.171 164.668 299.243 164.876 299.243 165.148C299.243 165.428 299.171 165.64 299.027 165.784C298.883 165.928 298.667 166 298.379 166H294.311ZM304.249 166.108C303.945 166.108 303.697 166.044 303.505 165.916C303.321 165.788 303.165 165.584 303.037 165.304L300.133 158.896C300.005 158.616 299.965 158.364 300.013 158.14C300.061 157.916 300.173 157.744 300.349 157.624C300.525 157.496 300.745 157.432 301.009 157.432C301.337 157.432 301.581 157.504 301.741 157.648C301.909 157.792 302.053 158.004 302.173 158.284L304.621 163.948H303.949L306.397 158.272C306.517 157.992 306.661 157.784 306.829 157.648C306.997 157.504 307.233 157.432 307.537 157.432C307.785 157.432 307.993 157.496 308.161 157.624C308.329 157.744 308.433 157.916 308.473 158.14C308.521 158.364 308.481 158.616 308.353 158.896L305.437 165.304C305.317 165.584 305.165 165.788 304.981 165.916C304.797 166.044 304.553 166.108 304.249 166.108ZM309.059 166.108C308.811 166.108 308.603 166.052 308.435 165.94C308.267 165.82 308.163 165.66 308.123 165.46C308.083 165.252 308.119 165.02 308.231 164.764L311.219 158.332C311.363 158.02 311.539 157.792 311.747 157.648C311.963 157.504 312.207 157.432 312.479 157.432C312.751 157.432 312.987 157.504 313.187 157.648C313.395 157.792 313.575 158.02 313.727 158.332L316.715 164.764C316.843 165.02 316.887 165.252 316.847 165.46C316.815 165.668 316.715 165.828 316.547 165.94C316.387 166.052 316.187 166.108 315.947 166.108C315.627 166.108 315.379 166.036 315.203 165.892C315.035 165.748 314.883 165.516 314.747 165.196L314.099 163.672L314.939 164.284H309.995L310.847 163.672L310.199 165.196C310.055 165.516 309.907 165.748 309.755 165.892C309.603 166.036 309.371 166.108 309.059 166.108ZM312.455 159.844L311.063 163.168L310.727 162.592H314.219L313.883 163.168L312.479 159.844H312.455ZM319.962 166.108C319.61 166.108 319.338 166.012 319.146 165.82C318.954 165.62 318.858 165.344 318.858 164.992V159.34H316.974C316.678 159.34 316.45 159.264 316.29 159.112C316.138 158.952 316.062 158.728 316.062 158.44C316.062 158.144 316.138 157.92 316.29 157.768C316.45 157.616 316.678 157.54 316.974 157.54H322.95C323.246 157.54 323.47 157.616 323.622 157.768C323.782 157.92 323.862 158.144 323.862 158.44C323.862 158.728 323.782 158.952 323.622 159.112C323.47 159.264 323.246 159.34 322.95 159.34H321.066V164.992C321.066 165.344 320.974 165.62 320.79 165.82C320.606 166.012 320.33 166.108 319.962 166.108ZM328.176 166.132C327.32 166.132 326.568 165.952 325.92 165.592C325.272 165.224 324.768 164.712 324.408 164.056C324.056 163.4 323.88 162.636 323.88 161.764C323.88 161.108 323.98 160.512 324.18 159.976C324.388 159.44 324.68 158.98 325.056 158.596C325.44 158.212 325.896 157.92 326.424 157.72C326.952 157.512 327.536 157.408 328.176 157.408C329.032 157.408 329.78 157.588 330.42 157.948C331.068 158.308 331.572 158.816 331.932 159.472C332.292 160.12 332.472 160.884 332.472 161.764C332.472 162.42 332.368 163.016 332.16 163.552C331.96 164.088 331.668 164.552 331.284 164.944C330.908 165.328 330.456 165.624 329.928 165.832C329.4 166.032 328.816 166.132 328.176 166.132ZM328.176 164.284C328.6 164.284 328.96 164.184 329.256 163.984C329.552 163.784 329.78 163.496 329.94 163.12C330.1 162.744 330.18 162.292 330.18 161.764C330.18 160.972 330.004 160.356 329.652 159.916C329.3 159.476 328.808 159.256 328.176 159.256C327.76 159.256 327.4 159.356 327.096 159.556C326.8 159.748 326.572 160.032 326.412 160.408C326.252 160.776 326.172 161.228 326.172 161.764C326.172 162.556 326.348 163.176 326.7 163.624C327.052 164.064 327.544 164.284 328.176 164.284ZM334.88 166.108C334.528 166.108 334.256 166.012 334.064 165.82C333.872 165.62 333.776 165.344 333.776 164.992V158.656C333.776 158.296 333.872 158.02 334.064 157.828C334.264 157.636 334.54 157.54 334.892 157.54H337.844C338.804 157.54 339.544 157.776 340.064 158.248C340.592 158.712 340.856 159.36 340.856 160.192C340.856 160.728 340.736 161.196 340.496 161.596C340.264 161.988 339.924 162.292 339.476 162.508C339.036 162.716 338.492 162.82 337.844 162.82L337.94 162.604H338.516C338.86 162.604 339.164 162.688 339.428 162.856C339.692 163.016 339.912 163.264 340.088 163.6L340.688 164.68C340.816 164.912 340.876 165.14 340.868 165.364C340.86 165.58 340.772 165.76 340.604 165.904C340.444 166.04 340.208 166.108 339.896 166.108C339.584 166.108 339.328 166.044 339.128 165.916C338.936 165.788 338.764 165.588 338.612 165.316L337.52 163.312C337.424 163.136 337.3 163.016 337.148 162.952C337.004 162.88 336.836 162.844 336.644 162.844H335.984V164.992C335.984 165.344 335.892 165.62 335.708 165.82C335.524 166.012 335.248 166.108 334.88 166.108ZM335.984 161.284H337.448C337.872 161.284 338.196 161.2 338.42 161.032C338.644 160.864 338.756 160.604 338.756 160.252C338.756 159.916 338.644 159.664 338.42 159.496C338.196 159.32 337.872 159.232 337.448 159.232H335.984V161.284Z" fill="#00303F"/>
<rect x="352" y="155" width="14" height="14" rx="7" fill="#1EFF34"/>
<rect x="351" y="154" width="16" height="16" rx="8" stroke="black" stroke-opacity="0.25" stroke-width="2"/>
<path d="M390 183H0V185H390V183Z" fill="#C5C5C5" mask="url(#path-16-inside-1_96_777)"/>
</g>
<defs>
<clipPath id="clip0_96_777">
<rect width="390" height="844" fill="white"/>
</clipPath>
</defs>
</svg>
