<svg width="390" height="844" viewBox="0 0 390 844" fill="none" xmlns="http://www.w3.org/2000/svg">
<rect width="390" height="844" fill="#F5F4F4"/>
<rect width="390" height="140" fill="#00303F"/>
<path d="M184.423 59.8936L186.107 62.5929L187.815 59.9089L200.146 40.5316C201.755 38.003 205.525 38.2608 206.775 40.9849C207.303 42.1352 207.221 43.4733 206.556 44.5501L189.778 71.7204C188.1 74.4383 184.147 74.4383 182.469 71.7204L165.687 44.5434C165.016 43.4568 164.922 42.1098 165.435 40.9402C166.69 38.0789 170.638 37.7937 172.291 40.4447L184.423 59.8936Z" stroke="white" stroke-opacity="0.5" stroke-width="4.00872"/>
<path d="M202.176 52.0453L203.859 49.3461L205.567 52.03L217.898 71.4073C219.508 73.936 223.278 73.6781 224.528 70.954C225.056 69.8037 224.973 68.4657 224.309 67.3889L207.531 40.2186C205.853 37.5007 201.9 37.5007 200.222 40.2186L183.44 67.3955C182.769 68.4822 182.675 69.8292 183.188 70.9988C184.443 73.86 188.391 74.1453 190.044 71.4942L202.176 52.0453Z" stroke="#59DBAE" stroke-width="4.00872"/>
<path d="M135.247 108.7C134.218 108.7 133.31 108.573 132.521 108.319C131.733 108.052 131.065 107.658 130.517 107.137C129.982 106.616 129.575 105.967 129.294 105.192C129.027 104.404 128.893 103.495 128.893 102.467V96.0325C128.893 95.4179 129.054 94.9569 129.374 94.6495C129.695 94.3288 130.149 94.1685 130.737 94.1685C131.339 94.1685 131.793 94.3288 132.1 94.6495C132.421 94.9569 132.581 95.4179 132.581 96.0325V102.507C132.581 103.536 132.809 104.311 133.263 104.832C133.717 105.353 134.379 105.613 135.247 105.613C136.102 105.613 136.757 105.353 137.211 104.832C137.666 104.311 137.893 103.536 137.893 102.507V96.0325C137.893 95.4179 138.047 94.9569 138.354 94.6495C138.675 94.3288 139.129 94.1685 139.717 94.1685C140.305 94.1685 140.752 94.3288 141.06 94.6495C141.367 94.9569 141.521 95.4179 141.521 96.0325V102.467C141.521 103.843 141.28 104.999 140.799 105.934C140.332 106.856 139.63 107.551 138.695 108.019C137.759 108.473 136.61 108.7 135.247 108.7ZM153.571 108.66C152.983 108.66 152.528 108.5 152.208 108.179C151.887 107.845 151.727 107.384 151.727 106.796V96.2129C151.727 95.6116 151.887 95.1506 152.208 94.8299C152.542 94.5092 153.003 94.3489 153.591 94.3489H158.521C160.125 94.3489 161.361 94.7631 162.229 95.5916C163.111 96.4067 163.552 97.5358 163.552 98.9789C163.552 100.422 163.111 101.558 162.229 102.386C161.361 103.201 160.125 103.609 158.521 103.609H155.415V106.796C155.415 107.384 155.261 107.845 154.954 108.179C154.646 108.5 154.185 108.66 153.571 108.66ZM155.415 100.783H157.88C158.575 100.783 159.109 100.636 159.483 100.342C159.858 100.035 160.045 99.5803 160.045 98.9789C160.045 98.3643 159.858 97.91 159.483 97.616C159.109 97.322 158.575 97.175 157.88 97.175H155.415V100.783Z" fill="#59DBAE"/>
<path d="M173.807 108.48C173.513 108.48 173.285 108.406 173.125 108.259C172.978 108.099 172.905 107.872 172.905 107.578V95.2508C172.905 94.9569 172.978 94.7364 173.125 94.5894C173.285 94.429 173.513 94.3489 173.807 94.3489H177.675C179.96 94.3489 181.724 94.9502 182.966 96.1528C184.209 97.3554 184.83 99.1059 184.83 101.404C184.83 102.553 184.67 103.569 184.349 104.451C184.042 105.319 183.581 106.054 182.966 106.656C182.352 107.257 181.603 107.711 180.722 108.019C179.84 108.326 178.824 108.48 177.675 108.48H173.807ZM174.548 107.077H177.555C178.49 107.077 179.298 106.956 179.98 106.716C180.675 106.475 181.249 106.121 181.704 105.653C182.171 105.186 182.519 104.598 182.746 103.89C182.973 103.168 183.087 102.34 183.087 101.404C183.087 99.5201 182.626 98.1104 181.704 97.175C180.782 96.2263 179.399 95.7519 177.555 95.7519H174.548V107.077ZM200.885 108.66C199.576 108.66 198.433 108.366 197.458 107.778C196.496 107.177 195.748 106.335 195.213 105.253C194.692 104.17 194.431 102.887 194.431 101.404C194.431 100.282 194.578 99.2796 194.872 98.3977C195.18 97.5024 195.614 96.7474 196.175 96.1328C196.736 95.5047 197.411 95.0237 198.2 94.6896C199.001 94.3422 199.897 94.1685 200.885 94.1685C202.222 94.1685 203.371 94.4625 204.333 95.0504C205.308 95.6383 206.057 96.4735 206.578 97.5558C207.112 98.6248 207.38 99.901 207.38 101.384C207.38 102.507 207.226 103.515 206.919 104.411C206.611 105.306 206.177 106.068 205.616 106.696C205.054 107.324 204.373 107.811 203.571 108.159C202.783 108.493 201.888 108.66 200.885 108.66ZM200.885 107.197C201.901 107.197 202.756 106.97 203.451 106.515C204.159 106.061 204.7 105.4 205.075 104.531C205.449 103.662 205.636 102.62 205.636 101.404C205.636 99.5736 205.222 98.1572 204.393 97.155C203.578 96.1394 202.409 95.6317 200.885 95.6317C199.897 95.6317 199.048 95.8588 198.34 96.3131C197.645 96.7675 197.111 97.4289 196.736 98.2975C196.362 99.1527 196.175 100.188 196.175 101.404C196.175 103.222 196.589 104.645 197.418 105.674C198.246 106.689 199.402 107.197 200.885 107.197ZM222.02 108.62C221.779 108.62 221.585 108.56 221.438 108.44C221.291 108.306 221.171 108.112 221.078 107.858L216.648 95.2107C216.554 94.9301 216.575 94.6963 216.708 94.5092C216.855 94.3088 217.082 94.2086 217.39 94.2086C217.617 94.2086 217.797 94.2687 217.931 94.389C218.064 94.4959 218.178 94.6696 218.272 94.9101L222.421 107.077H221.719L225.948 94.9702C226.042 94.7163 226.155 94.5293 226.289 94.409C226.423 94.2754 226.603 94.2086 226.83 94.2086C227.044 94.2086 227.211 94.2754 227.331 94.409C227.465 94.5293 227.578 94.7163 227.672 94.9702L231.841 107.077H231.22L235.409 94.9101C235.476 94.6829 235.576 94.5092 235.709 94.389C235.856 94.2687 236.044 94.2086 236.271 94.2086C236.551 94.2086 236.758 94.3021 236.892 94.4892C237.026 94.6763 237.039 94.9168 236.932 95.2107L232.482 107.858C232.389 108.112 232.269 108.306 232.122 108.44C231.988 108.56 231.794 108.62 231.54 108.62C231.3 108.62 231.106 108.56 230.959 108.44C230.826 108.306 230.705 108.112 230.598 107.858L226.57 96.253H227.011L222.942 107.858C222.848 108.112 222.735 108.306 222.601 108.44C222.467 108.56 222.274 108.62 222.02 108.62ZM247.503 108.62C247.249 108.62 247.055 108.553 246.922 108.419C246.788 108.272 246.721 108.065 246.721 107.798V95.0504C246.721 94.7831 246.788 94.576 246.922 94.429C247.055 94.2821 247.229 94.2086 247.443 94.2086C247.657 94.2086 247.81 94.2487 247.904 94.3288C248.011 94.3956 248.131 94.5226 248.265 94.7097L257.004 106.355H256.523V95.0103C256.523 94.7564 256.59 94.5627 256.723 94.429C256.857 94.2821 257.051 94.2086 257.304 94.2086C257.545 94.2086 257.725 94.2821 257.846 94.429C257.979 94.5627 258.046 94.7564 258.046 95.0103V107.818C258.046 108.072 257.986 108.272 257.866 108.419C257.759 108.553 257.598 108.62 257.385 108.62C257.184 108.62 257.024 108.58 256.904 108.5C256.783 108.419 256.656 108.293 256.523 108.119L247.804 96.4735H248.265V107.798C248.265 108.065 248.198 108.272 248.064 108.419C247.931 108.553 247.744 108.62 247.503 108.62Z" fill="#F5F4F4"/>
<path d="M37.128 191C36.764 191 36.484 190.902 36.288 190.706C36.092 190.51 35.994 190.23 35.994 189.866V182.264C35.994 181.9 36.092 181.62 36.288 181.424C36.484 181.228 36.764 181.13 37.128 181.13H42.014C42.294 181.13 42.504 181.205 42.644 181.354C42.7933 181.494 42.868 181.699 42.868 181.97C42.868 182.25 42.7933 182.465 42.644 182.614C42.504 182.754 42.294 182.824 42.014 182.824H38.066V185.134H41.692C41.9813 185.134 42.196 185.209 42.336 185.358C42.4853 185.498 42.56 185.708 42.56 185.988C42.56 186.268 42.4853 186.483 42.336 186.632C42.196 186.772 41.9813 186.842 41.692 186.842H38.066V189.306H42.014C42.294 189.306 42.504 189.381 42.644 189.53C42.7933 189.67 42.868 189.875 42.868 190.146C42.868 190.426 42.7933 190.641 42.644 190.79C42.504 190.93 42.294 191 42.014 191H37.128ZM45.3806 191.126C45.0352 191.126 44.7692 191.033 44.5826 190.846C44.4052 190.659 44.3166 190.393 44.3166 190.048V185.078C44.3166 184.733 44.4052 184.471 44.5826 184.294C44.7692 184.107 45.0259 184.014 45.3526 184.014C45.6886 184.014 45.9452 184.107 46.1226 184.294C46.2999 184.471 46.3886 184.733 46.3886 185.078V185.974L46.2346 185.414C46.4212 184.985 46.7106 184.639 47.1026 184.378C47.4946 184.117 47.9566 183.986 48.4886 183.986C49.0206 183.986 49.4639 184.112 49.8186 184.364C50.1732 184.616 50.4252 185.003 50.5746 185.526H50.3786C50.5839 185.05 50.8966 184.677 51.3166 184.406C51.7459 184.126 52.2359 183.986 52.7866 183.986C53.3186 183.986 53.7526 184.093 54.0886 184.308C54.4339 184.513 54.6906 184.831 54.8586 185.26C55.0266 185.68 55.1106 186.217 55.1106 186.87V190.048C55.1106 190.393 55.0172 190.659 54.8306 190.846C54.6532 191.033 54.3966 191.126 54.0606 191.126C53.7152 191.126 53.4492 191.033 53.2626 190.846C53.0852 190.659 52.9966 190.393 52.9966 190.048V186.94C52.9966 186.483 52.9219 186.151 52.7726 185.946C52.6326 185.731 52.3899 185.624 52.0446 185.624C51.6432 185.624 51.3306 185.764 51.1066 186.044C50.8826 186.324 50.7706 186.721 50.7706 187.234V190.048C50.7706 190.393 50.6772 190.659 50.4906 190.846C50.3132 191.033 50.0566 191.126 49.7206 191.126C49.3846 191.126 49.1232 191.033 48.9366 190.846C48.7499 190.659 48.6566 190.393 48.6566 190.048V186.94C48.6566 186.483 48.5819 186.151 48.4326 185.946C48.2926 185.731 48.0499 185.624 47.7046 185.624C47.3032 185.624 46.9906 185.764 46.7666 186.044C46.5426 186.324 46.4306 186.721 46.4306 187.234V190.048C46.4306 190.767 46.0806 191.126 45.3806 191.126ZM59.054 191.154C58.55 191.154 58.0973 191.056 57.696 190.86C57.2946 190.664 56.982 190.398 56.758 190.062C56.534 189.726 56.422 189.348 56.422 188.928C56.422 188.424 56.5526 188.027 56.814 187.738C57.0753 187.439 57.5 187.229 58.088 187.108C58.676 186.977 59.4553 186.912 60.426 186.912H61.168V188.004H60.44C59.964 188.004 59.5766 188.032 59.278 188.088C58.9886 188.135 58.7786 188.219 58.648 188.34C58.5266 188.461 58.466 188.629 58.466 188.844C58.466 189.105 58.5546 189.32 58.732 189.488C58.9186 189.656 59.1846 189.74 59.53 189.74C59.8006 189.74 60.0386 189.679 60.244 189.558C60.4586 189.427 60.6266 189.255 60.748 189.04C60.8693 188.816 60.93 188.564 60.93 188.284V186.674C60.93 186.263 60.8366 185.974 60.65 185.806C60.4633 185.629 60.146 185.54 59.698 185.54C59.446 185.54 59.1706 185.573 58.872 185.638C58.5826 185.694 58.2606 185.792 57.906 185.932C57.7006 186.025 57.5186 186.049 57.36 186.002C57.2013 185.946 57.08 185.853 56.996 185.722C56.912 185.582 56.87 185.433 56.87 185.274C56.87 185.106 56.9166 184.947 57.01 184.798C57.1033 184.639 57.2573 184.523 57.472 184.448C57.9106 184.271 58.3213 184.149 58.704 184.084C59.096 184.019 59.4553 183.986 59.782 183.986C60.5006 183.986 61.0886 184.093 61.546 184.308C62.0126 184.513 62.3626 184.835 62.596 185.274C62.8293 185.703 62.946 186.259 62.946 186.94V190.048C62.946 190.393 62.862 190.659 62.694 190.846C62.526 191.033 62.2833 191.126 61.966 191.126C61.6486 191.126 61.4013 191.033 61.224 190.846C61.056 190.659 60.972 190.393 60.972 190.048V189.53L61.07 189.614C61.014 189.931 60.8926 190.207 60.706 190.44C60.5286 190.664 60.3 190.841 60.02 190.972C59.74 191.093 59.418 191.154 59.054 191.154ZM65.5869 191.112C65.2416 191.112 64.9756 191.014 64.7889 190.818C64.6116 190.613 64.5229 190.328 64.5229 189.964V185.176C64.5229 184.803 64.6116 184.518 64.7889 184.322C64.9756 184.117 65.2416 184.014 65.5869 184.014C65.9229 184.014 66.1796 184.117 66.3569 184.322C66.5436 184.518 66.6369 184.803 66.6369 185.176V189.964C66.6369 190.328 66.5483 190.613 66.3709 190.818C66.1936 191.014 65.9323 191.112 65.5869 191.112ZM65.5869 182.866C65.1949 182.866 64.8916 182.777 64.6769 182.6C64.4716 182.413 64.3689 182.152 64.3689 181.816C64.3689 181.471 64.4716 181.209 64.6769 181.032C64.8916 180.845 65.1949 180.752 65.5869 180.752C65.9789 180.752 66.2776 180.845 66.4829 181.032C66.6883 181.209 66.7909 181.471 66.7909 181.816C66.7909 182.152 66.6883 182.413 66.4829 182.6C66.2776 182.777 65.9789 182.866 65.5869 182.866ZM70.747 191.154C69.9164 191.154 69.2957 190.925 68.885 190.468C68.4744 190.001 68.269 189.311 68.269 188.396V182.082C68.269 181.727 68.3577 181.461 68.535 181.284C68.7217 181.097 68.9877 181.004 69.333 181.004C69.669 181.004 69.9257 181.097 70.103 181.284C70.2897 181.461 70.383 181.727 70.383 182.082V188.312C70.383 188.695 70.4624 188.979 70.621 189.166C70.789 189.343 71.0084 189.432 71.279 189.432C71.3537 189.432 71.4237 189.427 71.489 189.418C71.5544 189.409 71.6244 189.404 71.699 189.404C71.8484 189.385 71.951 189.432 72.007 189.544C72.0724 189.647 72.105 189.857 72.105 190.174C72.105 190.454 72.049 190.669 71.937 190.818C71.825 190.958 71.6524 191.051 71.419 191.098C71.3257 191.107 71.2184 191.117 71.097 191.126C70.9757 191.145 70.859 191.154 70.747 191.154Z" fill="#00303F"/>
<rect x="35.5" y="200.5" width="319" height="42" rx="4.5" fill="white"/>
<path d="M57.112 227C56.8773 227 56.696 226.941 56.568 226.824C56.4507 226.696 56.392 226.515 56.392 226.28V216.44C56.392 216.205 56.4507 216.029 56.568 215.912C56.696 215.784 56.8773 215.72 57.112 215.72H63.064C63.2453 215.72 63.384 215.768 63.48 215.864C63.576 215.96 63.624 216.093 63.624 216.264C63.624 216.445 63.576 216.584 63.48 216.68C63.384 216.776 63.2453 216.824 63.064 216.824H57.672V220.728H62.728C62.9093 220.728 63.048 220.776 63.144 220.872C63.24 220.957 63.288 221.091 63.288 221.272C63.288 221.453 63.24 221.592 63.144 221.688C63.048 221.784 62.9093 221.832 62.728 221.832H57.672V225.896H63.064C63.2453 225.896 63.384 225.944 63.48 226.04C63.576 226.136 63.624 226.269 63.624 226.44C63.624 226.621 63.576 226.76 63.48 226.856C63.384 226.952 63.2453 227 63.064 227H57.112ZM66.1841 227.112C65.9708 227.112 65.8108 227.053 65.7041 226.936C65.5975 226.819 65.5441 226.653 65.5441 226.44V219.768C65.5441 219.555 65.5975 219.395 65.7041 219.288C65.8108 219.171 65.9655 219.112 66.1681 219.112C66.3708 219.112 66.5255 219.171 66.6321 219.288C66.7495 219.395 66.8081 219.555 66.8081 219.768V221.144L66.6321 220.952C66.8561 220.333 67.2188 219.869 67.7201 219.56C68.2321 219.24 68.8188 219.08 69.4801 219.08C70.0988 219.08 70.6108 219.192 71.0161 219.416C71.4321 219.64 71.7415 219.981 71.9441 220.44C72.1468 220.888 72.2481 221.459 72.2481 222.152V226.44C72.2481 226.653 72.1895 226.819 72.0721 226.936C71.9655 227.053 71.8108 227.112 71.6081 227.112C71.3948 227.112 71.2295 227.053 71.1121 226.936C71.0055 226.819 70.9521 226.653 70.9521 226.44V222.232C70.9521 221.507 70.8081 220.979 70.5201 220.648C70.2428 220.307 69.7948 220.136 69.1761 220.136C68.4615 220.136 67.8908 220.36 67.4641 220.808C67.0481 221.245 66.8401 221.832 66.8401 222.568V226.44C66.8401 226.888 66.6215 227.112 66.1841 227.112ZM77.7579 227.144C77.1499 227.144 76.6379 227.037 76.2219 226.824C75.8165 226.6 75.5125 226.28 75.3099 225.864C75.1072 225.437 75.0059 224.92 75.0059 224.312V220.232H73.9339C73.7525 220.232 73.6139 220.189 73.5179 220.104C73.4219 220.008 73.3739 219.88 73.3739 219.72C73.3739 219.56 73.4219 219.437 73.5179 219.352C73.6139 219.267 73.7525 219.224 73.9339 219.224H75.0059V217.384C75.0059 217.171 75.0645 217.011 75.1819 216.904C75.2992 216.787 75.4592 216.728 75.6619 216.728C75.8645 216.728 76.0192 216.787 76.1259 216.904C76.2432 217.011 76.3019 217.171 76.3019 217.384V219.224H78.3179C78.4992 219.224 78.6379 219.267 78.7339 219.352C78.8299 219.437 78.8779 219.56 78.8779 219.72C78.8779 219.88 78.8299 220.008 78.7339 220.104C78.6379 220.189 78.4992 220.232 78.3179 220.232H76.3019V224.184C76.3019 224.792 76.4299 225.256 76.6859 225.576C76.9419 225.885 77.3579 226.04 77.9339 226.04C78.1365 226.04 78.3072 226.019 78.4459 225.976C78.5952 225.933 78.7179 225.912 78.8139 225.912C78.9099 225.901 78.9899 225.933 79.0539 226.008C79.1179 226.083 79.1499 226.211 79.1499 226.392C79.1499 226.52 79.1232 226.637 79.0699 226.744C79.0272 226.851 78.9472 226.925 78.8299 226.968C78.7019 227.011 78.5312 227.048 78.3179 227.08C78.1152 227.123 77.9285 227.144 77.7579 227.144ZM83.6575 227.144C82.8362 227.144 82.1268 226.984 81.5295 226.664C80.9428 226.333 80.4842 225.869 80.1535 225.272C79.8335 224.675 79.6735 223.96 79.6735 223.128C79.6735 222.317 79.8335 221.613 80.1535 221.016C80.4735 220.408 80.9108 219.933 81.4655 219.592C82.0308 219.251 82.6815 219.08 83.4175 219.08C83.9402 219.08 84.4095 219.171 84.8255 219.352C85.2415 219.523 85.5935 219.773 85.8815 220.104C86.1802 220.435 86.4042 220.835 86.5535 221.304C86.7135 221.773 86.7935 222.301 86.7935 222.888C86.7935 223.059 86.7455 223.187 86.6495 223.272C86.5535 223.347 86.4148 223.384 86.2335 223.384H80.6655V222.536H85.9295L85.6735 222.744C85.6735 222.168 85.5882 221.683 85.4175 221.288C85.2468 220.883 84.9962 220.573 84.6655 220.36C84.3455 220.147 83.9402 220.04 83.4495 220.04C82.9055 220.04 82.4415 220.168 82.0575 220.424C81.6842 220.669 81.4015 221.016 81.2095 221.464C81.0175 221.901 80.9215 222.413 80.9215 223V223.096C80.9215 224.077 81.1562 224.824 81.6255 225.336C82.1055 225.848 82.7828 226.104 83.6575 226.104C84.0202 226.104 84.3775 226.056 84.7295 225.96C85.0922 225.864 85.4442 225.704 85.7855 225.48C85.9348 225.384 86.0682 225.341 86.1855 225.352C86.3135 225.352 86.4148 225.389 86.4895 225.464C86.5642 225.528 86.6122 225.613 86.6335 225.72C86.6655 225.816 86.6548 225.923 86.6015 226.04C86.5588 226.157 86.4682 226.259 86.3295 226.344C85.9775 226.6 85.5615 226.797 85.0815 226.936C84.6015 227.075 84.1268 227.144 83.6575 227.144ZM89.3251 227.112C89.1118 227.112 88.9465 227.053 88.8291 226.936C88.7225 226.819 88.6691 226.653 88.6691 226.44V219.768C88.6691 219.555 88.7225 219.395 88.8291 219.288C88.9358 219.171 89.0905 219.112 89.2931 219.112C89.4958 219.112 89.6505 219.171 89.7571 219.288C89.8745 219.395 89.9331 219.555 89.9331 219.768V221.064H89.7731C89.9438 220.435 90.2691 219.949 90.7491 219.608C91.2291 219.267 91.8211 219.085 92.5251 219.064C92.6851 219.053 92.8131 219.091 92.9091 219.176C93.0051 219.251 93.0585 219.384 93.0691 219.576C93.0798 219.757 93.0371 219.901 92.9411 220.008C92.8451 220.115 92.6958 220.179 92.4931 220.2L92.2371 220.232C91.5118 220.296 90.9518 220.531 90.5571 220.936C90.1731 221.331 89.9811 221.875 89.9811 222.568V226.44C89.9811 226.653 89.9225 226.819 89.8051 226.936C89.6985 227.053 89.5385 227.112 89.3251 227.112ZM99.4245 227C99.1898 227 99.0085 226.941 98.8805 226.824C98.7632 226.696 98.7045 226.515 98.7045 226.28V216.44C98.7045 216.205 98.7632 216.029 98.8805 215.912C99.0085 215.784 99.1898 215.72 99.4245 215.72H105.377C105.558 215.72 105.697 215.768 105.793 215.864C105.889 215.96 105.937 216.093 105.937 216.264C105.937 216.445 105.889 216.584 105.793 216.68C105.697 216.776 105.558 216.824 105.377 216.824H99.9845V220.728H105.041C105.222 220.728 105.361 220.776 105.457 220.872C105.553 220.957 105.601 221.091 105.601 221.272C105.601 221.453 105.553 221.592 105.457 221.688C105.361 221.784 105.222 221.832 105.041 221.832H99.9845V225.896H105.377C105.558 225.896 105.697 225.944 105.793 226.04C105.889 226.136 105.937 226.269 105.937 226.44C105.937 226.621 105.889 226.76 105.793 226.856C105.697 226.952 105.558 227 105.377 227H99.4245ZM108.529 227.112C108.315 227.112 108.155 227.053 108.049 226.936C107.942 226.819 107.889 226.653 107.889 226.44V219.768C107.889 219.555 107.942 219.395 108.049 219.288C108.155 219.171 108.31 219.112 108.513 219.112C108.715 219.112 108.87 219.171 108.977 219.288C109.094 219.395 109.153 219.555 109.153 219.768V221.176L108.977 220.952C109.179 220.355 109.505 219.896 109.953 219.576C110.411 219.245 110.955 219.08 111.585 219.08C112.246 219.08 112.779 219.24 113.185 219.56C113.601 219.869 113.878 220.355 114.017 221.016H113.777C113.969 220.419 114.31 219.949 114.801 219.608C115.302 219.256 115.883 219.08 116.545 219.08C117.131 219.08 117.611 219.192 117.985 219.416C118.369 219.64 118.657 219.981 118.849 220.44C119.041 220.888 119.137 221.459 119.137 222.152V226.44C119.137 226.653 119.078 226.819 118.961 226.936C118.854 227.053 118.694 227.112 118.481 227.112C118.278 227.112 118.118 227.053 118.001 226.936C117.894 226.819 117.841 226.653 117.841 226.44V222.216C117.841 221.501 117.718 220.979 117.473 220.648C117.227 220.307 116.811 220.136 116.225 220.136C115.585 220.136 115.078 220.36 114.705 220.808C114.342 221.245 114.161 221.843 114.161 222.6V226.44C114.161 226.653 114.102 226.819 113.985 226.936C113.878 227.053 113.718 227.112 113.505 227.112C113.302 227.112 113.142 227.053 113.025 226.936C112.918 226.819 112.865 226.653 112.865 226.44V222.216C112.865 221.501 112.737 220.979 112.481 220.648C112.235 220.307 111.825 220.136 111.249 220.136C110.609 220.136 110.102 220.36 109.729 220.808C109.366 221.245 109.185 221.843 109.185 222.6V226.44C109.185 226.888 108.966 227.112 108.529 227.112ZM124.008 227.144C123.474 227.144 122.994 227.043 122.568 226.84C122.152 226.627 121.821 226.339 121.576 225.976C121.33 225.613 121.208 225.208 121.208 224.76C121.208 224.184 121.352 223.731 121.64 223.4C121.938 223.069 122.424 222.835 123.096 222.696C123.778 222.557 124.706 222.488 125.88 222.488H126.6V223.336H125.896C125.032 223.336 124.349 223.379 123.848 223.464C123.357 223.539 123.01 223.672 122.808 223.864C122.616 224.056 122.52 224.328 122.52 224.68C122.52 225.117 122.669 225.475 122.968 225.752C123.277 226.029 123.693 226.168 124.216 226.168C124.642 226.168 125.016 226.067 125.336 225.864C125.666 225.661 125.922 225.384 126.104 225.032C126.296 224.68 126.392 224.275 126.392 223.816V221.992C126.392 221.331 126.258 220.856 125.992 220.568C125.725 220.269 125.288 220.12 124.68 220.12C124.306 220.12 123.933 220.168 123.56 220.264C123.186 220.36 122.792 220.515 122.376 220.728C122.226 220.803 122.098 220.829 121.992 220.808C121.885 220.776 121.8 220.717 121.736 220.632C121.672 220.547 121.634 220.451 121.624 220.344C121.613 220.227 121.634 220.115 121.688 220.008C121.752 219.901 121.848 219.816 121.976 219.752C122.445 219.517 122.909 219.347 123.368 219.24C123.826 219.133 124.264 219.08 124.68 219.08C125.352 219.08 125.906 219.192 126.344 219.416C126.781 219.629 127.106 219.96 127.32 220.408C127.533 220.845 127.64 221.411 127.64 222.104V226.44C127.64 226.653 127.586 226.819 127.48 226.936C127.384 227.053 127.24 227.112 127.048 227.112C126.845 227.112 126.69 227.053 126.584 226.936C126.477 226.819 126.424 226.653 126.424 226.44V225.192H126.568C126.482 225.597 126.317 225.944 126.072 226.232C125.837 226.52 125.544 226.744 125.192 226.904C124.84 227.064 124.445 227.144 124.008 227.144ZM130.684 227.08C130.471 227.08 130.311 227.021 130.204 226.904C130.097 226.776 130.044 226.6 130.044 226.376V219.832C130.044 219.608 130.097 219.437 130.204 219.32C130.311 219.203 130.471 219.144 130.684 219.144C130.887 219.144 131.047 219.203 131.164 219.32C131.281 219.437 131.34 219.608 131.34 219.832V226.376C131.34 226.6 131.281 226.776 131.164 226.904C131.057 227.021 130.897 227.08 130.684 227.08ZM130.684 217.352C130.417 217.352 130.209 217.283 130.06 217.144C129.911 216.995 129.836 216.797 129.836 216.552C129.836 216.296 129.911 216.104 130.06 215.976C130.209 215.837 130.417 215.768 130.684 215.768C130.961 215.768 131.169 215.837 131.308 215.976C131.457 216.104 131.532 216.296 131.532 216.552C131.532 216.797 131.457 216.995 131.308 217.144C131.169 217.283 130.961 217.352 130.684 217.352ZM136.131 227.144C135.363 227.144 134.776 226.909 134.371 226.44C133.966 225.971 133.763 225.299 133.763 224.424V216.264C133.763 216.051 133.816 215.891 133.923 215.784C134.03 215.667 134.19 215.608 134.403 215.608C134.606 215.608 134.766 215.667 134.883 215.784C135 215.891 135.059 216.051 135.059 216.264V224.328C135.059 224.904 135.171 225.336 135.395 225.624C135.63 225.901 135.971 226.04 136.419 226.04C136.515 226.04 136.6 226.035 136.675 226.024C136.75 226.013 136.824 226.008 136.899 226.008C137.016 225.997 137.096 226.024 137.139 226.088C137.192 226.152 137.219 226.28 137.219 226.472C137.219 226.664 137.176 226.808 137.091 226.904C137.006 227 136.867 227.064 136.675 227.096C136.59 227.107 136.499 227.117 136.403 227.128C136.307 227.139 136.216 227.144 136.131 227.144Z" fill="#00303F" fill-opacity="0.5"/>
<rect x="35.5" y="200.5" width="319" height="42" rx="4.5" stroke="#C5C5C5"/>
<path d="M40.782 274.154C39.718 274.154 38.808 273.944 38.052 273.524C37.296 273.104 36.7127 272.516 36.302 271.76C35.9007 270.995 35.7 270.094 35.7 269.058C35.7 268.283 35.812 267.588 36.036 266.972C36.2693 266.347 36.6053 265.815 37.044 265.376C37.4827 264.928 38.0147 264.583 38.64 264.34C39.2747 264.097 39.9887 263.976 40.782 263.976C41.2487 263.976 41.72 264.037 42.196 264.158C42.6813 264.27 43.1013 264.433 43.456 264.648C43.6893 264.779 43.848 264.942 43.932 265.138C44.016 265.334 44.0393 265.53 44.002 265.726C43.974 265.922 43.8947 266.09 43.764 266.23C43.6427 266.37 43.4887 266.459 43.302 266.496C43.1153 266.533 42.9053 266.491 42.672 266.37C42.392 266.202 42.098 266.081 41.79 266.006C41.482 265.931 41.1693 265.894 40.852 265.894C40.2267 265.894 39.6993 266.02 39.27 266.272C38.85 266.515 38.5327 266.869 38.318 267.336C38.1033 267.803 37.996 268.377 37.996 269.058C37.996 269.73 38.1033 270.304 38.318 270.78C38.5327 271.256 38.85 271.62 39.27 271.872C39.6993 272.115 40.2267 272.236 40.852 272.236C41.1507 272.236 41.454 272.199 41.762 272.124C42.0793 272.049 42.3827 271.933 42.672 271.774C42.9147 271.653 43.1293 271.611 43.316 271.648C43.512 271.676 43.6707 271.76 43.792 271.9C43.9227 272.031 44.002 272.189 44.03 272.376C44.0673 272.563 44.0487 272.749 43.974 272.936C43.8993 273.123 43.7593 273.281 43.554 273.412C43.2087 273.645 42.784 273.827 42.28 273.958C41.776 274.089 41.2767 274.154 40.782 274.154ZM46.4463 274.126C46.101 274.126 45.835 274.033 45.6483 273.846C45.471 273.659 45.3823 273.393 45.3823 273.048V265.082C45.3823 264.727 45.471 264.461 45.6483 264.284C45.835 264.097 46.101 264.004 46.4463 264.004C46.7823 264.004 47.039 264.097 47.2163 264.284C47.403 264.461 47.4963 264.727 47.4963 265.082V268.414H47.3003C47.515 267.957 47.8323 267.607 48.2523 267.364C48.6816 267.112 49.167 266.986 49.7083 266.986C50.259 266.986 50.7116 267.093 51.0663 267.308C51.421 267.513 51.687 267.831 51.8643 268.26C52.0416 268.68 52.1303 269.217 52.1303 269.87V273.048C52.1303 273.393 52.037 273.659 51.8503 273.846C51.673 274.033 51.4116 274.126 51.0663 274.126C50.7303 274.126 50.469 274.033 50.2823 273.846C50.105 273.659 50.0163 273.393 50.0163 273.048V269.968C50.0163 269.492 49.9276 269.151 49.7503 268.946C49.5823 268.731 49.321 268.624 48.9663 268.624C48.5183 268.624 48.159 268.764 47.8883 269.044C47.627 269.324 47.4963 269.697 47.4963 270.164V273.048C47.4963 273.767 47.1463 274.126 46.4463 274.126ZM57.0125 274.154C56.2752 274.154 55.6312 274.009 55.0805 273.72C54.5392 273.431 54.1192 273.015 53.8205 272.474C53.5218 271.933 53.3725 271.293 53.3725 270.556C53.3725 270.005 53.4565 269.511 53.6245 269.072C53.7925 268.633 54.0352 268.26 54.3525 267.952C54.6792 267.635 55.0665 267.397 55.5145 267.238C55.9625 267.07 56.4618 266.986 57.0125 266.986C57.7498 266.986 58.3892 267.131 58.9305 267.42C59.4812 267.709 59.9058 268.12 60.2045 268.652C60.5125 269.184 60.6665 269.819 60.6665 270.556C60.6665 271.116 60.5778 271.615 60.4005 272.054C60.2325 272.493 59.9898 272.871 59.6725 273.188C59.3552 273.505 58.9678 273.748 58.5105 273.916C58.0625 274.075 57.5632 274.154 57.0125 274.154ZM57.0125 272.572C57.3205 272.572 57.5865 272.497 57.8105 272.348C58.0345 272.199 58.2118 271.979 58.3425 271.69C58.4732 271.391 58.5385 271.013 58.5385 270.556C58.5385 269.875 58.3985 269.375 58.1185 269.058C57.8385 268.731 57.4698 268.568 57.0125 268.568C56.7138 268.568 56.4478 268.638 56.2145 268.778C55.9905 268.918 55.8132 269.137 55.6825 269.436C55.5612 269.725 55.5005 270.099 55.5005 270.556C55.5005 271.237 55.6405 271.746 55.9205 272.082C56.2005 272.409 56.5645 272.572 57.0125 272.572ZM65.2566 274.154C64.5193 274.154 63.8753 274.009 63.3246 273.72C62.7833 273.431 62.3633 273.015 62.0646 272.474C61.766 271.933 61.6166 271.293 61.6166 270.556C61.6166 270.005 61.7006 269.511 61.8686 269.072C62.0366 268.633 62.2793 268.26 62.5966 267.952C62.9233 267.635 63.3106 267.397 63.7586 267.238C64.2066 267.07 64.706 266.986 65.2566 266.986C65.994 266.986 66.6333 267.131 67.1746 267.42C67.7253 267.709 68.15 268.12 68.4486 268.652C68.7566 269.184 68.9106 269.819 68.9106 270.556C68.9106 271.116 68.822 271.615 68.6446 272.054C68.4766 272.493 68.234 272.871 67.9166 273.188C67.5993 273.505 67.212 273.748 66.7546 273.916C66.3066 274.075 65.8073 274.154 65.2566 274.154ZM65.2566 272.572C65.5646 272.572 65.8306 272.497 66.0546 272.348C66.2786 272.199 66.456 271.979 66.5866 271.69C66.7173 271.391 66.7826 271.013 66.7826 270.556C66.7826 269.875 66.6426 269.375 66.3626 269.058C66.0826 268.731 65.714 268.568 65.2566 268.568C64.958 268.568 64.692 268.638 64.4586 268.778C64.2346 268.918 64.0573 269.137 63.9266 269.436C63.8053 269.725 63.7446 270.099 63.7446 270.556C63.7446 271.237 63.8846 271.746 64.1646 272.082C64.4446 272.409 64.8086 272.572 65.2566 272.572ZM72.8288 274.154C72.4181 274.154 71.9934 274.117 71.5548 274.042C71.1254 273.967 70.7334 273.841 70.3788 273.664C70.1921 273.571 70.0568 273.454 69.9728 273.314C69.8981 273.165 69.8654 273.015 69.8748 272.866C69.8841 272.717 69.9308 272.581 70.0148 272.46C70.1081 272.339 70.2248 272.259 70.3648 272.222C70.5141 272.175 70.6774 272.189 70.8548 272.264C71.2374 272.423 71.5874 272.535 71.9048 272.6C72.2221 272.665 72.5348 272.698 72.8428 272.698C73.2441 272.698 73.5334 272.637 73.7108 272.516C73.8974 272.385 73.9908 272.217 73.9908 272.012C73.9908 271.825 73.9301 271.685 73.8088 271.592C73.6874 271.499 73.5101 271.433 73.2768 271.396L71.8068 271.13C71.2281 271.027 70.7801 270.817 70.4628 270.5C70.1548 270.173 70.0008 269.758 70.0008 269.254C70.0008 268.787 70.1314 268.386 70.3928 268.05C70.6541 267.705 71.0134 267.443 71.4708 267.266C71.9374 267.079 72.4648 266.986 73.0528 266.986C73.4728 266.986 73.8601 267.023 74.2148 267.098C74.5694 267.173 74.9101 267.294 75.2368 267.462C75.4048 267.546 75.5214 267.658 75.5868 267.798C75.6614 267.938 75.6848 268.083 75.6568 268.232C75.6381 268.381 75.5821 268.517 75.4888 268.638C75.3954 268.759 75.2741 268.839 75.1248 268.876C74.9848 268.913 74.8214 268.895 74.6348 268.82C74.3361 268.68 74.0608 268.582 73.8088 268.526C73.5568 268.461 73.3141 268.428 73.0808 268.428C72.6608 268.428 72.3574 268.498 72.1708 268.638C71.9841 268.769 71.8908 268.937 71.8908 269.142C71.8908 269.301 71.9421 269.436 72.0448 269.548C72.1568 269.651 72.3248 269.721 72.5488 269.758L74.0188 270.024C74.6254 270.127 75.0874 270.332 75.4048 270.64C75.7221 270.939 75.8808 271.349 75.8808 271.872C75.8808 272.581 75.6008 273.141 75.0408 273.552C74.4901 273.953 73.7528 274.154 72.8288 274.154ZM80.6574 274.154C79.8454 274.154 79.1454 274.009 78.5574 273.72C77.9787 273.421 77.5307 273.006 77.2134 272.474C76.9054 271.933 76.7514 271.298 76.7514 270.57C76.7514 269.861 76.9007 269.24 77.1994 268.708C77.4981 268.167 77.9134 267.747 78.4454 267.448C78.9867 267.14 79.5981 266.986 80.2794 266.986C80.7741 266.986 81.2221 267.07 81.6234 267.238C82.0247 267.397 82.3701 267.63 82.6594 267.938C82.9487 268.237 83.1681 268.605 83.3174 269.044C83.4667 269.473 83.5414 269.954 83.5414 270.486C83.5414 270.663 83.4854 270.799 83.3734 270.892C83.2614 270.976 83.0981 271.018 82.8834 271.018H78.4874V269.926H82.0154L81.7914 270.122C81.7914 269.739 81.7354 269.422 81.6234 269.17C81.5114 268.909 81.3481 268.713 81.1334 268.582C80.9281 268.451 80.6714 268.386 80.3634 268.386C80.0181 268.386 79.7241 268.465 79.4814 268.624C79.2387 268.783 79.0521 269.011 78.9214 269.31C78.7907 269.609 78.7254 269.968 78.7254 270.388V270.5C78.7254 271.209 78.8887 271.732 79.2154 272.068C79.5514 272.404 80.0461 272.572 80.6994 272.572C80.9234 272.572 81.1801 272.544 81.4694 272.488C81.7587 272.432 82.0294 272.343 82.2814 272.222C82.4961 272.119 82.6874 272.087 82.8554 272.124C83.0234 272.152 83.1541 272.227 83.2474 272.348C83.3407 272.469 83.3921 272.609 83.4014 272.768C83.4201 272.927 83.3874 273.085 83.3034 273.244C83.2194 273.393 83.0794 273.519 82.8834 273.622C82.5661 273.799 82.2067 273.93 81.8054 274.014C81.4134 274.107 81.0307 274.154 80.6574 274.154ZM89.9551 274.126C89.6005 274.126 89.3298 274.028 89.1431 273.832C88.9565 273.636 88.8631 273.361 88.8631 273.006V265.124C88.8631 264.769 88.9565 264.494 89.1431 264.298C89.3298 264.102 89.6005 264.004 89.9551 264.004C90.3005 264.004 90.5665 264.102 90.7531 264.298C90.9398 264.494 91.0331 264.769 91.0331 265.124V268.092H95.6251V265.124C95.6251 264.769 95.7185 264.494 95.9051 264.298C96.0918 264.102 96.3578 264.004 96.7031 264.004C97.0578 264.004 97.3285 264.102 97.5151 264.298C97.7018 264.494 97.7951 264.769 97.7951 265.124V273.006C97.7951 273.361 97.7018 273.636 97.5151 273.832C97.3285 274.028 97.0578 274.126 96.7031 274.126C96.3578 274.126 96.0918 274.028 95.9051 273.832C95.7185 273.636 95.6251 273.361 95.6251 273.006V269.898H91.0331V273.006C91.0331 273.361 90.9398 273.636 90.7531 273.832C90.5758 274.028 90.3098 274.126 89.9551 274.126ZM102.909 274.154C102.172 274.154 101.528 274.009 100.977 273.72C100.436 273.431 100.016 273.015 99.717 272.474C99.4183 271.933 99.269 271.293 99.269 270.556C99.269 270.005 99.353 269.511 99.521 269.072C99.689 268.633 99.9316 268.26 100.249 267.952C100.576 267.635 100.963 267.397 101.411 267.238C101.859 267.07 102.358 266.986 102.909 266.986C103.646 266.986 104.286 267.131 104.827 267.42C105.378 267.709 105.802 268.12 106.101 268.652C106.409 269.184 106.563 269.819 106.563 270.556C106.563 271.116 106.474 271.615 106.297 272.054C106.129 272.493 105.886 272.871 105.569 273.188C105.252 273.505 104.864 273.748 104.407 273.916C103.959 274.075 103.46 274.154 102.909 274.154ZM102.909 272.572C103.217 272.572 103.483 272.497 103.707 272.348C103.931 272.199 104.108 271.979 104.239 271.69C104.37 271.391 104.435 271.013 104.435 270.556C104.435 269.875 104.295 269.375 104.015 269.058C103.735 268.731 103.366 268.568 102.909 268.568C102.61 268.568 102.344 268.638 102.111 268.778C101.887 268.918 101.71 269.137 101.579 269.436C101.458 269.725 101.397 270.099 101.397 270.556C101.397 271.237 101.537 271.746 101.817 272.082C102.097 272.409 102.461 272.572 102.909 272.572ZM110.481 274.154C110.07 274.154 109.646 274.117 109.207 274.042C108.778 273.967 108.386 273.841 108.031 273.664C107.844 273.571 107.709 273.454 107.625 273.314C107.55 273.165 107.518 273.015 107.527 272.866C107.536 272.717 107.583 272.581 107.667 272.46C107.76 272.339 107.877 272.259 108.017 272.222C108.166 272.175 108.33 272.189 108.507 272.264C108.89 272.423 109.24 272.535 109.557 272.6C109.874 272.665 110.187 272.698 110.495 272.698C110.896 272.698 111.186 272.637 111.363 272.516C111.55 272.385 111.643 272.217 111.643 272.012C111.643 271.825 111.582 271.685 111.461 271.592C111.34 271.499 111.162 271.433 110.929 271.396L109.459 271.13C108.88 271.027 108.432 270.817 108.115 270.5C107.807 270.173 107.653 269.758 107.653 269.254C107.653 268.787 107.784 268.386 108.045 268.05C108.306 267.705 108.666 267.443 109.123 267.266C109.59 267.079 110.117 266.986 110.705 266.986C111.125 266.986 111.512 267.023 111.867 267.098C112.222 267.173 112.562 267.294 112.889 267.462C113.057 267.546 113.174 267.658 113.239 267.798C113.314 267.938 113.337 268.083 113.309 268.232C113.29 268.381 113.234 268.517 113.141 268.638C113.048 268.759 112.926 268.839 112.777 268.876C112.637 268.913 112.474 268.895 112.287 268.82C111.988 268.68 111.713 268.582 111.461 268.526C111.209 268.461 110.966 268.428 110.733 268.428C110.313 268.428 110.01 268.498 109.823 268.638C109.636 268.769 109.543 268.937 109.543 269.142C109.543 269.301 109.594 269.436 109.697 269.548C109.809 269.651 109.977 269.721 110.201 269.758L111.671 270.024C112.278 270.127 112.74 270.332 113.057 270.64C113.374 270.939 113.533 271.349 113.533 271.872C113.533 272.581 113.253 273.141 112.693 273.552C112.142 273.953 111.405 274.154 110.481 274.154ZM118.045 274.154C117.401 274.154 116.86 274.047 116.421 273.832C115.992 273.617 115.67 273.305 115.455 272.894C115.25 272.483 115.147 271.965 115.147 271.34V268.708H114.559C114.298 268.708 114.093 268.638 113.943 268.498C113.803 268.358 113.733 268.167 113.733 267.924C113.733 267.663 113.803 267.467 113.943 267.336C114.093 267.196 114.298 267.126 114.559 267.126H115.147V266.062C115.147 265.707 115.241 265.441 115.427 265.264C115.614 265.077 115.875 264.984 116.211 264.984C116.557 264.984 116.818 265.077 116.995 265.264C117.173 265.441 117.261 265.707 117.261 266.062V267.126H118.591C118.853 267.126 119.053 267.196 119.193 267.336C119.333 267.467 119.403 267.663 119.403 267.924C119.403 268.167 119.333 268.358 119.193 268.498C119.053 268.638 118.853 268.708 118.591 268.708H117.261V271.256C117.261 271.648 117.35 271.942 117.527 272.138C117.714 272.334 118.008 272.432 118.409 272.432C118.549 272.432 118.68 272.418 118.801 272.39C118.923 272.362 119.035 272.343 119.137 272.334C119.268 272.325 119.375 272.367 119.459 272.46C119.543 272.544 119.585 272.735 119.585 273.034C119.585 273.258 119.548 273.454 119.473 273.622C119.399 273.79 119.268 273.911 119.081 273.986C118.96 274.033 118.792 274.07 118.577 274.098C118.372 274.135 118.195 274.154 118.045 274.154Z" fill="#00303F"/>
<rect x="35.5" y="283.5" width="319" height="42" rx="4.5" fill="white"/>
<path d="M57.112 310C56.8773 310 56.696 309.941 56.568 309.824C56.4507 309.696 56.392 309.515 56.392 309.28V299.44C56.392 299.205 56.4507 299.029 56.568 298.912C56.696 298.784 56.8773 298.72 57.112 298.72H63.064C63.2453 298.72 63.384 298.768 63.48 298.864C63.576 298.96 63.624 299.093 63.624 299.264C63.624 299.445 63.576 299.584 63.48 299.68C63.384 299.776 63.2453 299.824 63.064 299.824H57.672V303.728H62.728C62.9093 303.728 63.048 303.776 63.144 303.872C63.24 303.957 63.288 304.091 63.288 304.272C63.288 304.453 63.24 304.592 63.144 304.688C63.048 304.784 62.9093 304.832 62.728 304.832H57.672V308.896H63.064C63.2453 308.896 63.384 308.944 63.48 309.04C63.576 309.136 63.624 309.269 63.624 309.44C63.624 309.621 63.576 309.76 63.48 309.856C63.384 309.952 63.2453 310 63.064 310H57.112ZM66.1841 310.112C65.9708 310.112 65.8108 310.053 65.7041 309.936C65.5975 309.819 65.5441 309.653 65.5441 309.44V302.768C65.5441 302.555 65.5975 302.395 65.7041 302.288C65.8108 302.171 65.9655 302.112 66.1681 302.112C66.3708 302.112 66.5255 302.171 66.6321 302.288C66.7495 302.395 66.8081 302.555 66.8081 302.768V304.144L66.6321 303.952C66.8561 303.333 67.2188 302.869 67.7201 302.56C68.2321 302.24 68.8188 302.08 69.4801 302.08C70.0988 302.08 70.6108 302.192 71.0161 302.416C71.4321 302.64 71.7415 302.981 71.9441 303.44C72.1468 303.888 72.2481 304.459 72.2481 305.152V309.44C72.2481 309.653 72.1895 309.819 72.0721 309.936C71.9655 310.053 71.8108 310.112 71.6081 310.112C71.3948 310.112 71.2295 310.053 71.1121 309.936C71.0055 309.819 70.9521 309.653 70.9521 309.44V305.232C70.9521 304.507 70.8081 303.979 70.5201 303.648C70.2428 303.307 69.7948 303.136 69.1761 303.136C68.4615 303.136 67.8908 303.36 67.4641 303.808C67.0481 304.245 66.8401 304.832 66.8401 305.568V309.44C66.8401 309.888 66.6215 310.112 66.1841 310.112ZM77.7579 310.144C77.1499 310.144 76.6379 310.037 76.2219 309.824C75.8165 309.6 75.5125 309.28 75.3099 308.864C75.1072 308.437 75.0059 307.92 75.0059 307.312V303.232H73.9339C73.7525 303.232 73.6139 303.189 73.5179 303.104C73.4219 303.008 73.3739 302.88 73.3739 302.72C73.3739 302.56 73.4219 302.437 73.5179 302.352C73.6139 302.267 73.7525 302.224 73.9339 302.224H75.0059V300.384C75.0059 300.171 75.0645 300.011 75.1819 299.904C75.2992 299.787 75.4592 299.728 75.6619 299.728C75.8645 299.728 76.0192 299.787 76.1259 299.904C76.2432 300.011 76.3019 300.171 76.3019 300.384V302.224H78.3179C78.4992 302.224 78.6379 302.267 78.7339 302.352C78.8299 302.437 78.8779 302.56 78.8779 302.72C78.8779 302.88 78.8299 303.008 78.7339 303.104C78.6379 303.189 78.4992 303.232 78.3179 303.232H76.3019V307.184C76.3019 307.792 76.4299 308.256 76.6859 308.576C76.9419 308.885 77.3579 309.04 77.9339 309.04C78.1365 309.04 78.3072 309.019 78.4459 308.976C78.5952 308.933 78.7179 308.912 78.8139 308.912C78.9099 308.901 78.9899 308.933 79.0539 309.008C79.1179 309.083 79.1499 309.211 79.1499 309.392C79.1499 309.52 79.1232 309.637 79.0699 309.744C79.0272 309.851 78.9472 309.925 78.8299 309.968C78.7019 310.011 78.5312 310.048 78.3179 310.08C78.1152 310.123 77.9285 310.144 77.7579 310.144ZM83.6575 310.144C82.8362 310.144 82.1268 309.984 81.5295 309.664C80.9428 309.333 80.4842 308.869 80.1535 308.272C79.8335 307.675 79.6735 306.96 79.6735 306.128C79.6735 305.317 79.8335 304.613 80.1535 304.016C80.4735 303.408 80.9108 302.933 81.4655 302.592C82.0308 302.251 82.6815 302.08 83.4175 302.08C83.9402 302.08 84.4095 302.171 84.8255 302.352C85.2415 302.523 85.5935 302.773 85.8815 303.104C86.1802 303.435 86.4042 303.835 86.5535 304.304C86.7135 304.773 86.7935 305.301 86.7935 305.888C86.7935 306.059 86.7455 306.187 86.6495 306.272C86.5535 306.347 86.4148 306.384 86.2335 306.384H80.6655V305.536H85.9295L85.6735 305.744C85.6735 305.168 85.5882 304.683 85.4175 304.288C85.2468 303.883 84.9962 303.573 84.6655 303.36C84.3455 303.147 83.9402 303.04 83.4495 303.04C82.9055 303.04 82.4415 303.168 82.0575 303.424C81.6842 303.669 81.4015 304.016 81.2095 304.464C81.0175 304.901 80.9215 305.413 80.9215 306V306.096C80.9215 307.077 81.1562 307.824 81.6255 308.336C82.1055 308.848 82.7828 309.104 83.6575 309.104C84.0202 309.104 84.3775 309.056 84.7295 308.96C85.0922 308.864 85.4442 308.704 85.7855 308.48C85.9348 308.384 86.0682 308.341 86.1855 308.352C86.3135 308.352 86.4148 308.389 86.4895 308.464C86.5642 308.528 86.6122 308.613 86.6335 308.72C86.6655 308.816 86.6548 308.923 86.6015 309.04C86.5588 309.157 86.4682 309.259 86.3295 309.344C85.9775 309.6 85.5615 309.797 85.0815 309.936C84.6015 310.075 84.1268 310.144 83.6575 310.144ZM89.3251 310.112C89.1118 310.112 88.9465 310.053 88.8291 309.936C88.7225 309.819 88.6691 309.653 88.6691 309.44V302.768C88.6691 302.555 88.7225 302.395 88.8291 302.288C88.9358 302.171 89.0905 302.112 89.2931 302.112C89.4958 302.112 89.6505 302.171 89.7571 302.288C89.8745 302.395 89.9331 302.555 89.9331 302.768V304.064H89.7731C89.9438 303.435 90.2691 302.949 90.7491 302.608C91.2291 302.267 91.8211 302.085 92.5251 302.064C92.6851 302.053 92.8131 302.091 92.9091 302.176C93.0051 302.251 93.0585 302.384 93.0691 302.576C93.0798 302.757 93.0371 302.901 92.9411 303.008C92.8451 303.115 92.6958 303.179 92.4931 303.2L92.2371 303.232C91.5118 303.296 90.9518 303.531 90.5571 303.936C90.1731 304.331 89.9811 304.875 89.9811 305.568V309.44C89.9811 309.653 89.9225 309.819 89.8051 309.936C89.6985 310.053 89.5385 310.112 89.3251 310.112ZM99.3605 310.112C99.1472 310.112 98.9818 310.053 98.8645 309.936C98.7578 309.808 98.7045 309.637 98.7045 309.424V299.296C98.7045 299.072 98.7578 298.901 98.8645 298.784C98.9818 298.667 99.1472 298.608 99.3605 298.608C99.5738 298.608 99.7338 298.667 99.8405 298.784C99.9578 298.901 100.017 299.072 100.017 299.296V303.712H106.785V299.296C106.785 299.072 106.838 298.901 106.945 298.784C107.062 298.667 107.227 298.608 107.441 298.608C107.654 298.608 107.814 298.667 107.921 298.784C108.038 298.901 108.097 299.072 108.097 299.296V309.424C108.097 309.637 108.038 309.808 107.921 309.936C107.814 310.053 107.654 310.112 107.441 310.112C107.227 310.112 107.062 310.053 106.945 309.936C106.838 309.808 106.785 309.637 106.785 309.424V304.848H100.017V309.424C100.017 309.637 99.9632 309.808 99.8565 309.936C99.7498 310.053 99.5845 310.112 99.3605 310.112ZM113.932 310.144C113.175 310.144 112.519 309.979 111.964 309.648C111.41 309.317 110.978 308.853 110.668 308.256C110.37 307.648 110.22 306.933 110.22 306.112C110.22 305.493 110.306 304.939 110.476 304.448C110.647 303.947 110.898 303.52 111.228 303.168C111.559 302.816 111.948 302.549 112.396 302.368C112.855 302.176 113.367 302.08 113.932 302.08C114.69 302.08 115.346 302.245 115.9 302.576C116.455 302.907 116.882 303.376 117.18 303.984C117.49 304.581 117.644 305.291 117.644 306.112C117.644 306.731 117.559 307.285 117.388 307.776C117.218 308.267 116.967 308.693 116.636 309.056C116.306 309.408 115.911 309.68 115.452 309.872C115.004 310.053 114.498 310.144 113.932 310.144ZM113.932 309.104C114.412 309.104 114.834 308.987 115.196 308.752C115.559 308.517 115.836 308.176 116.028 307.728C116.231 307.28 116.332 306.741 116.332 306.112C116.332 305.141 116.114 304.4 115.676 303.888C115.25 303.376 114.668 303.12 113.932 303.12C113.442 303.12 113.015 303.237 112.652 303.472C112.3 303.696 112.023 304.032 111.82 304.48C111.628 304.917 111.532 305.461 111.532 306.112C111.532 307.072 111.751 307.813 112.188 308.336C112.626 308.848 113.207 309.104 113.932 309.104ZM122.215 310.144C121.735 310.144 121.25 310.085 120.759 309.968C120.279 309.851 119.831 309.648 119.415 309.36C119.308 309.285 119.234 309.2 119.191 309.104C119.148 308.997 119.132 308.896 119.143 308.8C119.164 308.693 119.207 308.603 119.271 308.528C119.346 308.453 119.431 308.411 119.527 308.4C119.634 308.379 119.751 308.4 119.879 308.464C120.295 308.72 120.695 308.901 121.079 309.008C121.474 309.104 121.863 309.152 122.247 309.152C122.855 309.152 123.314 309.04 123.623 308.816C123.932 308.592 124.087 308.288 124.087 307.904C124.087 307.605 123.986 307.371 123.783 307.2C123.58 307.019 123.26 306.88 122.823 306.784L121.367 306.464C120.695 306.325 120.194 306.085 119.863 305.744C119.543 305.403 119.383 304.96 119.383 304.416C119.383 303.936 119.506 303.525 119.751 303.184C120.007 302.832 120.364 302.56 120.823 302.368C121.282 302.176 121.815 302.08 122.423 302.08C122.892 302.08 123.335 302.144 123.751 302.272C124.178 302.389 124.562 302.581 124.903 302.848C125.01 302.923 125.079 303.013 125.111 303.12C125.154 303.216 125.159 303.317 125.127 303.424C125.106 303.52 125.058 303.605 124.983 303.68C124.908 303.744 124.818 303.781 124.711 303.792C124.604 303.803 124.492 303.771 124.375 303.696C124.055 303.483 123.73 303.328 123.399 303.232C123.068 303.125 122.743 303.072 122.423 303.072C121.826 303.072 121.372 303.189 121.063 303.424C120.754 303.659 120.599 303.968 120.599 304.352C120.599 304.651 120.695 304.896 120.887 305.088C121.079 305.28 121.378 305.419 121.783 305.504L123.239 305.808C123.932 305.957 124.45 306.197 124.791 306.528C125.143 306.848 125.319 307.285 125.319 307.84C125.319 308.544 125.036 309.104 124.471 309.52C123.906 309.936 123.154 310.144 122.215 310.144ZM130.336 310.144C129.728 310.144 129.216 310.037 128.8 309.824C128.395 309.6 128.091 309.28 127.888 308.864C127.685 308.437 127.584 307.92 127.584 307.312V303.232H126.512C126.331 303.232 126.192 303.189 126.096 303.104C126 303.008 125.952 302.88 125.952 302.72C125.952 302.56 126 302.437 126.096 302.352C126.192 302.267 126.331 302.224 126.512 302.224H127.584V300.384C127.584 300.171 127.643 300.011 127.76 299.904C127.877 299.787 128.037 299.728 128.24 299.728C128.443 299.728 128.597 299.787 128.704 299.904C128.821 300.011 128.88 300.171 128.88 300.384V302.224H130.896C131.077 302.224 131.216 302.267 131.312 302.352C131.408 302.437 131.456 302.56 131.456 302.72C131.456 302.88 131.408 303.008 131.312 303.104C131.216 303.189 131.077 303.232 130.896 303.232H128.88V307.184C128.88 307.792 129.008 308.256 129.264 308.576C129.52 308.885 129.936 309.04 130.512 309.04C130.715 309.04 130.885 309.019 131.024 308.976C131.173 308.933 131.296 308.912 131.392 308.912C131.488 308.901 131.568 308.933 131.632 309.008C131.696 309.083 131.728 309.211 131.728 309.392C131.728 309.52 131.701 309.637 131.648 309.744C131.605 309.851 131.525 309.925 131.408 309.968C131.28 310.011 131.109 310.048 130.896 310.08C130.693 310.123 130.507 310.144 130.336 310.144ZM137.767 310.112C137.553 310.112 137.388 310.053 137.271 309.936C137.164 309.808 137.111 309.637 137.111 309.424V299.296C137.111 299.072 137.164 298.901 137.271 298.784C137.388 298.667 137.553 298.608 137.767 298.608C137.98 298.608 138.14 298.667 138.247 298.784C138.364 298.901 138.423 299.072 138.423 299.296V309.424C138.423 309.637 138.369 309.808 138.263 309.936C138.156 310.053 137.991 310.112 137.767 310.112ZM141.94 310C141.705 310 141.524 309.941 141.396 309.824C141.279 309.696 141.22 309.515 141.22 309.28V299.44C141.22 299.205 141.279 299.029 141.396 298.912C141.524 298.784 141.705 298.72 141.94 298.72H145.028C146.852 298.72 148.26 299.2 149.252 300.16C150.244 301.12 150.74 302.517 150.74 304.352C150.74 305.269 150.612 306.08 150.356 306.784C150.111 307.477 149.743 308.064 149.252 308.544C148.761 309.024 148.164 309.387 147.46 309.632C146.756 309.877 145.945 310 145.028 310H141.94ZM142.532 308.88H144.932C145.679 308.88 146.324 308.784 146.868 308.592C147.423 308.4 147.881 308.117 148.244 307.744C148.617 307.371 148.895 306.901 149.076 306.336C149.257 305.76 149.348 305.099 149.348 304.352C149.348 302.848 148.98 301.723 148.244 300.976C147.508 300.219 146.404 299.84 144.932 299.84H142.532V308.88Z" fill="#00303F" fill-opacity="0.5"/>
<rect x="35.5" y="283.5" width="319" height="42" rx="4.5" stroke="#C5C5C5"/>
<path d="M37.086 356.126C36.7313 356.126 36.4607 356.028 36.274 355.832C36.0873 355.636 35.994 355.361 35.994 355.006V347.236C35.994 346.872 36.0873 346.597 36.274 346.41C36.47 346.223 36.7453 346.13 37.1 346.13H40.502C41.6033 346.13 42.4527 346.41 43.05 346.97C43.6473 347.521 43.946 348.291 43.946 349.28C43.946 350.269 43.6473 351.044 43.05 351.604C42.4527 352.164 41.6033 352.444 40.502 352.444H38.164V355.006C38.164 355.361 38.0707 355.636 37.884 355.832C37.7067 356.028 37.4407 356.126 37.086 356.126ZM38.164 350.764H40.138C40.698 350.764 41.1227 350.638 41.412 350.386C41.7107 350.134 41.86 349.765 41.86 349.28C41.86 348.795 41.7107 348.431 41.412 348.188C41.1227 347.945 40.698 347.824 40.138 347.824H38.164V350.764ZM47.1184 356.154C46.6144 356.154 46.1618 356.056 45.7604 355.86C45.3591 355.664 45.0464 355.398 44.8224 355.062C44.5984 354.726 44.4864 354.348 44.4864 353.928C44.4864 353.424 44.6171 353.027 44.8784 352.738C45.1398 352.439 45.5644 352.229 46.1524 352.108C46.7404 351.977 47.5198 351.912 48.4904 351.912H49.2324V353.004H48.5044C48.0284 353.004 47.6411 353.032 47.3424 353.088C47.0531 353.135 46.8431 353.219 46.7124 353.34C46.5911 353.461 46.5304 353.629 46.5304 353.844C46.5304 354.105 46.6191 354.32 46.7964 354.488C46.9831 354.656 47.2491 354.74 47.5944 354.74C47.8651 354.74 48.1031 354.679 48.3084 354.558C48.5231 354.427 48.6911 354.255 48.8124 354.04C48.9338 353.816 48.9944 353.564 48.9944 353.284V351.674C48.9944 351.263 48.9011 350.974 48.7144 350.806C48.5278 350.629 48.2104 350.54 47.7624 350.54C47.5104 350.54 47.2351 350.573 46.9364 350.638C46.6471 350.694 46.3251 350.792 45.9704 350.932C45.7651 351.025 45.5831 351.049 45.4244 351.002C45.2658 350.946 45.1444 350.853 45.0604 350.722C44.9764 350.582 44.9344 350.433 44.9344 350.274C44.9344 350.106 44.9811 349.947 45.0744 349.798C45.1678 349.639 45.3218 349.523 45.5364 349.448C45.9751 349.271 46.3858 349.149 46.7684 349.084C47.1604 349.019 47.5198 348.986 47.8464 348.986C48.5651 348.986 49.1531 349.093 49.6104 349.308C50.0771 349.513 50.4271 349.835 50.6604 350.274C50.8938 350.703 51.0104 351.259 51.0104 351.94V355.048C51.0104 355.393 50.9264 355.659 50.7584 355.846C50.5904 356.033 50.3478 356.126 50.0304 356.126C49.7131 356.126 49.4658 356.033 49.2884 355.846C49.1204 355.659 49.0364 355.393 49.0364 355.048V354.53L49.1344 354.614C49.0784 354.931 48.9571 355.207 48.7704 355.44C48.5931 355.664 48.3644 355.841 48.0844 355.972C47.8044 356.093 47.4824 356.154 47.1184 356.154ZM55.2194 356.154C54.8087 356.154 54.3841 356.117 53.9454 356.042C53.5161 355.967 53.1241 355.841 52.7694 355.664C52.5827 355.571 52.4474 355.454 52.3634 355.314C52.2887 355.165 52.2561 355.015 52.2654 354.866C52.2747 354.717 52.3214 354.581 52.4054 354.46C52.4987 354.339 52.6154 354.259 52.7554 354.222C52.9047 354.175 53.0681 354.189 53.2454 354.264C53.6281 354.423 53.9781 354.535 54.2954 354.6C54.6127 354.665 54.9254 354.698 55.2334 354.698C55.6347 354.698 55.9241 354.637 56.1014 354.516C56.2881 354.385 56.3814 354.217 56.3814 354.012C56.3814 353.825 56.3207 353.685 56.1994 353.592C56.0781 353.499 55.9007 353.433 55.6674 353.396L54.1974 353.13C53.6187 353.027 53.1707 352.817 52.8534 352.5C52.5454 352.173 52.3914 351.758 52.3914 351.254C52.3914 350.787 52.5221 350.386 52.7834 350.05C53.0447 349.705 53.4041 349.443 53.8614 349.266C54.3281 349.079 54.8554 348.986 55.4434 348.986C55.8634 348.986 56.2507 349.023 56.6054 349.098C56.9601 349.173 57.3007 349.294 57.6274 349.462C57.7954 349.546 57.9121 349.658 57.9774 349.798C58.0521 349.938 58.0754 350.083 58.0474 350.232C58.0287 350.381 57.9727 350.517 57.8794 350.638C57.7861 350.759 57.6647 350.839 57.5154 350.876C57.3754 350.913 57.2121 350.895 57.0254 350.82C56.7267 350.68 56.4514 350.582 56.1994 350.526C55.9474 350.461 55.7047 350.428 55.4714 350.428C55.0514 350.428 54.7481 350.498 54.5614 350.638C54.3747 350.769 54.2814 350.937 54.2814 351.142C54.2814 351.301 54.3327 351.436 54.4354 351.548C54.5474 351.651 54.7154 351.721 54.9394 351.758L56.4094 352.024C57.0161 352.127 57.4781 352.332 57.7954 352.64C58.1127 352.939 58.2714 353.349 58.2714 353.872C58.2714 354.581 57.9914 355.141 57.4314 355.552C56.8807 355.953 56.1434 356.154 55.2194 356.154ZM62.11 356.154C61.6993 356.154 61.2747 356.117 60.836 356.042C60.4067 355.967 60.0147 355.841 59.66 355.664C59.4733 355.571 59.338 355.454 59.254 355.314C59.1793 355.165 59.1467 355.015 59.156 354.866C59.1653 354.717 59.212 354.581 59.296 354.46C59.3893 354.339 59.506 354.259 59.646 354.222C59.7953 354.175 59.9587 354.189 60.136 354.264C60.5187 354.423 60.8687 354.535 61.186 354.6C61.5033 354.665 61.816 354.698 62.124 354.698C62.5253 354.698 62.8147 354.637 62.992 354.516C63.1787 354.385 63.272 354.217 63.272 354.012C63.272 353.825 63.2113 353.685 63.09 353.592C62.9687 353.499 62.7913 353.433 62.558 353.396L61.088 353.13C60.5093 353.027 60.0613 352.817 59.744 352.5C59.436 352.173 59.282 351.758 59.282 351.254C59.282 350.787 59.4127 350.386 59.674 350.05C59.9353 349.705 60.2947 349.443 60.752 349.266C61.2187 349.079 61.746 348.986 62.334 348.986C62.754 348.986 63.1413 349.023 63.496 349.098C63.8507 349.173 64.1913 349.294 64.518 349.462C64.686 349.546 64.8027 349.658 64.868 349.798C64.9427 349.938 64.966 350.083 64.938 350.232C64.9193 350.381 64.8633 350.517 64.77 350.638C64.6767 350.759 64.5553 350.839 64.406 350.876C64.266 350.913 64.1027 350.895 63.916 350.82C63.6173 350.68 63.342 350.582 63.09 350.526C62.838 350.461 62.5953 350.428 62.362 350.428C61.942 350.428 61.6387 350.498 61.452 350.638C61.2653 350.769 61.172 350.937 61.172 351.142C61.172 351.301 61.2233 351.436 61.326 351.548C61.438 351.651 61.606 351.721 61.83 351.758L63.3 352.024C63.9067 352.127 64.3687 352.332 64.686 352.64C65.0033 352.939 65.162 353.349 65.162 353.872C65.162 354.581 64.882 355.141 64.322 355.552C63.7713 355.953 63.034 356.154 62.11 356.154ZM69.0599 356.126C68.7799 356.126 68.5419 356.061 68.3459 355.93C68.1499 355.79 67.9913 355.571 67.8699 355.272L65.8959 350.386C65.7933 350.125 65.7606 349.896 65.7979 349.7C65.8353 349.495 65.9333 349.331 66.0919 349.21C66.2599 349.079 66.4886 349.014 66.7779 349.014C67.0206 349.014 67.2213 349.075 67.3799 349.196C67.5386 349.308 67.6739 349.527 67.7859 349.854L69.3259 353.956H69.0039L70.5999 349.672C70.6746 349.448 70.7819 349.285 70.9219 349.182C71.0713 349.07 71.2626 349.014 71.4959 349.014C71.7293 349.014 71.9159 349.07 72.0559 349.182C72.2053 349.294 72.3219 349.457 72.4059 349.672L73.9739 353.956H73.7079L75.2339 349.798C75.3459 349.499 75.4906 349.294 75.6679 349.182C75.8453 349.07 76.0366 349.014 76.2419 349.014C76.5033 349.014 76.7039 349.079 76.8439 349.21C76.9933 349.341 77.0773 349.509 77.0959 349.714C77.1239 349.919 77.0866 350.143 76.9839 350.386L75.0239 355.272C74.9119 355.561 74.7533 355.776 74.5479 355.916C74.3519 356.056 74.1139 356.126 73.8339 356.126C73.5633 356.126 73.3253 356.056 73.1199 355.916C72.9239 355.776 72.7653 355.561 72.6439 355.272L70.9639 350.904H71.8739L70.2359 355.258C70.1239 355.547 69.9699 355.767 69.7739 355.916C69.5779 356.056 69.3399 356.126 69.0599 356.126ZM81.4305 356.154C80.6931 356.154 80.0491 356.009 79.4985 355.72C78.9571 355.431 78.5371 355.015 78.2385 354.474C77.9398 353.933 77.7905 353.293 77.7905 352.556C77.7905 352.005 77.8745 351.511 78.0425 351.072C78.2105 350.633 78.4531 350.26 78.7705 349.952C79.0971 349.635 79.4845 349.397 79.9325 349.238C80.3805 349.07 80.8798 348.986 81.4305 348.986C82.1678 348.986 82.8071 349.131 83.3485 349.42C83.8991 349.709 84.3238 350.12 84.6225 350.652C84.9305 351.184 85.0845 351.819 85.0845 352.556C85.0845 353.116 84.9958 353.615 84.8185 354.054C84.6505 354.493 84.4078 354.871 84.0905 355.188C83.7731 355.505 83.3858 355.748 82.9285 355.916C82.4805 356.075 81.9811 356.154 81.4305 356.154ZM81.4305 354.572C81.7385 354.572 82.0045 354.497 82.2285 354.348C82.4525 354.199 82.6298 353.979 82.7605 353.69C82.8911 353.391 82.9565 353.013 82.9565 352.556C82.9565 351.875 82.8165 351.375 82.5365 351.058C82.2565 350.731 81.8878 350.568 81.4305 350.568C81.1318 350.568 80.8658 350.638 80.6325 350.778C80.4085 350.918 80.2311 351.137 80.1005 351.436C79.9791 351.725 79.9185 352.099 79.9185 352.556C79.9185 353.237 80.0585 353.746 80.3385 354.082C80.6185 354.409 80.9825 354.572 81.4305 354.572ZM87.4626 356.126C87.1079 356.126 86.8373 356.033 86.6506 355.846C86.4639 355.659 86.3706 355.393 86.3706 355.048V350.078C86.3706 349.733 86.4593 349.471 86.6366 349.294C86.8233 349.107 87.0799 349.014 87.4066 349.014C87.7426 349.014 87.9993 349.107 88.1766 349.294C88.3539 349.471 88.4426 349.733 88.4426 350.078V350.806H88.3026C88.4146 350.246 88.6619 349.812 89.0446 349.504C89.4273 349.196 89.9219 349.023 90.5286 348.986C90.7619 348.967 90.9393 349.028 91.0606 349.168C91.1913 349.299 91.2613 349.518 91.2706 349.826C91.2893 350.115 91.2286 350.344 91.0886 350.512C90.9579 350.68 90.7339 350.783 90.4166 350.82L90.0946 350.848C89.5626 350.895 89.1659 351.049 88.9046 351.31C88.6526 351.571 88.5266 351.949 88.5266 352.444V355.048C88.5266 355.393 88.4333 355.659 88.2466 355.846C88.0693 356.033 87.8079 356.126 87.4626 356.126ZM94.6911 356.154C94.0937 356.154 93.5664 356.009 93.1091 355.72C92.6611 355.431 92.3111 355.015 92.0591 354.474C91.8071 353.933 91.6811 353.293 91.6811 352.556C91.6811 351.819 91.8071 351.184 92.0591 350.652C92.3111 350.12 92.6611 349.709 93.1091 349.42C93.5664 349.131 94.0937 348.986 94.6911 348.986C95.2324 348.986 95.7084 349.117 96.1191 349.378C96.5391 349.639 96.8237 349.98 96.9731 350.4H96.8191V347.082C96.8191 346.727 96.9077 346.461 97.0851 346.284C97.2624 346.097 97.5237 346.004 97.8691 346.004C98.2051 346.004 98.4664 346.097 98.6531 346.284C98.8397 346.461 98.9331 346.727 98.9331 347.082V355.048C98.9331 355.393 98.8397 355.659 98.6531 355.846C98.4757 356.033 98.2191 356.126 97.8831 356.126C97.5471 356.126 97.2857 356.033 97.0991 355.846C96.9217 355.659 96.8331 355.393 96.8331 355.048V354.096L96.9871 354.642C96.8564 355.099 96.5764 355.468 96.1471 355.748C95.7271 356.019 95.2417 356.154 94.6911 356.154ZM95.3211 354.572C95.6291 354.572 95.8951 354.497 96.1191 354.348C96.3431 354.199 96.5204 353.979 96.6511 353.69C96.7817 353.391 96.8471 353.013 96.8471 352.556C96.8471 351.875 96.7071 351.375 96.4271 351.058C96.1471 350.731 95.7784 350.568 95.3211 350.568C95.0224 350.568 94.7564 350.638 94.5231 350.778C94.2991 350.918 94.1217 351.137 93.9911 351.436C93.8697 351.725 93.8091 352.099 93.8091 352.556C93.8091 353.237 93.9491 353.746 94.2291 354.082C94.5091 354.409 94.8731 354.572 95.3211 354.572Z" fill="#00303F"/>
<rect x="35.5" y="365.5" width="319" height="42" rx="4.5" fill="white"/>
<path d="M57.112 392C56.8773 392 56.696 391.941 56.568 391.824C56.4507 391.696 56.392 391.515 56.392 391.28V381.44C56.392 381.205 56.4507 381.029 56.568 380.912C56.696 380.784 56.8773 380.72 57.112 380.72H63.064C63.2453 380.72 63.384 380.768 63.48 380.864C63.576 380.96 63.624 381.093 63.624 381.264C63.624 381.445 63.576 381.584 63.48 381.68C63.384 381.776 63.2453 381.824 63.064 381.824H57.672V385.728H62.728C62.9093 385.728 63.048 385.776 63.144 385.872C63.24 385.957 63.288 386.091 63.288 386.272C63.288 386.453 63.24 386.592 63.144 386.688C63.048 386.784 62.9093 386.832 62.728 386.832H57.672V390.896H63.064C63.2453 390.896 63.384 390.944 63.48 391.04C63.576 391.136 63.624 391.269 63.624 391.44C63.624 391.621 63.576 391.76 63.48 391.856C63.384 391.952 63.2453 392 63.064 392H57.112ZM66.1841 392.112C65.9708 392.112 65.8108 392.053 65.7041 391.936C65.5975 391.819 65.5441 391.653 65.5441 391.44V384.768C65.5441 384.555 65.5975 384.395 65.7041 384.288C65.8108 384.171 65.9655 384.112 66.1681 384.112C66.3708 384.112 66.5255 384.171 66.6321 384.288C66.7495 384.395 66.8081 384.555 66.8081 384.768V386.144L66.6321 385.952C66.8561 385.333 67.2188 384.869 67.7201 384.56C68.2321 384.24 68.8188 384.08 69.4801 384.08C70.0988 384.08 70.6108 384.192 71.0161 384.416C71.4321 384.64 71.7415 384.981 71.9441 385.44C72.1468 385.888 72.2481 386.459 72.2481 387.152V391.44C72.2481 391.653 72.1895 391.819 72.0721 391.936C71.9655 392.053 71.8108 392.112 71.6081 392.112C71.3948 392.112 71.2295 392.053 71.1121 391.936C71.0055 391.819 70.9521 391.653 70.9521 391.44V387.232C70.9521 386.507 70.8081 385.979 70.5201 385.648C70.2428 385.307 69.7948 385.136 69.1761 385.136C68.4615 385.136 67.8908 385.36 67.4641 385.808C67.0481 386.245 66.8401 386.832 66.8401 387.568V391.44C66.8401 391.888 66.6215 392.112 66.1841 392.112ZM77.7579 392.144C77.1499 392.144 76.6379 392.037 76.2219 391.824C75.8165 391.6 75.5125 391.28 75.3099 390.864C75.1072 390.437 75.0059 389.92 75.0059 389.312V385.232H73.9339C73.7525 385.232 73.6139 385.189 73.5179 385.104C73.4219 385.008 73.3739 384.88 73.3739 384.72C73.3739 384.56 73.4219 384.437 73.5179 384.352C73.6139 384.267 73.7525 384.224 73.9339 384.224H75.0059V382.384C75.0059 382.171 75.0645 382.011 75.1819 381.904C75.2992 381.787 75.4592 381.728 75.6619 381.728C75.8645 381.728 76.0192 381.787 76.1259 381.904C76.2432 382.011 76.3019 382.171 76.3019 382.384V384.224H78.3179C78.4992 384.224 78.6379 384.267 78.7339 384.352C78.8299 384.437 78.8779 384.56 78.8779 384.72C78.8779 384.88 78.8299 385.008 78.7339 385.104C78.6379 385.189 78.4992 385.232 78.3179 385.232H76.3019V389.184C76.3019 389.792 76.4299 390.256 76.6859 390.576C76.9419 390.885 77.3579 391.04 77.9339 391.04C78.1365 391.04 78.3072 391.019 78.4459 390.976C78.5952 390.933 78.7179 390.912 78.8139 390.912C78.9099 390.901 78.9899 390.933 79.0539 391.008C79.1179 391.083 79.1499 391.211 79.1499 391.392C79.1499 391.52 79.1232 391.637 79.0699 391.744C79.0272 391.851 78.9472 391.925 78.8299 391.968C78.7019 392.011 78.5312 392.048 78.3179 392.08C78.1152 392.123 77.9285 392.144 77.7579 392.144ZM83.6575 392.144C82.8362 392.144 82.1268 391.984 81.5295 391.664C80.9428 391.333 80.4842 390.869 80.1535 390.272C79.8335 389.675 79.6735 388.96 79.6735 388.128C79.6735 387.317 79.8335 386.613 80.1535 386.016C80.4735 385.408 80.9108 384.933 81.4655 384.592C82.0308 384.251 82.6815 384.08 83.4175 384.08C83.9402 384.08 84.4095 384.171 84.8255 384.352C85.2415 384.523 85.5935 384.773 85.8815 385.104C86.1802 385.435 86.4042 385.835 86.5535 386.304C86.7135 386.773 86.7935 387.301 86.7935 387.888C86.7935 388.059 86.7455 388.187 86.6495 388.272C86.5535 388.347 86.4148 388.384 86.2335 388.384H80.6655V387.536H85.9295L85.6735 387.744C85.6735 387.168 85.5882 386.683 85.4175 386.288C85.2468 385.883 84.9962 385.573 84.6655 385.36C84.3455 385.147 83.9402 385.04 83.4495 385.04C82.9055 385.04 82.4415 385.168 82.0575 385.424C81.6842 385.669 81.4015 386.016 81.2095 386.464C81.0175 386.901 80.9215 387.413 80.9215 388V388.096C80.9215 389.077 81.1562 389.824 81.6255 390.336C82.1055 390.848 82.7828 391.104 83.6575 391.104C84.0202 391.104 84.3775 391.056 84.7295 390.96C85.0922 390.864 85.4442 390.704 85.7855 390.48C85.9348 390.384 86.0682 390.341 86.1855 390.352C86.3135 390.352 86.4148 390.389 86.4895 390.464C86.5642 390.528 86.6122 390.613 86.6335 390.72C86.6655 390.816 86.6548 390.923 86.6015 391.04C86.5588 391.157 86.4682 391.259 86.3295 391.344C85.9775 391.6 85.5615 391.797 85.0815 391.936C84.6015 392.075 84.1268 392.144 83.6575 392.144ZM89.3251 392.112C89.1118 392.112 88.9465 392.053 88.8291 391.936C88.7225 391.819 88.6691 391.653 88.6691 391.44V384.768C88.6691 384.555 88.7225 384.395 88.8291 384.288C88.9358 384.171 89.0905 384.112 89.2931 384.112C89.4958 384.112 89.6505 384.171 89.7571 384.288C89.8745 384.395 89.9331 384.555 89.9331 384.768V386.064H89.7731C89.9438 385.435 90.2691 384.949 90.7491 384.608C91.2291 384.267 91.8211 384.085 92.5251 384.064C92.6851 384.053 92.8131 384.091 92.9091 384.176C93.0051 384.251 93.0585 384.384 93.0691 384.576C93.0798 384.757 93.0371 384.901 92.9411 385.008C92.8451 385.115 92.6958 385.179 92.4931 385.2L92.2371 385.232C91.5118 385.296 90.9518 385.531 90.5571 385.936C90.1731 386.331 89.9811 386.875 89.9811 387.568V391.44C89.9811 391.653 89.9225 391.819 89.8051 391.936C89.6985 392.053 89.5385 392.112 89.3251 392.112ZM100.257 394.992C100.097 394.992 99.9685 394.949 99.8725 394.864C99.7765 394.779 99.7178 394.661 99.6965 394.512C99.6858 394.373 99.7125 394.229 99.7765 394.08L100.881 391.6V392.16L97.8085 385.024C97.7445 384.864 97.7232 384.715 97.7445 384.576C97.7658 384.437 97.8298 384.325 97.9365 384.24C98.0432 384.155 98.1925 384.112 98.3845 384.112C98.5552 384.112 98.6885 384.149 98.7845 384.224C98.8805 384.299 98.9658 384.432 99.0405 384.624L101.665 391.056H101.233L103.889 384.624C103.974 384.432 104.065 384.299 104.161 384.224C104.257 384.149 104.395 384.112 104.577 384.112C104.747 384.112 104.875 384.155 104.961 384.24C105.057 384.325 105.11 384.437 105.121 384.576C105.142 384.704 105.121 384.848 105.057 385.008L100.961 394.48C100.875 394.672 100.779 394.805 100.673 394.88C100.577 394.955 100.438 394.992 100.257 394.992ZM109.87 392.144C109.113 392.144 108.457 391.979 107.902 391.648C107.347 391.317 106.915 390.853 106.606 390.256C106.307 389.648 106.158 388.933 106.158 388.112C106.158 387.493 106.243 386.939 106.414 386.448C106.585 385.947 106.835 385.52 107.166 385.168C107.497 384.816 107.886 384.549 108.334 384.368C108.793 384.176 109.305 384.08 109.87 384.08C110.627 384.08 111.283 384.245 111.838 384.576C112.393 384.907 112.819 385.376 113.118 385.984C113.427 386.581 113.582 387.291 113.582 388.112C113.582 388.731 113.497 389.285 113.326 389.776C113.155 390.267 112.905 390.693 112.574 391.056C112.243 391.408 111.849 391.68 111.39 391.872C110.942 392.053 110.435 392.144 109.87 392.144ZM109.87 391.104C110.35 391.104 110.771 390.987 111.134 390.752C111.497 390.517 111.774 390.176 111.966 389.728C112.169 389.28 112.27 388.741 112.27 388.112C112.27 387.141 112.051 386.4 111.614 385.888C111.187 385.376 110.606 385.12 109.87 385.12C109.379 385.12 108.953 385.237 108.59 385.472C108.238 385.696 107.961 386.032 107.758 386.48C107.566 386.917 107.47 387.461 107.47 388.112C107.47 389.072 107.689 389.813 108.126 390.336C108.563 390.848 109.145 391.104 109.87 391.104ZM118.281 392.144C117.651 392.144 117.129 392.032 116.713 391.808C116.307 391.573 115.998 391.227 115.785 390.768C115.582 390.309 115.481 389.739 115.481 389.056V384.768C115.481 384.544 115.534 384.379 115.641 384.272C115.758 384.165 115.918 384.112 116.121 384.112C116.334 384.112 116.494 384.165 116.601 384.272C116.718 384.379 116.777 384.544 116.777 384.768V389.04C116.777 389.723 116.915 390.235 117.193 390.576C117.481 390.907 117.929 391.072 118.536 391.072C119.198 391.072 119.737 390.848 120.153 390.4C120.569 389.952 120.777 389.365 120.777 388.64V384.768C120.777 384.544 120.83 384.379 120.937 384.272C121.054 384.165 121.219 384.112 121.433 384.112C121.635 384.112 121.79 384.165 121.897 384.272C122.014 384.379 122.073 384.544 122.073 384.768V391.44C122.073 391.888 121.865 392.112 121.449 392.112C121.246 392.112 121.086 392.053 120.969 391.936C120.862 391.819 120.809 391.653 120.809 391.44V389.984L121.017 390.208C120.803 390.837 120.451 391.317 119.961 391.648C119.481 391.979 118.921 392.144 118.281 392.144ZM125.153 392.112C124.94 392.112 124.775 392.053 124.657 391.936C124.551 391.819 124.497 391.653 124.497 391.44V384.768C124.497 384.555 124.551 384.395 124.657 384.288C124.764 384.171 124.919 384.112 125.121 384.112C125.324 384.112 125.479 384.171 125.585 384.288C125.703 384.395 125.761 384.555 125.761 384.768V386.064H125.601C125.772 385.435 126.097 384.949 126.577 384.608C127.057 384.267 127.649 384.085 128.353 384.064C128.513 384.053 128.641 384.091 128.737 384.176C128.833 384.251 128.887 384.384 128.897 384.576C128.908 384.757 128.865 384.901 128.769 385.008C128.673 385.115 128.524 385.179 128.321 385.2L128.065 385.232C127.34 385.296 126.78 385.531 126.385 385.936C126.001 386.331 125.809 386.875 125.809 387.568V391.44C125.809 391.653 125.751 391.819 125.633 391.936C125.527 392.053 125.367 392.112 125.153 392.112ZM134.997 394.992C134.783 394.992 134.623 394.933 134.517 394.816C134.41 394.709 134.357 394.549 134.357 394.336V384.768C134.357 384.555 134.41 384.395 134.517 384.288C134.623 384.171 134.778 384.112 134.981 384.112C135.194 384.112 135.354 384.171 135.461 384.288C135.578 384.395 135.637 384.555 135.637 384.768V386.288L135.461 386.064C135.631 385.456 135.967 384.976 136.469 384.624C136.981 384.261 137.589 384.08 138.293 384.08C138.986 384.08 139.589 384.245 140.101 384.576C140.623 384.896 141.023 385.36 141.301 385.968C141.589 386.565 141.733 387.28 141.733 388.112C141.733 388.933 141.589 389.648 141.301 390.256C141.023 390.853 140.629 391.317 140.117 391.648C139.605 391.979 138.997 392.144 138.293 392.144C137.589 392.144 136.986 391.968 136.485 391.616C135.983 391.253 135.642 390.773 135.461 390.176H135.653V394.336C135.653 394.549 135.594 394.709 135.477 394.816C135.359 394.933 135.199 394.992 134.997 394.992ZM138.021 391.104C138.511 391.104 138.933 390.987 139.285 390.752C139.647 390.517 139.925 390.176 140.117 389.728C140.319 389.28 140.421 388.741 140.421 388.112C140.421 387.141 140.202 386.4 139.765 385.888C139.338 385.376 138.757 385.12 138.021 385.12C137.541 385.12 137.119 385.237 136.757 385.472C136.394 385.696 136.111 386.032 135.909 386.48C135.717 386.917 135.621 387.461 135.621 388.112C135.621 389.072 135.839 389.813 136.277 390.336C136.714 390.848 137.295 391.104 138.021 391.104ZM146.133 392.144C145.599 392.144 145.119 392.043 144.693 391.84C144.277 391.627 143.946 391.339 143.701 390.976C143.455 390.613 143.333 390.208 143.333 389.76C143.333 389.184 143.477 388.731 143.765 388.4C144.063 388.069 144.549 387.835 145.221 387.696C145.903 387.557 146.831 387.488 148.005 387.488H148.725V388.336H148.021C147.157 388.336 146.474 388.379 145.973 388.464C145.482 388.539 145.135 388.672 144.933 388.864C144.741 389.056 144.645 389.328 144.645 389.68C144.645 390.117 144.794 390.475 145.093 390.752C145.402 391.029 145.818 391.168 146.341 391.168C146.767 391.168 147.141 391.067 147.461 390.864C147.791 390.661 148.047 390.384 148.229 390.032C148.421 389.68 148.517 389.275 148.517 388.816V386.992C148.517 386.331 148.383 385.856 148.117 385.568C147.85 385.269 147.413 385.12 146.805 385.12C146.431 385.12 146.058 385.168 145.685 385.264C145.311 385.36 144.917 385.515 144.501 385.728C144.351 385.803 144.223 385.829 144.117 385.808C144.01 385.776 143.925 385.717 143.861 385.632C143.797 385.547 143.759 385.451 143.749 385.344C143.738 385.227 143.759 385.115 143.813 385.008C143.877 384.901 143.973 384.816 144.101 384.752C144.57 384.517 145.034 384.347 145.493 384.24C145.951 384.133 146.389 384.08 146.805 384.08C147.477 384.08 148.031 384.192 148.469 384.416C148.906 384.629 149.231 384.96 149.445 385.408C149.658 385.845 149.765 386.411 149.765 387.104V391.44C149.765 391.653 149.711 391.819 149.605 391.936C149.509 392.053 149.365 392.112 149.173 392.112C148.97 392.112 148.815 392.053 148.709 391.936C148.602 391.819 148.549 391.653 148.549 391.44V390.192H148.693C148.607 390.597 148.442 390.944 148.197 391.232C147.962 391.52 147.669 391.744 147.317 391.904C146.965 392.064 146.57 392.144 146.133 392.144ZM154.793 392.144C154.313 392.144 153.828 392.085 153.337 391.968C152.857 391.851 152.409 391.648 151.993 391.36C151.886 391.285 151.812 391.2 151.769 391.104C151.726 390.997 151.71 390.896 151.721 390.8C151.742 390.693 151.785 390.603 151.849 390.528C151.924 390.453 152.009 390.411 152.105 390.4C152.212 390.379 152.329 390.4 152.457 390.464C152.873 390.72 153.273 390.901 153.657 391.008C154.052 391.104 154.441 391.152 154.825 391.152C155.433 391.152 155.892 391.04 156.201 390.816C156.51 390.592 156.665 390.288 156.665 389.904C156.665 389.605 156.564 389.371 156.361 389.2C156.158 389.019 155.838 388.88 155.401 388.784L153.945 388.464C153.273 388.325 152.772 388.085 152.441 387.744C152.121 387.403 151.961 386.96 151.961 386.416C151.961 385.936 152.084 385.525 152.329 385.184C152.585 384.832 152.942 384.56 153.401 384.368C153.86 384.176 154.393 384.08 155.001 384.08C155.47 384.08 155.913 384.144 156.329 384.272C156.756 384.389 157.14 384.581 157.481 384.848C157.588 384.923 157.657 385.013 157.689 385.12C157.732 385.216 157.737 385.317 157.705 385.424C157.684 385.52 157.636 385.605 157.561 385.68C157.486 385.744 157.396 385.781 157.289 385.792C157.182 385.803 157.07 385.771 156.953 385.696C156.633 385.483 156.308 385.328 155.977 385.232C155.646 385.125 155.321 385.072 155.001 385.072C154.404 385.072 153.95 385.189 153.641 385.424C153.332 385.659 153.177 385.968 153.177 386.352C153.177 386.651 153.273 386.896 153.465 387.088C153.657 387.28 153.956 387.419 154.361 387.504L155.817 387.808C156.51 387.957 157.028 388.197 157.369 388.528C157.721 388.848 157.897 389.285 157.897 389.84C157.897 390.544 157.614 391.104 157.049 391.52C156.484 391.936 155.732 392.144 154.793 392.144ZM162.496 392.144C162.016 392.144 161.531 392.085 161.04 391.968C160.56 391.851 160.112 391.648 159.696 391.36C159.59 391.285 159.515 391.2 159.472 391.104C159.43 390.997 159.414 390.896 159.424 390.8C159.446 390.693 159.488 390.603 159.552 390.528C159.627 390.453 159.712 390.411 159.808 390.4C159.915 390.379 160.032 390.4 160.16 390.464C160.576 390.72 160.976 390.901 161.36 391.008C161.755 391.104 162.144 391.152 162.528 391.152C163.136 391.152 163.595 391.04 163.904 390.816C164.214 390.592 164.368 390.288 164.368 389.904C164.368 389.605 164.267 389.371 164.064 389.2C163.862 389.019 163.542 388.88 163.104 388.784L161.648 388.464C160.976 388.325 160.475 388.085 160.144 387.744C159.824 387.403 159.664 386.96 159.664 386.416C159.664 385.936 159.787 385.525 160.032 385.184C160.288 384.832 160.646 384.56 161.104 384.368C161.563 384.176 162.096 384.08 162.704 384.08C163.174 384.08 163.616 384.144 164.032 384.272C164.459 384.389 164.843 384.581 165.184 384.848C165.291 384.923 165.36 385.013 165.392 385.12C165.435 385.216 165.44 385.317 165.408 385.424C165.387 385.52 165.339 385.605 165.264 385.68C165.19 385.744 165.099 385.781 164.992 385.792C164.886 385.803 164.774 385.771 164.656 385.696C164.336 385.483 164.011 385.328 163.68 385.232C163.35 385.125 163.024 385.072 162.704 385.072C162.107 385.072 161.654 385.189 161.344 385.424C161.035 385.659 160.88 385.968 160.88 386.352C160.88 386.651 160.976 386.896 161.168 387.088C161.36 387.28 161.659 387.419 162.064 387.504L163.52 387.808C164.214 387.957 164.731 388.197 165.072 388.528C165.424 388.848 165.6 389.285 165.6 389.84C165.6 390.544 165.318 391.104 164.752 391.52C164.187 391.936 163.435 392.144 162.496 392.144ZM170.107 392.112C169.926 392.112 169.766 392.064 169.627 391.968C169.488 391.872 169.376 391.717 169.291 391.504L166.907 385.024C166.843 384.843 166.822 384.683 166.843 384.544C166.875 384.405 166.944 384.299 167.051 384.224C167.158 384.149 167.291 384.112 167.451 384.112C167.611 384.112 167.739 384.149 167.835 384.224C167.942 384.299 168.027 384.437 168.091 384.64L170.331 391.04H169.947L172.251 384.64C172.326 384.448 172.416 384.315 172.523 384.24C172.64 384.155 172.79 384.112 172.971 384.112C173.142 384.112 173.286 384.155 173.403 384.24C173.52 384.325 173.611 384.459 173.675 384.64L175.931 391.04H175.563L177.835 384.608C177.91 384.416 178 384.288 178.107 384.224C178.214 384.149 178.342 384.112 178.491 384.112C178.662 384.112 178.79 384.155 178.875 384.24C178.971 384.325 179.024 384.437 179.035 384.576C179.046 384.715 179.019 384.864 178.955 385.024L176.571 391.504C176.496 391.707 176.384 391.861 176.235 391.968C176.096 392.064 175.936 392.112 175.755 392.112C175.574 392.112 175.414 392.064 175.275 391.968C175.136 391.861 175.03 391.707 174.955 391.504L172.587 385.008H173.275L170.923 391.504C170.848 391.707 170.742 391.861 170.603 391.968C170.464 392.064 170.299 392.112 170.107 392.112ZM183.995 392.144C183.238 392.144 182.582 391.979 182.027 391.648C181.472 391.317 181.04 390.853 180.731 390.256C180.432 389.648 180.283 388.933 180.283 388.112C180.283 387.493 180.368 386.939 180.539 386.448C180.71 385.947 180.96 385.52 181.291 385.168C181.622 384.816 182.011 384.549 182.459 384.368C182.918 384.176 183.43 384.08 183.995 384.08C184.752 384.08 185.408 384.245 185.963 384.576C186.518 384.907 186.944 385.376 187.243 385.984C187.552 386.581 187.707 387.291 187.707 388.112C187.707 388.731 187.622 389.285 187.451 389.776C187.28 390.267 187.03 390.693 186.699 391.056C186.368 391.408 185.974 391.68 185.515 391.872C185.067 392.053 184.56 392.144 183.995 392.144ZM183.995 391.104C184.475 391.104 184.896 390.987 185.259 390.752C185.622 390.517 185.899 390.176 186.091 389.728C186.294 389.28 186.395 388.741 186.395 388.112C186.395 387.141 186.176 386.4 185.739 385.888C185.312 385.376 184.731 385.12 183.995 385.12C183.504 385.12 183.078 385.237 182.715 385.472C182.363 385.696 182.086 386.032 181.883 386.48C181.691 386.917 181.595 387.461 181.595 388.112C181.595 389.072 181.814 389.813 182.251 390.336C182.688 390.848 183.27 391.104 183.995 391.104ZM190.31 392.112C190.096 392.112 189.931 392.053 189.814 391.936C189.707 391.819 189.654 391.653 189.654 391.44V384.768C189.654 384.555 189.707 384.395 189.814 384.288C189.92 384.171 190.075 384.112 190.278 384.112C190.48 384.112 190.635 384.171 190.742 384.288C190.859 384.395 190.918 384.555 190.918 384.768V386.064H190.758C190.928 385.435 191.254 384.949 191.734 384.608C192.214 384.267 192.806 384.085 193.51 384.064C193.67 384.053 193.798 384.091 193.894 384.176C193.99 384.251 194.043 384.384 194.054 384.576C194.064 384.757 194.022 384.901 193.926 385.008C193.83 385.115 193.68 385.179 193.478 385.2L193.222 385.232C192.496 385.296 191.936 385.531 191.542 385.936C191.158 386.331 190.966 386.875 190.966 387.568V391.44C190.966 391.653 190.907 391.819 190.789 391.936C190.683 392.053 190.523 392.112 190.31 392.112ZM198.254 392.144C197.561 392.144 196.953 391.979 196.43 391.648C195.918 391.317 195.518 390.853 195.23 390.256C194.953 389.648 194.814 388.933 194.814 388.112C194.814 387.28 194.953 386.565 195.23 385.968C195.518 385.36 195.918 384.896 196.43 384.576C196.953 384.245 197.561 384.08 198.254 384.08C198.958 384.08 199.561 384.256 200.062 384.608C200.563 384.96 200.899 385.435 201.07 386.032H200.894V381.264C200.894 381.051 200.947 380.891 201.054 380.784C201.171 380.667 201.337 380.608 201.55 380.608C201.753 380.608 201.907 380.667 202.014 380.784C202.131 380.891 202.19 381.051 202.19 381.264V391.44C202.19 391.653 202.137 391.819 202.03 391.936C201.923 392.053 201.763 392.112 201.55 392.112C201.347 392.112 201.187 392.053 201.07 391.936C200.963 391.819 200.91 391.653 200.91 391.44V389.92L201.086 390.144C200.915 390.752 200.574 391.237 200.062 391.6C199.561 391.963 198.958 392.144 198.254 392.144ZM198.526 391.104C199.006 391.104 199.427 390.987 199.79 390.752C200.153 390.517 200.43 390.176 200.622 389.728C200.825 389.28 200.926 388.741 200.926 388.112C200.926 387.141 200.707 386.4 200.27 385.888C199.843 385.376 199.262 385.12 198.526 385.12C198.035 385.12 197.609 385.237 197.246 385.472C196.894 385.696 196.617 386.032 196.414 386.48C196.222 386.917 196.126 387.461 196.126 388.112C196.126 389.072 196.345 389.813 196.782 390.336C197.219 390.848 197.801 391.104 198.526 391.104Z" fill="#00303F" fill-opacity="0.5"/>
<rect x="35.5" y="365.5" width="319" height="42" rx="4.5" stroke="#C5C5C5"/>
<rect x="35" y="450" width="320" height="43" rx="5" fill="#00303F"/>
<path d="M169.216 477.176C168.789 477.176 168.341 477.144 167.872 477.08C167.413 477.027 166.976 476.941 166.56 476.824C166.144 476.707 165.771 476.568 165.44 476.408C165.152 476.269 164.949 476.088 164.832 475.864C164.715 475.629 164.672 475.384 164.704 475.128C164.736 474.872 164.827 474.648 164.976 474.456C165.125 474.253 165.323 474.12 165.568 474.056C165.813 473.981 166.091 474.013 166.4 474.152C166.805 474.344 167.264 474.493 167.776 474.6C168.288 474.707 168.768 474.76 169.216 474.76C169.92 474.76 170.411 474.669 170.688 474.488C170.976 474.296 171.12 474.061 171.12 473.784C171.12 473.539 171.019 473.341 170.816 473.192C170.624 473.043 170.277 472.915 169.776 472.808L167.904 472.408C166.88 472.195 166.117 471.821 165.616 471.288C165.115 470.755 164.864 470.067 164.864 469.224C164.864 468.669 164.976 468.168 165.2 467.72C165.435 467.261 165.76 466.872 166.176 466.552C166.603 466.232 167.104 465.987 167.68 465.816C168.267 465.635 168.917 465.544 169.632 465.544C170.187 465.544 170.747 465.608 171.312 465.736C171.888 465.853 172.384 466.035 172.8 466.28C173.045 466.408 173.221 466.584 173.328 466.808C173.435 467.032 173.477 467.267 173.456 467.512C173.435 467.747 173.349 467.955 173.2 468.136C173.061 468.317 172.869 468.44 172.624 468.504C172.389 468.557 172.107 468.515 171.776 468.376C171.467 468.237 171.115 468.136 170.72 468.072C170.336 467.997 169.963 467.96 169.6 467.96C169.205 467.96 168.869 468.008 168.592 468.104C168.315 468.189 168.101 468.317 167.952 468.488C167.813 468.659 167.744 468.856 167.744 469.08C167.744 469.304 167.835 469.496 168.016 469.656C168.208 469.805 168.555 469.933 169.056 470.04L170.912 470.44C171.947 470.664 172.72 471.032 173.232 471.544C173.744 472.056 174 472.723 174 473.544C174 474.099 173.888 474.6 173.664 475.048C173.44 475.496 173.12 475.88 172.704 476.2C172.288 476.509 171.787 476.749 171.2 476.92C170.613 477.091 169.952 477.176 169.216 477.176ZM176.918 477.144C176.449 477.144 176.086 477.016 175.83 476.76C175.574 476.493 175.446 476.12 175.446 475.64V467.08C175.446 466.589 175.574 466.216 175.83 465.96C176.086 465.704 176.449 465.576 176.918 465.576C177.398 465.576 177.761 465.704 178.006 465.96C178.262 466.216 178.39 466.589 178.39 467.08V475.64C178.39 476.12 178.267 476.493 178.022 476.76C177.777 477.016 177.409 477.144 176.918 477.144ZM186.19 477.176C184.9 477.176 183.801 476.936 182.894 476.456C181.998 475.976 181.316 475.304 180.846 474.44C180.377 473.576 180.142 472.568 180.142 471.416C180.142 470.52 180.281 469.715 180.558 469C180.846 468.275 181.257 467.656 181.79 467.144C182.324 466.621 182.974 466.227 183.742 465.96C184.521 465.683 185.401 465.544 186.382 465.544C186.916 465.544 187.46 465.597 188.014 465.704C188.569 465.8 189.113 465.987 189.646 466.264C189.924 466.392 190.11 466.573 190.206 466.808C190.313 467.032 190.345 467.272 190.302 467.528C190.27 467.773 190.18 468.003 190.03 468.216C189.892 468.419 189.7 468.557 189.454 468.632C189.209 468.696 188.932 468.659 188.622 468.52C188.302 468.371 187.956 468.259 187.582 468.184C187.209 468.099 186.814 468.056 186.398 468.056C185.684 468.056 185.086 468.184 184.606 468.44C184.137 468.696 183.785 469.075 183.55 469.576C183.316 470.077 183.198 470.691 183.198 471.416C183.198 472.504 183.465 473.325 183.998 473.88C184.532 474.435 185.321 474.712 186.366 474.712C186.686 474.712 187.033 474.68 187.406 474.616C187.79 474.552 188.174 474.461 188.558 474.344L188.014 475.448V472.712H186.894C186.532 472.712 186.249 472.621 186.046 472.44C185.854 472.259 185.758 472.003 185.758 471.672C185.758 471.341 185.854 471.091 186.046 470.92C186.249 470.739 186.532 470.648 186.894 470.648H189.262C189.636 470.648 189.918 470.749 190.11 470.952C190.313 471.144 190.414 471.427 190.414 471.8V475.336C190.414 475.656 190.345 475.928 190.206 476.152C190.078 476.376 189.87 476.536 189.582 476.632C189.081 476.803 188.537 476.936 187.95 477.032C187.364 477.128 186.777 477.176 186.19 477.176ZM193.759 477.144C193.311 477.144 192.97 477.027 192.735 476.792C192.501 476.557 192.383 476.211 192.383 475.752V467.032C192.383 466.563 192.501 466.205 192.735 465.96C192.97 465.704 193.279 465.576 193.663 465.576C194.005 465.576 194.271 465.64 194.463 465.768C194.655 465.896 194.869 466.109 195.103 466.408L200.175 472.744H199.727V466.952C199.727 466.504 199.839 466.163 200.063 465.928C200.298 465.693 200.639 465.576 201.087 465.576C201.535 465.576 201.871 465.693 202.095 465.928C202.33 466.163 202.447 466.504 202.447 466.952V475.816C202.447 476.221 202.341 476.547 202.127 476.792C201.914 477.027 201.626 477.144 201.263 477.144C200.901 477.144 200.613 477.08 200.399 476.952C200.197 476.813 199.978 476.6 199.743 476.312L194.671 469.96H195.119V475.752C195.119 476.211 195.002 476.557 194.767 476.792C194.543 477.027 194.207 477.144 193.759 477.144ZM210.559 477.144C210.089 477.144 209.727 477.016 209.471 476.76C209.215 476.493 209.087 476.12 209.087 475.64V467.08C209.087 466.589 209.215 466.216 209.471 465.96C209.727 465.704 210.089 465.576 210.559 465.576C211.039 465.576 211.401 465.704 211.647 465.96C211.903 466.216 212.031 466.589 212.031 467.08V475.64C212.031 476.12 211.908 476.493 211.663 476.76C211.417 477.016 211.049 477.144 210.559 477.144ZM215.447 477.144C214.999 477.144 214.658 477.027 214.423 476.792C214.188 476.557 214.071 476.211 214.071 475.752V467.032C214.071 466.563 214.188 466.205 214.423 465.96C214.658 465.704 214.967 465.576 215.351 465.576C215.692 465.576 215.959 465.64 216.151 465.768C216.343 465.896 216.556 466.109 216.791 466.408L221.863 472.744H221.415V466.952C221.415 466.504 221.527 466.163 221.751 465.928C221.986 465.693 222.327 465.576 222.775 465.576C223.223 465.576 223.559 465.693 223.783 465.928C224.018 466.163 224.135 466.504 224.135 466.952V475.816C224.135 476.221 224.028 476.547 223.815 476.792C223.602 477.027 223.314 477.144 222.951 477.144C222.588 477.144 222.3 477.08 222.087 476.952C221.884 476.813 221.666 476.6 221.431 476.312L216.359 469.96H216.807V475.752C216.807 476.211 216.69 476.557 216.455 476.792C216.231 477.027 215.895 477.144 215.447 477.144Z" fill="white"/>
</svg>
