<svg width="390" height="844" viewBox="0 0 390 844" fill="none" xmlns="http://www.w3.org/2000/svg">
<g clip-path="url(#clip0_95_726)">
<rect width="390" height="844" fill="#F5F4F4"/>
<rect width="390" height="140" fill="#00303F"/>
<path d="M184.423 59.8937L186.107 62.5929L187.815 59.909L200.146 40.5317C201.755 38.0031 205.525 38.2609 206.775 40.985C207.303 42.1353 207.221 43.4733 206.556 44.5502L189.778 71.7205C188.1 74.4384 184.147 74.4384 182.469 71.7205L165.687 44.5435C165.016 43.4568 164.922 42.1098 165.435 40.9403C166.69 38.079 170.638 37.7937 172.291 40.4448L184.423 59.8937Z" stroke="white" stroke-opacity="0.5" stroke-width="4.00872"/>
<path d="M202.176 52.0454L203.859 49.3462L205.567 52.0301L217.898 71.4074C219.508 73.936 223.278 73.6782 224.528 70.9541C225.056 69.8038 224.973 68.4658 224.309 67.3889L207.531 40.2186C205.853 37.5007 201.9 37.5007 200.222 40.2186L183.44 67.3956C182.769 68.4823 182.675 69.8293 183.188 70.9988C184.443 73.8601 188.391 74.1453 190.044 71.4943L202.176 52.0454Z" stroke="#59DBAE" stroke-width="4.00872"/>
<path d="M135.247 108.7C134.218 108.7 133.31 108.573 132.521 108.319C131.733 108.052 131.065 107.658 130.517 107.137C129.982 106.616 129.575 105.968 129.294 105.193C129.027 104.404 128.893 103.496 128.893 102.467V96.0327C128.893 95.418 129.054 94.957 129.374 94.6496C129.695 94.3289 130.149 94.1686 130.737 94.1686C131.339 94.1686 131.793 94.3289 132.1 94.6496C132.421 94.957 132.581 95.418 132.581 96.0327V102.507C132.581 103.536 132.809 104.311 133.263 104.832C133.717 105.353 134.379 105.614 135.247 105.614C136.102 105.614 136.757 105.353 137.211 104.832C137.666 104.311 137.893 103.536 137.893 102.507V96.0327C137.893 95.418 138.047 94.957 138.354 94.6496C138.675 94.3289 139.129 94.1686 139.717 94.1686C140.305 94.1686 140.752 94.3289 141.06 94.6496C141.367 94.957 141.521 95.418 141.521 96.0327V102.467C141.521 103.843 141.28 104.999 140.799 105.934C140.332 106.856 139.63 107.551 138.695 108.019C137.759 108.473 136.61 108.7 135.247 108.7ZM153.571 108.66C152.983 108.66 152.528 108.5 152.208 108.179C151.887 107.845 151.727 107.384 151.727 106.796V96.213C151.727 95.6117 151.887 95.1507 152.208 94.83C152.542 94.5093 153.003 94.349 153.591 94.349H158.521C160.125 94.349 161.361 94.7632 162.229 95.5917C163.111 96.4068 163.552 97.5359 163.552 98.9791C163.552 100.422 163.111 101.558 162.229 102.386C161.361 103.202 160.125 103.609 158.521 103.609H155.415V106.796C155.415 107.384 155.261 107.845 154.954 108.179C154.646 108.5 154.185 108.66 153.571 108.66ZM155.415 100.783H157.88C158.575 100.783 159.109 100.636 159.483 100.342C159.858 100.035 160.045 99.5804 160.045 98.9791C160.045 98.3644 159.858 97.9101 159.483 97.6161C159.109 97.3221 158.575 97.1751 157.88 97.1751H155.415V100.783Z" fill="#59DBAE"/>
<path d="M173.807 108.48C173.513 108.48 173.285 108.406 173.125 108.259C172.978 108.099 172.905 107.872 172.905 107.578V95.251C172.905 94.957 172.978 94.7365 173.125 94.5895C173.285 94.4292 173.513 94.349 173.807 94.349H177.675C179.96 94.349 181.724 94.9503 182.966 96.1529C184.209 97.3555 184.83 99.106 184.83 101.404C184.83 102.554 184.67 103.569 184.349 104.451C184.042 105.32 183.581 106.054 182.966 106.656C182.352 107.257 181.603 107.711 180.722 108.019C179.84 108.326 178.824 108.48 177.675 108.48H173.807ZM174.548 107.077H177.555C178.49 107.077 179.298 106.956 179.98 106.716C180.675 106.475 181.249 106.121 181.704 105.654C182.171 105.186 182.519 104.598 182.746 103.89C182.973 103.168 183.087 102.34 183.087 101.404C183.087 99.5202 182.626 98.1105 181.704 97.1751C180.782 96.2264 179.399 95.752 177.555 95.752H174.548V107.077ZM200.885 108.66C199.576 108.66 198.433 108.366 197.458 107.778C196.496 107.177 195.748 106.335 195.213 105.253C194.692 104.17 194.431 102.888 194.431 101.404C194.431 100.282 194.578 99.2797 194.872 98.3978C195.18 97.5025 195.614 96.7475 196.175 96.1329C196.736 95.5048 197.411 95.0238 198.2 94.6897C199.001 94.3423 199.897 94.1686 200.885 94.1686C202.222 94.1686 203.371 94.4626 204.333 95.0505C205.308 95.6385 206.057 96.4736 206.578 97.556C207.112 98.625 207.38 99.9011 207.38 101.384C207.38 102.507 207.226 103.516 206.919 104.411C206.611 105.306 206.177 106.068 205.616 106.696C205.054 107.324 204.373 107.812 203.571 108.159C202.783 108.493 201.888 108.66 200.885 108.66ZM200.885 107.197C201.901 107.197 202.756 106.97 203.451 106.515C204.159 106.061 204.7 105.4 205.075 104.531C205.449 103.663 205.636 102.62 205.636 101.404C205.636 99.5737 205.222 98.1573 204.393 97.1551C203.578 96.1396 202.409 95.6318 200.885 95.6318C199.897 95.6318 199.048 95.8589 198.34 96.3133C197.645 96.7676 197.111 97.429 196.736 98.2976C196.362 99.1528 196.175 100.188 196.175 101.404C196.175 103.222 196.589 104.645 197.418 105.674C198.246 106.689 199.402 107.197 200.885 107.197ZM222.02 108.62C221.779 108.62 221.585 108.56 221.438 108.44C221.291 108.306 221.171 108.112 221.078 107.858L216.648 95.2109C216.554 94.9303 216.575 94.6964 216.708 94.5093C216.855 94.3089 217.082 94.2087 217.39 94.2087C217.617 94.2087 217.797 94.2688 217.931 94.3891C218.064 94.496 218.178 94.6697 218.272 94.9102L222.421 107.077H221.719L225.948 94.9703C226.042 94.7165 226.155 94.5294 226.289 94.4091C226.423 94.2755 226.603 94.2087 226.83 94.2087C227.044 94.2087 227.211 94.2755 227.331 94.4091C227.465 94.5294 227.578 94.7165 227.672 94.9703L231.841 107.077H231.22L235.409 94.9102C235.476 94.6831 235.576 94.5093 235.709 94.3891C235.856 94.2688 236.044 94.2087 236.271 94.2087C236.551 94.2087 236.758 94.3022 236.892 94.4893C237.026 94.6764 237.039 94.9169 236.932 95.2109L232.482 107.858C232.389 108.112 232.269 108.306 232.122 108.44C231.988 108.56 231.794 108.62 231.54 108.62C231.3 108.62 231.106 108.56 230.959 108.44C230.826 108.306 230.705 108.112 230.598 107.858L226.57 96.2531H227.011L222.942 107.858C222.848 108.112 222.735 108.306 222.601 108.44C222.467 108.56 222.274 108.62 222.02 108.62ZM247.503 108.62C247.249 108.62 247.055 108.553 246.922 108.42C246.788 108.273 246.721 108.066 246.721 107.798V95.0505C246.721 94.7833 246.788 94.5762 246.922 94.4292C247.055 94.2822 247.229 94.2087 247.443 94.2087C247.657 94.2087 247.81 94.2488 247.904 94.329C248.011 94.3958 248.131 94.5227 248.265 94.7098L257.004 106.355H256.523V95.0104C256.523 94.7565 256.59 94.5628 256.723 94.4292C256.857 94.2822 257.051 94.2087 257.304 94.2087C257.545 94.2087 257.725 94.2822 257.846 94.4292C257.979 94.5628 258.046 94.7565 258.046 95.0104V107.818C258.046 108.072 257.986 108.273 257.866 108.42C257.759 108.553 257.598 108.62 257.385 108.62C257.184 108.62 257.024 108.58 256.904 108.5C256.783 108.42 256.656 108.293 256.523 108.119L247.804 96.4736H248.265V107.798C248.265 108.066 248.198 108.273 248.064 108.42C247.931 108.553 247.744 108.62 247.503 108.62Z" fill="#F5F4F4"/>
<rect width="390" height="70" transform="translate(0 774)" fill="#00303F"/>
<path d="M78 826.5V814.147H85V826.5H93.75V810.029H99L81.5 791.5L64 810.029H69.25V826.5H78Z" fill="#59DBAE"/>
<path d="M179 802H186.5V826.5H179V802ZM193 791.5H200V826.5H193V791.5ZM207 811.5H214V826.5H207V811.5Z" fill="white" fill-opacity="0.25"/>
<path d="M310 788C315.744 788 320.562 792.092 321.754 797.574L317.844 798.426C317.035 794.708 313.856 792 310 792C305.448 792 302 795.448 302 800V802H322C324.2 802 326 803.8 326 806V826C326 828.2 324.2 830 322 830H298C295.8 830 294 828.2 294 826V806C294 803.8 295.8 802 298 802V800C298 793.352 303.352 788 310 788ZM310 812C307.8 812 306 813.8 306 816C306 818.2 307.8 820 310 820C312.2 820 314 818.2 314 816C314 813.8 312.2 812 310 812Z" fill="white" fill-opacity="0.25"/>
<mask id="path-7-inside-1_95_726" fill="white">
<path d="M0 140H390V184H0V140Z"/>
</mask>
<path d="M0 140H390V184H0V140Z" fill="white"/>
<path d="M25.89 167C25.666 167 25.4933 166.939 25.372 166.818C25.2507 166.697 25.19 166.524 25.19 166.3V157.83C25.19 157.606 25.2507 157.433 25.372 157.312C25.4933 157.191 25.666 157.13 25.89 157.13H29.208C29.8893 157.13 30.468 157.233 30.944 157.438C31.4293 157.643 31.798 157.937 32.05 158.32C32.302 158.703 32.428 159.165 32.428 159.706C32.428 160.313 32.2507 160.821 31.896 161.232C31.5413 161.643 31.056 161.918 30.44 162.058V161.848C31.1307 161.932 31.672 162.189 32.064 162.618C32.4653 163.038 32.666 163.589 32.666 164.27C32.666 165.147 32.3767 165.824 31.798 166.3C31.2287 166.767 30.4213 167 29.376 167H25.89ZM26.45 165.978H29.236C29.964 165.978 30.5053 165.838 30.86 165.558C31.2147 165.269 31.392 164.83 31.392 164.242C31.392 163.654 31.2147 163.22 30.86 162.94C30.5053 162.66 29.964 162.52 29.236 162.52H26.45V165.978ZM26.45 161.484H29.012C29.7213 161.484 30.2533 161.344 30.608 161.064C30.972 160.775 31.154 160.359 31.154 159.818C31.154 159.277 30.972 158.866 30.608 158.586C30.2533 158.297 29.7213 158.152 29.012 158.152H26.45V161.484ZM36.96 167.126C36.4093 167.126 35.9473 167.023 35.574 166.818C35.21 166.613 34.9393 166.309 34.762 165.908C34.5846 165.507 34.496 165.003 34.496 164.396V160.728C34.496 160.513 34.5473 160.355 34.65 160.252C34.762 160.14 34.9206 160.084 35.126 160.084C35.3313 160.084 35.49 160.14 35.602 160.252C35.714 160.355 35.77 160.513 35.77 160.728V164.396C35.77 164.975 35.8866 165.404 36.12 165.684C36.3533 165.955 36.722 166.09 37.226 166.09C37.786 166.09 38.2386 165.903 38.584 165.53C38.9386 165.157 39.116 164.662 39.116 164.046V160.728C39.116 160.513 39.1673 160.355 39.27 160.252C39.382 160.14 39.5406 160.084 39.746 160.084C39.9513 160.084 40.11 160.14 40.222 160.252C40.334 160.355 40.39 160.513 40.39 160.728V166.44C40.39 166.879 40.1846 167.098 39.774 167.098C39.5686 167.098 39.41 167.042 39.298 166.93C39.1953 166.818 39.144 166.655 39.144 166.44V165.222L39.326 165.46C39.1393 166.001 38.836 166.417 38.416 166.706C38.0053 166.986 37.52 167.126 36.96 167.126ZM43.07 167.07C42.874 167.07 42.72 167.009 42.608 166.888C42.496 166.767 42.44 166.599 42.44 166.384V160.798C42.44 160.574 42.496 160.406 42.608 160.294C42.72 160.173 42.874 160.112 43.07 160.112C43.2753 160.112 43.434 160.173 43.546 160.294C43.658 160.406 43.714 160.574 43.714 160.798V166.384C43.714 166.599 43.658 166.767 43.546 166.888C43.4433 167.009 43.2846 167.07 43.07 167.07ZM43.07 158.6C42.818 158.6 42.6173 158.535 42.468 158.404C42.328 158.264 42.258 158.082 42.258 157.858C42.258 157.615 42.328 157.433 42.468 157.312C42.6173 157.181 42.818 157.116 43.07 157.116C43.3406 157.116 43.5413 157.181 43.672 157.312C43.812 157.433 43.882 157.615 43.882 157.858C43.882 158.082 43.812 158.264 43.672 158.404C43.5413 158.535 43.3406 158.6 43.07 158.6ZM47.9042 167.126C47.2042 167.126 46.6722 166.921 46.3082 166.51C45.9442 166.09 45.7622 165.488 45.7622 164.704V157.676C45.7622 157.461 45.8182 157.303 45.9302 157.2C46.0422 157.088 46.1962 157.032 46.3922 157.032C46.5976 157.032 46.7562 157.088 46.8682 157.2C46.9802 157.303 47.0362 157.461 47.0362 157.676V164.606C47.0362 165.091 47.1342 165.455 47.3302 165.698C47.5356 165.931 47.8249 166.048 48.1982 166.048C48.2822 166.048 48.3569 166.048 48.4222 166.048C48.4876 166.039 48.5529 166.029 48.6182 166.02C48.7209 166.011 48.7956 166.039 48.8422 166.104C48.8889 166.169 48.9122 166.3 48.9122 166.496C48.9122 166.673 48.8702 166.813 48.7862 166.916C48.7116 167.009 48.5856 167.07 48.4082 167.098C48.3242 167.107 48.2402 167.112 48.1562 167.112C48.0722 167.121 47.9882 167.126 47.9042 167.126ZM52.5088 167.126C51.9115 167.126 51.3841 166.986 50.9268 166.706C50.4788 166.417 50.1288 166.006 49.8768 165.474C49.6248 164.933 49.4988 164.303 49.4988 163.584C49.4988 162.856 49.6201 162.231 49.8628 161.708C50.1148 161.176 50.4648 160.77 50.9128 160.49C51.3701 160.201 51.9021 160.056 52.5088 160.056C53.1155 160.056 53.6381 160.21 54.0768 160.518C54.5155 160.817 54.8095 161.218 54.9588 161.722H54.8048V157.676C54.8048 157.461 54.8561 157.303 54.9588 157.2C55.0708 157.088 55.2295 157.032 55.4348 157.032C55.6401 157.032 55.7988 157.088 55.9108 157.2C56.0228 157.303 56.0788 157.461 56.0788 157.676V166.44C56.0788 166.655 56.0228 166.818 55.9108 166.93C55.7988 167.042 55.6401 167.098 55.4348 167.098C55.2388 167.098 55.0848 167.042 54.9728 166.93C54.8608 166.818 54.8048 166.655 54.8048 166.44V165.166L54.9588 165.418C54.8188 165.941 54.5248 166.356 54.0768 166.664C53.6381 166.972 53.1155 167.126 52.5088 167.126ZM52.8028 166.118C53.2135 166.118 53.5681 166.02 53.8668 165.824C54.1748 165.628 54.4081 165.343 54.5668 164.97C54.7348 164.597 54.8188 164.135 54.8188 163.584C54.8188 162.763 54.6368 162.137 54.2728 161.708C53.9088 161.279 53.4188 161.064 52.8028 161.064C52.4015 161.064 52.0468 161.162 51.7388 161.358C51.4401 161.545 51.2068 161.825 51.0388 162.198C50.8708 162.571 50.7868 163.033 50.7868 163.584C50.7868 164.405 50.9688 165.035 51.3328 165.474C51.7061 165.903 52.1961 166.118 52.8028 166.118ZM58.7516 167.07C58.5556 167.07 58.4016 167.009 58.2896 166.888C58.1776 166.767 58.1216 166.599 58.1216 166.384V160.798C58.1216 160.574 58.1776 160.406 58.2896 160.294C58.4016 160.173 58.5556 160.112 58.7516 160.112C58.9569 160.112 59.1156 160.173 59.2276 160.294C59.3396 160.406 59.3956 160.574 59.3956 160.798V166.384C59.3956 166.599 59.3396 166.767 59.2276 166.888C59.1249 167.009 58.9663 167.07 58.7516 167.07ZM58.7516 158.6C58.4996 158.6 58.2989 158.535 58.1496 158.404C58.0096 158.264 57.9396 158.082 57.9396 157.858C57.9396 157.615 58.0096 157.433 58.1496 157.312C58.2989 157.181 58.4996 157.116 58.7516 157.116C59.0223 157.116 59.2229 157.181 59.3536 157.312C59.4936 157.433 59.5636 157.615 59.5636 157.858C59.5636 158.082 59.4936 158.264 59.3536 158.404C59.2229 158.535 59.0223 158.6 58.7516 158.6ZM62.0739 167.098C61.8779 167.098 61.7239 167.042 61.6119 166.93C61.4999 166.818 61.4439 166.655 61.4439 166.44V160.728C61.4439 160.513 61.4999 160.355 61.6119 160.252C61.7239 160.14 61.8779 160.084 62.0739 160.084C62.2699 160.084 62.4192 160.14 62.5219 160.252C62.6339 160.355 62.6899 160.513 62.6899 160.728V161.876L62.5359 161.666C62.7319 161.134 63.0492 160.733 63.4879 160.462C63.9359 160.191 64.4445 160.056 65.0139 160.056C65.5645 160.056 66.0172 160.154 66.3719 160.35C66.7265 160.546 66.9925 160.845 67.1699 161.246C67.3472 161.647 67.4359 162.156 67.4359 162.772V166.44C67.4359 166.655 67.3799 166.818 67.2679 166.93C67.1652 167.042 67.0112 167.098 66.8059 167.098C66.6005 167.098 66.4419 167.042 66.3299 166.93C66.2179 166.818 66.1619 166.655 66.1619 166.44V162.842C66.1619 162.235 66.0452 161.792 65.8119 161.512C65.5785 161.232 65.2052 161.092 64.6919 161.092C64.0945 161.092 63.6139 161.279 63.2499 161.652C62.8952 162.016 62.7179 162.511 62.7179 163.136V166.44C62.7179 166.879 62.5032 167.098 62.0739 167.098ZM72.5216 169.646C72.0176 169.646 71.5276 169.59 71.0516 169.478C70.5849 169.366 70.1603 169.193 69.7776 168.96C69.6563 168.885 69.5723 168.797 69.5256 168.694C69.4883 168.601 69.4789 168.503 69.4976 168.4C69.5256 168.297 69.5723 168.204 69.6376 168.12C69.7123 168.045 69.7963 167.994 69.8896 167.966C69.9923 167.947 70.0949 167.971 70.1976 168.036C70.6083 168.269 71.0003 168.428 71.3736 168.512C71.7469 168.596 72.1016 168.638 72.4376 168.638C73.1003 168.638 73.5949 168.465 73.9216 168.12C74.2576 167.784 74.4256 167.289 74.4256 166.636V165.124H74.5516C74.4209 165.647 74.1269 166.062 73.6696 166.37C73.2216 166.678 72.6989 166.832 72.1016 166.832C71.4856 166.832 70.9489 166.692 70.4916 166.412C70.0343 166.123 69.6796 165.726 69.4276 165.222C69.1756 164.709 69.0496 164.116 69.0496 163.444C69.0496 162.931 69.1196 162.469 69.2596 162.058C69.4089 161.638 69.6143 161.283 69.8756 160.994C70.1463 160.695 70.4683 160.467 70.8416 160.308C71.2149 160.14 71.6349 160.056 72.1016 160.056C72.7083 160.056 73.2356 160.21 73.6836 160.518C74.1316 160.826 74.4209 161.241 74.5516 161.764L74.3976 161.96V160.728C74.3976 160.513 74.4536 160.355 74.5656 160.252C74.6776 160.14 74.8363 160.084 75.0416 160.084C75.2376 160.084 75.3916 160.14 75.5036 160.252C75.6156 160.355 75.6716 160.513 75.6716 160.728V166.468C75.6716 167.523 75.4009 168.316 74.8596 168.848C74.3276 169.38 73.5483 169.646 72.5216 169.646ZM72.3816 165.824C72.8016 165.824 73.1609 165.731 73.4596 165.544C73.7676 165.348 74.0009 165.073 74.1596 164.718C74.3276 164.354 74.4116 163.929 74.4116 163.444C74.4116 162.707 74.2296 162.128 73.8656 161.708C73.5016 161.279 73.0069 161.064 72.3816 161.064C71.9616 161.064 71.5976 161.162 71.2896 161.358C70.9909 161.545 70.7576 161.815 70.5896 162.17C70.4216 162.525 70.3376 162.949 70.3376 163.444C70.3376 164.172 70.5196 164.751 70.8836 165.18C71.2569 165.609 71.7563 165.824 72.3816 165.824ZM82.1338 167.098C81.9471 167.098 81.7978 167.042 81.6858 166.93C81.5831 166.818 81.5318 166.664 81.5318 166.468V157.69C81.5318 157.475 81.5831 157.312 81.6858 157.2C81.7885 157.088 81.9238 157.032 82.0918 157.032C82.2505 157.032 82.3718 157.06 82.4558 157.116C82.5398 157.172 82.6331 157.27 82.7358 157.41L88.6718 165.278H88.3218V157.662C88.3218 157.457 88.3731 157.303 88.4758 157.2C88.5878 157.088 88.7418 157.032 88.9378 157.032C89.1338 157.032 89.2831 157.088 89.3858 157.2C89.4885 157.303 89.5398 157.457 89.5398 157.662V166.468C89.5398 166.664 89.4885 166.818 89.3858 166.93C89.2925 167.042 89.1665 167.098 89.0078 167.098C88.8585 167.098 88.7325 167.065 88.6298 167C88.5365 166.944 88.4385 166.846 88.3358 166.706L82.4138 158.838H82.7358V166.468C82.7358 166.664 82.6845 166.818 82.5818 166.93C82.4791 167.042 82.3298 167.098 82.1338 167.098ZM93.9108 167.126C93.4441 167.126 93.0194 167.033 92.6368 166.846C92.2634 166.659 91.9694 166.407 91.7548 166.09C91.5494 165.773 91.4468 165.418 91.4468 165.026C91.4468 164.522 91.5728 164.125 91.8248 163.836C92.0768 163.547 92.5014 163.341 93.0988 163.22C93.6961 163.089 94.4988 163.024 95.5068 163.024H96.1648V163.836H95.5348C94.8161 163.836 94.2468 163.869 93.8268 163.934C93.4161 163.999 93.1268 164.116 92.9588 164.284C92.7908 164.443 92.7068 164.667 92.7068 164.956C92.7068 165.32 92.8328 165.619 93.0848 165.852C93.3461 166.085 93.7008 166.202 94.1488 166.202C94.5034 166.202 94.8161 166.118 95.0868 165.95C95.3574 165.773 95.5721 165.539 95.7308 165.25C95.8894 164.951 95.9688 164.611 95.9688 164.228V162.618C95.9688 162.067 95.8568 161.671 95.6328 161.428C95.4088 161.176 95.0308 161.05 94.4988 161.05C94.1908 161.05 93.8734 161.092 93.5468 161.176C93.2201 161.26 92.8794 161.391 92.5248 161.568C92.3848 161.633 92.2634 161.657 92.1608 161.638C92.0581 161.61 91.9741 161.554 91.9088 161.47C91.8528 161.377 91.8201 161.279 91.8108 161.176C91.8108 161.064 91.8341 160.957 91.8808 160.854C91.9368 160.751 92.0301 160.677 92.1608 160.63C92.5714 160.425 92.9774 160.28 93.3788 160.196C93.7894 160.103 94.1721 160.056 94.5268 160.056C95.1334 160.056 95.6328 160.154 96.0248 160.35C96.4168 160.537 96.7108 160.831 96.9068 161.232C97.1028 161.624 97.2008 162.128 97.2008 162.744V166.44C97.2008 166.655 97.1494 166.818 97.0468 166.93C96.9441 167.042 96.7948 167.098 96.5988 167.098C96.4121 167.098 96.2628 167.042 96.1508 166.93C96.0481 166.818 95.9968 166.655 95.9968 166.44V165.446H96.1228C96.0481 165.791 95.9081 166.09 95.7028 166.342C95.4974 166.594 95.2408 166.79 94.9328 166.93C94.6341 167.061 94.2934 167.126 93.9108 167.126ZM99.8636 167.098C99.6676 167.098 99.5136 167.042 99.4016 166.93C99.2896 166.818 99.2336 166.655 99.2336 166.44V160.728C99.2336 160.513 99.2896 160.355 99.4016 160.252C99.5136 160.14 99.6676 160.084 99.8636 160.084C100.06 160.084 100.209 160.14 100.312 160.252C100.424 160.355 100.48 160.513 100.48 160.728V161.918L100.326 161.666C100.503 161.153 100.788 160.756 101.18 160.476C101.581 160.196 102.057 160.056 102.608 160.056C103.186 160.056 103.653 160.196 104.008 160.476C104.362 160.747 104.6 161.162 104.722 161.722H104.526C104.694 161.209 104.992 160.803 105.422 160.504C105.86 160.205 106.369 160.056 106.948 160.056C107.461 160.056 107.881 160.159 108.208 160.364C108.544 160.56 108.796 160.859 108.964 161.26C109.132 161.652 109.216 162.156 109.216 162.772V166.44C109.216 166.655 109.16 166.818 109.048 166.93C108.936 167.042 108.782 167.098 108.586 167.098C108.38 167.098 108.222 167.042 108.11 166.93C107.998 166.818 107.942 166.655 107.942 166.44V162.828C107.942 162.231 107.839 161.792 107.634 161.512C107.428 161.232 107.083 161.092 106.598 161.092C106.066 161.092 105.641 161.279 105.324 161.652C105.016 162.016 104.862 162.52 104.862 163.164V166.44C104.862 166.655 104.806 166.818 104.694 166.93C104.591 167.042 104.437 167.098 104.232 167.098C104.026 167.098 103.868 167.042 103.756 166.93C103.644 166.818 103.588 166.655 103.588 166.44V162.828C103.588 162.231 103.485 161.792 103.28 161.512C103.074 161.232 102.729 161.092 102.244 161.092C101.712 161.092 101.287 161.279 100.97 161.652C100.662 162.016 100.508 162.52 100.508 163.164V166.44C100.508 166.879 100.293 167.098 99.8636 167.098ZM114.414 167.126C113.677 167.126 113.042 166.986 112.51 166.706C111.988 166.417 111.582 166.011 111.292 165.488C111.003 164.956 110.858 164.331 110.858 163.612C110.858 162.903 110.998 162.282 111.278 161.75C111.568 161.218 111.96 160.803 112.454 160.504C112.958 160.205 113.532 160.056 114.176 160.056C114.634 160.056 115.044 160.135 115.408 160.294C115.782 160.443 116.099 160.663 116.36 160.952C116.622 161.241 116.818 161.596 116.948 162.016C117.088 162.427 117.158 162.893 117.158 163.416C117.158 163.565 117.112 163.682 117.018 163.766C116.934 163.841 116.808 163.878 116.64 163.878H111.852V163.066H116.318L116.08 163.262C116.08 162.777 116.006 162.366 115.856 162.03C115.716 161.685 115.506 161.423 115.226 161.246C114.956 161.069 114.615 160.98 114.204 160.98C113.756 160.98 113.374 161.087 113.056 161.302C112.739 161.507 112.496 161.801 112.328 162.184C112.16 162.557 112.076 162.991 112.076 163.486V163.57C112.076 164.41 112.277 165.045 112.678 165.474C113.08 165.903 113.658 166.118 114.414 166.118C114.713 166.118 115.016 166.081 115.324 166.006C115.642 165.931 115.945 165.796 116.234 165.6C116.374 165.516 116.5 165.479 116.612 165.488C116.734 165.488 116.832 165.525 116.906 165.6C116.981 165.665 117.028 165.749 117.046 165.852C117.065 165.945 117.051 166.048 117.004 166.16C116.958 166.272 116.869 166.37 116.738 166.454C116.43 166.669 116.062 166.837 115.632 166.958C115.212 167.07 114.806 167.126 114.414 167.126Z" fill="#00303F"/>
<path d="M279.92 166C279.544 166 279.256 165.904 279.056 165.712C278.864 165.512 278.768 165.228 278.768 164.86V158.68C278.768 158.312 278.864 158.032 279.056 157.84C279.256 157.64 279.544 157.54 279.92 157.54H283.988C284.276 157.54 284.492 157.612 284.636 157.756C284.78 157.9 284.852 158.108 284.852 158.38C284.852 158.66 284.78 158.876 284.636 159.028C284.492 159.172 284.276 159.244 283.988 159.244H280.88V160.852H283.724C284.004 160.852 284.216 160.924 284.36 161.068C284.512 161.212 284.588 161.424 284.588 161.704C284.588 161.984 284.512 162.196 284.36 162.34C284.216 162.484 284.004 162.556 283.724 162.556H280.88V164.296H283.988C284.276 164.296 284.492 164.372 284.636 164.524C284.78 164.668 284.852 164.876 284.852 165.148C284.852 165.428 284.78 165.64 284.636 165.784C284.492 165.928 284.276 166 283.988 166H279.92ZM287.255 166C286.903 166 286.627 165.904 286.427 165.712C286.235 165.512 286.139 165.236 286.139 164.884V158.644C286.139 158.284 286.235 158.008 286.427 157.816C286.619 157.624 286.891 157.528 287.243 157.528C287.603 157.528 287.875 157.624 288.059 157.816C288.251 158.008 288.347 158.284 288.347 158.644V164.164H291.275C291.579 164.164 291.811 164.244 291.971 164.404C292.139 164.556 292.223 164.78 292.223 165.076C292.223 165.372 292.139 165.6 291.971 165.76C291.811 165.92 291.579 166 291.275 166H287.255ZM294.311 166C293.935 166 293.647 165.904 293.447 165.712C293.255 165.512 293.159 165.228 293.159 164.86V158.68C293.159 158.312 293.255 158.032 293.447 157.84C293.647 157.64 293.935 157.54 294.311 157.54H298.379C298.667 157.54 298.883 157.612 299.027 157.756C299.171 157.9 299.243 158.108 299.243 158.38C299.243 158.66 299.171 158.876 299.027 159.028C298.883 159.172 298.667 159.244 298.379 159.244H295.271V160.852H298.115C298.395 160.852 298.607 160.924 298.751 161.068C298.903 161.212 298.979 161.424 298.979 161.704C298.979 161.984 298.903 162.196 298.751 162.34C298.607 162.484 298.395 162.556 298.115 162.556H295.271V164.296H298.379C298.667 164.296 298.883 164.372 299.027 164.524C299.171 164.668 299.243 164.876 299.243 165.148C299.243 165.428 299.171 165.64 299.027 165.784C298.883 165.928 298.667 166 298.379 166H294.311ZM304.249 166.108C303.945 166.108 303.697 166.044 303.505 165.916C303.321 165.788 303.165 165.584 303.037 165.304L300.133 158.896C300.005 158.616 299.965 158.364 300.013 158.14C300.061 157.916 300.173 157.744 300.349 157.624C300.525 157.496 300.745 157.432 301.009 157.432C301.337 157.432 301.581 157.504 301.741 157.648C301.909 157.792 302.053 158.004 302.173 158.284L304.621 163.948H303.949L306.397 158.272C306.517 157.992 306.661 157.784 306.829 157.648C306.997 157.504 307.233 157.432 307.537 157.432C307.785 157.432 307.993 157.496 308.161 157.624C308.329 157.744 308.433 157.916 308.473 158.14C308.521 158.364 308.481 158.616 308.353 158.896L305.437 165.304C305.317 165.584 305.165 165.788 304.981 165.916C304.797 166.044 304.553 166.108 304.249 166.108ZM309.059 166.108C308.811 166.108 308.603 166.052 308.435 165.94C308.267 165.82 308.163 165.66 308.123 165.46C308.083 165.252 308.119 165.02 308.231 164.764L311.219 158.332C311.363 158.02 311.539 157.792 311.747 157.648C311.963 157.504 312.207 157.432 312.479 157.432C312.751 157.432 312.987 157.504 313.187 157.648C313.395 157.792 313.575 158.02 313.727 158.332L316.715 164.764C316.843 165.02 316.887 165.252 316.847 165.46C316.815 165.668 316.715 165.828 316.547 165.94C316.387 166.052 316.187 166.108 315.947 166.108C315.627 166.108 315.379 166.036 315.203 165.892C315.035 165.748 314.883 165.516 314.747 165.196L314.099 163.672L314.939 164.284H309.995L310.847 163.672L310.199 165.196C310.055 165.516 309.907 165.748 309.755 165.892C309.603 166.036 309.371 166.108 309.059 166.108ZM312.455 159.844L311.063 163.168L310.727 162.592H314.219L313.883 163.168L312.479 159.844H312.455ZM319.962 166.108C319.61 166.108 319.338 166.012 319.146 165.82C318.954 165.62 318.858 165.344 318.858 164.992V159.34H316.974C316.678 159.34 316.45 159.264 316.29 159.112C316.138 158.952 316.062 158.728 316.062 158.44C316.062 158.144 316.138 157.92 316.29 157.768C316.45 157.616 316.678 157.54 316.974 157.54H322.95C323.246 157.54 323.47 157.616 323.622 157.768C323.782 157.92 323.862 158.144 323.862 158.44C323.862 158.728 323.782 158.952 323.622 159.112C323.47 159.264 323.246 159.34 322.95 159.34H321.066V164.992C321.066 165.344 320.974 165.62 320.79 165.82C320.606 166.012 320.33 166.108 319.962 166.108ZM328.176 166.132C327.32 166.132 326.568 165.952 325.92 165.592C325.272 165.224 324.768 164.712 324.408 164.056C324.056 163.4 323.88 162.636 323.88 161.764C323.88 161.108 323.98 160.512 324.18 159.976C324.388 159.44 324.68 158.98 325.056 158.596C325.44 158.212 325.896 157.92 326.424 157.72C326.952 157.512 327.536 157.408 328.176 157.408C329.032 157.408 329.78 157.588 330.42 157.948C331.068 158.308 331.572 158.816 331.932 159.472C332.292 160.12 332.472 160.884 332.472 161.764C332.472 162.42 332.368 163.016 332.16 163.552C331.96 164.088 331.668 164.552 331.284 164.944C330.908 165.328 330.456 165.624 329.928 165.832C329.4 166.032 328.816 166.132 328.176 166.132ZM328.176 164.284C328.6 164.284 328.96 164.184 329.256 163.984C329.552 163.784 329.78 163.496 329.94 163.12C330.1 162.744 330.18 162.292 330.18 161.764C330.18 160.972 330.004 160.356 329.652 159.916C329.3 159.476 328.808 159.256 328.176 159.256C327.76 159.256 327.4 159.356 327.096 159.556C326.8 159.748 326.572 160.032 326.412 160.408C326.252 160.776 326.172 161.228 326.172 161.764C326.172 162.556 326.348 163.176 326.7 163.624C327.052 164.064 327.544 164.284 328.176 164.284ZM334.88 166.108C334.528 166.108 334.256 166.012 334.064 165.82C333.872 165.62 333.776 165.344 333.776 164.992V158.656C333.776 158.296 333.872 158.02 334.064 157.828C334.264 157.636 334.54 157.54 334.892 157.54H337.844C338.804 157.54 339.544 157.776 340.064 158.248C340.592 158.712 340.856 159.36 340.856 160.192C340.856 160.728 340.736 161.196 340.496 161.596C340.264 161.988 339.924 162.292 339.476 162.508C339.036 162.716 338.492 162.82 337.844 162.82L337.94 162.604H338.516C338.86 162.604 339.164 162.688 339.428 162.856C339.692 163.016 339.912 163.264 340.088 163.6L340.688 164.68C340.816 164.912 340.876 165.14 340.868 165.364C340.86 165.58 340.772 165.76 340.604 165.904C340.444 166.04 340.208 166.108 339.896 166.108C339.584 166.108 339.328 166.044 339.128 165.916C338.936 165.788 338.764 165.588 338.612 165.316L337.52 163.312C337.424 163.136 337.3 163.016 337.148 162.952C337.004 162.88 336.836 162.844 336.644 162.844H335.984V164.992C335.984 165.344 335.892 165.62 335.708 165.82C335.524 166.012 335.248 166.108 334.88 166.108ZM335.984 161.284H337.448C337.872 161.284 338.196 161.2 338.42 161.032C338.644 160.864 338.756 160.604 338.756 160.252C338.756 159.916 338.644 159.664 338.42 159.496C338.196 159.32 337.872 159.232 337.448 159.232H335.984V161.284Z" fill="#00303F"/>
<rect x="352" y="155" width="14" height="14" rx="7" fill="#1EFF34"/>
<rect x="351" y="154" width="16" height="16" rx="8" stroke="black" stroke-opacity="0.25" stroke-width="2"/>
<path d="M390 183H0V185H390V183Z" fill="#C5C5C5" mask="url(#path-7-inside-1_95_726)"/>
<rect x="24" y="208" width="342" height="45" rx="5" fill="#59DBAE"/>
<path d="M44.488 235.626C43.5173 235.626 42.6867 235.421 41.996 235.01C41.3053 234.599 40.7733 234.016 40.4 233.26C40.036 232.504 39.854 231.603 39.854 230.558C39.854 229.774 39.9567 229.074 40.162 228.458C40.3767 227.833 40.68 227.305 41.072 226.876C41.4733 226.437 41.9633 226.101 42.542 225.868C43.1207 225.625 43.7693 225.504 44.488 225.504C45.0667 225.504 45.6173 225.588 46.14 225.756C46.6627 225.915 47.1153 226.153 47.498 226.47C47.6193 226.563 47.6987 226.671 47.736 226.792C47.7827 226.904 47.7873 227.016 47.75 227.128C47.722 227.231 47.666 227.319 47.582 227.394C47.5073 227.459 47.414 227.492 47.302 227.492C47.19 227.492 47.064 227.445 46.924 227.352C46.588 227.081 46.2193 226.881 45.818 226.75C45.4167 226.619 44.9827 226.554 44.516 226.554C43.7787 226.554 43.1533 226.713 42.64 227.03C42.1267 227.338 41.7393 227.791 41.478 228.388C41.2167 228.985 41.086 229.709 41.086 230.558C41.086 231.407 41.2167 232.135 41.478 232.742C41.7393 233.339 42.1267 233.797 42.64 234.114C43.1533 234.422 43.7787 234.576 44.516 234.576C44.9733 234.576 45.4073 234.511 45.818 234.38C46.2287 234.24 46.6067 234.035 46.952 233.764C47.092 233.671 47.218 233.629 47.33 233.638C47.442 233.638 47.5353 233.671 47.61 233.736C47.6847 233.801 47.736 233.885 47.764 233.988C47.8013 234.091 47.8013 234.198 47.764 234.31C47.736 234.422 47.666 234.52 47.554 234.604C47.162 234.94 46.7 235.197 46.168 235.374C45.6453 235.542 45.0853 235.626 44.488 235.626ZM53.5299 235.626C52.8766 235.626 52.3026 235.542 51.8079 235.374C51.3226 235.197 50.9119 234.94 50.5759 234.604C50.2399 234.259 49.9879 233.834 49.8199 233.33C49.6519 232.826 49.5679 232.247 49.5679 231.594V226.12C49.5679 225.924 49.6146 225.779 49.7079 225.686C49.8106 225.583 49.9553 225.532 50.1419 225.532C50.3286 225.532 50.4686 225.583 50.5619 225.686C50.6646 225.779 50.7159 225.924 50.7159 226.12V231.538C50.7159 232.565 50.9539 233.335 51.4299 233.848C51.9059 234.352 52.6059 234.604 53.5299 234.604C54.4539 234.604 55.1493 234.352 55.6159 233.848C56.0826 233.335 56.3159 232.565 56.3159 231.538V226.12C56.3159 225.924 56.3673 225.779 56.4699 225.686C56.5726 225.583 56.7173 225.532 56.9039 225.532C57.0813 225.532 57.2166 225.583 57.3099 225.686C57.4126 225.779 57.4639 225.924 57.4639 226.12V231.594C57.4639 232.462 57.3146 233.199 57.0159 233.806C56.7266 234.413 56.2879 234.87 55.6999 235.178C55.1119 235.477 54.3886 235.626 53.5299 235.626ZM60.3975 235.598C60.2108 235.598 60.0661 235.547 59.9635 235.444C59.8701 235.332 59.8235 235.183 59.8235 234.996V226.218C59.8235 226.022 59.8748 225.877 59.9775 225.784C60.0801 225.681 60.2248 225.63 60.4115 225.63H63.7295C64.7841 225.63 65.5961 225.877 66.1655 226.372C66.7348 226.867 67.0195 227.571 67.0195 228.486C67.0195 229.065 66.8888 229.569 66.6275 229.998C66.3755 230.418 66.0021 230.74 65.5075 230.964C65.0128 231.179 64.4201 231.286 63.7295 231.286L63.8695 231.104H64.1495C64.5135 231.104 64.8308 231.197 65.1015 231.384C65.3721 231.571 65.6195 231.869 65.8435 232.28L67.1875 234.786C67.2621 234.917 67.2948 235.047 67.2855 235.178C67.2855 235.299 67.2435 235.402 67.1595 235.486C67.0755 235.561 66.9541 235.598 66.7955 235.598C66.6368 235.598 66.5061 235.561 66.4035 235.486C66.3008 235.411 66.2121 235.304 66.1375 235.164L64.6115 232.336C64.3968 231.935 64.1495 231.669 63.8695 231.538C63.5895 231.398 63.2208 231.328 62.7635 231.328H60.9715V234.996C60.9715 235.183 60.9248 235.332 60.8315 235.444C60.7381 235.547 60.5935 235.598 60.3975 235.598ZM60.9715 230.418H63.5615C64.3268 230.418 64.9055 230.259 65.2975 229.942C65.6895 229.615 65.8855 229.13 65.8855 228.486C65.8855 227.861 65.6895 227.389 65.2975 227.072C64.9055 226.745 64.3268 226.582 63.5615 226.582H60.9715V230.418ZM69.7627 235.598C69.576 235.598 69.4314 235.547 69.3287 235.444C69.2354 235.332 69.1887 235.183 69.1887 234.996V226.218C69.1887 226.022 69.24 225.877 69.3427 225.784C69.4454 225.681 69.59 225.63 69.7767 225.63H73.0947C74.1494 225.63 74.9614 225.877 75.5307 226.372C76.1 226.867 76.3847 227.571 76.3847 228.486C76.3847 229.065 76.254 229.569 75.9927 229.998C75.7407 230.418 75.3674 230.74 74.8727 230.964C74.378 231.179 73.7854 231.286 73.0947 231.286L73.2347 231.104H73.5147C73.8787 231.104 74.196 231.197 74.4667 231.384C74.7374 231.571 74.9847 231.869 75.2087 232.28L76.5527 234.786C76.6274 234.917 76.66 235.047 76.6507 235.178C76.6507 235.299 76.6087 235.402 76.5247 235.486C76.4407 235.561 76.3194 235.598 76.1607 235.598C76.002 235.598 75.8714 235.561 75.7687 235.486C75.666 235.411 75.5774 235.304 75.5027 235.164L73.9767 232.336C73.762 231.935 73.5147 231.669 73.2347 231.538C72.9547 231.398 72.586 231.328 72.1287 231.328H70.3367V234.996C70.3367 235.183 70.29 235.332 70.1967 235.444C70.1034 235.547 69.9587 235.598 69.7627 235.598ZM70.3367 230.418H72.9267C73.692 230.418 74.2707 230.259 74.6627 229.942C75.0547 229.615 75.2507 229.13 75.2507 228.486C75.2507 227.861 75.0547 227.389 74.6627 227.072C74.2707 226.745 73.692 226.582 72.9267 226.582H70.3367V230.418ZM79.1839 235.5C78.9786 235.5 78.8199 235.449 78.7079 235.346C78.6053 235.234 78.5539 235.075 78.5539 234.87V226.26C78.5539 226.055 78.6053 225.901 78.7079 225.798C78.8199 225.686 78.9786 225.63 79.1839 225.63H84.3919C84.5506 225.63 84.6719 225.672 84.7559 225.756C84.8399 225.84 84.8819 225.957 84.8819 226.106C84.8819 226.265 84.8399 226.386 84.7559 226.47C84.6719 226.554 84.5506 226.596 84.3919 226.596H79.6739V230.012H84.0979C84.2566 230.012 84.3779 230.054 84.4619 230.138C84.5459 230.213 84.5879 230.329 84.5879 230.488C84.5879 230.647 84.5459 230.768 84.4619 230.852C84.3779 230.936 84.2566 230.978 84.0979 230.978H79.6739V234.534H84.3919C84.5506 234.534 84.6719 234.576 84.7559 234.66C84.8399 234.744 84.8819 234.861 84.8819 235.01C84.8819 235.169 84.8399 235.29 84.7559 235.374C84.6719 235.458 84.5506 235.5 84.3919 235.5H79.1839ZM87.262 235.598C87.0847 235.598 86.9494 235.551 86.856 235.458C86.7627 235.355 86.716 235.211 86.716 235.024V226.12C86.716 225.933 86.7627 225.789 86.856 225.686C86.9494 225.583 87.0707 225.532 87.22 225.532C87.3694 225.532 87.4767 225.56 87.542 225.616C87.6167 225.663 87.7007 225.751 87.794 225.882L93.898 234.016H93.562V226.092C93.562 225.915 93.6087 225.779 93.702 225.686C93.7954 225.583 93.9307 225.532 94.108 225.532C94.276 225.532 94.402 225.583 94.486 225.686C94.5794 225.779 94.626 225.915 94.626 226.092V235.038C94.626 235.215 94.584 235.355 94.5 235.458C94.4254 235.551 94.3134 235.598 94.164 235.598C94.024 235.598 93.912 235.57 93.828 235.514C93.744 235.458 93.6554 235.369 93.562 235.248L87.472 227.114H87.794V235.024C87.794 235.211 87.7474 235.355 87.654 235.458C87.5607 235.551 87.43 235.598 87.262 235.598ZM100.075 235.598C99.898 235.598 99.758 235.547 99.6553 235.444C99.5527 235.332 99.5013 235.183 99.5013 234.996V226.624H96.3513C96.1833 226.624 96.0527 226.577 95.9593 226.484C95.866 226.391 95.8193 226.269 95.8193 226.12C95.8193 225.961 95.866 225.84 95.9593 225.756C96.0527 225.672 96.1833 225.63 96.3513 225.63H103.813C103.981 225.63 104.112 225.672 104.205 225.756C104.299 225.84 104.345 225.961 104.345 226.12C104.345 226.279 104.299 226.405 104.205 226.498C104.112 226.582 103.981 226.624 103.813 226.624H100.663V234.996C100.663 235.183 100.612 235.332 100.509 235.444C100.416 235.547 100.271 235.598 100.075 235.598ZM109.727 235.598C109.531 235.598 109.377 235.547 109.265 235.444C109.162 235.332 109.111 235.173 109.111 234.968V226.26C109.111 226.055 109.162 225.901 109.265 225.798C109.377 225.686 109.535 225.63 109.741 225.63H114.823C114.981 225.63 115.103 225.672 115.187 225.756C115.271 225.84 115.313 225.957 115.313 226.106C115.313 226.265 115.271 226.386 115.187 226.47C115.103 226.554 114.981 226.596 114.823 226.596H110.259V230.04H114.529C114.687 230.04 114.809 230.082 114.893 230.166C114.986 230.25 115.033 230.367 115.033 230.516C115.033 230.675 114.986 230.796 114.893 230.88C114.809 230.964 114.687 231.006 114.529 231.006H110.259V234.968C110.259 235.388 110.081 235.598 109.727 235.598ZM117.369 235.5C117.182 235.5 117.037 235.449 116.935 235.346C116.832 235.234 116.781 235.085 116.781 234.898V226.162C116.781 225.966 116.827 225.817 116.921 225.714C117.023 225.611 117.168 225.56 117.355 225.56C117.541 225.56 117.681 225.611 117.775 225.714C117.877 225.817 117.929 225.966 117.929 226.162V234.492H122.521C122.689 234.492 122.819 234.539 122.913 234.632C123.006 234.716 123.053 234.837 123.053 234.996C123.053 235.155 123.006 235.281 122.913 235.374C122.819 235.458 122.689 235.5 122.521 235.5H117.369ZM128.02 235.626C127.106 235.626 126.308 235.421 125.626 235.01C124.954 234.59 124.432 234.002 124.058 233.246C123.694 232.49 123.512 231.594 123.512 230.558C123.512 229.774 123.615 229.074 123.82 228.458C124.035 227.833 124.338 227.305 124.73 226.876C125.122 226.437 125.594 226.101 126.144 225.868C126.704 225.625 127.33 225.504 128.02 225.504C128.954 225.504 129.756 225.709 130.428 226.12C131.11 226.531 131.632 227.114 131.996 227.87C132.37 228.617 132.556 229.508 132.556 230.544C132.556 231.328 132.449 232.033 132.234 232.658C132.02 233.283 131.716 233.815 131.324 234.254C130.932 234.693 130.456 235.033 129.896 235.276C129.346 235.509 128.72 235.626 128.02 235.626ZM128.02 234.604C128.73 234.604 129.327 234.445 129.812 234.128C130.307 233.811 130.685 233.349 130.946 232.742C131.208 232.135 131.338 231.407 131.338 230.558C131.338 229.279 131.049 228.29 130.47 227.59C129.901 226.881 129.084 226.526 128.02 226.526C127.33 226.526 126.737 226.685 126.242 227.002C125.757 227.319 125.384 227.781 125.122 228.388C124.861 228.985 124.73 229.709 124.73 230.558C124.73 231.827 125.02 232.821 125.598 233.54C126.177 234.249 126.984 234.604 128.02 234.604ZM138.753 235.626C137.838 235.626 137.04 235.421 136.359 235.01C135.687 234.59 135.164 234.002 134.791 233.246C134.427 232.49 134.245 231.594 134.245 230.558C134.245 229.774 134.347 229.074 134.553 228.458C134.767 227.833 135.071 227.305 135.463 226.876C135.855 226.437 136.326 226.101 136.877 225.868C137.437 225.625 138.062 225.504 138.753 225.504C139.686 225.504 140.489 225.709 141.161 226.12C141.842 226.531 142.365 227.114 142.729 227.87C143.102 228.617 143.289 229.508 143.289 230.544C143.289 231.328 143.181 232.033 142.967 232.658C142.752 233.283 142.449 233.815 142.057 234.254C141.665 234.693 141.189 235.033 140.629 235.276C140.078 235.509 139.453 235.626 138.753 235.626ZM138.753 234.604C139.462 234.604 140.059 234.445 140.545 234.128C141.039 233.811 141.417 233.349 141.679 232.742C141.94 232.135 142.071 231.407 142.071 230.558C142.071 229.279 141.781 228.29 141.203 227.59C140.633 226.881 139.817 226.526 138.753 226.526C138.062 226.526 137.469 226.685 136.975 227.002C136.489 227.319 136.116 227.781 135.855 228.388C135.593 228.985 135.463 229.709 135.463 230.558C135.463 231.827 135.752 232.821 136.331 233.54C136.909 234.249 137.717 234.604 138.753 234.604ZM145.915 235.598C145.728 235.598 145.584 235.547 145.481 235.444C145.388 235.332 145.341 235.183 145.341 234.996V226.218C145.341 226.022 145.392 225.877 145.495 225.784C145.598 225.681 145.742 225.63 145.929 225.63H149.247C150.302 225.63 151.114 225.877 151.683 226.372C152.252 226.867 152.537 227.571 152.537 228.486C152.537 229.065 152.406 229.569 152.145 229.998C151.893 230.418 151.52 230.74 151.025 230.964C150.53 231.179 149.938 231.286 149.247 231.286L149.387 231.104H149.667C150.031 231.104 150.348 231.197 150.619 231.384C150.89 231.571 151.137 231.869 151.361 232.28L152.705 234.786C152.78 234.917 152.812 235.047 152.803 235.178C152.803 235.299 152.761 235.402 152.677 235.486C152.593 235.561 152.472 235.598 152.313 235.598C152.154 235.598 152.024 235.561 151.921 235.486C151.818 235.411 151.73 235.304 151.655 235.164L150.129 232.336C149.914 231.935 149.667 231.669 149.387 231.538C149.107 231.398 148.738 231.328 148.281 231.328H146.489V234.996C146.489 235.183 146.442 235.332 146.349 235.444C146.256 235.547 146.111 235.598 145.915 235.598ZM146.489 230.418H149.079C149.844 230.418 150.423 230.259 150.815 229.942C151.207 229.615 151.403 229.13 151.403 228.486C151.403 227.861 151.207 227.389 150.815 227.072C150.423 226.745 149.844 226.582 149.079 226.582H146.489V230.418Z" fill="#00303F"/>
<path d="M312.826 236C312.382 236 312.04 235.886 311.8 235.658C311.572 235.418 311.458 235.082 311.458 234.65C311.458 234.218 311.572 233.888 311.8 233.66C312.04 233.432 312.382 233.318 312.826 233.318H314.446V225.956H315.958L313.348 227.558C313.036 227.75 312.742 227.828 312.466 227.792C312.19 227.744 311.956 227.624 311.764 227.432C311.572 227.24 311.446 227.006 311.386 226.73C311.326 226.454 311.35 226.178 311.458 225.902C311.566 225.626 311.782 225.392 312.106 225.2L314.59 223.652C314.854 223.484 315.124 223.358 315.4 223.274C315.688 223.19 315.988 223.148 316.3 223.148C316.756 223.148 317.11 223.268 317.362 223.508C317.614 223.736 317.74 224.072 317.74 224.516V233.318H319.18C319.624 233.318 319.96 233.432 320.188 233.66C320.428 233.888 320.548 234.218 320.548 234.65C320.548 235.082 320.428 235.418 320.188 235.658C319.96 235.886 319.624 236 319.18 236H312.826ZM326.193 236.198C324.633 236.198 323.433 235.628 322.593 234.488C321.765 233.336 321.351 231.71 321.351 229.61C321.351 228.194 321.537 227.006 321.909 226.046C322.281 225.074 322.827 224.342 323.547 223.85C324.267 223.358 325.149 223.112 326.193 223.112C327.765 223.112 328.965 223.664 329.793 224.768C330.621 225.872 331.035 227.48 331.035 229.592C331.035 230.996 330.849 232.19 330.477 233.174C330.105 234.158 329.559 234.908 328.839 235.424C328.119 235.94 327.237 236.198 326.193 236.198ZM326.193 233.57C326.769 233.57 327.195 233.258 327.471 232.634C327.759 231.998 327.903 230.984 327.903 229.592C327.903 228.212 327.759 227.228 327.471 226.64C327.195 226.04 326.769 225.74 326.193 225.74C325.617 225.74 325.185 226.04 324.897 226.64C324.621 227.228 324.483 228.212 324.483 229.592C324.483 230.984 324.621 231.998 324.897 232.634C325.185 233.258 325.617 233.57 326.193 233.57ZM337.166 236.198C336.266 236.198 335.522 236.06 334.934 235.784C334.358 235.508 333.926 235.094 333.638 234.542C333.35 233.978 333.206 233.276 333.206 232.436V229.502H332.594C332.21 229.502 331.91 229.4 331.694 229.196C331.49 228.992 331.388 228.698 331.388 228.314C331.388 227.93 331.49 227.642 331.694 227.45C331.91 227.246 332.21 227.144 332.594 227.144H333.206V226.028C333.206 225.5 333.344 225.098 333.62 224.822C333.896 224.546 334.292 224.408 334.808 224.408C335.324 224.408 335.72 224.546 335.996 224.822C336.272 225.098 336.41 225.5 336.41 226.028V227.144H337.886C338.282 227.144 338.582 227.246 338.786 227.45C339.002 227.642 339.11 227.93 339.11 228.314C339.11 228.698 339.002 228.992 338.786 229.196C338.582 229.4 338.282 229.502 337.886 229.502H336.41V232.328C336.41 232.772 336.512 233.102 336.716 233.318C336.932 233.522 337.268 233.624 337.724 233.624C337.892 233.624 338.054 233.606 338.21 233.57C338.366 233.534 338.51 233.516 338.642 233.516C338.834 233.504 338.99 233.564 339.11 233.696C339.23 233.816 339.29 234.098 339.29 234.542C339.29 234.902 339.236 235.208 339.128 235.46C339.02 235.7 338.828 235.874 338.552 235.982C338.384 236.042 338.156 236.09 337.868 236.126C337.58 236.174 337.346 236.198 337.166 236.198ZM342.086 236.162C341.582 236.162 341.192 236.024 340.916 235.748C340.64 235.472 340.502 235.07 340.502 234.542V224.768C340.502 224.24 340.64 223.838 340.916 223.562C341.192 223.286 341.582 223.148 342.086 223.148C342.602 223.148 342.998 223.286 343.274 223.562C343.562 223.838 343.706 224.24 343.706 224.768V228.692H343.418C343.706 228.128 344.114 227.696 344.642 227.396C345.182 227.096 345.794 226.946 346.478 226.946C347.186 226.946 347.768 227.084 348.224 227.36C348.68 227.624 349.022 228.044 349.25 228.62C349.478 229.184 349.592 229.898 349.592 230.762V234.542C349.592 235.07 349.454 235.472 349.178 235.748C348.902 236.024 348.506 236.162 347.99 236.162C347.474 236.162 347.078 236.024 346.802 235.748C346.526 235.472 346.388 235.07 346.388 234.542V230.888C346.388 230.348 346.292 229.964 346.1 229.736C345.92 229.508 345.65 229.394 345.29 229.394C344.81 229.394 344.426 229.55 344.138 229.862C343.85 230.162 343.706 230.57 343.706 231.086V234.542C343.706 235.622 343.166 236.162 342.086 236.162Z" fill="#00303F"/>
<path d="M26.496 289.144C26.0267 289.144 25.664 289.016 25.408 288.76C25.152 288.493 25.024 288.125 25.024 287.656V279.208C25.024 278.728 25.152 278.36 25.408 278.104C25.6747 277.848 26.0427 277.72 26.512 277.72H30.448C31.728 277.72 32.7147 278.035 33.408 278.664C34.112 279.283 34.464 280.147 34.464 281.256C34.464 281.971 34.304 282.595 33.984 283.128C33.6747 283.651 33.2213 284.056 32.624 284.344C32.0373 284.621 31.312 284.76 30.448 284.76L30.576 284.472H31.344C31.8027 284.472 32.208 284.584 32.56 284.808C32.912 285.021 33.2053 285.352 33.44 285.8L34.24 287.24C34.4107 287.549 34.4907 287.853 34.48 288.152C34.4693 288.44 34.352 288.68 34.128 288.872C33.9147 289.053 33.6 289.144 33.184 289.144C32.768 289.144 32.4267 289.059 32.16 288.888C31.904 288.717 31.6747 288.451 31.472 288.088L30.016 285.416C29.888 285.181 29.7227 285.021 29.52 284.936C29.328 284.84 29.104 284.792 28.848 284.792H27.968V287.656C27.968 288.125 27.8453 288.493 27.6 288.76C27.3547 289.016 26.9867 289.144 26.496 289.144ZM27.968 282.712H29.92C30.4853 282.712 30.9173 282.6 31.216 282.376C31.5147 282.152 31.664 281.805 31.664 281.336C31.664 280.888 31.5147 280.552 31.216 280.328C30.9173 280.093 30.4853 279.976 29.92 279.976H27.968V282.712ZM37.8569 289C37.3555 289 36.9715 288.872 36.7049 288.616C36.4489 288.349 36.3209 287.971 36.3209 287.48V279.24C36.3209 278.749 36.4489 278.376 36.7049 278.12C36.9715 277.853 37.3555 277.72 37.8569 277.72H43.2809C43.6649 277.72 43.9529 277.816 44.1449 278.008C44.3369 278.2 44.4329 278.477 44.4329 278.84C44.4329 279.213 44.3369 279.501 44.1449 279.704C43.9529 279.896 43.6649 279.992 43.2809 279.992H39.1369V282.136H42.9289C43.3022 282.136 43.5849 282.232 43.7769 282.424C43.9795 282.616 44.0809 282.899 44.0809 283.272C44.0809 283.645 43.9795 283.928 43.7769 284.12C43.5849 284.312 43.3022 284.408 42.9289 284.408H39.1369V286.728H43.2809C43.6649 286.728 43.9529 286.829 44.1449 287.032C44.3369 287.224 44.4329 287.501 44.4329 287.864C44.4329 288.237 44.3369 288.52 44.1449 288.712C43.9529 288.904 43.6649 289 43.2809 289H37.8569ZM56.4523 290.424C56.6443 290.744 56.7136 291.032 56.6603 291.288C56.6069 291.555 56.4736 291.779 56.2603 291.96C56.0576 292.141 55.8123 292.259 55.5243 292.312C55.2469 292.365 54.9696 292.339 54.6923 292.232C54.4149 292.125 54.1856 291.923 54.0043 291.624L52.8203 289.72C52.7029 289.528 52.5483 289.389 52.3563 289.304C52.1643 289.219 51.9136 289.176 51.6043 289.176L53.7963 288.36C54.2763 288.36 54.6816 288.451 55.0123 288.632C55.3429 288.803 55.6256 289.085 55.8603 289.48L56.4523 290.424ZM51.6203 289.176C50.4789 289.176 49.4763 288.936 48.6123 288.456C47.7483 287.965 47.0763 287.283 46.5963 286.408C46.1269 285.533 45.8923 284.515 45.8923 283.352C45.8923 282.477 46.0256 281.683 46.2923 280.968C46.5696 280.253 46.9589 279.64 47.4603 279.128C47.9723 278.616 48.5803 278.227 49.2843 277.96C49.9883 277.683 50.7669 277.544 51.6203 277.544C52.7616 277.544 53.7589 277.784 54.6123 278.264C55.4763 278.744 56.1483 279.421 56.6283 280.296C57.1083 281.16 57.3483 282.179 57.3483 283.352C57.3483 284.227 57.2096 285.021 56.9323 285.736C56.6656 286.451 56.2763 287.069 55.7643 287.592C55.2629 288.104 54.6603 288.499 53.9563 288.776C53.2523 289.043 52.4736 289.176 51.6203 289.176ZM51.6203 286.712C52.1856 286.712 52.6656 286.579 53.0603 286.312C53.4549 286.045 53.7589 285.661 53.9722 285.16C54.1856 284.659 54.2923 284.056 54.2923 283.352C54.2923 282.296 54.0576 281.475 53.5883 280.888C53.1189 280.301 52.4629 280.008 51.6203 280.008C51.0656 280.008 50.5856 280.141 50.1803 280.408C49.7856 280.664 49.4816 281.043 49.2682 281.544C49.0549 282.035 48.9483 282.637 48.9483 283.352C48.9483 284.408 49.1829 285.235 49.6523 285.832C50.1216 286.419 50.7776 286.712 51.6203 286.712ZM64.0785 289.176C63.2572 289.176 62.5318 289.075 61.9025 288.872C61.2732 288.659 60.7398 288.344 60.3025 287.928C59.8758 287.512 59.5505 286.995 59.3265 286.376C59.1132 285.747 59.0065 285.021 59.0065 284.2V279.064C59.0065 278.573 59.1345 278.205 59.3905 277.96C59.6465 277.704 60.0092 277.576 60.4785 277.576C60.9585 277.576 61.3212 277.704 61.5665 277.96C61.8225 278.205 61.9505 278.573 61.9505 279.064V284.232C61.9505 285.053 62.1318 285.672 62.4945 286.088C62.8572 286.504 63.3852 286.712 64.0785 286.712C64.7612 286.712 65.2838 286.504 65.6465 286.088C66.0092 285.672 66.1905 285.053 66.1905 284.232V279.064C66.1905 278.573 66.3132 278.205 66.5585 277.96C66.8145 277.704 67.1772 277.576 67.6465 277.576C68.1158 277.576 68.4732 277.704 68.7185 277.96C68.9638 278.205 69.0865 278.573 69.0865 279.064V284.2C69.0865 285.299 68.8945 286.221 68.5105 286.968C68.1372 287.704 67.5772 288.259 66.8305 288.632C66.0838 288.995 65.1665 289.176 64.0785 289.176ZM72.5913 289C72.0899 289 71.7059 288.872 71.4393 288.616C71.1833 288.349 71.0553 287.971 71.0553 287.48V279.24C71.0553 278.749 71.1833 278.376 71.4393 278.12C71.7059 277.853 72.0899 277.72 72.5913 277.72H78.0153C78.3993 277.72 78.6873 277.816 78.8793 278.008C79.0713 278.2 79.1673 278.477 79.1673 278.84C79.1673 279.213 79.0713 279.501 78.8793 279.704C78.6873 279.896 78.3993 279.992 78.0153 279.992H73.8713V282.136H77.6633C78.0366 282.136 78.3193 282.232 78.5113 282.424C78.7139 282.616 78.8153 282.899 78.8153 283.272C78.8153 283.645 78.7139 283.928 78.5113 284.12C78.3193 284.312 78.0366 284.408 77.6633 284.408H73.8713V286.728H78.0153C78.3993 286.728 78.6873 286.829 78.8793 287.032C79.0713 287.224 79.1673 287.501 79.1673 287.864C79.1673 288.237 79.0713 288.52 78.8793 288.712C78.6873 288.904 78.3993 289 78.0153 289H72.5913ZM84.9191 289.176C84.4925 289.176 84.0445 289.144 83.5751 289.08C83.1165 289.027 82.6791 288.941 82.2631 288.824C81.8471 288.707 81.4738 288.568 81.1431 288.408C80.8551 288.269 80.6525 288.088 80.5351 287.864C80.4178 287.629 80.3751 287.384 80.4071 287.128C80.4391 286.872 80.5298 286.648 80.6791 286.456C80.8285 286.253 81.0258 286.12 81.2711 286.056C81.5165 285.981 81.7938 286.013 82.1031 286.152C82.5085 286.344 82.9671 286.493 83.4791 286.6C83.9911 286.707 84.4711 286.76 84.9191 286.76C85.6231 286.76 86.1138 286.669 86.3911 286.488C86.6791 286.296 86.8231 286.061 86.8231 285.784C86.8231 285.539 86.7218 285.341 86.5191 285.192C86.3271 285.043 85.9805 284.915 85.4791 284.808L83.6071 284.408C82.5831 284.195 81.8205 283.821 81.3191 283.288C80.8178 282.755 80.5671 282.067 80.5671 281.224C80.5671 280.669 80.6791 280.168 80.9031 279.72C81.1378 279.261 81.4631 278.872 81.8791 278.552C82.3058 278.232 82.8071 277.987 83.3831 277.816C83.9698 277.635 84.6205 277.544 85.3351 277.544C85.8898 277.544 86.4498 277.608 87.0151 277.736C87.5911 277.853 88.0871 278.035 88.5031 278.28C88.7485 278.408 88.9245 278.584 89.0311 278.808C89.1378 279.032 89.1805 279.267 89.1591 279.512C89.1378 279.747 89.0525 279.955 88.9031 280.136C88.7645 280.317 88.5725 280.44 88.3271 280.504C88.0925 280.557 87.8098 280.515 87.4791 280.376C87.1698 280.237 86.8178 280.136 86.4231 280.072C86.0391 279.997 85.6658 279.96 85.3031 279.96C84.9085 279.96 84.5725 280.008 84.2951 280.104C84.0178 280.189 83.8045 280.317 83.6551 280.488C83.5165 280.659 83.4471 280.856 83.4471 281.08C83.4471 281.304 83.5378 281.496 83.7191 281.656C83.9111 281.805 84.2578 281.933 84.7591 282.04L86.6151 282.44C87.6498 282.664 88.4231 283.032 88.9351 283.544C89.4471 284.056 89.7031 284.723 89.7031 285.544C89.7031 286.099 89.5911 286.6 89.3671 287.048C89.1431 287.496 88.8231 287.88 88.4071 288.2C87.9911 288.509 87.4898 288.749 86.9031 288.92C86.3165 289.091 85.6551 289.176 84.9191 289.176ZM95.0426 289.144C94.5733 289.144 94.2106 289.016 93.9546 288.76C93.6986 288.493 93.5706 288.125 93.5706 287.656V280.12H91.0586C90.664 280.12 90.36 280.019 90.1466 279.816C89.944 279.603 89.8426 279.304 89.8426 278.92C89.8426 278.525 89.944 278.227 90.1466 278.024C90.36 277.821 90.664 277.72 91.0586 277.72H99.0266C99.4213 277.72 99.72 277.821 99.9226 278.024C100.136 278.227 100.243 278.525 100.243 278.92C100.243 279.304 100.136 279.603 99.9226 279.816C99.72 280.019 99.4213 280.12 99.0266 280.12H96.5146V287.656C96.5146 288.125 96.392 288.493 96.1466 288.76C95.9013 289.016 95.5333 289.144 95.0426 289.144ZM107.278 289.144C106.808 289.144 106.44 289.016 106.174 288.76C105.918 288.493 105.79 288.115 105.79 287.624V279.24C105.79 278.749 105.918 278.376 106.174 278.12C106.44 277.853 106.824 277.72 107.326 277.72H112.654C113.038 277.72 113.326 277.816 113.518 278.008C113.71 278.2 113.806 278.477 113.806 278.84C113.806 279.213 113.71 279.501 113.518 279.704C113.326 279.896 113.038 279.992 112.654 279.992H108.734V282.264H112.302C112.675 282.264 112.958 282.36 113.15 282.552C113.352 282.744 113.454 283.021 113.454 283.384C113.454 283.757 113.352 284.04 113.15 284.232C112.958 284.424 112.675 284.52 112.302 284.52H108.734V287.624C108.734 288.637 108.248 289.144 107.278 289.144ZM116.543 289C116.074 289 115.706 288.872 115.439 288.616C115.183 288.349 115.055 287.981 115.055 287.512V279.192C115.055 278.712 115.183 278.344 115.439 278.088C115.695 277.832 116.058 277.704 116.527 277.704C117.007 277.704 117.37 277.832 117.615 278.088C117.871 278.344 117.999 278.712 117.999 279.192V286.552H121.903C122.309 286.552 122.618 286.659 122.831 286.872C123.055 287.075 123.167 287.373 123.167 287.768C123.167 288.163 123.055 288.467 122.831 288.68C122.618 288.893 122.309 289 121.903 289H116.543ZM129.23 289.176C128.088 289.176 127.086 288.936 126.222 288.456C125.358 287.965 124.686 287.283 124.206 286.408C123.736 285.533 123.502 284.515 123.502 283.352C123.502 282.477 123.635 281.683 123.902 280.968C124.179 280.253 124.568 279.64 125.07 279.128C125.582 278.616 126.19 278.227 126.894 277.96C127.598 277.683 128.376 277.544 129.23 277.544C130.371 277.544 131.368 277.784 132.222 278.264C133.086 278.744 133.758 279.421 134.238 280.296C134.718 281.16 134.958 282.179 134.958 283.352C134.958 284.227 134.819 285.021 134.542 285.736C134.275 286.451 133.886 287.069 133.374 287.592C132.872 288.104 132.27 288.499 131.566 288.776C130.862 289.043 130.083 289.176 129.23 289.176ZM129.23 286.712C129.795 286.712 130.275 286.579 130.67 286.312C131.064 286.045 131.368 285.661 131.582 285.16C131.795 284.659 131.902 284.056 131.902 283.352C131.902 282.296 131.667 281.475 131.198 280.888C130.728 280.301 130.072 280.008 129.23 280.008C128.675 280.008 128.195 280.141 127.79 280.408C127.395 280.664 127.091 281.043 126.878 281.544C126.664 282.035 126.558 282.637 126.558 283.352C126.558 284.408 126.792 285.235 127.262 285.832C127.731 286.419 128.387 286.712 129.23 286.712ZM142.136 289.176C140.995 289.176 139.992 288.936 139.128 288.456C138.264 287.965 137.592 287.283 137.112 286.408C136.643 285.533 136.408 284.515 136.408 283.352C136.408 282.477 136.541 281.683 136.808 280.968C137.085 280.253 137.475 279.64 137.976 279.128C138.488 278.616 139.096 278.227 139.8 277.96C140.504 277.683 141.283 277.544 142.136 277.544C143.277 277.544 144.275 277.784 145.128 278.264C145.992 278.744 146.664 279.421 147.144 280.296C147.624 281.16 147.864 282.179 147.864 283.352C147.864 284.227 147.725 285.021 147.448 285.736C147.181 286.451 146.792 287.069 146.28 287.592C145.779 288.104 145.176 288.499 144.472 288.776C143.768 289.043 142.989 289.176 142.136 289.176ZM142.136 286.712C142.701 286.712 143.181 286.579 143.576 286.312C143.971 286.045 144.275 285.661 144.488 285.16C144.701 284.659 144.808 284.056 144.808 283.352C144.808 282.296 144.573 281.475 144.104 280.888C143.635 280.301 142.979 280.008 142.136 280.008C141.581 280.008 141.101 280.141 140.696 280.408C140.301 280.664 139.997 281.043 139.784 281.544C139.571 282.035 139.464 282.637 139.464 283.352C139.464 284.408 139.699 285.235 140.168 285.832C140.637 286.419 141.293 286.712 142.136 286.712ZM151.074 289.144C150.605 289.144 150.242 289.016 149.986 288.76C149.73 288.493 149.602 288.125 149.602 287.656V279.208C149.602 278.728 149.73 278.36 149.986 278.104C150.253 277.848 150.621 277.72 151.09 277.72H155.026C156.306 277.72 157.293 278.035 157.986 278.664C158.69 279.283 159.042 280.147 159.042 281.256C159.042 281.971 158.882 282.595 158.562 283.128C158.253 283.651 157.799 284.056 157.202 284.344C156.615 284.621 155.89 284.76 155.026 284.76L155.154 284.472H155.922C156.381 284.472 156.786 284.584 157.138 284.808C157.49 285.021 157.783 285.352 158.018 285.8L158.818 287.24C158.989 287.549 159.069 287.853 159.058 288.152C159.047 288.44 158.93 288.68 158.706 288.872C158.493 289.053 158.178 289.144 157.762 289.144C157.346 289.144 157.005 289.059 156.738 288.888C156.482 288.717 156.253 288.451 156.05 288.088L154.594 285.416C154.466 285.181 154.301 285.021 154.098 284.936C153.906 284.84 153.682 284.792 153.426 284.792H152.546V287.656C152.546 288.125 152.423 288.493 152.178 288.76C151.933 289.016 151.565 289.144 151.074 289.144ZM152.546 282.712H154.498C155.063 282.712 155.495 282.6 155.794 282.376C156.093 282.152 156.242 281.805 156.242 281.336C156.242 280.888 156.093 280.552 155.794 280.328C155.495 280.093 155.063 279.976 154.498 279.976H152.546V282.712Z" fill="#00303F"/>
<g filter="url(#filter0_d_95_726)">
<rect x="24" y="314" width="110.667" height="67" rx="5" fill="#00303F"/>
<path d="M65.1698 358C64.3805 358 63.7725 357.797 63.3458 357.392C62.9405 356.965 62.7378 356.368 62.7378 355.6C62.7378 354.832 62.9405 354.245 63.3458 353.84C63.7725 353.435 64.3805 353.232 65.1698 353.232H68.0498V340.144H70.7378L66.0978 342.992C65.5432 343.333 65.0205 343.472 64.5298 343.408C64.0392 343.323 63.6232 343.109 63.2818 342.768C62.9405 342.427 62.7165 342.011 62.6098 341.52C62.5032 341.029 62.5458 340.539 62.7378 340.048C62.9298 339.557 63.3138 339.141 63.8898 338.8L68.3058 336.048C68.7752 335.749 69.2552 335.525 69.7458 335.376C70.2578 335.227 70.7912 335.152 71.3458 335.152C72.1565 335.152 72.7858 335.365 73.2338 335.792C73.6818 336.197 73.9058 336.795 73.9058 337.584V353.232H76.4658C77.2552 353.232 77.8525 353.435 78.2578 353.84C78.6845 354.245 78.8978 354.832 78.8978 355.6C78.8978 356.368 78.6845 356.965 78.2578 357.392C77.8525 357.797 77.2552 358 76.4658 358H65.1698ZM84.3573 358C83.568 358 82.96 357.797 82.5333 357.392C82.128 356.965 81.9253 356.368 81.9253 355.6C81.9253 354.832 82.128 354.245 82.5333 353.84C82.96 353.435 83.568 353.232 84.3573 353.232H87.2373V340.144H89.9253L85.2853 342.992C84.7307 343.333 84.208 343.472 83.7173 343.408C83.2267 343.323 82.8107 343.109 82.4693 342.768C82.128 342.427 81.904 342.011 81.7973 341.52C81.6907 341.029 81.7333 340.539 81.9253 340.048C82.1173 339.557 82.5013 339.141 83.0773 338.8L87.4933 336.048C87.9627 335.749 88.4427 335.525 88.9333 335.376C89.4453 335.227 89.9787 335.152 90.5333 335.152C91.344 335.152 91.9733 335.365 92.4213 335.792C92.8693 336.197 93.0933 336.795 93.0933 337.584V353.232H95.6533C96.4427 353.232 97.04 353.435 97.4453 353.84C97.872 354.245 98.0853 354.832 98.0853 355.6C98.0853 356.368 97.872 356.965 97.4453 357.392C97.04 357.797 96.4427 358 95.6533 358H84.3573Z" fill="white"/>
<rect x="139.667" y="314" width="110.667" height="67" rx="5" fill="#00303F"/>
<path d="M180.836 358C180.047 358 179.439 357.797 179.012 357.392C178.607 356.965 178.404 356.368 178.404 355.6C178.404 354.832 178.607 354.245 179.012 353.84C179.439 353.435 180.047 353.232 180.836 353.232H183.716V340.144H186.404L181.764 342.992C181.21 343.333 180.687 343.472 180.196 343.408C179.706 343.323 179.29 343.109 178.948 342.768C178.607 342.427 178.383 342.011 178.276 341.52C178.17 341.029 178.212 340.539 178.404 340.048C178.596 339.557 178.98 339.141 179.556 338.8L183.972 336.048C184.442 335.749 184.922 335.525 185.412 335.376C185.924 335.227 186.458 335.152 187.012 335.152C187.823 335.152 188.452 335.365 188.9 335.792C189.348 336.197 189.572 336.795 189.572 337.584V353.232H192.132C192.922 353.232 193.519 353.435 193.924 353.84C194.351 354.245 194.564 354.832 194.564 355.6C194.564 356.368 194.351 356.965 193.924 357.392C193.519 357.797 192.922 358 192.132 358H180.836ZM199.608 358C198.669 358 197.987 357.787 197.56 357.36C197.155 356.912 196.952 356.261 196.952 355.408C196.952 354.811 197.08 354.277 197.336 353.808C197.613 353.339 197.965 352.88 198.392 352.432L203.992 346.576C204.824 345.68 205.411 344.912 205.752 344.272C206.115 343.632 206.296 342.992 206.296 342.352C206.296 341.541 206.029 340.933 205.496 340.528C204.963 340.123 204.195 339.92 203.192 339.92C202.68 339.92 202.136 339.995 201.56 340.144C200.984 340.272 200.365 340.507 199.704 340.848C199.128 341.104 198.605 341.179 198.136 341.072C197.688 340.965 197.304 340.731 196.984 340.368C196.685 340.005 196.493 339.589 196.408 339.12C196.344 338.651 196.419 338.192 196.632 337.744C196.845 337.275 197.229 336.891 197.784 336.592C198.765 336.059 199.779 335.675 200.824 335.44C201.891 335.205 202.957 335.088 204.024 335.088C205.773 335.088 207.235 335.344 208.408 335.856C209.603 336.368 210.509 337.115 211.128 338.096C211.747 339.056 212.056 340.251 212.056 341.68C212.056 342.576 211.917 343.451 211.64 344.304C211.384 345.157 210.957 346.011 210.36 346.864C209.784 347.717 209.005 348.624 208.024 349.584L202.84 354.704V353.232H210.744C211.533 353.232 212.131 353.435 212.536 353.84C212.963 354.245 213.176 354.832 213.176 355.6C213.176 356.368 212.963 356.965 212.536 357.392C212.131 357.797 211.533 358 210.744 358H199.608Z" fill="white"/>
<rect x="255.333" y="314" width="110.667" height="67" rx="5" fill="#00303F"/>
<path d="M296.503 358C295.714 358 295.106 357.797 294.679 357.392C294.274 356.965 294.071 356.368 294.071 355.6C294.071 354.832 294.274 354.245 294.679 353.84C295.106 353.435 295.714 353.232 296.503 353.232H299.383V340.144H302.071L297.431 342.992C296.876 343.333 296.354 343.472 295.863 343.408C295.372 343.323 294.956 343.109 294.615 342.768C294.274 342.427 294.05 342.011 293.943 341.52C293.836 341.029 293.879 340.539 294.071 340.048C294.263 339.557 294.647 339.141 295.223 338.8L299.639 336.048C300.108 335.749 300.588 335.525 301.079 335.376C301.591 335.227 302.124 335.152 302.679 335.152C303.49 335.152 304.119 335.365 304.567 335.792C305.015 336.197 305.239 336.795 305.239 337.584V353.232H307.799C308.588 353.232 309.186 353.435 309.591 353.84C310.018 354.245 310.231 354.832 310.231 355.6C310.231 356.368 310.018 356.965 309.591 357.392C309.186 357.797 308.588 358 307.799 358H296.503ZM319.595 358.352C318.507 358.352 317.419 358.245 316.331 358.032C315.243 357.819 314.304 357.52 313.515 357.136C312.832 356.816 312.352 356.421 312.075 355.952C311.819 355.483 311.712 355.003 311.755 354.512C311.797 354.021 311.968 353.584 312.267 353.2C312.587 352.816 312.992 352.56 313.483 352.432C313.995 352.283 314.571 352.347 315.211 352.624C316 352.965 316.725 353.2 317.387 353.328C318.048 353.456 318.709 353.52 319.371 353.52C320.139 353.52 320.779 353.435 321.291 353.264C321.803 353.093 322.187 352.837 322.443 352.496C322.699 352.133 322.827 351.685 322.827 351.152C322.827 350.405 322.56 349.861 322.027 349.52C321.515 349.157 320.757 348.976 319.755 348.976H318.027C317.216 348.976 316.597 348.773 316.171 348.368C315.744 347.963 315.531 347.387 315.531 346.64C315.531 345.893 315.744 345.317 316.171 344.912C316.597 344.507 317.216 344.304 318.027 344.304H319.179C319.797 344.304 320.32 344.219 320.747 344.048C321.195 343.877 321.536 343.632 321.771 343.312C322.005 342.971 322.123 342.555 322.123 342.064C322.123 341.36 321.867 340.827 321.355 340.464C320.864 340.101 320.128 339.92 319.147 339.92C318.549 339.92 317.941 339.984 317.323 340.112C316.704 340.24 316.043 340.464 315.339 340.784C314.784 341.019 314.272 341.072 313.803 340.944C313.355 340.816 312.981 340.571 312.683 340.208C312.405 339.824 312.235 339.408 312.171 338.96C312.107 338.491 312.181 338.032 312.395 337.584C312.608 337.136 313.013 336.763 313.611 336.464C314.507 336.016 315.477 335.675 316.523 335.44C317.589 335.205 318.656 335.088 319.723 335.088C321.408 335.088 322.848 335.333 324.043 335.824C325.237 336.315 326.144 337.029 326.763 337.968C327.403 338.885 327.723 339.995 327.723 341.296C327.723 342.149 327.563 342.939 327.243 343.664C326.923 344.389 326.453 344.997 325.835 345.488C325.216 345.957 324.491 346.299 323.659 346.512V346.064C325.152 346.299 326.315 346.928 327.147 347.952C328 348.955 328.427 350.213 328.427 351.728C328.427 353.093 328.075 354.277 327.371 355.28C326.667 356.283 325.653 357.051 324.331 357.584C323.008 358.096 321.429 358.352 319.595 358.352Z" fill="white"/>
<rect x="24" y="386" width="110.667" height="67" rx="5" fill="#00303F"/>
<path d="M79.3396 430.352C77.5262 430.352 75.9582 430.096 74.6356 429.584C73.3129 429.051 72.2996 428.293 71.5956 427.312C70.8916 426.331 70.5396 425.168 70.5396 423.824C70.5396 422.736 70.7529 421.776 71.1796 420.944C71.6276 420.112 72.2356 419.44 73.0036 418.928C73.7716 418.395 74.6462 418.075 75.6276 417.968V418.896C74.3049 418.619 73.2276 417.968 72.3956 416.944C71.5636 415.92 71.1476 414.693 71.1476 413.264C71.1476 411.963 71.4782 410.853 72.1396 409.936C72.8009 409.019 73.7502 408.315 74.9876 407.824C76.2249 407.333 77.6756 407.088 79.3396 407.088C81.0249 407.088 82.4756 407.333 83.6916 407.824C84.9289 408.315 85.8782 409.019 86.5396 409.936C87.2009 410.853 87.5316 411.963 87.5316 413.264C87.5316 414.224 87.3396 415.109 86.9556 415.92C86.5929 416.709 86.0809 417.36 85.4196 417.872C84.7796 418.384 84.0329 418.715 83.1796 418.864V417.968C84.6302 418.181 85.8142 418.821 86.7316 419.888C87.6702 420.933 88.1396 422.245 88.1396 423.824C88.1396 425.168 87.7876 426.331 87.0836 427.312C86.3796 428.293 85.3662 429.051 84.0436 429.584C82.7422 430.096 81.1742 430.352 79.3396 430.352ZM79.3396 425.936C80.4702 425.936 81.3342 425.723 81.9316 425.296C82.5289 424.848 82.8276 424.208 82.8276 423.376C82.8276 422.523 82.5289 421.883 81.9316 421.456C81.3342 421.029 80.4702 420.816 79.3396 420.816C78.2089 420.816 77.3449 421.029 76.7476 421.456C76.1502 421.883 75.8516 422.523 75.8516 423.376C75.8516 424.208 76.1502 424.848 76.7476 425.296C77.3449 425.723 78.2089 425.936 79.3396 425.936ZM79.3396 416.368C79.9582 416.368 80.4809 416.272 80.9076 416.08C81.3342 415.888 81.6542 415.611 81.8676 415.248C82.1022 414.864 82.2196 414.427 82.2196 413.936C82.2196 413.189 81.9636 412.603 81.4516 412.176C80.9396 411.728 80.2356 411.504 79.3396 411.504C78.4436 411.504 77.7396 411.728 77.2276 412.176C76.7369 412.603 76.4916 413.189 76.4916 413.936C76.4916 414.683 76.7369 415.28 77.2276 415.728C77.7396 416.155 78.4436 416.368 79.3396 416.368Z" fill="white"/>
<rect x="139.667" y="386" width="110.667" height="67" rx="5" fill="#00303F"/>
<path d="M193.022 430.352C192.148 430.352 191.262 430.245 190.366 430.032C189.47 429.819 188.617 429.499 187.806 429.072C187.294 428.816 186.942 428.475 186.75 428.048C186.558 427.6 186.484 427.141 186.526 426.672C186.59 426.181 186.761 425.755 187.038 425.392C187.316 425.008 187.678 424.741 188.126 424.592C188.596 424.443 189.118 424.496 189.694 424.752C190.334 425.051 190.932 425.253 191.486 425.36C192.041 425.467 192.574 425.52 193.086 425.52C194.153 425.52 195.038 425.307 195.742 424.88C196.468 424.432 197.001 423.771 197.342 422.896C197.705 422 197.886 420.891 197.886 419.568V417.904H198.366C198.196 418.8 197.844 419.579 197.31 420.24C196.798 420.901 196.158 421.403 195.39 421.744C194.644 422.085 193.801 422.256 192.862 422.256C191.625 422.256 190.505 421.947 189.502 421.328C188.521 420.688 187.742 419.813 187.166 418.704C186.59 417.573 186.302 416.315 186.302 414.928C186.302 413.392 186.633 412.037 187.294 410.864C187.956 409.691 188.873 408.773 190.046 408.112C191.241 407.429 192.596 407.088 194.11 407.088C196.094 407.088 197.769 407.536 199.134 408.432C200.521 409.328 201.577 410.629 202.302 412.336C203.028 414.021 203.39 416.08 203.39 418.512C203.39 420.368 203.156 422.032 202.686 423.504C202.217 424.976 201.534 426.224 200.638 427.248C199.742 428.251 198.654 429.019 197.374 429.552C196.094 430.085 194.644 430.352 193.022 430.352ZM194.43 417.776C194.985 417.776 195.465 417.648 195.87 417.392C196.297 417.115 196.617 416.752 196.83 416.304C197.065 415.835 197.182 415.291 197.182 414.672C197.182 414.032 197.065 413.477 196.83 413.008C196.617 412.539 196.297 412.187 195.87 411.952C195.465 411.696 194.985 411.568 194.43 411.568C193.876 411.568 193.396 411.696 192.99 411.952C192.585 412.187 192.265 412.539 192.03 413.008C191.796 413.477 191.678 414.032 191.678 414.672C191.678 415.291 191.796 415.835 192.03 416.304C192.265 416.752 192.585 417.115 192.99 417.392C193.396 417.648 193.876 417.776 194.43 417.776Z" fill="white"/>
<rect x="255.333" y="386" width="110.667" height="67" rx="5" fill="#59DBAE"/>
<path d="M296.503 430C295.714 430 295.106 429.797 294.679 429.392C294.274 428.965 294.071 428.368 294.071 427.6C294.071 426.832 294.274 426.245 294.679 425.84C295.106 425.435 295.714 425.232 296.503 425.232H299.383V412.144H302.071L297.431 414.992C296.876 415.333 296.354 415.472 295.863 415.408C295.372 415.323 294.956 415.109 294.615 414.768C294.274 414.427 294.05 414.011 293.943 413.52C293.836 413.029 293.879 412.539 294.071 412.048C294.263 411.557 294.647 411.141 295.223 410.8L299.639 408.048C300.108 407.749 300.588 407.525 301.079 407.376C301.591 407.227 302.124 407.152 302.679 407.152C303.49 407.152 304.119 407.365 304.567 407.792C305.015 408.197 305.239 408.795 305.239 409.584V425.232H307.799C308.588 425.232 309.186 425.435 309.591 425.84C310.018 426.245 310.231 426.832 310.231 427.6C310.231 428.368 310.018 428.965 309.591 429.392C309.186 429.797 308.588 430 307.799 430H296.503ZM320.267 430.352C317.493 430.352 315.36 429.339 313.867 427.312C312.395 425.264 311.659 422.373 311.659 418.64C311.659 416.123 311.989 414.011 312.651 412.304C313.312 410.576 314.283 409.275 315.563 408.4C316.843 407.525 318.411 407.088 320.267 407.088C323.061 407.088 325.195 408.069 326.667 410.032C328.139 411.995 328.875 414.853 328.875 418.608C328.875 421.104 328.544 423.227 327.883 424.976C327.221 426.725 326.251 428.059 324.971 428.976C323.691 429.893 322.123 430.352 320.267 430.352ZM320.267 425.68C321.291 425.68 322.048 425.125 322.539 424.016C323.051 422.885 323.307 421.083 323.307 418.608C323.307 416.155 323.051 414.405 322.539 413.36C322.048 412.293 321.291 411.76 320.267 411.76C319.243 411.76 318.475 412.293 317.963 413.36C317.472 414.405 317.227 416.155 317.227 418.608C317.227 421.083 317.472 422.885 317.963 424.016C318.475 425.125 319.243 425.68 320.267 425.68Z" fill="#00303F"/>
<mask id="path-29-inside-2_95_726" fill="white">
<rect x="24" y="458" width="110.667" height="67" rx="5"/>
</mask>
<rect x="24" y="458" width="110.667" height="67" rx="5" fill="#00303F"/>
<path d="M79.1796 502.352C78.1556 502.352 77.0782 502.235 75.9476 502C74.8169 501.765 73.7716 501.403 72.8116 500.912C72.2356 500.613 71.8302 500.229 71.5956 499.76C71.3822 499.269 71.3076 498.779 71.3716 498.288C71.4569 497.797 71.6489 497.36 71.9476 496.976C72.2676 496.592 72.6622 496.347 73.1316 496.24C73.6222 496.112 74.1556 496.197 74.7316 496.496C75.4356 496.837 76.1609 497.093 76.9076 497.264C77.6756 497.435 78.3902 497.52 79.0516 497.52C79.7769 497.52 80.3956 497.413 80.9076 497.2C81.4196 496.987 81.8036 496.677 82.0596 496.272C82.3369 495.867 82.4756 495.387 82.4756 494.832C82.4756 493.979 82.1876 493.307 81.6116 492.816C81.0356 492.325 80.2676 492.08 79.3076 492.08C78.8809 492.08 78.4116 492.144 77.8996 492.272C77.4089 492.4 76.8969 492.645 76.3636 493.008C76.1289 493.136 75.8089 493.285 75.4036 493.456C74.9982 493.605 74.5822 493.68 74.1556 493.68C73.3876 493.68 72.8222 493.499 72.4596 493.136C72.0969 492.773 71.9156 492.261 71.9156 491.6V481.936C71.9156 481.125 72.1289 480.507 72.5556 480.08C73.0036 479.653 73.6222 479.44 74.4116 479.44H84.4596C85.2489 479.44 85.8569 479.643 86.2836 480.048C86.7102 480.453 86.9236 481.051 86.9236 481.84C86.9236 482.608 86.7102 483.195 86.2836 483.6C85.8569 484.005 85.2489 484.208 84.4596 484.208H77.4516V489.232H76.1076C76.6196 488.635 77.2916 488.187 78.1236 487.888C78.9556 487.568 79.8622 487.408 80.8436 487.408C82.2729 487.408 83.5316 487.717 84.6196 488.336C85.7076 488.933 86.5502 489.776 87.1476 490.864C87.7662 491.952 88.0756 493.221 88.0756 494.672C88.0756 496.208 87.7129 497.563 86.9876 498.736C86.2836 499.888 85.2596 500.784 83.9156 501.424C82.5929 502.043 81.0142 502.352 79.1796 502.352Z" fill="#59DBAE"/>
<rect x="24" y="458" width="110.667" height="67" rx="5" stroke="#59DBAE" stroke-width="15" mask="url(#path-29-inside-2_95_726)"/>
<rect x="139.667" y="458" width="110.667" height="67" rx="5" fill="#00303F"/>
<path d="M195.902 502.352C193.918 502.352 192.233 501.904 190.846 501.008C189.481 500.112 188.436 498.821 187.71 497.136C186.985 495.429 186.622 493.36 186.622 490.928C186.622 489.072 186.857 487.408 187.326 485.936C187.796 484.464 188.478 483.227 189.374 482.224C190.27 481.2 191.358 480.421 192.638 479.888C193.918 479.355 195.369 479.088 196.99 479.088C197.865 479.088 198.75 479.195 199.646 479.408C200.542 479.621 201.396 479.941 202.206 480.368C202.718 480.624 203.07 480.976 203.262 481.424C203.454 481.851 203.518 482.309 203.454 482.8C203.412 483.269 203.252 483.696 202.974 484.08C202.697 484.443 202.324 484.699 201.854 484.848C201.406 484.997 200.894 484.944 200.318 484.688C199.678 484.389 199.081 484.187 198.526 484.08C197.972 483.973 197.438 483.92 196.926 483.92C195.86 483.92 194.974 484.144 194.27 484.592C193.566 485.019 193.033 485.68 192.67 486.576C192.308 487.451 192.126 488.549 192.126 489.872V491.536H191.646C191.838 490.619 192.19 489.84 192.702 489.2C193.214 488.539 193.844 488.037 194.59 487.696C195.358 487.355 196.212 487.184 197.15 487.184C198.409 487.184 199.529 487.504 200.51 488.144C201.492 488.763 202.27 489.627 202.846 490.736C203.422 491.845 203.71 493.104 203.71 494.512C203.71 496.048 203.38 497.403 202.718 498.576C202.057 499.749 201.14 500.677 199.966 501.36C198.793 502.021 197.438 502.352 195.902 502.352ZM195.582 497.872C196.137 497.872 196.617 497.744 197.022 497.488C197.449 497.232 197.769 496.869 197.982 496.4C198.217 495.931 198.334 495.387 198.334 494.768C198.334 494.128 198.217 493.584 197.982 493.136C197.769 492.667 197.449 492.304 197.022 492.048C196.617 491.771 196.137 491.632 195.582 491.632C195.049 491.632 194.569 491.771 194.142 492.048C193.737 492.304 193.417 492.667 193.182 493.136C192.948 493.584 192.83 494.128 192.83 494.768C192.83 495.387 192.948 495.931 193.182 496.4C193.417 496.869 193.737 497.232 194.142 497.488C194.569 497.744 195.049 497.872 195.582 497.872Z" fill="white"/>
<rect x="255.333" y="458" width="110.667" height="67" rx="5" fill="#00303F"/>
<path d="M306.737 502.288C306.012 502.288 305.425 502.128 304.977 501.808C304.529 501.467 304.273 501.019 304.209 500.464C304.145 499.909 304.294 499.301 304.657 498.64L313.521 482.544V484.24H304.529C303.74 484.24 303.121 484.037 302.673 483.632C302.246 483.227 302.033 482.629 302.033 481.84C302.033 481.051 302.246 480.453 302.673 480.048C303.121 479.643 303.74 479.44 304.529 479.44H316.561C317.35 479.44 318.001 479.653 318.513 480.08C319.046 480.507 319.313 481.115 319.313 481.904C319.313 482.587 319.206 483.184 318.993 483.696C318.801 484.187 318.556 484.709 318.257 485.264L310.065 500.432C309.724 501.093 309.286 501.573 308.753 501.872C308.241 502.149 307.569 502.288 306.737 502.288Z" fill="white"/>
<rect x="24" y="530" width="110.667" height="67" rx="5" fill="#00303F"/>
<path d="M74.7636 574C73.9742 574 73.3662 573.797 72.9396 573.392C72.5342 572.965 72.3316 572.368 72.3316 571.6C72.3316 570.832 72.5342 570.245 72.9396 569.84C73.3662 569.435 73.9742 569.232 74.7636 569.232H77.6436V556.144H80.3316L75.6916 558.992C75.1369 559.333 74.6142 559.472 74.1236 559.408C73.6329 559.323 73.2169 559.109 72.8756 558.768C72.5342 558.427 72.3102 558.011 72.2036 557.52C72.0969 557.029 72.1396 556.539 72.3316 556.048C72.5236 555.557 72.9076 555.141 73.4836 554.8L77.8996 552.048C78.3689 551.749 78.8489 551.525 79.3396 551.376C79.8516 551.227 80.3849 551.152 80.9396 551.152C81.7502 551.152 82.3796 551.365 82.8276 551.792C83.2756 552.197 83.4996 552.795 83.4996 553.584V569.232H86.0596C86.8489 569.232 87.4463 569.435 87.8516 569.84C88.2782 570.245 88.4916 570.832 88.4916 571.6C88.4916 572.368 88.2782 572.965 87.8516 573.392C87.4463 573.797 86.8489 574 86.0596 574H74.7636Z" fill="white"/>
<rect x="139.667" y="530" width="110.667" height="67" rx="5" fill="#00303F"/>
<path d="M190.014 574C189.076 574 188.393 573.787 187.966 573.36C187.561 572.912 187.358 572.261 187.358 571.408C187.358 570.811 187.486 570.277 187.742 569.808C188.02 569.339 188.372 568.88 188.798 568.432L194.398 562.576C195.23 561.68 195.817 560.912 196.158 560.272C196.521 559.632 196.702 558.992 196.702 558.352C196.702 557.541 196.436 556.933 195.902 556.528C195.369 556.123 194.601 555.92 193.598 555.92C193.086 555.92 192.542 555.995 191.966 556.144C191.39 556.272 190.772 556.507 190.11 556.848C189.534 557.104 189.012 557.179 188.542 557.072C188.094 556.965 187.71 556.731 187.39 556.368C187.092 556.005 186.9 555.589 186.814 555.12C186.75 554.651 186.825 554.192 187.038 553.744C187.252 553.275 187.636 552.891 188.19 552.592C189.172 552.059 190.185 551.675 191.23 551.44C192.297 551.205 193.364 551.088 194.43 551.088C196.18 551.088 197.641 551.344 198.814 551.856C200.009 552.368 200.916 553.115 201.534 554.096C202.153 555.056 202.462 556.251 202.462 557.68C202.462 558.576 202.324 559.451 202.046 560.304C201.79 561.157 201.364 562.011 200.766 562.864C200.19 563.717 199.412 564.624 198.43 565.584L193.246 570.704V569.232H201.15C201.94 569.232 202.537 569.435 202.942 569.84C203.369 570.245 203.582 570.832 203.582 571.6C203.582 572.368 203.369 572.965 202.942 573.392C202.537 573.797 201.94 574 201.15 574H190.014Z" fill="white"/>
<rect x="255.333" y="530" width="110.667" height="67" rx="5" fill="#00303F"/>
<path d="M310.001 574.352C308.913 574.352 307.825 574.245 306.737 574.032C305.649 573.819 304.71 573.52 303.921 573.136C303.238 572.816 302.758 572.421 302.481 571.952C302.225 571.483 302.118 571.003 302.161 570.512C302.204 570.021 302.374 569.584 302.673 569.2C302.993 568.816 303.398 568.56 303.889 568.432C304.401 568.283 304.977 568.347 305.617 568.624C306.406 568.965 307.132 569.2 307.793 569.328C308.454 569.456 309.116 569.52 309.777 569.52C310.545 569.52 311.185 569.435 311.697 569.264C312.209 569.093 312.593 568.837 312.849 568.496C313.105 568.133 313.233 567.685 313.233 567.152C313.233 566.405 312.966 565.861 312.433 565.52C311.921 565.157 311.164 564.976 310.161 564.976H308.433C307.622 564.976 307.004 564.773 306.577 564.368C306.15 563.963 305.937 563.387 305.937 562.64C305.937 561.893 306.15 561.317 306.577 560.912C307.004 560.507 307.622 560.304 308.433 560.304H309.585C310.204 560.304 310.726 560.219 311.153 560.048C311.601 559.877 311.942 559.632 312.177 559.312C312.412 558.971 312.529 558.555 312.529 558.064C312.529 557.36 312.273 556.827 311.761 556.464C311.27 556.101 310.534 555.92 309.553 555.92C308.956 555.92 308.348 555.984 307.729 556.112C307.11 556.24 306.449 556.464 305.745 556.784C305.19 557.019 304.678 557.072 304.209 556.944C303.761 556.816 303.388 556.571 303.089 556.208C302.812 555.824 302.641 555.408 302.577 554.96C302.513 554.491 302.588 554.032 302.801 553.584C303.014 553.136 303.42 552.763 304.017 552.464C304.913 552.016 305.884 551.675 306.929 551.44C307.996 551.205 309.062 551.088 310.129 551.088C311.814 551.088 313.254 551.333 314.449 551.824C315.644 552.315 316.55 553.029 317.169 553.968C317.809 554.885 318.129 555.995 318.129 557.296C318.129 558.149 317.969 558.939 317.649 559.664C317.329 560.389 316.86 560.997 316.241 561.488C315.622 561.957 314.897 562.299 314.065 562.512V562.064C315.558 562.299 316.721 562.928 317.553 563.952C318.406 564.955 318.833 566.213 318.833 567.728C318.833 569.093 318.481 570.277 317.777 571.28C317.073 572.283 316.06 573.051 314.737 573.584C313.414 574.096 311.836 574.352 310.001 574.352Z" fill="white"/>
<rect x="24" y="602" width="110.667" height="67" rx="5" fill="#00303F"/>
<path d="M66.5826 639.632C65.9426 639.632 65.4092 639.419 64.9826 638.992C64.5559 638.565 64.3426 638.032 64.3426 637.392C64.3426 636.752 64.5559 636.229 64.9826 635.824C65.4092 635.397 65.9426 635.184 66.5826 635.184H72.9186C73.5586 635.184 74.0919 635.397 74.5186 635.824C74.9452 636.229 75.1586 636.752 75.1586 637.392C75.1586 638.032 74.9452 638.565 74.5186 638.992C74.0919 639.419 73.5586 639.632 72.9186 639.632H66.5826ZM81.4726 646C80.5339 646 79.8512 645.787 79.4246 645.36C79.0192 644.912 78.8166 644.261 78.8166 643.408C78.8166 642.811 78.9446 642.277 79.2006 641.808C79.4779 641.339 79.8299 640.88 80.2566 640.432L85.8566 634.576C86.6886 633.68 87.2752 632.912 87.6166 632.272C87.9792 631.632 88.1606 630.992 88.1606 630.352C88.1606 629.541 87.8939 628.933 87.3606 628.528C86.8272 628.123 86.0592 627.92 85.0566 627.92C84.5446 627.92 84.0006 627.995 83.4246 628.144C82.8486 628.272 82.2299 628.507 81.5686 628.848C80.9926 629.104 80.4699 629.179 80.0006 629.072C79.5526 628.965 79.1686 628.731 78.8486 628.368C78.5499 628.005 78.3579 627.589 78.2726 627.12C78.2086 626.651 78.2832 626.192 78.4966 625.744C78.7099 625.275 79.0939 624.891 79.6486 624.592C80.6299 624.059 81.6432 623.675 82.6886 623.44C83.7552 623.205 84.8219 623.088 85.8886 623.088C87.6379 623.088 89.0992 623.344 90.2726 623.856C91.4672 624.368 92.3739 625.115 92.9926 626.096C93.6112 627.056 93.9206 628.251 93.9206 629.68C93.9206 630.576 93.7819 631.451 93.5046 632.304C93.2486 633.157 92.8219 634.011 92.2246 634.864C91.6486 635.717 90.8699 636.624 89.8886 637.584L84.7046 642.704V641.232H92.6086C93.3979 641.232 93.9953 641.435 94.4006 641.84C94.8272 642.245 95.0406 642.832 95.0406 643.6C95.0406 644.368 94.8272 644.965 94.4006 645.392C93.9953 645.797 93.3979 646 92.6086 646H81.4726Z" fill="white"/>
<rect x="139.667" y="602" width="110.667" height="67" rx="5" fill="#00303F"/>
<path d="M182.249 639.632C181.609 639.632 181.076 639.419 180.649 638.992C180.223 638.565 180.009 638.032 180.009 637.392C180.009 636.752 180.223 636.229 180.649 635.824C181.076 635.397 181.609 635.184 182.249 635.184H188.585C189.225 635.184 189.759 635.397 190.185 635.824C190.612 636.229 190.825 636.752 190.825 637.392C190.825 638.032 190.612 638.565 190.185 638.992C189.759 639.419 189.225 639.632 188.585 639.632H182.249ZM197.555 646C196.766 646 196.158 645.797 195.731 645.392C195.326 644.965 195.123 644.368 195.123 643.6C195.123 642.832 195.326 642.245 195.731 641.84C196.158 641.435 196.766 641.232 197.555 641.232H200.435V628.144H203.123L198.483 630.992C197.929 631.333 197.406 631.472 196.915 631.408C196.425 631.323 196.009 631.109 195.667 630.768C195.326 630.427 195.102 630.011 194.995 629.52C194.889 629.029 194.931 628.539 195.123 628.048C195.315 627.557 195.699 627.141 196.275 626.8L200.691 624.048C201.161 623.749 201.641 623.525 202.131 623.376C202.643 623.227 203.177 623.152 203.731 623.152C204.542 623.152 205.171 623.365 205.619 623.792C206.067 624.197 206.291 624.795 206.291 625.584V641.232H208.851C209.641 641.232 210.238 641.435 210.643 641.84C211.07 642.245 211.283 642.832 211.283 643.6C211.283 644.368 211.07 644.965 210.643 645.392C210.238 645.797 209.641 646 208.851 646H197.555Z" fill="white"/>
<rect x="255.333" y="602" width="110.667" height="67" rx="5" fill="#00303F"/>
<path d="M303.016 646.352C300.435 646.352 298.237 645.872 296.424 644.912C294.632 643.952 293.267 642.608 292.328 640.88C291.389 639.152 290.92 637.136 290.92 634.832C290.92 633.04 291.197 631.429 291.752 630C292.328 628.549 293.149 627.312 294.216 626.288C295.283 625.243 296.584 624.453 298.12 623.92C299.677 623.365 301.437 623.088 303.4 623.088C304.467 623.088 305.555 623.195 306.664 623.408C307.773 623.6 308.861 623.973 309.928 624.528C310.483 624.784 310.856 625.147 311.048 625.616C311.261 626.064 311.325 626.544 311.24 627.056C311.176 627.547 310.995 628.005 310.696 628.432C310.419 628.837 310.035 629.115 309.544 629.264C309.053 629.392 308.499 629.317 307.88 629.04C307.24 628.741 306.547 628.517 305.8 628.368C305.053 628.197 304.264 628.112 303.432 628.112C302.003 628.112 300.808 628.368 299.848 628.88C298.909 629.392 298.205 630.149 297.736 631.152C297.267 632.155 297.032 633.381 297.032 634.832C297.032 637.008 297.565 638.651 298.632 639.76C299.699 640.869 301.277 641.424 303.368 641.424C304.008 641.424 304.701 641.36 305.448 641.232C306.216 641.104 306.984 640.923 307.752 640.688L306.664 642.896V637.424H304.424C303.699 637.424 303.133 637.243 302.728 636.88C302.344 636.517 302.152 636.005 302.152 635.344C302.152 634.683 302.344 634.181 302.728 633.84C303.133 633.477 303.699 633.296 304.424 633.296H309.16C309.907 633.296 310.472 633.499 310.856 633.904C311.261 634.288 311.464 634.853 311.464 635.6V642.672C311.464 643.312 311.325 643.856 311.048 644.304C310.792 644.752 310.376 645.072 309.8 645.264C308.797 645.605 307.709 645.872 306.536 646.064C305.363 646.256 304.189 646.352 303.016 646.352ZM318.378 646.288C317.439 646.288 316.703 646.032 316.17 645.52C315.658 644.987 315.402 644.229 315.402 643.248V626.48C315.402 625.499 315.658 624.752 316.17 624.24C316.703 623.707 317.471 623.44 318.474 623.44H329.13C329.898 623.44 330.474 623.632 330.858 624.016C331.242 624.4 331.434 624.955 331.434 625.68C331.434 626.427 331.242 627.003 330.858 627.408C330.474 627.792 329.898 627.984 329.13 627.984H321.29V632.528H328.426C329.173 632.528 329.738 632.72 330.122 633.104C330.527 633.488 330.73 634.043 330.73 634.768C330.73 635.515 330.527 636.08 330.122 636.464C329.738 636.848 329.173 637.04 328.426 637.04H321.29V643.248C321.29 645.275 320.319 646.288 318.378 646.288Z" fill="white"/>
</g>
</g>
<defs>
<filter id="filter0_d_95_726" x="22" y="314" width="346" height="359" filterUnits="userSpaceOnUse" color-interpolation-filters="sRGB">
<feFlood flood-opacity="0" result="BackgroundImageFix"/>
<feColorMatrix in="SourceAlpha" type="matrix" values="0 0 0 0 0 0 0 0 0 0 0 0 0 0 0 0 0 0 127 0" result="hardAlpha"/>
<feOffset dy="2"/>
<feGaussianBlur stdDeviation="1"/>
<feComposite in2="hardAlpha" operator="out"/>
<feColorMatrix type="matrix" values="0 0 0 0 0 0 0 0 0 0 0 0 0 0 0 0 0 0 0.5 0"/>
<feBlend mode="normal" in2="BackgroundImageFix" result="effect1_dropShadow_95_726"/>
<feBlend mode="normal" in="SourceGraphic" in2="effect1_dropShadow_95_726" result="shape"/>
</filter>
<clipPath id="clip0_95_726">
<rect width="390" height="844" fill="white"/>
</clipPath>
</defs>
</svg>
