<svg width="390" height="844" viewBox="0 0 390 844" fill="none" xmlns="http://www.w3.org/2000/svg">
<rect width="390" height="844" fill="#F5F4F4"/>
<rect width="390" height="140" fill="#00303F"/>
<path d="M184.423 59.8937L186.107 62.5929L187.815 59.909L200.146 40.5317C201.755 38.0031 205.525 38.2609 206.775 40.985C207.303 42.1353 207.221 43.4733 206.556 44.5502L189.778 71.7205C188.1 74.4384 184.147 74.4384 182.469 71.7205L165.687 44.5435C165.016 43.4568 164.922 42.1098 165.435 40.9403C166.69 38.079 170.638 37.7937 172.291 40.4448L184.423 59.8937Z" stroke="white" stroke-opacity="0.5" stroke-width="4.00872"/>
<path d="M202.176 52.0454L203.859 49.3462L205.567 52.0301L217.898 71.4074C219.508 73.936 223.278 73.6782 224.528 70.9541C225.056 69.8038 224.973 68.4658 224.309 67.3889L207.531 40.2186C205.853 37.5007 201.9 37.5007 200.222 40.2186L183.44 67.3956C182.769 68.4823 182.675 69.8293 183.188 70.9988C184.443 73.8601 188.391 74.1453 190.044 71.4943L202.176 52.0454Z" stroke="#59DBAE" stroke-width="4.00872"/>
<path d="M135.247 108.7C134.218 108.7 133.31 108.573 132.521 108.319C131.733 108.052 131.065 107.658 130.517 107.137C129.982 106.616 129.575 105.968 129.294 105.193C129.027 104.404 128.893 103.496 128.893 102.467V96.0327C128.893 95.418 129.054 94.957 129.374 94.6496C129.695 94.3289 130.149 94.1686 130.737 94.1686C131.339 94.1686 131.793 94.3289 132.1 94.6496C132.421 94.957 132.581 95.418 132.581 96.0327V102.507C132.581 103.536 132.809 104.311 133.263 104.832C133.717 105.353 134.379 105.614 135.247 105.614C136.102 105.614 136.757 105.353 137.211 104.832C137.666 104.311 137.893 103.536 137.893 102.507V96.0327C137.893 95.418 138.047 94.957 138.354 94.6496C138.675 94.3289 139.129 94.1686 139.717 94.1686C140.305 94.1686 140.752 94.3289 141.06 94.6496C141.367 94.957 141.521 95.418 141.521 96.0327V102.467C141.521 103.843 141.28 104.999 140.799 105.934C140.332 106.856 139.63 107.551 138.695 108.019C137.759 108.473 136.61 108.7 135.247 108.7ZM153.571 108.66C152.983 108.66 152.528 108.5 152.208 108.179C151.887 107.845 151.727 107.384 151.727 106.796V96.213C151.727 95.6117 151.887 95.1507 152.208 94.83C152.542 94.5093 153.003 94.349 153.591 94.349H158.521C160.125 94.349 161.361 94.7632 162.229 95.5917C163.111 96.4068 163.552 97.5359 163.552 98.9791C163.552 100.422 163.111 101.558 162.229 102.386C161.361 103.202 160.125 103.609 158.521 103.609H155.415V106.796C155.415 107.384 155.261 107.845 154.954 108.179C154.646 108.5 154.185 108.66 153.571 108.66ZM155.415 100.783H157.88C158.575 100.783 159.109 100.636 159.483 100.342C159.858 100.035 160.045 99.5804 160.045 98.9791C160.045 98.3644 159.858 97.9101 159.483 97.6161C159.109 97.3221 158.575 97.1751 157.88 97.1751H155.415V100.783Z" fill="#59DBAE"/>
<path d="M173.807 108.48C173.513 108.48 173.285 108.406 173.125 108.259C172.978 108.099 172.905 107.872 172.905 107.578V95.251C172.905 94.957 172.978 94.7365 173.125 94.5895C173.285 94.4292 173.513 94.349 173.807 94.349H177.675C179.96 94.349 181.724 94.9503 182.966 96.1529C184.209 97.3555 184.83 99.106 184.83 101.404C184.83 102.554 184.67 103.569 184.349 104.451C184.042 105.32 183.581 106.054 182.966 106.656C182.352 107.257 181.603 107.711 180.722 108.019C179.84 108.326 178.824 108.48 177.675 108.48H173.807ZM174.548 107.077H177.555C178.49 107.077 179.298 106.956 179.98 106.716C180.675 106.475 181.249 106.121 181.704 105.654C182.171 105.186 182.519 104.598 182.746 103.89C182.973 103.168 183.087 102.34 183.087 101.404C183.087 99.5202 182.626 98.1105 181.704 97.1751C180.782 96.2264 179.399 95.752 177.555 95.752H174.548V107.077ZM200.885 108.66C199.576 108.66 198.433 108.366 197.458 107.778C196.496 107.177 195.748 106.335 195.213 105.253C194.692 104.17 194.431 102.888 194.431 101.404C194.431 100.282 194.578 99.2797 194.872 98.3978C195.18 97.5025 195.614 96.7475 196.175 96.1329C196.736 95.5048 197.411 95.0238 198.2 94.6897C199.001 94.3423 199.897 94.1686 200.885 94.1686C202.222 94.1686 203.371 94.4626 204.333 95.0505C205.308 95.6385 206.057 96.4736 206.578 97.556C207.112 98.625 207.38 99.9011 207.38 101.384C207.38 102.507 207.226 103.516 206.919 104.411C206.611 105.306 206.177 106.068 205.616 106.696C205.054 107.324 204.373 107.812 203.571 108.159C202.783 108.493 201.888 108.66 200.885 108.66ZM200.885 107.197C201.901 107.197 202.756 106.97 203.451 106.515C204.159 106.061 204.7 105.4 205.075 104.531C205.449 103.663 205.636 102.62 205.636 101.404C205.636 99.5737 205.222 98.1573 204.393 97.1551C203.578 96.1396 202.409 95.6318 200.885 95.6318C199.897 95.6318 199.048 95.8589 198.34 96.3133C197.645 96.7676 197.111 97.429 196.736 98.2976C196.362 99.1528 196.175 100.188 196.175 101.404C196.175 103.222 196.589 104.645 197.418 105.674C198.246 106.689 199.402 107.197 200.885 107.197ZM222.02 108.62C221.779 108.62 221.585 108.56 221.438 108.44C221.291 108.306 221.171 108.112 221.078 107.858L216.648 95.2109C216.554 94.9303 216.575 94.6964 216.708 94.5093C216.855 94.3089 217.082 94.2087 217.39 94.2087C217.617 94.2087 217.797 94.2688 217.931 94.3891C218.064 94.496 218.178 94.6697 218.272 94.9102L222.421 107.077H221.719L225.948 94.9703C226.042 94.7165 226.155 94.5294 226.289 94.4091C226.423 94.2755 226.603 94.2087 226.83 94.2087C227.044 94.2087 227.211 94.2755 227.331 94.4091C227.465 94.5294 227.578 94.7165 227.672 94.9703L231.841 107.077H231.22L235.409 94.9102C235.476 94.6831 235.576 94.5093 235.709 94.3891C235.856 94.2688 236.044 94.2087 236.271 94.2087C236.551 94.2087 236.758 94.3022 236.892 94.4893C237.026 94.6764 237.039 94.9169 236.932 95.2109L232.482 107.858C232.389 108.112 232.269 108.306 232.122 108.44C231.988 108.56 231.794 108.62 231.54 108.62C231.3 108.62 231.106 108.56 230.959 108.44C230.826 108.306 230.705 108.112 230.598 107.858L226.57 96.2531H227.011L222.942 107.858C222.848 108.112 222.735 108.306 222.601 108.44C222.467 108.56 222.274 108.62 222.02 108.62ZM247.503 108.62C247.249 108.62 247.055 108.553 246.922 108.42C246.788 108.273 246.721 108.066 246.721 107.798V95.0505C246.721 94.7833 246.788 94.5762 246.922 94.4292C247.055 94.2822 247.229 94.2087 247.443 94.2087C247.657 94.2087 247.81 94.2488 247.904 94.329C248.011 94.3958 248.131 94.5227 248.265 94.7098L257.004 106.355H256.523V95.0104C256.523 94.7565 256.59 94.5628 256.723 94.4292C256.857 94.2822 257.051 94.2087 257.304 94.2087C257.545 94.2087 257.725 94.2822 257.846 94.4292C257.979 94.5628 258.046 94.7565 258.046 95.0104V107.818C258.046 108.072 257.986 108.273 257.866 108.42C257.759 108.553 257.598 108.62 257.385 108.62C257.184 108.62 257.024 108.58 256.904 108.5C256.783 108.42 256.656 108.293 256.523 108.119L247.804 96.4736H248.265V107.798C248.265 108.066 248.198 108.273 248.064 108.42C247.931 108.553 247.744 108.62 247.503 108.62Z" fill="#F5F4F4"/>
<path d="M37.086 191.126C36.7313 191.126 36.4607 191.028 36.274 190.832C36.0873 190.636 35.994 190.361 35.994 190.006V182.124C35.994 181.769 36.0873 181.494 36.274 181.298C36.4607 181.102 36.7313 181.004 37.086 181.004C37.4313 181.004 37.6973 181.102 37.884 181.298C38.0707 181.494 38.164 181.769 38.164 182.124V190.006C38.164 190.361 38.0707 190.636 37.884 190.832C37.7067 191.028 37.4407 191.126 37.086 191.126ZM41.2843 191C40.9203 191 40.6403 190.902 40.4443 190.706C40.2483 190.51 40.1503 190.23 40.1503 189.866V182.264C40.1503 181.9 40.2483 181.62 40.4443 181.424C40.6403 181.228 40.9203 181.13 41.2843 181.13H44.0143C45.7036 181.13 47.0056 181.559 47.9203 182.418C48.8443 183.267 49.3063 184.481 49.3063 186.058C49.3063 186.851 49.1849 187.556 48.9423 188.172C48.7089 188.779 48.3683 189.292 47.9203 189.712C47.4723 190.132 46.9216 190.454 46.2683 190.678C45.6149 190.893 44.8636 191 44.0143 191H41.2843ZM42.3203 189.222H43.8883C44.4203 189.222 44.8823 189.157 45.2743 189.026C45.6663 188.895 45.9929 188.699 46.2543 188.438C46.5156 188.177 46.7116 187.85 46.8423 187.458C46.9729 187.057 47.0383 186.59 47.0383 186.058C47.0383 184.994 46.7723 184.205 46.2403 183.692C45.7176 183.169 44.9336 182.908 43.8883 182.908H42.3203V189.222Z" fill="#00303F"/>
<rect x="35.5" y="200.5" width="319" height="42" rx="4.5" fill="white"/>
<path d="M57.112 227C56.8773 227 56.696 226.941 56.568 226.824C56.4507 226.696 56.392 226.515 56.392 226.28V216.44C56.392 216.205 56.4507 216.029 56.568 215.912C56.696 215.784 56.8773 215.72 57.112 215.72H63.064C63.2453 215.72 63.384 215.768 63.48 215.864C63.576 215.96 63.624 216.093 63.624 216.264C63.624 216.445 63.576 216.584 63.48 216.68C63.384 216.776 63.2453 216.824 63.064 216.824H57.672V220.728H62.728C62.9093 220.728 63.048 220.776 63.144 220.872C63.24 220.957 63.288 221.091 63.288 221.272C63.288 221.453 63.24 221.592 63.144 221.688C63.048 221.784 62.9093 221.832 62.728 221.832H57.672V225.896H63.064C63.2453 225.896 63.384 225.944 63.48 226.04C63.576 226.136 63.624 226.269 63.624 226.44C63.624 226.621 63.576 226.76 63.48 226.856C63.384 226.952 63.2453 227 63.064 227H57.112ZM66.1841 227.112C65.9708 227.112 65.8108 227.053 65.7041 226.936C65.5975 226.819 65.5441 226.653 65.5441 226.44V219.768C65.5441 219.555 65.5975 219.395 65.7041 219.288C65.8108 219.171 65.9655 219.112 66.1681 219.112C66.3708 219.112 66.5255 219.171 66.6321 219.288C66.7495 219.395 66.8081 219.555 66.8081 219.768V221.144L66.6321 220.952C66.8561 220.333 67.2188 219.869 67.7201 219.56C68.2321 219.24 68.8188 219.08 69.4801 219.08C70.0988 219.08 70.6108 219.192 71.0161 219.416C71.4321 219.64 71.7415 219.981 71.9441 220.44C72.1468 220.888 72.2481 221.459 72.2481 222.152V226.44C72.2481 226.653 72.1895 226.819 72.0721 226.936C71.9655 227.053 71.8108 227.112 71.6081 227.112C71.3948 227.112 71.2295 227.053 71.1121 226.936C71.0055 226.819 70.9521 226.653 70.9521 226.44V222.232C70.9521 221.507 70.8081 220.979 70.5201 220.648C70.2428 220.307 69.7948 220.136 69.1761 220.136C68.4615 220.136 67.8908 220.36 67.4641 220.808C67.0481 221.245 66.8401 221.832 66.8401 222.568V226.44C66.8401 226.888 66.6215 227.112 66.1841 227.112ZM77.7579 227.144C77.1499 227.144 76.6379 227.037 76.2219 226.824C75.8165 226.6 75.5125 226.28 75.3099 225.864C75.1072 225.437 75.0059 224.92 75.0059 224.312V220.232H73.9339C73.7525 220.232 73.6139 220.189 73.5179 220.104C73.4219 220.008 73.3739 219.88 73.3739 219.72C73.3739 219.56 73.4219 219.437 73.5179 219.352C73.6139 219.267 73.7525 219.224 73.9339 219.224H75.0059V217.384C75.0059 217.171 75.0645 217.011 75.1819 216.904C75.2992 216.787 75.4592 216.728 75.6619 216.728C75.8645 216.728 76.0192 216.787 76.1259 216.904C76.2432 217.011 76.3019 217.171 76.3019 217.384V219.224H78.3179C78.4992 219.224 78.6379 219.267 78.7339 219.352C78.8299 219.437 78.8779 219.56 78.8779 219.72C78.8779 219.88 78.8299 220.008 78.7339 220.104C78.6379 220.189 78.4992 220.232 78.3179 220.232H76.3019V224.184C76.3019 224.792 76.4299 225.256 76.6859 225.576C76.9419 225.885 77.3579 226.04 77.9339 226.04C78.1365 226.04 78.3072 226.019 78.4459 225.976C78.5952 225.933 78.7179 225.912 78.8139 225.912C78.9099 225.901 78.9899 225.933 79.0539 226.008C79.1179 226.083 79.1499 226.211 79.1499 226.392C79.1499 226.52 79.1232 226.637 79.0699 226.744C79.0272 226.851 78.9472 226.925 78.8299 226.968C78.7019 227.011 78.5312 227.048 78.3179 227.08C78.1152 227.123 77.9285 227.144 77.7579 227.144ZM83.6575 227.144C82.8362 227.144 82.1268 226.984 81.5295 226.664C80.9428 226.333 80.4842 225.869 80.1535 225.272C79.8335 224.675 79.6735 223.96 79.6735 223.128C79.6735 222.317 79.8335 221.613 80.1535 221.016C80.4735 220.408 80.9108 219.933 81.4655 219.592C82.0308 219.251 82.6815 219.08 83.4175 219.08C83.9402 219.08 84.4095 219.171 84.8255 219.352C85.2415 219.523 85.5935 219.773 85.8815 220.104C86.1802 220.435 86.4042 220.835 86.5535 221.304C86.7135 221.773 86.7935 222.301 86.7935 222.888C86.7935 223.059 86.7455 223.187 86.6495 223.272C86.5535 223.347 86.4148 223.384 86.2335 223.384H80.6655V222.536H85.9295L85.6735 222.744C85.6735 222.168 85.5882 221.683 85.4175 221.288C85.2468 220.883 84.9962 220.573 84.6655 220.36C84.3455 220.147 83.9402 220.04 83.4495 220.04C82.9055 220.04 82.4415 220.168 82.0575 220.424C81.6842 220.669 81.4015 221.016 81.2095 221.464C81.0175 221.901 80.9215 222.413 80.9215 223V223.096C80.9215 224.077 81.1562 224.824 81.6255 225.336C82.1055 225.848 82.7828 226.104 83.6575 226.104C84.0202 226.104 84.3775 226.056 84.7295 225.96C85.0922 225.864 85.4442 225.704 85.7855 225.48C85.9348 225.384 86.0682 225.341 86.1855 225.352C86.3135 225.352 86.4148 225.389 86.4895 225.464C86.5642 225.528 86.6122 225.613 86.6335 225.72C86.6655 225.816 86.6548 225.923 86.6015 226.04C86.5588 226.157 86.4682 226.259 86.3295 226.344C85.9775 226.6 85.5615 226.797 85.0815 226.936C84.6015 227.075 84.1268 227.144 83.6575 227.144ZM89.3251 227.112C89.1118 227.112 88.9465 227.053 88.8291 226.936C88.7225 226.819 88.6691 226.653 88.6691 226.44V219.768C88.6691 219.555 88.7225 219.395 88.8291 219.288C88.9358 219.171 89.0905 219.112 89.2931 219.112C89.4958 219.112 89.6505 219.171 89.7571 219.288C89.8745 219.395 89.9331 219.555 89.9331 219.768V221.064H89.7731C89.9438 220.435 90.2691 219.949 90.7491 219.608C91.2291 219.267 91.8211 219.085 92.5251 219.064C92.6851 219.053 92.8131 219.091 92.9091 219.176C93.0051 219.251 93.0585 219.384 93.0691 219.576C93.0798 219.757 93.0371 219.901 92.9411 220.008C92.8451 220.115 92.6958 220.179 92.4931 220.2L92.2371 220.232C91.5118 220.296 90.9518 220.531 90.5571 220.936C90.1731 221.331 89.9811 221.875 89.9811 222.568V226.44C89.9811 226.653 89.9225 226.819 89.8051 226.936C89.6985 227.053 89.5385 227.112 89.3251 227.112ZM100.257 229.992C100.097 229.992 99.9685 229.949 99.8725 229.864C99.7765 229.779 99.7178 229.661 99.6965 229.512C99.6858 229.373 99.7125 229.229 99.7765 229.08L100.881 226.6V227.16L97.8085 220.024C97.7445 219.864 97.7232 219.715 97.7445 219.576C97.7658 219.437 97.8298 219.325 97.9365 219.24C98.0432 219.155 98.1925 219.112 98.3845 219.112C98.5552 219.112 98.6885 219.149 98.7845 219.224C98.8805 219.299 98.9658 219.432 99.0405 219.624L101.665 226.056H101.233L103.889 219.624C103.974 219.432 104.065 219.299 104.161 219.224C104.257 219.149 104.395 219.112 104.577 219.112C104.747 219.112 104.875 219.155 104.961 219.24C105.057 219.325 105.11 219.437 105.121 219.576C105.142 219.704 105.121 219.848 105.057 220.008L100.961 229.48C100.875 229.672 100.779 229.805 100.673 229.88C100.577 229.955 100.438 229.992 100.257 229.992ZM109.87 227.144C109.113 227.144 108.457 226.979 107.902 226.648C107.347 226.317 106.915 225.853 106.606 225.256C106.307 224.648 106.158 223.933 106.158 223.112C106.158 222.493 106.243 221.939 106.414 221.448C106.585 220.947 106.835 220.52 107.166 220.168C107.497 219.816 107.886 219.549 108.334 219.368C108.793 219.176 109.305 219.08 109.87 219.08C110.627 219.08 111.283 219.245 111.838 219.576C112.393 219.907 112.819 220.376 113.118 220.984C113.427 221.581 113.582 222.291 113.582 223.112C113.582 223.731 113.497 224.285 113.326 224.776C113.155 225.267 112.905 225.693 112.574 226.056C112.243 226.408 111.849 226.68 111.39 226.872C110.942 227.053 110.435 227.144 109.87 227.144ZM109.87 226.104C110.35 226.104 110.771 225.987 111.134 225.752C111.497 225.517 111.774 225.176 111.966 224.728C112.169 224.28 112.27 223.741 112.27 223.112C112.27 222.141 112.051 221.4 111.614 220.888C111.187 220.376 110.606 220.12 109.87 220.12C109.379 220.12 108.953 220.237 108.59 220.472C108.238 220.696 107.961 221.032 107.758 221.48C107.566 221.917 107.47 222.461 107.47 223.112C107.47 224.072 107.689 224.813 108.126 225.336C108.563 225.848 109.145 226.104 109.87 226.104ZM118.281 227.144C117.651 227.144 117.129 227.032 116.713 226.808C116.307 226.573 115.998 226.227 115.785 225.768C115.582 225.309 115.481 224.739 115.481 224.056V219.768C115.481 219.544 115.534 219.379 115.641 219.272C115.758 219.165 115.918 219.112 116.121 219.112C116.334 219.112 116.494 219.165 116.601 219.272C116.718 219.379 116.777 219.544 116.777 219.768V224.04C116.777 224.723 116.915 225.235 117.193 225.576C117.481 225.907 117.929 226.072 118.536 226.072C119.198 226.072 119.737 225.848 120.153 225.4C120.569 224.952 120.777 224.365 120.777 223.64V219.768C120.777 219.544 120.83 219.379 120.937 219.272C121.054 219.165 121.219 219.112 121.433 219.112C121.635 219.112 121.79 219.165 121.897 219.272C122.014 219.379 122.073 219.544 122.073 219.768V226.44C122.073 226.888 121.865 227.112 121.449 227.112C121.246 227.112 121.086 227.053 120.969 226.936C120.862 226.819 120.809 226.653 120.809 226.44V224.984L121.017 225.208C120.803 225.837 120.451 226.317 119.961 226.648C119.481 226.979 118.921 227.144 118.281 227.144ZM125.153 227.112C124.94 227.112 124.775 227.053 124.657 226.936C124.551 226.819 124.497 226.653 124.497 226.44V219.768C124.497 219.555 124.551 219.395 124.657 219.288C124.764 219.171 124.919 219.112 125.121 219.112C125.324 219.112 125.479 219.171 125.585 219.288C125.703 219.395 125.761 219.555 125.761 219.768V221.064H125.601C125.772 220.435 126.097 219.949 126.577 219.608C127.057 219.267 127.649 219.085 128.353 219.064C128.513 219.053 128.641 219.091 128.737 219.176C128.833 219.251 128.887 219.384 128.897 219.576C128.908 219.757 128.865 219.901 128.769 220.008C128.673 220.115 128.524 220.179 128.321 220.2L128.065 220.232C127.34 220.296 126.78 220.531 126.385 220.936C126.001 221.331 125.809 221.875 125.809 222.568V226.44C125.809 226.653 125.751 226.819 125.633 226.936C125.527 227.053 125.367 227.112 125.153 227.112ZM135.189 227.112C134.975 227.112 134.81 227.053 134.693 226.936C134.586 226.808 134.533 226.637 134.533 226.424V216.296C134.533 216.072 134.586 215.901 134.693 215.784C134.81 215.667 134.975 215.608 135.189 215.608C135.402 215.608 135.562 215.667 135.669 215.784C135.786 215.901 135.845 216.072 135.845 216.296V226.424C135.845 226.637 135.791 226.808 135.685 226.936C135.578 227.053 135.413 227.112 135.189 227.112ZM139.362 227C139.127 227 138.946 226.941 138.818 226.824C138.701 226.696 138.642 226.515 138.642 226.28V216.44C138.642 216.205 138.701 216.029 138.818 215.912C138.946 215.784 139.127 215.72 139.362 215.72H142.45C144.274 215.72 145.682 216.2 146.674 217.16C147.666 218.12 148.162 219.517 148.162 221.352C148.162 222.269 148.034 223.08 147.778 223.784C147.533 224.477 147.165 225.064 146.674 225.544C146.183 226.024 145.586 226.387 144.882 226.632C144.178 226.877 143.367 227 142.45 227H139.362ZM139.954 225.88H142.354C143.101 225.88 143.746 225.784 144.29 225.592C144.845 225.4 145.303 225.117 145.666 224.744C146.039 224.371 146.317 223.901 146.498 223.336C146.679 222.76 146.77 222.099 146.77 221.352C146.77 219.848 146.402 218.723 145.666 217.976C144.93 217.219 143.826 216.84 142.354 216.84H139.954V225.88Z" fill="#00303F" fill-opacity="0.5"/>
<rect x="35.5" y="200.5" width="319" height="42" rx="4.5" stroke="#C5C5C5"/>
<path d="M37.086 274.126C36.7313 274.126 36.4607 274.028 36.274 273.832C36.0873 273.636 35.994 273.361 35.994 273.006V265.236C35.994 264.872 36.0873 264.597 36.274 264.41C36.47 264.223 36.7453 264.13 37.1 264.13H40.502C41.6033 264.13 42.4527 264.41 43.05 264.97C43.6473 265.521 43.946 266.291 43.946 267.28C43.946 268.269 43.6473 269.044 43.05 269.604C42.4527 270.164 41.6033 270.444 40.502 270.444H38.164V273.006C38.164 273.361 38.0707 273.636 37.884 273.832C37.7067 274.028 37.4407 274.126 37.086 274.126ZM38.164 268.764H40.138C40.698 268.764 41.1227 268.638 41.412 268.386C41.7107 268.134 41.86 267.765 41.86 267.28C41.86 266.795 41.7107 266.431 41.412 266.188C41.1227 265.945 40.698 265.824 40.138 265.824H38.164V268.764ZM47.1184 274.154C46.6144 274.154 46.1618 274.056 45.7604 273.86C45.3591 273.664 45.0464 273.398 44.8224 273.062C44.5984 272.726 44.4864 272.348 44.4864 271.928C44.4864 271.424 44.6171 271.027 44.8784 270.738C45.1398 270.439 45.5644 270.229 46.1524 270.108C46.7404 269.977 47.5198 269.912 48.4904 269.912H49.2324V271.004H48.5044C48.0284 271.004 47.6411 271.032 47.3424 271.088C47.0531 271.135 46.8431 271.219 46.7124 271.34C46.5911 271.461 46.5304 271.629 46.5304 271.844C46.5304 272.105 46.6191 272.32 46.7964 272.488C46.9831 272.656 47.2491 272.74 47.5944 272.74C47.8651 272.74 48.1031 272.679 48.3084 272.558C48.5231 272.427 48.6911 272.255 48.8124 272.04C48.9338 271.816 48.9944 271.564 48.9944 271.284V269.674C48.9944 269.263 48.9011 268.974 48.7144 268.806C48.5278 268.629 48.2104 268.54 47.7624 268.54C47.5104 268.54 47.2351 268.573 46.9364 268.638C46.6471 268.694 46.3251 268.792 45.9704 268.932C45.7651 269.025 45.5831 269.049 45.4244 269.002C45.2658 268.946 45.1444 268.853 45.0604 268.722C44.9764 268.582 44.9344 268.433 44.9344 268.274C44.9344 268.106 44.9811 267.947 45.0744 267.798C45.1678 267.639 45.3218 267.523 45.5364 267.448C45.9751 267.271 46.3858 267.149 46.7684 267.084C47.1604 267.019 47.5198 266.986 47.8464 266.986C48.5651 266.986 49.1531 267.093 49.6104 267.308C50.0771 267.513 50.4271 267.835 50.6604 268.274C50.8938 268.703 51.0104 269.259 51.0104 269.94V273.048C51.0104 273.393 50.9264 273.659 50.7584 273.846C50.5904 274.033 50.3478 274.126 50.0304 274.126C49.7131 274.126 49.4658 274.033 49.2884 273.846C49.1204 273.659 49.0364 273.393 49.0364 273.048V272.53L49.1344 272.614C49.0784 272.931 48.9571 273.207 48.7704 273.44C48.5931 273.664 48.3644 273.841 48.0844 273.972C47.8044 274.093 47.4824 274.154 47.1184 274.154ZM55.2194 274.154C54.8087 274.154 54.3841 274.117 53.9454 274.042C53.5161 273.967 53.1241 273.841 52.7694 273.664C52.5827 273.571 52.4474 273.454 52.3634 273.314C52.2887 273.165 52.2561 273.015 52.2654 272.866C52.2747 272.717 52.3214 272.581 52.4054 272.46C52.4987 272.339 52.6154 272.259 52.7554 272.222C52.9047 272.175 53.0681 272.189 53.2454 272.264C53.6281 272.423 53.9781 272.535 54.2954 272.6C54.6127 272.665 54.9254 272.698 55.2334 272.698C55.6347 272.698 55.9241 272.637 56.1014 272.516C56.2881 272.385 56.3814 272.217 56.3814 272.012C56.3814 271.825 56.3207 271.685 56.1994 271.592C56.0781 271.499 55.9007 271.433 55.6674 271.396L54.1974 271.13C53.6187 271.027 53.1707 270.817 52.8534 270.5C52.5454 270.173 52.3914 269.758 52.3914 269.254C52.3914 268.787 52.5221 268.386 52.7834 268.05C53.0447 267.705 53.4041 267.443 53.8614 267.266C54.3281 267.079 54.8554 266.986 55.4434 266.986C55.8634 266.986 56.2507 267.023 56.6054 267.098C56.9601 267.173 57.3007 267.294 57.6274 267.462C57.7954 267.546 57.9121 267.658 57.9774 267.798C58.0521 267.938 58.0754 268.083 58.0474 268.232C58.0287 268.381 57.9727 268.517 57.8794 268.638C57.7861 268.759 57.6647 268.839 57.5154 268.876C57.3754 268.913 57.2121 268.895 57.0254 268.82C56.7267 268.68 56.4514 268.582 56.1994 268.526C55.9474 268.461 55.7047 268.428 55.4714 268.428C55.0514 268.428 54.7481 268.498 54.5614 268.638C54.3747 268.769 54.2814 268.937 54.2814 269.142C54.2814 269.301 54.3327 269.436 54.4354 269.548C54.5474 269.651 54.7154 269.721 54.9394 269.758L56.4094 270.024C57.0161 270.127 57.4781 270.332 57.7954 270.64C58.1127 270.939 58.2714 271.349 58.2714 271.872C58.2714 272.581 57.9914 273.141 57.4314 273.552C56.8807 273.953 56.1434 274.154 55.2194 274.154ZM62.11 274.154C61.6993 274.154 61.2747 274.117 60.836 274.042C60.4067 273.967 60.0147 273.841 59.66 273.664C59.4733 273.571 59.338 273.454 59.254 273.314C59.1793 273.165 59.1467 273.015 59.156 272.866C59.1653 272.717 59.212 272.581 59.296 272.46C59.3893 272.339 59.506 272.259 59.646 272.222C59.7953 272.175 59.9587 272.189 60.136 272.264C60.5187 272.423 60.8687 272.535 61.186 272.6C61.5033 272.665 61.816 272.698 62.124 272.698C62.5253 272.698 62.8147 272.637 62.992 272.516C63.1787 272.385 63.272 272.217 63.272 272.012C63.272 271.825 63.2113 271.685 63.09 271.592C62.9687 271.499 62.7913 271.433 62.558 271.396L61.088 271.13C60.5093 271.027 60.0613 270.817 59.744 270.5C59.436 270.173 59.282 269.758 59.282 269.254C59.282 268.787 59.4127 268.386 59.674 268.05C59.9353 267.705 60.2947 267.443 60.752 267.266C61.2187 267.079 61.746 266.986 62.334 266.986C62.754 266.986 63.1413 267.023 63.496 267.098C63.8507 267.173 64.1913 267.294 64.518 267.462C64.686 267.546 64.8027 267.658 64.868 267.798C64.9427 267.938 64.966 268.083 64.938 268.232C64.9193 268.381 64.8633 268.517 64.77 268.638C64.6767 268.759 64.5553 268.839 64.406 268.876C64.266 268.913 64.1027 268.895 63.916 268.82C63.6173 268.68 63.342 268.582 63.09 268.526C62.838 268.461 62.5953 268.428 62.362 268.428C61.942 268.428 61.6387 268.498 61.452 268.638C61.2653 268.769 61.172 268.937 61.172 269.142C61.172 269.301 61.2233 269.436 61.326 269.548C61.438 269.651 61.606 269.721 61.83 269.758L63.3 270.024C63.9067 270.127 64.3687 270.332 64.686 270.64C65.0033 270.939 65.162 271.349 65.162 271.872C65.162 272.581 64.882 273.141 64.322 273.552C63.7713 273.953 63.034 274.154 62.11 274.154ZM69.0599 274.126C68.7799 274.126 68.5419 274.061 68.3459 273.93C68.1499 273.79 67.9913 273.571 67.8699 273.272L65.8959 268.386C65.7933 268.125 65.7606 267.896 65.7979 267.7C65.8353 267.495 65.9333 267.331 66.0919 267.21C66.2599 267.079 66.4886 267.014 66.7779 267.014C67.0206 267.014 67.2213 267.075 67.3799 267.196C67.5386 267.308 67.6739 267.527 67.7859 267.854L69.3259 271.956H69.0039L70.5999 267.672C70.6746 267.448 70.7819 267.285 70.9219 267.182C71.0713 267.07 71.2626 267.014 71.4959 267.014C71.7293 267.014 71.9159 267.07 72.0559 267.182C72.2053 267.294 72.3219 267.457 72.4059 267.672L73.9739 271.956H73.7079L75.2339 267.798C75.3459 267.499 75.4906 267.294 75.6679 267.182C75.8453 267.07 76.0366 267.014 76.2419 267.014C76.5033 267.014 76.7039 267.079 76.8439 267.21C76.9933 267.341 77.0773 267.509 77.0959 267.714C77.1239 267.919 77.0866 268.143 76.9839 268.386L75.0239 273.272C74.9119 273.561 74.7533 273.776 74.5479 273.916C74.3519 274.056 74.1139 274.126 73.8339 274.126C73.5633 274.126 73.3253 274.056 73.1199 273.916C72.9239 273.776 72.7653 273.561 72.6439 273.272L70.9639 268.904H71.8739L70.2359 273.258C70.1239 273.547 69.9699 273.767 69.7739 273.916C69.5779 274.056 69.3399 274.126 69.0599 274.126ZM81.4305 274.154C80.6931 274.154 80.0491 274.009 79.4985 273.72C78.9571 273.431 78.5371 273.015 78.2385 272.474C77.9398 271.933 77.7905 271.293 77.7905 270.556C77.7905 270.005 77.8745 269.511 78.0425 269.072C78.2105 268.633 78.4531 268.26 78.7705 267.952C79.0971 267.635 79.4845 267.397 79.9325 267.238C80.3805 267.07 80.8798 266.986 81.4305 266.986C82.1678 266.986 82.8071 267.131 83.3485 267.42C83.8991 267.709 84.3238 268.12 84.6225 268.652C84.9305 269.184 85.0845 269.819 85.0845 270.556C85.0845 271.116 84.9958 271.615 84.8185 272.054C84.6505 272.493 84.4078 272.871 84.0905 273.188C83.7731 273.505 83.3858 273.748 82.9285 273.916C82.4805 274.075 81.9811 274.154 81.4305 274.154ZM81.4305 272.572C81.7385 272.572 82.0045 272.497 82.2285 272.348C82.4525 272.199 82.6298 271.979 82.7605 271.69C82.8911 271.391 82.9565 271.013 82.9565 270.556C82.9565 269.875 82.8165 269.375 82.5365 269.058C82.2565 268.731 81.8878 268.568 81.4305 268.568C81.1318 268.568 80.8658 268.638 80.6325 268.778C80.4085 268.918 80.2311 269.137 80.1005 269.436C79.9791 269.725 79.9185 270.099 79.9185 270.556C79.9185 271.237 80.0585 271.746 80.3385 272.082C80.6185 272.409 80.9825 272.572 81.4305 272.572ZM87.4626 274.126C87.1079 274.126 86.8373 274.033 86.6506 273.846C86.4639 273.659 86.3706 273.393 86.3706 273.048V268.078C86.3706 267.733 86.4593 267.471 86.6366 267.294C86.8233 267.107 87.0799 267.014 87.4066 267.014C87.7426 267.014 87.9993 267.107 88.1766 267.294C88.3539 267.471 88.4426 267.733 88.4426 268.078V268.806H88.3026C88.4146 268.246 88.6619 267.812 89.0446 267.504C89.4273 267.196 89.9219 267.023 90.5286 266.986C90.7619 266.967 90.9393 267.028 91.0606 267.168C91.1913 267.299 91.2613 267.518 91.2706 267.826C91.2893 268.115 91.2286 268.344 91.0886 268.512C90.9579 268.68 90.7339 268.783 90.4166 268.82L90.0946 268.848C89.5626 268.895 89.1659 269.049 88.9046 269.31C88.6526 269.571 88.5266 269.949 88.5266 270.444V273.048C88.5266 273.393 88.4333 273.659 88.2466 273.846C88.0693 274.033 87.8079 274.126 87.4626 274.126ZM94.6911 274.154C94.0937 274.154 93.5664 274.009 93.1091 273.72C92.6611 273.431 92.3111 273.015 92.0591 272.474C91.8071 271.933 91.6811 271.293 91.6811 270.556C91.6811 269.819 91.8071 269.184 92.0591 268.652C92.3111 268.12 92.6611 267.709 93.1091 267.42C93.5664 267.131 94.0937 266.986 94.6911 266.986C95.2324 266.986 95.7084 267.117 96.1191 267.378C96.5391 267.639 96.8237 267.98 96.9731 268.4H96.8191V265.082C96.8191 264.727 96.9077 264.461 97.0851 264.284C97.2624 264.097 97.5237 264.004 97.8691 264.004C98.2051 264.004 98.4664 264.097 98.6531 264.284C98.8397 264.461 98.9331 264.727 98.9331 265.082V273.048C98.9331 273.393 98.8397 273.659 98.6531 273.846C98.4757 274.033 98.2191 274.126 97.8831 274.126C97.5471 274.126 97.2857 274.033 97.0991 273.846C96.9217 273.659 96.8331 273.393 96.8331 273.048V272.096L96.9871 272.642C96.8564 273.099 96.5764 273.468 96.1471 273.748C95.7271 274.019 95.2417 274.154 94.6911 274.154ZM95.3211 272.572C95.6291 272.572 95.8951 272.497 96.1191 272.348C96.3431 272.199 96.5204 271.979 96.6511 271.69C96.7817 271.391 96.8471 271.013 96.8471 270.556C96.8471 269.875 96.7071 269.375 96.4271 269.058C96.1471 268.731 95.7784 268.568 95.3211 268.568C95.0224 268.568 94.7564 268.638 94.5231 268.778C94.2991 268.918 94.1217 269.137 93.9911 269.436C93.8697 269.725 93.8091 270.099 93.8091 270.556C93.8091 271.237 93.9491 271.746 94.2291 272.082C94.5091 272.409 94.8731 272.572 95.3211 272.572Z" fill="#00303F"/>
<rect x="35.5" y="283.5" width="319" height="42" rx="4.5" fill="white"/>
<path d="M57.112 310C56.8773 310 56.696 309.941 56.568 309.824C56.4507 309.696 56.392 309.515 56.392 309.28V299.44C56.392 299.205 56.4507 299.029 56.568 298.912C56.696 298.784 56.8773 298.72 57.112 298.72H63.064C63.2453 298.72 63.384 298.768 63.48 298.864C63.576 298.96 63.624 299.093 63.624 299.264C63.624 299.445 63.576 299.584 63.48 299.68C63.384 299.776 63.2453 299.824 63.064 299.824H57.672V303.728H62.728C62.9093 303.728 63.048 303.776 63.144 303.872C63.24 303.957 63.288 304.091 63.288 304.272C63.288 304.453 63.24 304.592 63.144 304.688C63.048 304.784 62.9093 304.832 62.728 304.832H57.672V308.896H63.064C63.2453 308.896 63.384 308.944 63.48 309.04C63.576 309.136 63.624 309.269 63.624 309.44C63.624 309.621 63.576 309.76 63.48 309.856C63.384 309.952 63.2453 310 63.064 310H57.112ZM66.1841 310.112C65.9708 310.112 65.8108 310.053 65.7041 309.936C65.5975 309.819 65.5441 309.653 65.5441 309.44V302.768C65.5441 302.555 65.5975 302.395 65.7041 302.288C65.8108 302.171 65.9655 302.112 66.1681 302.112C66.3708 302.112 66.5255 302.171 66.6321 302.288C66.7495 302.395 66.8081 302.555 66.8081 302.768V304.144L66.6321 303.952C66.8561 303.333 67.2188 302.869 67.7201 302.56C68.2321 302.24 68.8188 302.08 69.4801 302.08C70.0988 302.08 70.6108 302.192 71.0161 302.416C71.4321 302.64 71.7415 302.981 71.9441 303.44C72.1468 303.888 72.2481 304.459 72.2481 305.152V309.44C72.2481 309.653 72.1895 309.819 72.0721 309.936C71.9655 310.053 71.8108 310.112 71.6081 310.112C71.3948 310.112 71.2295 310.053 71.1121 309.936C71.0055 309.819 70.9521 309.653 70.9521 309.44V305.232C70.9521 304.507 70.8081 303.979 70.5201 303.648C70.2428 303.307 69.7948 303.136 69.1761 303.136C68.4615 303.136 67.8908 303.36 67.4641 303.808C67.0481 304.245 66.8401 304.832 66.8401 305.568V309.44C66.8401 309.888 66.6215 310.112 66.1841 310.112ZM77.7579 310.144C77.1499 310.144 76.6379 310.037 76.2219 309.824C75.8165 309.6 75.5125 309.28 75.3099 308.864C75.1072 308.437 75.0059 307.92 75.0059 307.312V303.232H73.9339C73.7525 303.232 73.6139 303.189 73.5179 303.104C73.4219 303.008 73.3739 302.88 73.3739 302.72C73.3739 302.56 73.4219 302.437 73.5179 302.352C73.6139 302.267 73.7525 302.224 73.9339 302.224H75.0059V300.384C75.0059 300.171 75.0645 300.011 75.1819 299.904C75.2992 299.787 75.4592 299.728 75.6619 299.728C75.8645 299.728 76.0192 299.787 76.1259 299.904C76.2432 300.011 76.3019 300.171 76.3019 300.384V302.224H78.3179C78.4992 302.224 78.6379 302.267 78.7339 302.352C78.8299 302.437 78.8779 302.56 78.8779 302.72C78.8779 302.88 78.8299 303.008 78.7339 303.104C78.6379 303.189 78.4992 303.232 78.3179 303.232H76.3019V307.184C76.3019 307.792 76.4299 308.256 76.6859 308.576C76.9419 308.885 77.3579 309.04 77.9339 309.04C78.1365 309.04 78.3072 309.019 78.4459 308.976C78.5952 308.933 78.7179 308.912 78.8139 308.912C78.9099 308.901 78.9899 308.933 79.0539 309.008C79.1179 309.083 79.1499 309.211 79.1499 309.392C79.1499 309.52 79.1232 309.637 79.0699 309.744C79.0272 309.851 78.9472 309.925 78.8299 309.968C78.7019 310.011 78.5312 310.048 78.3179 310.08C78.1152 310.123 77.9285 310.144 77.7579 310.144ZM83.6575 310.144C82.8362 310.144 82.1268 309.984 81.5295 309.664C80.9428 309.333 80.4842 308.869 80.1535 308.272C79.8335 307.675 79.6735 306.96 79.6735 306.128C79.6735 305.317 79.8335 304.613 80.1535 304.016C80.4735 303.408 80.9108 302.933 81.4655 302.592C82.0308 302.251 82.6815 302.08 83.4175 302.08C83.9402 302.08 84.4095 302.171 84.8255 302.352C85.2415 302.523 85.5935 302.773 85.8815 303.104C86.1802 303.435 86.4042 303.835 86.5535 304.304C86.7135 304.773 86.7935 305.301 86.7935 305.888C86.7935 306.059 86.7455 306.187 86.6495 306.272C86.5535 306.347 86.4148 306.384 86.2335 306.384H80.6655V305.536H85.9295L85.6735 305.744C85.6735 305.168 85.5882 304.683 85.4175 304.288C85.2468 303.883 84.9962 303.573 84.6655 303.36C84.3455 303.147 83.9402 303.04 83.4495 303.04C82.9055 303.04 82.4415 303.168 82.0575 303.424C81.6842 303.669 81.4015 304.016 81.2095 304.464C81.0175 304.901 80.9215 305.413 80.9215 306V306.096C80.9215 307.077 81.1562 307.824 81.6255 308.336C82.1055 308.848 82.7828 309.104 83.6575 309.104C84.0202 309.104 84.3775 309.056 84.7295 308.96C85.0922 308.864 85.4442 308.704 85.7855 308.48C85.9348 308.384 86.0682 308.341 86.1855 308.352C86.3135 308.352 86.4148 308.389 86.4895 308.464C86.5642 308.528 86.6122 308.613 86.6335 308.72C86.6655 308.816 86.6548 308.923 86.6015 309.04C86.5588 309.157 86.4682 309.259 86.3295 309.344C85.9775 309.6 85.5615 309.797 85.0815 309.936C84.6015 310.075 84.1268 310.144 83.6575 310.144ZM89.3251 310.112C89.1118 310.112 88.9465 310.053 88.8291 309.936C88.7225 309.819 88.6691 309.653 88.6691 309.44V302.768C88.6691 302.555 88.7225 302.395 88.8291 302.288C88.9358 302.171 89.0905 302.112 89.2931 302.112C89.4958 302.112 89.6505 302.171 89.7571 302.288C89.8745 302.395 89.9331 302.555 89.9331 302.768V304.064H89.7731C89.9438 303.435 90.2691 302.949 90.7491 302.608C91.2291 302.267 91.8211 302.085 92.5251 302.064C92.6851 302.053 92.8131 302.091 92.9091 302.176C93.0051 302.251 93.0585 302.384 93.0691 302.576C93.0798 302.757 93.0371 302.901 92.9411 303.008C92.8451 303.115 92.6958 303.179 92.4931 303.2L92.2371 303.232C91.5118 303.296 90.9518 303.531 90.5571 303.936C90.1731 304.331 89.9811 304.875 89.9811 305.568V309.44C89.9811 309.653 89.9225 309.819 89.8051 309.936C89.6985 310.053 89.5385 310.112 89.3251 310.112ZM100.257 312.992C100.097 312.992 99.9685 312.949 99.8725 312.864C99.7765 312.779 99.7178 312.661 99.6965 312.512C99.6858 312.373 99.7125 312.229 99.7765 312.08L100.881 309.6V310.16L97.8085 303.024C97.7445 302.864 97.7232 302.715 97.7445 302.576C97.7658 302.437 97.8298 302.325 97.9365 302.24C98.0432 302.155 98.1925 302.112 98.3845 302.112C98.5552 302.112 98.6885 302.149 98.7845 302.224C98.8805 302.299 98.9658 302.432 99.0405 302.624L101.665 309.056H101.233L103.889 302.624C103.974 302.432 104.065 302.299 104.161 302.224C104.257 302.149 104.395 302.112 104.577 302.112C104.747 302.112 104.875 302.155 104.961 302.24C105.057 302.325 105.11 302.437 105.121 302.576C105.142 302.704 105.121 302.848 105.057 303.008L100.961 312.48C100.875 312.672 100.779 312.805 100.673 312.88C100.577 312.955 100.438 312.992 100.257 312.992ZM109.87 310.144C109.113 310.144 108.457 309.979 107.902 309.648C107.347 309.317 106.915 308.853 106.606 308.256C106.307 307.648 106.158 306.933 106.158 306.112C106.158 305.493 106.243 304.939 106.414 304.448C106.585 303.947 106.835 303.52 107.166 303.168C107.497 302.816 107.886 302.549 108.334 302.368C108.793 302.176 109.305 302.08 109.87 302.08C110.627 302.08 111.283 302.245 111.838 302.576C112.393 302.907 112.819 303.376 113.118 303.984C113.427 304.581 113.582 305.291 113.582 306.112C113.582 306.731 113.497 307.285 113.326 307.776C113.155 308.267 112.905 308.693 112.574 309.056C112.243 309.408 111.849 309.68 111.39 309.872C110.942 310.053 110.435 310.144 109.87 310.144ZM109.87 309.104C110.35 309.104 110.771 308.987 111.134 308.752C111.497 308.517 111.774 308.176 111.966 307.728C112.169 307.28 112.27 306.741 112.27 306.112C112.27 305.141 112.051 304.4 111.614 303.888C111.187 303.376 110.606 303.12 109.87 303.12C109.379 303.12 108.953 303.237 108.59 303.472C108.238 303.696 107.961 304.032 107.758 304.48C107.566 304.917 107.47 305.461 107.47 306.112C107.47 307.072 107.689 307.813 108.126 308.336C108.563 308.848 109.145 309.104 109.87 309.104ZM118.281 310.144C117.651 310.144 117.129 310.032 116.713 309.808C116.307 309.573 115.998 309.227 115.785 308.768C115.582 308.309 115.481 307.739 115.481 307.056V302.768C115.481 302.544 115.534 302.379 115.641 302.272C115.758 302.165 115.918 302.112 116.121 302.112C116.334 302.112 116.494 302.165 116.601 302.272C116.718 302.379 116.777 302.544 116.777 302.768V307.04C116.777 307.723 116.915 308.235 117.193 308.576C117.481 308.907 117.929 309.072 118.536 309.072C119.198 309.072 119.737 308.848 120.153 308.4C120.569 307.952 120.777 307.365 120.777 306.64V302.768C120.777 302.544 120.83 302.379 120.937 302.272C121.054 302.165 121.219 302.112 121.433 302.112C121.635 302.112 121.79 302.165 121.897 302.272C122.014 302.379 122.073 302.544 122.073 302.768V309.44C122.073 309.888 121.865 310.112 121.449 310.112C121.246 310.112 121.086 310.053 120.969 309.936C120.862 309.819 120.809 309.653 120.809 309.44V307.984L121.017 308.208C120.803 308.837 120.451 309.317 119.961 309.648C119.481 309.979 118.921 310.144 118.281 310.144ZM125.153 310.112C124.94 310.112 124.775 310.053 124.657 309.936C124.551 309.819 124.497 309.653 124.497 309.44V302.768C124.497 302.555 124.551 302.395 124.657 302.288C124.764 302.171 124.919 302.112 125.121 302.112C125.324 302.112 125.479 302.171 125.585 302.288C125.703 302.395 125.761 302.555 125.761 302.768V304.064H125.601C125.772 303.435 126.097 302.949 126.577 302.608C127.057 302.267 127.649 302.085 128.353 302.064C128.513 302.053 128.641 302.091 128.737 302.176C128.833 302.251 128.887 302.384 128.897 302.576C128.908 302.757 128.865 302.901 128.769 303.008C128.673 303.115 128.524 303.179 128.321 303.2L128.065 303.232C127.34 303.296 126.78 303.531 126.385 303.936C126.001 304.331 125.809 304.875 125.809 305.568V309.44C125.809 309.653 125.751 309.819 125.633 309.936C125.527 310.053 125.367 310.112 125.153 310.112ZM134.997 312.992C134.783 312.992 134.623 312.933 134.517 312.816C134.41 312.709 134.357 312.549 134.357 312.336V302.768C134.357 302.555 134.41 302.395 134.517 302.288C134.623 302.171 134.778 302.112 134.981 302.112C135.194 302.112 135.354 302.171 135.461 302.288C135.578 302.395 135.637 302.555 135.637 302.768V304.288L135.461 304.064C135.631 303.456 135.967 302.976 136.469 302.624C136.981 302.261 137.589 302.08 138.293 302.08C138.986 302.08 139.589 302.245 140.101 302.576C140.623 302.896 141.023 303.36 141.301 303.968C141.589 304.565 141.733 305.28 141.733 306.112C141.733 306.933 141.589 307.648 141.301 308.256C141.023 308.853 140.629 309.317 140.117 309.648C139.605 309.979 138.997 310.144 138.293 310.144C137.589 310.144 136.986 309.968 136.485 309.616C135.983 309.253 135.642 308.773 135.461 308.176H135.653V312.336C135.653 312.549 135.594 312.709 135.477 312.816C135.359 312.933 135.199 312.992 134.997 312.992ZM138.021 309.104C138.511 309.104 138.933 308.987 139.285 308.752C139.647 308.517 139.925 308.176 140.117 307.728C140.319 307.28 140.421 306.741 140.421 306.112C140.421 305.141 140.202 304.4 139.765 303.888C139.338 303.376 138.757 303.12 138.021 303.12C137.541 303.12 137.119 303.237 136.757 303.472C136.394 303.696 136.111 304.032 135.909 304.48C135.717 304.917 135.621 305.461 135.621 306.112C135.621 307.072 135.839 307.813 136.277 308.336C136.714 308.848 137.295 309.104 138.021 309.104ZM146.133 310.144C145.599 310.144 145.119 310.043 144.693 309.84C144.277 309.627 143.946 309.339 143.701 308.976C143.455 308.613 143.333 308.208 143.333 307.76C143.333 307.184 143.477 306.731 143.765 306.4C144.063 306.069 144.549 305.835 145.221 305.696C145.903 305.557 146.831 305.488 148.005 305.488H148.725V306.336H148.021C147.157 306.336 146.474 306.379 145.973 306.464C145.482 306.539 145.135 306.672 144.933 306.864C144.741 307.056 144.645 307.328 144.645 307.68C144.645 308.117 144.794 308.475 145.093 308.752C145.402 309.029 145.818 309.168 146.341 309.168C146.767 309.168 147.141 309.067 147.461 308.864C147.791 308.661 148.047 308.384 148.229 308.032C148.421 307.68 148.517 307.275 148.517 306.816V304.992C148.517 304.331 148.383 303.856 148.117 303.568C147.85 303.269 147.413 303.12 146.805 303.12C146.431 303.12 146.058 303.168 145.685 303.264C145.311 303.36 144.917 303.515 144.501 303.728C144.351 303.803 144.223 303.829 144.117 303.808C144.01 303.776 143.925 303.717 143.861 303.632C143.797 303.547 143.759 303.451 143.749 303.344C143.738 303.227 143.759 303.115 143.813 303.008C143.877 302.901 143.973 302.816 144.101 302.752C144.57 302.517 145.034 302.347 145.493 302.24C145.951 302.133 146.389 302.08 146.805 302.08C147.477 302.08 148.031 302.192 148.469 302.416C148.906 302.629 149.231 302.96 149.445 303.408C149.658 303.845 149.765 304.411 149.765 305.104V309.44C149.765 309.653 149.711 309.819 149.605 309.936C149.509 310.053 149.365 310.112 149.173 310.112C148.97 310.112 148.815 310.053 148.709 309.936C148.602 309.819 148.549 309.653 148.549 309.44V308.192H148.693C148.607 308.597 148.442 308.944 148.197 309.232C147.962 309.52 147.669 309.744 147.317 309.904C146.965 310.064 146.57 310.144 146.133 310.144ZM154.793 310.144C154.313 310.144 153.828 310.085 153.337 309.968C152.857 309.851 152.409 309.648 151.993 309.36C151.886 309.285 151.812 309.2 151.769 309.104C151.726 308.997 151.71 308.896 151.721 308.8C151.742 308.693 151.785 308.603 151.849 308.528C151.924 308.453 152.009 308.411 152.105 308.4C152.212 308.379 152.329 308.4 152.457 308.464C152.873 308.72 153.273 308.901 153.657 309.008C154.052 309.104 154.441 309.152 154.825 309.152C155.433 309.152 155.892 309.04 156.201 308.816C156.51 308.592 156.665 308.288 156.665 307.904C156.665 307.605 156.564 307.371 156.361 307.2C156.158 307.019 155.838 306.88 155.401 306.784L153.945 306.464C153.273 306.325 152.772 306.085 152.441 305.744C152.121 305.403 151.961 304.96 151.961 304.416C151.961 303.936 152.084 303.525 152.329 303.184C152.585 302.832 152.942 302.56 153.401 302.368C153.86 302.176 154.393 302.08 155.001 302.08C155.47 302.08 155.913 302.144 156.329 302.272C156.756 302.389 157.14 302.581 157.481 302.848C157.588 302.923 157.657 303.013 157.689 303.12C157.732 303.216 157.737 303.317 157.705 303.424C157.684 303.52 157.636 303.605 157.561 303.68C157.486 303.744 157.396 303.781 157.289 303.792C157.182 303.803 157.07 303.771 156.953 303.696C156.633 303.483 156.308 303.328 155.977 303.232C155.646 303.125 155.321 303.072 155.001 303.072C154.404 303.072 153.95 303.189 153.641 303.424C153.332 303.659 153.177 303.968 153.177 304.352C153.177 304.651 153.273 304.896 153.465 305.088C153.657 305.28 153.956 305.419 154.361 305.504L155.817 305.808C156.51 305.957 157.028 306.197 157.369 306.528C157.721 306.848 157.897 307.285 157.897 307.84C157.897 308.544 157.614 309.104 157.049 309.52C156.484 309.936 155.732 310.144 154.793 310.144ZM162.496 310.144C162.016 310.144 161.531 310.085 161.04 309.968C160.56 309.851 160.112 309.648 159.696 309.36C159.59 309.285 159.515 309.2 159.472 309.104C159.43 308.997 159.414 308.896 159.424 308.8C159.446 308.693 159.488 308.603 159.552 308.528C159.627 308.453 159.712 308.411 159.808 308.4C159.915 308.379 160.032 308.4 160.16 308.464C160.576 308.72 160.976 308.901 161.36 309.008C161.755 309.104 162.144 309.152 162.528 309.152C163.136 309.152 163.595 309.04 163.904 308.816C164.214 308.592 164.368 308.288 164.368 307.904C164.368 307.605 164.267 307.371 164.064 307.2C163.862 307.019 163.542 306.88 163.104 306.784L161.648 306.464C160.976 306.325 160.475 306.085 160.144 305.744C159.824 305.403 159.664 304.96 159.664 304.416C159.664 303.936 159.787 303.525 160.032 303.184C160.288 302.832 160.646 302.56 161.104 302.368C161.563 302.176 162.096 302.08 162.704 302.08C163.174 302.08 163.616 302.144 164.032 302.272C164.459 302.389 164.843 302.581 165.184 302.848C165.291 302.923 165.36 303.013 165.392 303.12C165.435 303.216 165.44 303.317 165.408 303.424C165.387 303.52 165.339 303.605 165.264 303.68C165.19 303.744 165.099 303.781 164.992 303.792C164.886 303.803 164.774 303.771 164.656 303.696C164.336 303.483 164.011 303.328 163.68 303.232C163.35 303.125 163.024 303.072 162.704 303.072C162.107 303.072 161.654 303.189 161.344 303.424C161.035 303.659 160.88 303.968 160.88 304.352C160.88 304.651 160.976 304.896 161.168 305.088C161.36 305.28 161.659 305.419 162.064 305.504L163.52 305.808C164.214 305.957 164.731 306.197 165.072 306.528C165.424 306.848 165.6 307.285 165.6 307.84C165.6 308.544 165.318 309.104 164.752 309.52C164.187 309.936 163.435 310.144 162.496 310.144ZM170.107 310.112C169.926 310.112 169.766 310.064 169.627 309.968C169.488 309.872 169.376 309.717 169.291 309.504L166.907 303.024C166.843 302.843 166.822 302.683 166.843 302.544C166.875 302.405 166.944 302.299 167.051 302.224C167.158 302.149 167.291 302.112 167.451 302.112C167.611 302.112 167.739 302.149 167.835 302.224C167.942 302.299 168.027 302.437 168.091 302.64L170.331 309.04H169.947L172.251 302.64C172.326 302.448 172.416 302.315 172.523 302.24C172.64 302.155 172.79 302.112 172.971 302.112C173.142 302.112 173.286 302.155 173.403 302.24C173.52 302.325 173.611 302.459 173.675 302.64L175.931 309.04H175.563L177.835 302.608C177.91 302.416 178 302.288 178.107 302.224C178.214 302.149 178.342 302.112 178.491 302.112C178.662 302.112 178.79 302.155 178.875 302.24C178.971 302.325 179.024 302.437 179.035 302.576C179.046 302.715 179.019 302.864 178.955 303.024L176.571 309.504C176.496 309.707 176.384 309.861 176.235 309.968C176.096 310.064 175.936 310.112 175.755 310.112C175.574 310.112 175.414 310.064 175.275 309.968C175.136 309.861 175.03 309.707 174.955 309.504L172.587 303.008H173.275L170.923 309.504C170.848 309.707 170.742 309.861 170.603 309.968C170.464 310.064 170.299 310.112 170.107 310.112ZM183.995 310.144C183.238 310.144 182.582 309.979 182.027 309.648C181.472 309.317 181.04 308.853 180.731 308.256C180.432 307.648 180.283 306.933 180.283 306.112C180.283 305.493 180.368 304.939 180.539 304.448C180.71 303.947 180.96 303.52 181.291 303.168C181.622 302.816 182.011 302.549 182.459 302.368C182.918 302.176 183.43 302.08 183.995 302.08C184.752 302.08 185.408 302.245 185.963 302.576C186.518 302.907 186.944 303.376 187.243 303.984C187.552 304.581 187.707 305.291 187.707 306.112C187.707 306.731 187.622 307.285 187.451 307.776C187.28 308.267 187.03 308.693 186.699 309.056C186.368 309.408 185.974 309.68 185.515 309.872C185.067 310.053 184.56 310.144 183.995 310.144ZM183.995 309.104C184.475 309.104 184.896 308.987 185.259 308.752C185.622 308.517 185.899 308.176 186.091 307.728C186.294 307.28 186.395 306.741 186.395 306.112C186.395 305.141 186.176 304.4 185.739 303.888C185.312 303.376 184.731 303.12 183.995 303.12C183.504 303.12 183.078 303.237 182.715 303.472C182.363 303.696 182.086 304.032 181.883 304.48C181.691 304.917 181.595 305.461 181.595 306.112C181.595 307.072 181.814 307.813 182.251 308.336C182.688 308.848 183.27 309.104 183.995 309.104ZM190.31 310.112C190.096 310.112 189.931 310.053 189.814 309.936C189.707 309.819 189.654 309.653 189.654 309.44V302.768C189.654 302.555 189.707 302.395 189.814 302.288C189.92 302.171 190.075 302.112 190.278 302.112C190.48 302.112 190.635 302.171 190.742 302.288C190.859 302.395 190.918 302.555 190.918 302.768V304.064H190.758C190.928 303.435 191.254 302.949 191.734 302.608C192.214 302.267 192.806 302.085 193.51 302.064C193.67 302.053 193.798 302.091 193.894 302.176C193.99 302.251 194.043 302.384 194.054 302.576C194.064 302.757 194.022 302.901 193.926 303.008C193.83 303.115 193.68 303.179 193.478 303.2L193.222 303.232C192.496 303.296 191.936 303.531 191.542 303.936C191.158 304.331 190.966 304.875 190.966 305.568V309.44C190.966 309.653 190.907 309.819 190.789 309.936C190.683 310.053 190.523 310.112 190.31 310.112ZM198.254 310.144C197.561 310.144 196.953 309.979 196.43 309.648C195.918 309.317 195.518 308.853 195.23 308.256C194.953 307.648 194.814 306.933 194.814 306.112C194.814 305.28 194.953 304.565 195.23 303.968C195.518 303.36 195.918 302.896 196.43 302.576C196.953 302.245 197.561 302.08 198.254 302.08C198.958 302.08 199.561 302.256 200.062 302.608C200.563 302.96 200.899 303.435 201.07 304.032H200.894V299.264C200.894 299.051 200.947 298.891 201.054 298.784C201.171 298.667 201.337 298.608 201.55 298.608C201.753 298.608 201.907 298.667 202.014 298.784C202.131 298.891 202.19 299.051 202.19 299.264V309.44C202.19 309.653 202.137 309.819 202.03 309.936C201.923 310.053 201.763 310.112 201.55 310.112C201.347 310.112 201.187 310.053 201.07 309.936C200.963 309.819 200.91 309.653 200.91 309.44V307.92L201.086 308.144C200.915 308.752 200.574 309.237 200.062 309.6C199.561 309.963 198.958 310.144 198.254 310.144ZM198.526 309.104C199.006 309.104 199.427 308.987 199.79 308.752C200.153 308.517 200.43 308.176 200.622 307.728C200.825 307.28 200.926 306.741 200.926 306.112C200.926 305.141 200.707 304.4 200.27 303.888C199.843 303.376 199.262 303.12 198.526 303.12C198.035 303.12 197.609 303.237 197.246 303.472C196.894 303.696 196.617 304.032 196.414 304.48C196.222 304.917 196.126 305.461 196.126 306.112C196.126 307.072 196.345 307.813 196.782 308.336C197.219 308.848 197.801 309.104 198.526 309.104Z" fill="#00303F" fill-opacity="0.5"/>
<rect x="35.5" y="283.5" width="319" height="42" rx="4.5" stroke="#C5C5C5"/>
<rect x="35" y="368" width="320" height="43" rx="5" fill="#00303F"/>
<path d="M169.216 395.176C168.789 395.176 168.341 395.144 167.872 395.08C167.413 395.027 166.976 394.941 166.56 394.824C166.144 394.707 165.771 394.568 165.44 394.408C165.152 394.269 164.949 394.088 164.832 393.864C164.715 393.629 164.672 393.384 164.704 393.128C164.736 392.872 164.827 392.648 164.976 392.456C165.125 392.253 165.323 392.12 165.568 392.056C165.813 391.981 166.091 392.013 166.4 392.152C166.805 392.344 167.264 392.493 167.776 392.6C168.288 392.707 168.768 392.76 169.216 392.76C169.92 392.76 170.411 392.669 170.688 392.488C170.976 392.296 171.12 392.061 171.12 391.784C171.12 391.539 171.019 391.341 170.816 391.192C170.624 391.043 170.277 390.915 169.776 390.808L167.904 390.408C166.88 390.195 166.117 389.821 165.616 389.288C165.115 388.755 164.864 388.067 164.864 387.224C164.864 386.669 164.976 386.168 165.2 385.72C165.435 385.261 165.76 384.872 166.176 384.552C166.603 384.232 167.104 383.987 167.68 383.816C168.267 383.635 168.917 383.544 169.632 383.544C170.187 383.544 170.747 383.608 171.312 383.736C171.888 383.853 172.384 384.035 172.8 384.28C173.045 384.408 173.221 384.584 173.328 384.808C173.435 385.032 173.477 385.267 173.456 385.512C173.435 385.747 173.349 385.955 173.2 386.136C173.061 386.317 172.869 386.44 172.624 386.504C172.389 386.557 172.107 386.515 171.776 386.376C171.467 386.237 171.115 386.136 170.72 386.072C170.336 385.997 169.963 385.96 169.6 385.96C169.205 385.96 168.869 386.008 168.592 386.104C168.315 386.189 168.101 386.317 167.952 386.488C167.813 386.659 167.744 386.856 167.744 387.08C167.744 387.304 167.835 387.496 168.016 387.656C168.208 387.805 168.555 387.933 169.056 388.04L170.912 388.44C171.947 388.664 172.72 389.032 173.232 389.544C173.744 390.056 174 390.723 174 391.544C174 392.099 173.888 392.6 173.664 393.048C173.44 393.496 173.12 393.88 172.704 394.2C172.288 394.509 171.787 394.749 171.2 394.92C170.613 395.091 169.952 395.176 169.216 395.176ZM176.918 395.144C176.449 395.144 176.086 395.016 175.83 394.76C175.574 394.493 175.446 394.12 175.446 393.64V385.08C175.446 384.589 175.574 384.216 175.83 383.96C176.086 383.704 176.449 383.576 176.918 383.576C177.398 383.576 177.761 383.704 178.006 383.96C178.262 384.216 178.39 384.589 178.39 385.08V393.64C178.39 394.12 178.267 394.493 178.022 394.76C177.777 395.016 177.409 395.144 176.918 395.144ZM186.19 395.176C184.9 395.176 183.801 394.936 182.894 394.456C181.998 393.976 181.316 393.304 180.846 392.44C180.377 391.576 180.142 390.568 180.142 389.416C180.142 388.52 180.281 387.715 180.558 387C180.846 386.275 181.257 385.656 181.79 385.144C182.324 384.621 182.974 384.227 183.742 383.96C184.521 383.683 185.401 383.544 186.382 383.544C186.916 383.544 187.46 383.597 188.014 383.704C188.569 383.8 189.113 383.987 189.646 384.264C189.924 384.392 190.11 384.573 190.206 384.808C190.313 385.032 190.345 385.272 190.302 385.528C190.27 385.773 190.18 386.003 190.03 386.216C189.892 386.419 189.7 386.557 189.454 386.632C189.209 386.696 188.932 386.659 188.622 386.52C188.302 386.371 187.956 386.259 187.582 386.184C187.209 386.099 186.814 386.056 186.398 386.056C185.684 386.056 185.086 386.184 184.606 386.44C184.137 386.696 183.785 387.075 183.55 387.576C183.316 388.077 183.198 388.691 183.198 389.416C183.198 390.504 183.465 391.325 183.998 391.88C184.532 392.435 185.321 392.712 186.366 392.712C186.686 392.712 187.033 392.68 187.406 392.616C187.79 392.552 188.174 392.461 188.558 392.344L188.014 393.448V390.712H186.894C186.532 390.712 186.249 390.621 186.046 390.44C185.854 390.259 185.758 390.003 185.758 389.672C185.758 389.341 185.854 389.091 186.046 388.92C186.249 388.739 186.532 388.648 186.894 388.648H189.262C189.636 388.648 189.918 388.749 190.11 388.952C190.313 389.144 190.414 389.427 190.414 389.8V393.336C190.414 393.656 190.345 393.928 190.206 394.152C190.078 394.376 189.87 394.536 189.582 394.632C189.081 394.803 188.537 394.936 187.95 395.032C187.364 395.128 186.777 395.176 186.19 395.176ZM193.759 395.144C193.311 395.144 192.97 395.027 192.735 394.792C192.501 394.557 192.383 394.211 192.383 393.752V385.032C192.383 384.563 192.501 384.205 192.735 383.96C192.97 383.704 193.279 383.576 193.663 383.576C194.005 383.576 194.271 383.64 194.463 383.768C194.655 383.896 194.869 384.109 195.103 384.408L200.175 390.744H199.727V384.952C199.727 384.504 199.839 384.163 200.063 383.928C200.298 383.693 200.639 383.576 201.087 383.576C201.535 383.576 201.871 383.693 202.095 383.928C202.33 384.163 202.447 384.504 202.447 384.952V393.816C202.447 394.221 202.341 394.547 202.127 394.792C201.914 395.027 201.626 395.144 201.263 395.144C200.901 395.144 200.613 395.08 200.399 394.952C200.197 394.813 199.978 394.6 199.743 394.312L194.671 387.96H195.119V393.752C195.119 394.211 195.002 394.557 194.767 394.792C194.543 395.027 194.207 395.144 193.759 395.144ZM210.559 395.144C210.089 395.144 209.727 395.016 209.471 394.76C209.215 394.493 209.087 394.12 209.087 393.64V385.08C209.087 384.589 209.215 384.216 209.471 383.96C209.727 383.704 210.089 383.576 210.559 383.576C211.039 383.576 211.401 383.704 211.647 383.96C211.903 384.216 212.031 384.589 212.031 385.08V393.64C212.031 394.12 211.908 394.493 211.663 394.76C211.417 395.016 211.049 395.144 210.559 395.144ZM215.447 395.144C214.999 395.144 214.658 395.027 214.423 394.792C214.188 394.557 214.071 394.211 214.071 393.752V385.032C214.071 384.563 214.188 384.205 214.423 383.96C214.658 383.704 214.967 383.576 215.351 383.576C215.692 383.576 215.959 383.64 216.151 383.768C216.343 383.896 216.556 384.109 216.791 384.408L221.863 390.744H221.415V384.952C221.415 384.504 221.527 384.163 221.751 383.928C221.986 383.693 222.327 383.576 222.775 383.576C223.223 383.576 223.559 383.693 223.783 383.928C224.018 384.163 224.135 384.504 224.135 384.952V393.816C224.135 394.221 224.028 394.547 223.815 394.792C223.602 395.027 223.314 395.144 222.951 395.144C222.588 395.144 222.3 395.08 222.087 394.952C221.884 394.813 221.666 394.6 221.431 394.312L216.359 387.96H216.807V393.752C216.807 394.211 216.69 394.557 216.455 394.792C216.231 395.027 215.895 395.144 215.447 395.144Z" fill="white"/>
<path d="M147.284 786.176C145.993 786.176 144.895 785.936 143.988 785.456C143.092 784.976 142.409 784.304 141.94 783.44C141.471 782.576 141.236 781.568 141.236 780.416C141.236 779.52 141.375 778.715 141.652 778C141.94 777.275 142.351 776.656 142.884 776.144C143.417 775.621 144.068 775.227 144.836 774.96C145.615 774.683 146.495 774.544 147.476 774.544C148.009 774.544 148.553 774.597 149.108 774.704C149.663 774.8 150.207 774.987 150.74 775.264C151.017 775.392 151.204 775.573 151.3 775.808C151.407 776.032 151.439 776.272 151.396 776.528C151.364 776.773 151.273 777.003 151.124 777.216C150.985 777.419 150.793 777.557 150.548 777.632C150.303 777.696 150.025 777.659 149.716 777.52C149.396 777.371 149.049 777.259 148.676 777.184C148.303 777.099 147.908 777.056 147.492 777.056C146.777 777.056 146.18 777.184 145.7 777.44C145.231 777.696 144.879 778.075 144.644 778.576C144.409 779.077 144.292 779.691 144.292 780.416C144.292 781.504 144.559 782.325 145.092 782.88C145.625 783.435 146.415 783.712 147.46 783.712C147.78 783.712 148.127 783.68 148.5 783.616C148.884 783.552 149.268 783.461 149.652 783.344L149.108 784.448V781.712H147.988C147.625 781.712 147.343 781.621 147.14 781.44C146.948 781.259 146.852 781.003 146.852 780.672C146.852 780.341 146.948 780.091 147.14 779.92C147.343 779.739 147.625 779.648 147.988 779.648H150.356C150.729 779.648 151.012 779.749 151.204 779.952C151.407 780.144 151.508 780.427 151.508 780.8V784.336C151.508 784.656 151.439 784.928 151.3 785.152C151.172 785.376 150.964 785.536 150.676 785.632C150.175 785.803 149.631 785.936 149.044 786.032C148.457 786.128 147.871 786.176 147.284 786.176ZM158.469 786.176C157.648 786.176 156.922 786.075 156.293 785.872C155.664 785.659 155.13 785.344 154.693 784.928C154.266 784.512 153.941 783.995 153.717 783.376C153.504 782.747 153.397 782.021 153.397 781.2V776.064C153.397 775.573 153.525 775.205 153.781 774.96C154.037 774.704 154.4 774.576 154.869 774.576C155.349 774.576 155.712 774.704 155.957 774.96C156.213 775.205 156.341 775.573 156.341 776.064V781.232C156.341 782.053 156.522 782.672 156.885 783.088C157.248 783.504 157.776 783.712 158.469 783.712C159.152 783.712 159.674 783.504 160.037 783.088C160.4 782.672 160.581 782.053 160.581 781.232V776.064C160.581 775.573 160.704 775.205 160.949 774.96C161.205 774.704 161.568 774.576 162.037 774.576C162.506 774.576 162.864 774.704 163.109 774.96C163.354 775.205 163.477 775.573 163.477 776.064V781.2C163.477 782.299 163.285 783.221 162.901 783.968C162.528 784.704 161.968 785.259 161.221 785.632C160.474 785.995 159.557 786.176 158.469 786.176ZM166.982 786C166.481 786 166.097 785.872 165.83 785.616C165.574 785.349 165.446 784.971 165.446 784.48V776.24C165.446 775.749 165.574 775.376 165.83 775.12C166.097 774.853 166.481 774.72 166.982 774.72H172.406C172.79 774.72 173.078 774.816 173.27 775.008C173.462 775.2 173.558 775.477 173.558 775.84C173.558 776.213 173.462 776.501 173.27 776.704C173.078 776.896 172.79 776.992 172.406 776.992H168.262V779.136H172.054C172.427 779.136 172.71 779.232 172.902 779.424C173.105 779.616 173.206 779.899 173.206 780.272C173.206 780.645 173.105 780.928 172.902 781.12C172.71 781.312 172.427 781.408 172.054 781.408H168.262V783.728H172.406C172.79 783.728 173.078 783.829 173.27 784.032C173.462 784.224 173.558 784.501 173.558 784.864C173.558 785.237 173.462 785.52 173.27 785.712C173.078 785.904 172.79 786 172.406 786H166.982ZM179.31 786.176C178.883 786.176 178.435 786.144 177.966 786.08C177.507 786.027 177.07 785.941 176.654 785.824C176.238 785.707 175.864 785.568 175.534 785.408C175.246 785.269 175.043 785.088 174.926 784.864C174.808 784.629 174.766 784.384 174.798 784.128C174.83 783.872 174.92 783.648 175.07 783.456C175.219 783.253 175.416 783.12 175.662 783.056C175.907 782.981 176.184 783.013 176.494 783.152C176.899 783.344 177.358 783.493 177.87 783.6C178.382 783.707 178.862 783.76 179.31 783.76C180.014 783.76 180.504 783.669 180.782 783.488C181.07 783.296 181.214 783.061 181.214 782.784C181.214 782.539 181.112 782.341 180.91 782.192C180.718 782.043 180.371 781.915 179.87 781.808L177.998 781.408C176.974 781.195 176.211 780.821 175.71 780.288C175.208 779.755 174.958 779.067 174.958 778.224C174.958 777.669 175.07 777.168 175.294 776.72C175.528 776.261 175.854 775.872 176.27 775.552C176.696 775.232 177.198 774.987 177.774 774.816C178.36 774.635 179.011 774.544 179.726 774.544C180.28 774.544 180.84 774.608 181.406 774.736C181.982 774.853 182.478 775.035 182.894 775.28C183.139 775.408 183.315 775.584 183.422 775.808C183.528 776.032 183.571 776.267 183.55 776.512C183.528 776.747 183.443 776.955 183.294 777.136C183.155 777.317 182.963 777.44 182.718 777.504C182.483 777.557 182.2 777.515 181.87 777.376C181.56 777.237 181.208 777.136 180.814 777.072C180.43 776.997 180.056 776.96 179.694 776.96C179.299 776.96 178.963 777.008 178.686 777.104C178.408 777.189 178.195 777.317 178.046 777.488C177.907 777.659 177.838 777.856 177.838 778.08C177.838 778.304 177.928 778.496 178.11 778.656C178.302 778.805 178.648 778.933 179.15 779.04L181.006 779.44C182.04 779.664 182.814 780.032 183.326 780.544C183.838 781.056 184.094 781.723 184.094 782.544C184.094 783.099 183.982 783.6 183.758 784.048C183.534 784.496 183.214 784.88 182.798 785.2C182.382 785.509 181.88 785.749 181.294 785.92C180.707 786.091 180.046 786.176 179.31 786.176ZM189.433 786.144C188.964 786.144 188.601 786.016 188.345 785.76C188.089 785.493 187.961 785.125 187.961 784.656V777.12H185.449C185.055 777.12 184.751 777.019 184.537 776.816C184.335 776.603 184.233 776.304 184.233 775.92C184.233 775.525 184.335 775.227 184.537 775.024C184.751 774.821 185.055 774.72 185.449 774.72H193.417C193.812 774.72 194.111 774.821 194.313 775.024C194.527 775.227 194.633 775.525 194.633 775.92C194.633 776.304 194.527 776.603 194.313 776.816C194.111 777.019 193.812 777.12 193.417 777.12H190.905V784.656C190.905 785.125 190.783 785.493 190.537 785.76C190.292 786.016 189.924 786.144 189.433 786.144ZM201.54 786.144C201.114 786.144 200.783 786.027 200.548 785.792C200.324 785.557 200.212 785.227 200.212 784.8V775.92C200.212 775.483 200.335 775.152 200.58 774.928C200.826 774.693 201.172 774.576 201.62 774.576C201.994 774.576 202.287 774.651 202.5 774.8C202.724 774.939 202.927 775.173 203.108 775.504L206.548 781.68H205.988L209.412 775.504C209.604 775.173 209.807 774.939 210.02 774.8C210.244 774.651 210.543 774.576 210.916 774.576C211.343 774.576 211.668 774.693 211.892 774.928C212.127 775.152 212.244 775.483 212.244 775.92V784.8C212.244 785.227 212.132 785.557 211.908 785.792C211.684 786.027 211.354 786.144 210.916 786.144C210.49 786.144 210.159 786.027 209.924 785.792C209.7 785.557 209.588 785.227 209.588 784.8V779.296H209.924L207.348 783.776C207.199 784.011 207.039 784.187 206.868 784.304C206.708 784.421 206.49 784.48 206.212 784.48C205.946 784.48 205.727 784.421 205.556 784.304C205.386 784.187 205.231 784.011 205.092 783.776L202.5 779.28H202.868V784.8C202.868 785.227 202.756 785.557 202.532 785.792C202.308 786.027 201.978 786.144 201.54 786.144ZM219.761 786.176C218.62 786.176 217.617 785.936 216.753 785.456C215.889 784.965 215.217 784.283 214.737 783.408C214.268 782.533 214.033 781.515 214.033 780.352C214.033 779.477 214.166 778.683 214.433 777.968C214.71 777.253 215.1 776.64 215.601 776.128C216.113 775.616 216.721 775.227 217.425 774.96C218.129 774.683 218.908 774.544 219.761 774.544C220.902 774.544 221.9 774.784 222.753 775.264C223.617 775.744 224.289 776.421 224.769 777.296C225.249 778.16 225.489 779.179 225.489 780.352C225.489 781.227 225.35 782.021 225.073 782.736C224.806 783.451 224.417 784.069 223.905 784.592C223.404 785.104 222.801 785.499 222.097 785.776C221.393 786.043 220.614 786.176 219.761 786.176ZM219.761 783.712C220.326 783.712 220.806 783.579 221.201 783.312C221.596 783.045 221.9 782.661 222.113 782.16C222.326 781.659 222.433 781.056 222.433 780.352C222.433 779.296 222.198 778.475 221.729 777.888C221.26 777.301 220.604 777.008 219.761 777.008C219.206 777.008 218.726 777.141 218.321 777.408C217.926 777.664 217.622 778.043 217.409 778.544C217.196 779.035 217.089 779.637 217.089 780.352C217.089 781.408 217.324 782.235 217.793 782.832C218.262 783.419 218.918 783.712 219.761 783.712ZM228.763 786C228.262 786 227.878 785.872 227.611 785.616C227.355 785.349 227.227 784.971 227.227 784.48V776.24C227.227 775.749 227.355 775.376 227.611 775.12C227.878 774.853 228.262 774.72 228.763 774.72H231.899C233.862 774.72 235.376 775.211 236.443 776.192C237.52 777.173 238.059 778.56 238.059 780.352C238.059 781.248 237.92 782.048 237.643 782.752C237.366 783.445 236.966 784.037 236.443 784.528C235.92 785.008 235.275 785.376 234.507 785.632C233.75 785.877 232.88 786 231.899 786H228.763ZM230.171 783.616H231.707C232.272 783.616 232.758 783.547 233.163 783.408C233.579 783.269 233.92 783.067 234.187 782.8C234.464 782.533 234.667 782.197 234.795 781.792C234.934 781.387 235.003 780.907 235.003 780.352C235.003 779.243 234.731 778.427 234.187 777.904C233.643 777.371 232.816 777.104 231.707 777.104H230.171V783.616ZM241.341 786C240.84 786 240.456 785.872 240.189 785.616C239.933 785.349 239.805 784.971 239.805 784.48V776.24C239.805 775.749 239.933 775.376 240.189 775.12C240.456 774.853 240.84 774.72 241.341 774.72H246.765C247.149 774.72 247.437 774.816 247.629 775.008C247.821 775.2 247.917 775.477 247.917 775.84C247.917 776.213 247.821 776.501 247.629 776.704C247.437 776.896 247.149 776.992 246.765 776.992H242.621V779.136H246.413C246.787 779.136 247.069 779.232 247.261 779.424C247.464 779.616 247.565 779.899 247.565 780.272C247.565 780.645 247.464 780.928 247.261 781.12C247.069 781.312 246.787 781.408 246.413 781.408H242.621V783.728H246.765C247.149 783.728 247.437 783.829 247.629 784.032C247.821 784.224 247.917 784.501 247.917 784.864C247.917 785.237 247.821 785.52 247.629 785.712C247.437 785.904 247.149 786 246.765 786H241.341Z" fill="#00303F"/>
<rect x="36.5" y="760.5" width="317" height="40" rx="3.5" stroke="#00303F" stroke-width="3"/>
</svg>
