<svg width="390" height="844" viewBox="0 0 390 844" fill="none" xmlns="http://www.w3.org/2000/svg">
<g clip-path="url(#clip0_96_763)">
<rect width="390" height="844" fill="#F5F4F4"/>
<rect width="390" height="140" fill="#00303F"/>
<path d="M184.423 59.8937L186.107 62.5929L187.815 59.909L200.146 40.5317C201.755 38.0031 205.525 38.2609 206.775 40.985C207.303 42.1353 207.221 43.4733 206.556 44.5502L189.778 71.7205C188.1 74.4384 184.147 74.4384 182.469 71.7205L165.687 44.5435C165.016 43.4568 164.922 42.1098 165.435 40.9403C166.69 38.079 170.638 37.7937 172.291 40.4448L184.423 59.8937Z" stroke="white" stroke-opacity="0.5" stroke-width="4.00872"/>
<path d="M202.176 52.0454L203.859 49.3462L205.567 52.0301L217.898 71.4074C219.508 73.936 223.278 73.6782 224.528 70.9541C225.056 69.8038 224.973 68.4658 224.309 67.3889L207.531 40.2186C205.853 37.5007 201.9 37.5007 200.222 40.2186L183.44 67.3956C182.769 68.4823 182.675 69.8293 183.188 70.9988C184.443 73.8601 188.391 74.1453 190.044 71.4943L202.176 52.0454Z" stroke="#59DBAE" stroke-width="4.00872"/>
<path d="M135.247 108.7C134.218 108.7 133.31 108.573 132.521 108.319C131.733 108.052 131.065 107.658 130.517 107.137C129.982 106.616 129.575 105.968 129.294 105.193C129.027 104.404 128.893 103.496 128.893 102.467V96.0327C128.893 95.418 129.054 94.957 129.374 94.6496C129.695 94.3289 130.149 94.1686 130.737 94.1686C131.339 94.1686 131.793 94.3289 132.1 94.6496C132.421 94.957 132.581 95.418 132.581 96.0327V102.507C132.581 103.536 132.809 104.311 133.263 104.832C133.717 105.353 134.379 105.614 135.247 105.614C136.102 105.614 136.757 105.353 137.211 104.832C137.666 104.311 137.893 103.536 137.893 102.507V96.0327C137.893 95.418 138.047 94.957 138.354 94.6496C138.675 94.3289 139.129 94.1686 139.717 94.1686C140.305 94.1686 140.752 94.3289 141.06 94.6496C141.367 94.957 141.521 95.418 141.521 96.0327V102.467C141.521 103.843 141.28 104.999 140.799 105.934C140.332 106.856 139.63 107.551 138.695 108.019C137.759 108.473 136.61 108.7 135.247 108.7ZM153.571 108.66C152.983 108.66 152.528 108.5 152.208 108.179C151.887 107.845 151.727 107.384 151.727 106.796V96.213C151.727 95.6117 151.887 95.1507 152.208 94.83C152.542 94.5093 153.003 94.349 153.591 94.349H158.521C160.125 94.349 161.361 94.7632 162.229 95.5917C163.111 96.4068 163.552 97.5359 163.552 98.9791C163.552 100.422 163.111 101.558 162.229 102.386C161.361 103.202 160.125 103.609 158.521 103.609H155.415V106.796C155.415 107.384 155.261 107.845 154.954 108.179C154.646 108.5 154.185 108.66 153.571 108.66ZM155.415 100.783H157.88C158.575 100.783 159.109 100.636 159.483 100.342C159.858 100.035 160.045 99.5804 160.045 98.9791C160.045 98.3644 159.858 97.9101 159.483 97.6161C159.109 97.3221 158.575 97.1751 157.88 97.1751H155.415V100.783Z" fill="#59DBAE"/>
<path d="M173.807 108.48C173.513 108.48 173.285 108.406 173.125 108.259C172.978 108.099 172.905 107.872 172.905 107.578V95.251C172.905 94.957 172.978 94.7365 173.125 94.5895C173.285 94.4292 173.513 94.349 173.807 94.349H177.675C179.96 94.349 181.724 94.9503 182.966 96.1529C184.209 97.3555 184.83 99.106 184.83 101.404C184.83 102.554 184.67 103.569 184.349 104.451C184.042 105.32 183.581 106.054 182.966 106.656C182.352 107.257 181.603 107.711 180.722 108.019C179.84 108.326 178.824 108.48 177.675 108.48H173.807ZM174.548 107.077H177.555C178.49 107.077 179.298 106.956 179.98 106.716C180.675 106.475 181.249 106.121 181.704 105.654C182.171 105.186 182.519 104.598 182.746 103.89C182.973 103.168 183.087 102.34 183.087 101.404C183.087 99.5202 182.626 98.1105 181.704 97.1751C180.782 96.2264 179.399 95.752 177.555 95.752H174.548V107.077ZM200.885 108.66C199.576 108.66 198.433 108.366 197.458 107.778C196.496 107.177 195.748 106.335 195.213 105.253C194.692 104.17 194.431 102.888 194.431 101.404C194.431 100.282 194.578 99.2797 194.872 98.3978C195.18 97.5025 195.614 96.7475 196.175 96.1329C196.736 95.5048 197.411 95.0238 198.2 94.6897C199.001 94.3423 199.897 94.1686 200.885 94.1686C202.222 94.1686 203.371 94.4626 204.333 95.0505C205.308 95.6385 206.057 96.4736 206.578 97.556C207.112 98.625 207.38 99.9011 207.38 101.384C207.38 102.507 207.226 103.516 206.919 104.411C206.611 105.306 206.177 106.068 205.616 106.696C205.054 107.324 204.373 107.812 203.571 108.159C202.783 108.493 201.888 108.66 200.885 108.66ZM200.885 107.197C201.901 107.197 202.756 106.97 203.451 106.515C204.159 106.061 204.7 105.4 205.075 104.531C205.449 103.663 205.636 102.62 205.636 101.404C205.636 99.5737 205.222 98.1573 204.393 97.1551C203.578 96.1396 202.409 95.6318 200.885 95.6318C199.897 95.6318 199.048 95.8589 198.34 96.3133C197.645 96.7676 197.111 97.429 196.736 98.2976C196.362 99.1528 196.175 100.188 196.175 101.404C196.175 103.222 196.589 104.645 197.418 105.674C198.246 106.689 199.402 107.197 200.885 107.197ZM222.02 108.62C221.779 108.62 221.585 108.56 221.438 108.44C221.291 108.306 221.171 108.112 221.078 107.858L216.648 95.2109C216.554 94.9303 216.575 94.6964 216.708 94.5093C216.855 94.3089 217.082 94.2087 217.39 94.2087C217.617 94.2087 217.797 94.2688 217.931 94.3891C218.064 94.496 218.178 94.6697 218.272 94.9102L222.421 107.077H221.719L225.948 94.9703C226.042 94.7165 226.155 94.5294 226.289 94.4091C226.423 94.2755 226.603 94.2087 226.83 94.2087C227.044 94.2087 227.211 94.2755 227.331 94.4091C227.465 94.5294 227.578 94.7165 227.672 94.9703L231.841 107.077H231.22L235.409 94.9102C235.476 94.6831 235.576 94.5093 235.709 94.3891C235.856 94.2688 236.044 94.2087 236.271 94.2087C236.551 94.2087 236.758 94.3022 236.892 94.4893C237.026 94.6764 237.039 94.9169 236.932 95.2109L232.482 107.858C232.389 108.112 232.269 108.306 232.122 108.44C231.988 108.56 231.794 108.62 231.54 108.62C231.3 108.62 231.106 108.56 230.959 108.44C230.826 108.306 230.705 108.112 230.598 107.858L226.57 96.2531H227.011L222.942 107.858C222.848 108.112 222.735 108.306 222.601 108.44C222.467 108.56 222.274 108.62 222.02 108.62ZM247.503 108.62C247.249 108.62 247.055 108.553 246.922 108.42C246.788 108.273 246.721 108.066 246.721 107.798V95.0505C246.721 94.7833 246.788 94.5762 246.922 94.4292C247.055 94.2822 247.229 94.2087 247.443 94.2087C247.657 94.2087 247.81 94.2488 247.904 94.329C248.011 94.3958 248.131 94.5227 248.265 94.7098L257.004 106.355H256.523V95.0104C256.523 94.7565 256.59 94.5628 256.723 94.4292C256.857 94.2822 257.051 94.2087 257.304 94.2087C257.545 94.2087 257.725 94.2822 257.846 94.4292C257.979 94.5628 258.046 94.7565 258.046 95.0104V107.818C258.046 108.072 257.986 108.273 257.866 108.42C257.759 108.553 257.598 108.62 257.385 108.62C257.184 108.62 257.024 108.58 256.904 108.5C256.783 108.42 256.656 108.293 256.523 108.119L247.804 96.4736H248.265V107.798C248.265 108.066 248.198 108.273 248.064 108.42C247.931 108.553 247.744 108.62 247.503 108.62Z" fill="#F5F4F4"/>
<rect width="390" height="70" transform="translate(0 774)" fill="#00303F"/>
<path d="M78 826.5V814.147H85V826.5H93.75V810.029H99L81.5 791.5L64 810.029H69.25V826.5H78Z" fill="white" fill-opacity="0.25"/>
<path d="M179 802H186.5V826.5H179V802ZM193 791.5H200V826.5H193V791.5ZM207 811.5H214V826.5H207V811.5Z" fill="#59DBAE"/>
<path d="M310 788C315.744 788 320.562 792.092 321.754 797.574L317.844 798.426C317.035 794.708 313.856 792 310 792C305.448 792 302 795.448 302 800V802H322C324.2 802 326 803.8 326 806V826C326 828.2 324.2 830 322 830H298C295.8 830 294 828.2 294 826V806C294 803.8 295.8 802 298 802V800C298 793.352 303.352 788 310 788ZM310 812C307.8 812 306 813.8 306 816C306 818.2 307.8 820 310 820C312.2 820 314 818.2 314 816C314 813.8 312.2 812 310 812Z" fill="white" fill-opacity="0.25"/>
<rect x="24.5" y="208.5" width="164" height="86" rx="4.5" fill="white"/>
<path d="M47.648 237.084C47.464 237.084 47.324 237.036 47.228 236.94C47.132 236.836 47.084 236.692 47.084 236.508V229.488H44.456C44.304 229.488 44.184 229.448 44.096 229.368C44.008 229.28 43.964 229.16 43.964 229.008C43.964 228.856 44.008 228.74 44.096 228.66C44.184 228.58 44.304 228.54 44.456 228.54H50.828C50.988 228.54 51.108 228.58 51.188 228.66C51.276 228.74 51.32 228.856 51.32 229.008C51.32 229.16 51.276 229.28 51.188 229.368C51.108 229.448 50.988 229.488 50.828 229.488H48.2V236.508C48.2 236.692 48.152 236.836 48.056 236.94C47.968 237.036 47.832 237.084 47.648 237.084ZM52.8611 237.084C52.6851 237.084 52.5491 237.036 52.4531 236.94C52.3571 236.836 52.3091 236.692 52.3091 236.508V229.104C52.3091 228.92 52.3571 228.78 52.4531 228.684C52.5571 228.588 52.6971 228.54 52.8731 228.54H55.7291C56.6411 228.54 57.3411 228.756 57.8291 229.188C58.3251 229.612 58.5731 230.216 58.5731 231C58.5731 231.512 58.4611 231.952 58.2371 232.32C58.0131 232.68 57.6891 232.956 57.2651 233.148C56.8411 233.34 56.3291 233.436 55.7291 233.436L55.8491 233.268H56.1131C56.4331 233.268 56.7091 233.348 56.9411 233.508C57.1811 233.668 57.3931 233.924 57.5771 234.276L58.6811 236.304C58.7531 236.432 58.7851 236.556 58.7771 236.676C58.7691 236.796 58.7251 236.896 58.6451 236.976C58.5651 237.048 58.4491 237.084 58.2971 237.084C58.1371 237.084 58.0091 237.052 57.9131 236.988C57.8171 236.916 57.7331 236.812 57.6611 236.676L56.3651 234.3C56.1891 233.964 55.9891 233.744 55.7651 233.64C55.5411 233.528 55.2411 233.472 54.8651 233.472H53.4251V236.508C53.4251 236.692 53.3771 236.836 53.2811 236.94C53.1931 237.036 53.0531 237.084 52.8611 237.084ZM53.4251 232.608H55.5491C56.1891 232.608 56.6691 232.476 56.9891 232.212C57.3091 231.94 57.4691 231.544 57.4691 231.024C57.4691 230.504 57.3091 230.112 56.9891 229.848C56.6691 229.584 56.1891 229.452 55.5491 229.452H53.4251V232.608ZM60.1227 237.084C59.9787 237.084 59.8627 237.052 59.7747 236.988C59.6947 236.924 59.6467 236.836 59.6307 236.724C59.6147 236.612 59.6387 236.488 59.7027 236.352L62.9787 228.936C63.0507 228.768 63.1427 228.648 63.2547 228.576C63.3667 228.496 63.4907 228.456 63.6267 228.456C63.7627 228.456 63.8827 228.496 63.9867 228.576C64.0987 228.648 64.1947 228.768 64.2747 228.936L67.5507 236.352C67.6147 236.488 67.6387 236.616 67.6227 236.736C67.6147 236.848 67.5707 236.936 67.4907 237C67.4107 237.056 67.2987 237.084 67.1547 237.084C66.9947 237.084 66.8667 237.044 66.7707 236.964C66.6747 236.876 66.5907 236.752 66.5187 236.592L65.6667 234.6L66.1827 234.888H61.0467L61.5627 234.6L60.7107 236.592C60.6387 236.768 60.5587 236.896 60.4707 236.976C60.3827 237.048 60.2667 237.084 60.1227 237.084ZM63.6027 229.8L61.7307 234.228L61.4427 233.976H65.7867L65.5107 234.228L63.6267 229.8H63.6027ZM71.5315 237.084C71.3635 237.084 71.2275 237.048 71.1235 236.976C71.0195 236.896 70.9315 236.776 70.8595 236.616L67.6075 229.188C67.5435 229.036 67.5235 228.908 67.5475 228.804C67.5795 228.692 67.6395 228.608 67.7275 228.552C67.8235 228.488 67.9355 228.456 68.0635 228.456C68.2315 228.456 68.3555 228.492 68.4355 228.564C68.5235 228.636 68.5995 228.744 68.6635 228.888L71.7595 236.076H71.3395L74.4235 228.888C74.4875 228.744 74.5635 228.636 74.6515 228.564C74.7395 228.492 74.8635 228.456 75.0235 228.456C75.1515 228.456 75.2555 228.488 75.3355 228.552C75.4235 228.616 75.4755 228.704 75.4915 228.816C75.5155 228.92 75.4995 229.044 75.4435 229.188L72.1795 236.616C72.1155 236.776 72.0315 236.896 71.9275 236.976C71.8315 237.048 71.6995 237.084 71.5315 237.084ZM77.3075 237C77.1155 237 76.9675 236.948 76.8635 236.844C76.7595 236.74 76.7075 236.592 76.7075 236.4V229.14C76.7075 228.948 76.7595 228.8 76.8635 228.696C76.9675 228.592 77.1155 228.54 77.3075 228.54H81.7235C81.8755 228.54 81.9915 228.58 82.0715 228.66C82.1595 228.732 82.2035 228.84 82.2035 228.984C82.2035 229.136 82.1595 229.252 82.0715 229.332C81.9915 229.412 81.8755 229.452 81.7235 229.452H77.7875V232.248H81.4715C81.6235 232.248 81.7395 232.288 81.8195 232.368C81.8995 232.448 81.9395 232.56 81.9395 232.704C81.9395 232.856 81.8995 232.972 81.8195 233.052C81.7395 233.124 81.6235 233.16 81.4715 233.16H77.7875V236.088H81.7235C81.8755 236.088 81.9915 236.128 82.0715 236.208C82.1595 236.28 82.2035 236.392 82.2035 236.544C82.2035 236.696 82.1595 236.812 82.0715 236.892C81.9915 236.964 81.8755 237 81.7235 237H77.3075ZM84.3027 237C84.1268 237 83.9868 236.948 83.8828 236.844C83.7868 236.74 83.7388 236.6 83.7388 236.424V229.056C83.7388 228.872 83.7868 228.732 83.8828 228.636C83.9788 228.54 84.1148 228.492 84.2908 228.492C84.4748 228.492 84.6148 228.54 84.7108 228.636C84.8068 228.732 84.8548 228.872 84.8548 229.056V236.04H88.6708C88.8388 236.04 88.9628 236.08 89.0428 236.16C89.1308 236.24 89.1748 236.356 89.1748 236.508C89.1748 236.668 89.1308 236.792 89.0428 236.88C88.9628 236.96 88.8388 237 88.6708 237H84.3027ZM97.1619 237.108C96.3219 237.108 95.6019 236.932 95.0019 236.58C94.4019 236.228 93.9379 235.728 93.6099 235.08C93.2899 234.424 93.1299 233.652 93.1299 232.764C93.1299 232.1 93.2219 231.504 93.4059 230.976C93.5899 230.44 93.8539 229.984 94.1979 229.608C94.5419 229.224 94.9619 228.932 95.4579 228.732C95.9619 228.532 96.5299 228.432 97.1619 228.432C97.6419 228.432 98.1019 228.5 98.5419 228.636C98.9899 228.772 99.3739 228.964 99.6939 229.212C99.8219 229.3 99.9059 229.4 99.9459 229.512C99.9859 229.624 99.9899 229.732 99.9579 229.836C99.9339 229.932 99.8819 230.016 99.8019 230.088C99.7299 230.152 99.6379 230.188 99.5259 230.196C99.4139 230.196 99.2939 230.152 99.1659 230.064C98.8859 229.848 98.5779 229.692 98.2419 229.596C97.9139 229.492 97.5619 229.44 97.1859 229.44C96.5699 229.44 96.0459 229.572 95.6139 229.836C95.1899 230.092 94.8659 230.468 94.6419 230.964C94.4259 231.452 94.3179 232.052 94.3179 232.764C94.3179 233.468 94.4259 234.072 94.6419 234.576C94.8659 235.072 95.1899 235.452 95.6139 235.716C96.0459 235.972 96.5699 236.1 97.1859 236.1C97.5619 236.1 97.9179 236.048 98.2539 235.944C98.5979 235.84 98.9139 235.68 99.2019 235.464C99.3299 235.376 99.4459 235.336 99.5499 235.344C99.6619 235.352 99.7539 235.388 99.8259 235.452C99.8979 235.508 99.9459 235.588 99.9699 235.692C100.002 235.788 100.002 235.888 99.9699 235.992C99.9379 236.096 99.8659 236.188 99.7539 236.268C99.4259 236.548 99.0339 236.76 98.5779 236.904C98.1299 237.04 97.6579 237.108 97.1619 237.108ZM104.894 237.108C104.094 237.108 103.402 236.932 102.818 236.58C102.234 236.22 101.778 235.716 101.45 235.068C101.13 234.412 100.97 233.644 100.97 232.764C100.97 232.1 101.062 231.504 101.246 230.976C101.43 230.44 101.69 229.984 102.026 229.608C102.37 229.224 102.782 228.932 103.262 228.732C103.75 228.532 104.294 228.432 104.894 228.432C105.694 228.432 106.386 228.608 106.97 228.96C107.554 229.312 108.006 229.812 108.326 230.46C108.646 231.108 108.806 231.872 108.806 232.752C108.806 233.416 108.714 234.016 108.53 234.552C108.346 235.088 108.082 235.548 107.738 235.932C107.402 236.316 106.994 236.608 106.514 236.808C106.034 237.008 105.494 237.108 104.894 237.108ZM104.894 236.124C105.47 236.124 105.962 235.992 106.37 235.728C106.778 235.464 107.09 235.08 107.306 234.576C107.53 234.072 107.642 233.468 107.642 232.764C107.642 231.7 107.402 230.876 106.922 230.292C106.45 229.708 105.774 229.416 104.894 229.416C104.318 229.416 103.822 229.548 103.406 229.812C102.998 230.068 102.686 230.448 102.47 230.952C102.254 231.448 102.146 232.052 102.146 232.764C102.146 233.82 102.386 234.644 102.866 235.236C103.346 235.828 104.022 236.124 104.894 236.124ZM113.312 237.108C112.936 237.108 112.572 237.076 112.22 237.012C111.868 236.956 111.536 236.868 111.224 236.748C110.912 236.628 110.632 236.48 110.384 236.304C110.28 236.232 110.204 236.144 110.156 236.04C110.116 235.936 110.104 235.836 110.12 235.74C110.144 235.636 110.188 235.548 110.252 235.476C110.324 235.404 110.408 235.36 110.504 235.344C110.6 235.328 110.704 235.36 110.816 235.44C111.184 235.688 111.568 235.868 111.968 235.98C112.376 236.092 112.824 236.148 113.312 236.148C114.016 236.148 114.532 236.02 114.86 235.764C115.196 235.508 115.364 235.172 115.364 234.756C115.364 234.412 115.244 234.144 115.004 233.952C114.764 233.752 114.36 233.596 113.792 233.484L112.52 233.22C111.768 233.06 111.204 232.796 110.828 232.428C110.46 232.06 110.276 231.568 110.276 230.952C110.276 230.576 110.352 230.236 110.504 229.932C110.656 229.62 110.872 229.352 111.152 229.128C111.432 228.904 111.76 228.732 112.136 228.612C112.52 228.492 112.944 228.432 113.408 228.432C113.904 228.432 114.368 228.5 114.8 228.636C115.24 228.772 115.636 228.972 115.988 229.236C116.084 229.308 116.148 229.396 116.18 229.5C116.212 229.596 116.216 229.692 116.192 229.788C116.176 229.884 116.132 229.964 116.06 230.028C115.996 230.092 115.912 230.128 115.808 230.136C115.712 230.144 115.604 230.108 115.484 230.028C115.164 229.804 114.836 229.644 114.5 229.548C114.164 229.444 113.796 229.392 113.396 229.392C112.988 229.392 112.632 229.456 112.328 229.584C112.032 229.712 111.8 229.892 111.632 230.124C111.472 230.348 111.392 230.612 111.392 230.916C111.392 231.284 111.504 231.572 111.728 231.78C111.952 231.988 112.328 232.148 112.856 232.26L114.116 232.512C114.916 232.68 115.508 232.94 115.892 233.292C116.284 233.636 116.48 234.1 116.48 234.684C116.48 235.052 116.404 235.384 116.252 235.68C116.108 235.976 115.9 236.232 115.628 236.448C115.356 236.656 115.024 236.82 114.632 236.94C114.24 237.052 113.8 237.108 113.312 237.108ZM120.41 237.084C120.226 237.084 120.086 237.036 119.99 236.94C119.894 236.836 119.846 236.692 119.846 236.508V229.488H117.218C117.066 229.488 116.946 229.448 116.858 229.368C116.77 229.28 116.726 229.16 116.726 229.008C116.726 228.856 116.77 228.74 116.858 228.66C116.946 228.58 117.066 228.54 117.218 228.54H123.59C123.75 228.54 123.87 228.58 123.95 228.66C124.038 228.74 124.082 228.856 124.082 229.008C124.082 229.16 124.038 229.28 123.95 229.368C123.87 229.448 123.75 229.488 123.59 229.488H120.962V236.508C120.962 236.692 120.914 236.836 120.818 236.94C120.73 237.036 120.594 237.084 120.41 237.084Z" fill="#00303F"/>
<path d="M53.888 275.968C53.2693 275.968 52.7467 275.755 52.32 275.328C51.8933 274.901 51.68 274.368 51.68 273.728V271.36L52.64 272.224C51.2107 272.16 49.9733 271.979 48.928 271.68C47.8827 271.381 47.0293 271.083 46.368 270.784C45.8133 270.528 45.4187 270.165 45.184 269.696C44.9707 269.227 44.8853 268.747 44.928 268.256C44.992 267.765 45.1733 267.317 45.472 266.912C45.7707 266.507 46.1547 266.24 46.624 266.112C47.1147 265.963 47.68 266.027 48.32 266.304C48.7467 266.539 49.3867 266.784 50.24 267.04C51.1147 267.275 52.192 267.392 53.472 267.392C54.368 267.392 55.072 267.307 55.584 267.136C56.1173 266.965 56.4907 266.741 56.704 266.464C56.9387 266.165 57.056 265.845 57.056 265.504C57.056 265.184 56.9707 264.917 56.8 264.704C56.6507 264.469 56.3947 264.267 56.032 264.096C55.6693 263.904 55.168 263.733 54.528 263.584L50.912 262.816C48.928 262.368 47.4453 261.621 46.464 260.576C45.504 259.509 45.024 258.133 45.024 256.448C45.024 255.168 45.3333 254.027 45.952 253.024C46.592 252 47.4773 251.168 48.608 250.528C49.76 249.888 51.104 249.483 52.64 249.312L51.68 249.856V247.712C51.68 247.072 51.8933 246.539 52.32 246.112C52.7467 245.685 53.2693 245.472 53.888 245.472C54.528 245.472 55.0613 245.685 55.488 246.112C55.9147 246.539 56.128 247.072 56.128 247.712V249.856L55.168 249.248C55.9787 249.269 56.8533 249.408 57.792 249.664C58.7307 249.899 59.552 250.229 60.256 250.656C60.7467 250.912 61.088 251.264 61.28 251.712C61.4933 252.16 61.568 252.619 61.504 253.088C61.4613 253.536 61.2907 253.941 60.992 254.304C60.7147 254.667 60.3307 254.912 59.84 255.04C59.3707 255.147 58.8053 255.061 58.144 254.784C57.6533 254.571 57.0987 254.4 56.48 254.272C55.8827 254.123 55.1147 254.048 54.176 254.048C53.0453 254.048 52.1707 254.251 51.552 254.656C50.9547 255.061 50.656 255.584 50.656 256.224C50.656 256.651 50.8267 257.013 51.168 257.312C51.5307 257.589 52.1813 257.835 53.12 258.048L56.768 258.848C58.7947 259.296 60.288 260.043 61.248 261.088C62.2293 262.112 62.72 263.445 62.72 265.088C62.72 266.368 62.4107 267.499 61.792 268.48C61.1733 269.461 60.3093 270.261 59.2 270.88C58.112 271.499 56.8427 271.904 55.392 272.096L56.128 271.328V273.728C56.128 274.368 55.9147 274.901 55.488 275.328C55.0827 275.755 54.5493 275.968 53.888 275.968ZM72.7875 272.352C70.0142 272.352 67.8808 271.339 66.3875 269.312C64.9155 267.264 64.1795 264.373 64.1795 260.64C64.1795 258.123 64.5102 256.011 65.1715 254.304C65.8328 252.576 66.8035 251.275 68.0835 250.4C69.3635 249.525 70.9315 249.088 72.7875 249.088C75.5822 249.088 77.7155 250.069 79.1875 252.032C80.6595 253.995 81.3955 256.853 81.3955 260.608C81.3955 263.104 81.0648 265.227 80.4035 266.976C79.7422 268.725 78.7715 270.059 77.4915 270.976C76.2115 271.893 74.6435 272.352 72.7875 272.352ZM72.7875 267.68C73.8115 267.68 74.5688 267.125 75.0595 266.016C75.5715 264.885 75.8275 263.083 75.8275 260.608C75.8275 258.155 75.5715 256.405 75.0595 255.36C74.5688 254.293 73.8115 253.76 72.7875 253.76C71.7635 253.76 70.9955 254.293 70.4835 255.36C69.9928 256.405 69.7475 258.155 69.7475 260.608C69.7475 263.083 69.9928 264.885 70.4835 266.016C70.9955 267.125 71.7635 267.68 72.7875 267.68ZM86.727 272.192C85.767 272.192 84.999 271.904 84.423 271.328C83.8683 270.752 83.591 269.995 83.591 269.056C83.591 268.139 83.8683 267.403 84.423 266.848C84.999 266.272 85.767 265.984 86.727 265.984C87.7297 265.984 88.4977 266.272 89.031 266.848C89.5857 267.403 89.863 268.139 89.863 269.056C89.863 269.995 89.5857 270.752 89.031 271.328C88.4977 271.904 87.7297 272.192 86.727 272.192ZM104.086 272.288C103.19 272.288 102.486 272.043 101.974 271.552C101.483 271.061 101.238 270.336 101.238 269.376V268.224H94.8058C93.8671 268.224 93.1311 268.011 92.5978 267.584C92.0858 267.157 91.8298 266.507 91.8298 265.632C91.8298 265.12 91.9258 264.629 92.1178 264.16C92.3098 263.669 92.6511 263.083 93.1418 262.4L100.95 251.008C101.376 250.368 101.856 249.899 102.39 249.6C102.923 249.301 103.552 249.152 104.278 249.152C105.088 249.152 105.728 249.397 106.198 249.888C106.667 250.357 106.902 251.083 106.902 252.064V263.776H107.67C108.48 263.776 109.088 263.968 109.494 264.352C109.92 264.736 110.134 265.28 110.134 265.984C110.134 266.709 109.92 267.264 109.494 267.648C109.088 268.032 108.48 268.224 107.67 268.224H106.902V269.376C106.902 270.315 106.656 271.04 106.166 271.552C105.696 272.043 105.003 272.288 104.086 272.288ZM101.238 263.776V256.224H102.134L96.1178 265.152V263.776H101.238Z" fill="#00303F"/>
<rect x="24.5" y="208.5" width="164" height="86" rx="4.5" stroke="#C5C5C5"/>
<rect x="201.5" y="208.5" width="164" height="86" rx="4.5" fill="white"/>
<path d="M224.648 237.084C224.464 237.084 224.324 237.036 224.228 236.94C224.132 236.836 224.084 236.692 224.084 236.508V229.488H221.456C221.304 229.488 221.184 229.448 221.096 229.368C221.008 229.28 220.964 229.16 220.964 229.008C220.964 228.856 221.008 228.74 221.096 228.66C221.184 228.58 221.304 228.54 221.456 228.54H227.828C227.988 228.54 228.108 228.58 228.188 228.66C228.276 228.74 228.32 228.856 228.32 229.008C228.32 229.16 228.276 229.28 228.188 229.368C228.108 229.448 227.988 229.488 227.828 229.488H225.2V236.508C225.2 236.692 225.152 236.836 225.056 236.94C224.968 237.036 224.832 237.084 224.648 237.084ZM229.861 237.084C229.685 237.084 229.549 237.036 229.453 236.94C229.357 236.836 229.309 236.692 229.309 236.508V229.104C229.309 228.92 229.357 228.78 229.453 228.684C229.557 228.588 229.697 228.54 229.873 228.54H232.729C233.641 228.54 234.341 228.756 234.829 229.188C235.325 229.612 235.573 230.216 235.573 231C235.573 231.512 235.461 231.952 235.237 232.32C235.013 232.68 234.689 232.956 234.265 233.148C233.841 233.34 233.329 233.436 232.729 233.436L232.849 233.268H233.113C233.433 233.268 233.709 233.348 233.941 233.508C234.181 233.668 234.393 233.924 234.577 234.276L235.681 236.304C235.753 236.432 235.785 236.556 235.777 236.676C235.769 236.796 235.725 236.896 235.645 236.976C235.565 237.048 235.449 237.084 235.297 237.084C235.137 237.084 235.009 237.052 234.913 236.988C234.817 236.916 234.733 236.812 234.661 236.676L233.365 234.3C233.189 233.964 232.989 233.744 232.765 233.64C232.541 233.528 232.241 233.472 231.865 233.472H230.425V236.508C230.425 236.692 230.377 236.836 230.281 236.94C230.193 237.036 230.053 237.084 229.861 237.084ZM230.425 232.608H232.549C233.189 232.608 233.669 232.476 233.989 232.212C234.309 231.94 234.469 231.544 234.469 231.024C234.469 230.504 234.309 230.112 233.989 229.848C233.669 229.584 233.189 229.452 232.549 229.452H230.425V232.608ZM237.123 237.084C236.979 237.084 236.863 237.052 236.775 236.988C236.695 236.924 236.647 236.836 236.631 236.724C236.615 236.612 236.639 236.488 236.703 236.352L239.979 228.936C240.051 228.768 240.143 228.648 240.255 228.576C240.367 228.496 240.491 228.456 240.627 228.456C240.763 228.456 240.883 228.496 240.987 228.576C241.099 228.648 241.195 228.768 241.275 228.936L244.551 236.352C244.615 236.488 244.639 236.616 244.623 236.736C244.615 236.848 244.571 236.936 244.491 237C244.411 237.056 244.299 237.084 244.155 237.084C243.995 237.084 243.867 237.044 243.771 236.964C243.675 236.876 243.591 236.752 243.519 236.592L242.667 234.6L243.183 234.888H238.047L238.563 234.6L237.711 236.592C237.639 236.768 237.559 236.896 237.471 236.976C237.383 237.048 237.267 237.084 237.123 237.084ZM240.603 229.8L238.731 234.228L238.443 233.976H242.787L242.511 234.228L240.627 229.8H240.603ZM248.531 237.084C248.363 237.084 248.227 237.048 248.123 236.976C248.019 236.896 247.931 236.776 247.859 236.616L244.607 229.188C244.543 229.036 244.523 228.908 244.547 228.804C244.579 228.692 244.639 228.608 244.727 228.552C244.823 228.488 244.935 228.456 245.063 228.456C245.231 228.456 245.355 228.492 245.435 228.564C245.523 228.636 245.599 228.744 245.663 228.888L248.759 236.076H248.339L251.423 228.888C251.487 228.744 251.563 228.636 251.651 228.564C251.739 228.492 251.863 228.456 252.023 228.456C252.151 228.456 252.255 228.488 252.335 228.552C252.423 228.616 252.475 228.704 252.491 228.816C252.515 228.92 252.499 229.044 252.443 229.188L249.179 236.616C249.115 236.776 249.031 236.896 248.927 236.976C248.831 237.048 248.699 237.084 248.531 237.084ZM254.308 237C254.116 237 253.968 236.948 253.864 236.844C253.76 236.74 253.708 236.592 253.708 236.4V229.14C253.708 228.948 253.76 228.8 253.864 228.696C253.968 228.592 254.116 228.54 254.308 228.54H258.724C258.876 228.54 258.992 228.58 259.072 228.66C259.16 228.732 259.204 228.84 259.204 228.984C259.204 229.136 259.16 229.252 259.072 229.332C258.992 229.412 258.876 229.452 258.724 229.452H254.788V232.248H258.472C258.624 232.248 258.74 232.288 258.82 232.368C258.9 232.448 258.94 232.56 258.94 232.704C258.94 232.856 258.9 232.972 258.82 233.052C258.74 233.124 258.624 233.16 258.472 233.16H254.788V236.088H258.724C258.876 236.088 258.992 236.128 259.072 236.208C259.16 236.28 259.204 236.392 259.204 236.544C259.204 236.696 259.16 236.812 259.072 236.892C258.992 236.964 258.876 237 258.724 237H254.308ZM261.303 237C261.127 237 260.987 236.948 260.883 236.844C260.787 236.74 260.739 236.6 260.739 236.424V229.056C260.739 228.872 260.787 228.732 260.883 228.636C260.979 228.54 261.115 228.492 261.291 228.492C261.475 228.492 261.615 228.54 261.711 228.636C261.807 228.732 261.855 228.872 261.855 229.056V236.04H265.671C265.839 236.04 265.963 236.08 266.043 236.16C266.131 236.24 266.175 236.356 266.175 236.508C266.175 236.668 266.131 236.792 266.043 236.88C265.963 236.96 265.839 237 265.671 237H261.303ZM274.162 237.108C273.322 237.108 272.602 236.932 272.002 236.58C271.402 236.228 270.938 235.728 270.61 235.08C270.29 234.424 270.13 233.652 270.13 232.764C270.13 232.1 270.222 231.504 270.406 230.976C270.59 230.44 270.854 229.984 271.198 229.608C271.542 229.224 271.962 228.932 272.458 228.732C272.962 228.532 273.53 228.432 274.162 228.432C274.642 228.432 275.102 228.5 275.542 228.636C275.99 228.772 276.374 228.964 276.694 229.212C276.822 229.3 276.906 229.4 276.946 229.512C276.986 229.624 276.99 229.732 276.958 229.836C276.934 229.932 276.882 230.016 276.802 230.088C276.73 230.152 276.638 230.188 276.526 230.196C276.414 230.196 276.294 230.152 276.166 230.064C275.886 229.848 275.578 229.692 275.242 229.596C274.914 229.492 274.562 229.44 274.186 229.44C273.57 229.44 273.046 229.572 272.614 229.836C272.19 230.092 271.866 230.468 271.642 230.964C271.426 231.452 271.318 232.052 271.318 232.764C271.318 233.468 271.426 234.072 271.642 234.576C271.866 235.072 272.19 235.452 272.614 235.716C273.046 235.972 273.57 236.1 274.186 236.1C274.562 236.1 274.918 236.048 275.254 235.944C275.598 235.84 275.914 235.68 276.202 235.464C276.33 235.376 276.446 235.336 276.55 235.344C276.662 235.352 276.754 235.388 276.826 235.452C276.898 235.508 276.946 235.588 276.97 235.692C277.002 235.788 277.002 235.888 276.97 235.992C276.938 236.096 276.866 236.188 276.754 236.268C276.426 236.548 276.034 236.76 275.578 236.904C275.13 237.04 274.658 237.108 274.162 237.108ZM281.894 237.108C281.094 237.108 280.402 236.932 279.818 236.58C279.234 236.22 278.778 235.716 278.45 235.068C278.13 234.412 277.97 233.644 277.97 232.764C277.97 232.1 278.062 231.504 278.246 230.976C278.43 230.44 278.69 229.984 279.026 229.608C279.37 229.224 279.782 228.932 280.262 228.732C280.75 228.532 281.294 228.432 281.894 228.432C282.694 228.432 283.386 228.608 283.97 228.96C284.554 229.312 285.006 229.812 285.326 230.46C285.646 231.108 285.806 231.872 285.806 232.752C285.806 233.416 285.714 234.016 285.53 234.552C285.346 235.088 285.082 235.548 284.738 235.932C284.402 236.316 283.994 236.608 283.514 236.808C283.034 237.008 282.494 237.108 281.894 237.108ZM281.894 236.124C282.47 236.124 282.962 235.992 283.37 235.728C283.778 235.464 284.09 235.08 284.306 234.576C284.53 234.072 284.642 233.468 284.642 232.764C284.642 231.7 284.402 230.876 283.922 230.292C283.45 229.708 282.774 229.416 281.894 229.416C281.318 229.416 280.822 229.548 280.406 229.812C279.998 230.068 279.686 230.448 279.47 230.952C279.254 231.448 279.146 232.052 279.146 232.764C279.146 233.82 279.386 234.644 279.866 235.236C280.346 235.828 281.022 236.124 281.894 236.124ZM290.912 237.108C290.352 237.108 289.856 237.036 289.424 236.892C289 236.74 288.644 236.52 288.356 236.232C288.068 235.936 287.848 235.572 287.696 235.14C287.552 234.7 287.48 234.192 287.48 233.616V229.02C287.48 228.828 287.528 228.688 287.624 228.6C287.72 228.504 287.856 228.456 288.032 228.456C288.216 228.456 288.356 228.504 288.452 228.6C288.548 228.688 288.596 228.828 288.596 229.02V233.58C288.596 234.436 288.792 235.076 289.184 235.5C289.576 235.916 290.152 236.124 290.912 236.124C291.672 236.124 292.248 235.916 292.64 235.5C293.032 235.076 293.228 234.436 293.228 233.58V229.02C293.228 228.828 293.276 228.688 293.372 228.6C293.468 228.504 293.604 228.456 293.78 228.456C293.956 228.456 294.092 228.504 294.188 228.6C294.284 228.688 294.332 228.828 294.332 229.02V233.616C294.332 234.376 294.2 235.016 293.936 235.536C293.68 236.056 293.296 236.448 292.784 236.712C292.28 236.976 291.656 237.108 290.912 237.108ZM296.833 237.084C296.673 237.084 296.545 237.036 296.449 236.94C296.361 236.844 296.317 236.712 296.317 236.544V229.02C296.317 228.836 296.361 228.696 296.449 228.6C296.537 228.504 296.653 228.456 296.797 228.456C296.933 228.456 297.037 228.48 297.109 228.528C297.181 228.576 297.261 228.66 297.349 228.78L302.437 235.524H302.137V228.996C302.137 228.82 302.181 228.688 302.269 228.6C302.365 228.504 302.497 228.456 302.665 228.456C302.833 228.456 302.961 228.504 303.049 228.6C303.137 228.688 303.181 228.82 303.181 228.996V236.544C303.181 236.712 303.137 236.844 303.049 236.94C302.969 237.036 302.861 237.084 302.725 237.084C302.597 237.084 302.489 237.056 302.401 237C302.321 236.952 302.237 236.868 302.149 236.748L297.073 230.004H297.349V236.544C297.349 236.712 297.305 236.844 297.217 236.94C297.129 237.036 297.001 237.084 296.833 237.084ZM307.839 237.084C307.655 237.084 307.515 237.036 307.419 236.94C307.323 236.836 307.275 236.692 307.275 236.508V229.488H304.647C304.495 229.488 304.375 229.448 304.287 229.368C304.199 229.28 304.155 229.16 304.155 229.008C304.155 228.856 304.199 228.74 304.287 228.66C304.375 228.58 304.495 228.54 304.647 228.54H311.019C311.179 228.54 311.299 228.58 311.379 228.66C311.467 228.74 311.511 228.856 311.511 229.008C311.511 229.16 311.467 229.28 311.379 229.368C311.299 229.448 311.179 229.488 311.019 229.488H308.391V236.508C308.391 236.692 308.343 236.836 308.247 236.94C308.159 237.036 308.023 237.084 307.839 237.084Z" fill="#00303F"/>
<path d="M226.024 272C225.235 272 224.627 271.797 224.2 271.392C223.795 270.965 223.592 270.368 223.592 269.6C223.592 268.832 223.795 268.245 224.2 267.84C224.627 267.435 225.235 267.232 226.024 267.232H228.904V254.144H231.592L226.952 256.992C226.397 257.333 225.875 257.472 225.384 257.408C224.893 257.323 224.477 257.109 224.136 256.768C223.795 256.427 223.571 256.011 223.464 255.52C223.357 255.029 223.4 254.539 223.592 254.048C223.784 253.557 224.168 253.141 224.744 252.8L229.16 250.048C229.629 249.749 230.109 249.525 230.6 249.376C231.112 249.227 231.645 249.152 232.2 249.152C233.011 249.152 233.64 249.365 234.088 249.792C234.536 250.197 234.76 250.795 234.76 251.584V267.232H237.32C238.109 267.232 238.707 267.435 239.112 267.84C239.539 268.245 239.752 268.832 239.752 269.6C239.752 270.368 239.539 270.965 239.112 271.392C238.707 271.797 238.109 272 237.32 272H226.024ZM249.628 272.352C248.604 272.352 247.526 272.235 246.396 272C245.265 271.765 244.22 271.403 243.26 270.912C242.684 270.613 242.278 270.229 242.044 269.76C241.83 269.269 241.756 268.779 241.82 268.288C241.905 267.797 242.097 267.36 242.396 266.976C242.716 266.592 243.11 266.347 243.58 266.24C244.07 266.112 244.604 266.197 245.18 266.496C245.884 266.837 246.609 267.093 247.356 267.264C248.124 267.435 248.838 267.52 249.5 267.52C250.225 267.52 250.844 267.413 251.356 267.2C251.868 266.987 252.252 266.677 252.508 266.272C252.785 265.867 252.924 265.387 252.924 264.832C252.924 263.979 252.636 263.307 252.06 262.816C251.484 262.325 250.716 262.08 249.756 262.08C249.329 262.08 248.86 262.144 248.348 262.272C247.857 262.4 247.345 262.645 246.812 263.008C246.577 263.136 246.257 263.285 245.852 263.456C245.446 263.605 245.03 263.68 244.604 263.68C243.836 263.68 243.27 263.499 242.908 263.136C242.545 262.773 242.364 262.261 242.364 261.6V251.936C242.364 251.125 242.577 250.507 243.004 250.08C243.452 249.653 244.07 249.44 244.86 249.44H254.908C255.697 249.44 256.305 249.643 256.732 250.048C257.158 250.453 257.372 251.051 257.372 251.84C257.372 252.608 257.158 253.195 256.732 253.6C256.305 254.005 255.697 254.208 254.908 254.208H247.9V259.232H246.556C247.068 258.635 247.74 258.187 248.572 257.888C249.404 257.568 250.31 257.408 251.292 257.408C252.721 257.408 253.98 257.717 255.068 258.336C256.156 258.933 256.998 259.776 257.596 260.864C258.214 261.952 258.524 263.221 258.524 264.672C258.524 266.208 258.161 267.563 257.436 268.736C256.732 269.888 255.708 270.784 254.364 271.424C253.041 272.043 251.462 272.352 249.628 272.352Z" fill="#00303F"/>
<rect x="201.5" y="208.5" width="164" height="86" rx="4.5" stroke="#C5C5C5"/>
<rect x="24.5" y="307.5" width="164" height="86" rx="4.5" fill="white"/>
<path d="M47.648 336.084C47.464 336.084 47.324 336.036 47.228 335.94C47.132 335.836 47.084 335.692 47.084 335.508V328.488H44.456C44.304 328.488 44.184 328.448 44.096 328.368C44.008 328.28 43.964 328.16 43.964 328.008C43.964 327.856 44.008 327.74 44.096 327.66C44.184 327.58 44.304 327.54 44.456 327.54H50.828C50.988 327.54 51.108 327.58 51.188 327.66C51.276 327.74 51.32 327.856 51.32 328.008C51.32 328.16 51.276 328.28 51.188 328.368C51.108 328.448 50.988 328.488 50.828 328.488H48.2V335.508C48.2 335.692 48.152 335.836 48.056 335.94C47.968 336.036 47.832 336.084 47.648 336.084ZM51.2633 336.084C51.1193 336.084 51.0033 336.052 50.9153 335.988C50.8353 335.924 50.7873 335.836 50.7713 335.724C50.7553 335.612 50.7793 335.488 50.8433 335.352L54.1193 327.936C54.1913 327.768 54.2833 327.648 54.3953 327.576C54.5073 327.496 54.6313 327.456 54.7673 327.456C54.9033 327.456 55.0233 327.496 55.1273 327.576C55.2393 327.648 55.3353 327.768 55.4153 327.936L58.6913 335.352C58.7553 335.488 58.7793 335.616 58.7633 335.736C58.7553 335.848 58.7113 335.936 58.6313 336C58.5513 336.056 58.4393 336.084 58.2953 336.084C58.1353 336.084 58.0073 336.044 57.9113 335.964C57.8153 335.876 57.7313 335.752 57.6593 335.592L56.8073 333.6L57.3233 333.888H52.1873L52.7033 333.6L51.8513 335.592C51.7793 335.768 51.6993 335.896 51.6113 335.976C51.5233 336.048 51.4073 336.084 51.2633 336.084ZM54.7433 328.8L52.8713 333.228L52.5833 332.976H56.9273L56.6513 333.228L54.7673 328.8H54.7433ZM59.9608 336.084C59.8168 336.084 59.6968 336.048 59.6008 335.976C59.5048 335.896 59.4488 335.796 59.4328 335.676C59.4248 335.556 59.4648 335.436 59.5528 335.316L62.4328 331.464V331.896L59.7208 328.248C59.6248 328.112 59.5808 327.984 59.5888 327.864C59.6048 327.744 59.6568 327.648 59.7448 327.576C59.8408 327.496 59.9568 327.456 60.0928 327.456C60.2128 327.456 60.3168 327.484 60.4048 327.54C60.5008 327.588 60.5928 327.68 60.6808 327.816L63.0808 331.092H62.7328L65.1088 327.816C65.1968 327.68 65.2848 327.588 65.3728 327.54C65.4688 327.484 65.5808 327.456 65.7088 327.456C65.8528 327.456 65.9688 327.496 66.0568 327.576C66.1528 327.648 66.2048 327.744 66.2128 327.864C66.2288 327.984 66.1848 328.112 66.0808 328.248L63.3688 331.896V331.464L66.2368 335.316C66.3248 335.436 66.3648 335.556 66.3568 335.676C66.3488 335.796 66.2968 335.896 66.2008 335.976C66.1048 336.048 65.9808 336.084 65.8288 336.084C65.7248 336.084 65.6248 336.056 65.5288 336C65.4328 335.944 65.3368 335.852 65.2408 335.724L62.6848 332.232H63.1048L60.5608 335.724C60.4648 335.852 60.3688 335.944 60.2728 336C60.1768 336.056 60.0728 336.084 59.9608 336.084Z" fill="#00303F"/>
<path d="M53.888 374.968C53.2693 374.968 52.7467 374.755 52.32 374.328C51.8933 373.901 51.68 373.368 51.68 372.728V370.36L52.64 371.224C51.2107 371.16 49.9733 370.979 48.928 370.68C47.8827 370.381 47.0293 370.083 46.368 369.784C45.8133 369.528 45.4187 369.165 45.184 368.696C44.9707 368.227 44.8853 367.747 44.928 367.256C44.992 366.765 45.1733 366.317 45.472 365.912C45.7707 365.507 46.1547 365.24 46.624 365.112C47.1147 364.963 47.68 365.027 48.32 365.304C48.7467 365.539 49.3867 365.784 50.24 366.04C51.1147 366.275 52.192 366.392 53.472 366.392C54.368 366.392 55.072 366.307 55.584 366.136C56.1173 365.965 56.4907 365.741 56.704 365.464C56.9387 365.165 57.056 364.845 57.056 364.504C57.056 364.184 56.9707 363.917 56.8 363.704C56.6507 363.469 56.3947 363.267 56.032 363.096C55.6693 362.904 55.168 362.733 54.528 362.584L50.912 361.816C48.928 361.368 47.4453 360.621 46.464 359.576C45.504 358.509 45.024 357.133 45.024 355.448C45.024 354.168 45.3333 353.027 45.952 352.024C46.592 351 47.4773 350.168 48.608 349.528C49.76 348.888 51.104 348.483 52.64 348.312L51.68 348.856V346.712C51.68 346.072 51.8933 345.539 52.32 345.112C52.7467 344.685 53.2693 344.472 53.888 344.472C54.528 344.472 55.0613 344.685 55.488 345.112C55.9147 345.539 56.128 346.072 56.128 346.712V348.856L55.168 348.248C55.9787 348.269 56.8533 348.408 57.792 348.664C58.7307 348.899 59.552 349.229 60.256 349.656C60.7467 349.912 61.088 350.264 61.28 350.712C61.4933 351.16 61.568 351.619 61.504 352.088C61.4613 352.536 61.2907 352.941 60.992 353.304C60.7147 353.667 60.3307 353.912 59.84 354.04C59.3707 354.147 58.8053 354.061 58.144 353.784C57.6533 353.571 57.0987 353.4 56.48 353.272C55.8827 353.123 55.1147 353.048 54.176 353.048C53.0453 353.048 52.1707 353.251 51.552 353.656C50.9547 354.061 50.656 354.584 50.656 355.224C50.656 355.651 50.8267 356.013 51.168 356.312C51.5307 356.589 52.1813 356.835 53.12 357.048L56.768 357.848C58.7947 358.296 60.288 359.043 61.248 360.088C62.2293 361.112 62.72 362.445 62.72 364.088C62.72 365.368 62.4107 366.499 61.792 367.48C61.1733 368.461 60.3093 369.261 59.2 369.88C58.112 370.499 56.8427 370.904 55.392 371.096L56.128 370.328V372.728C56.128 373.368 55.9147 373.901 55.488 374.328C55.0827 374.755 54.5493 374.968 53.888 374.968ZM68.2115 371C67.4222 371 66.8142 370.797 66.3875 370.392C65.9822 369.965 65.7795 369.368 65.7795 368.6C65.7795 367.832 65.9822 367.245 66.3875 366.84C66.8142 366.435 67.4222 366.232 68.2115 366.232H71.0915V353.144H73.7795L69.1395 355.992C68.5848 356.333 68.0622 356.472 67.5715 356.408C67.0808 356.323 66.6648 356.109 66.3235 355.768C65.9822 355.427 65.7582 355.011 65.6515 354.52C65.5448 354.029 65.5875 353.539 65.7795 353.048C65.9715 352.557 66.3555 352.141 66.9315 351.8L71.3475 349.048C71.8168 348.749 72.2968 348.525 72.7875 348.376C73.2995 348.227 73.8328 348.152 74.3875 348.152C75.1982 348.152 75.8275 348.365 76.2755 348.792C76.7235 349.197 76.9475 349.795 76.9475 350.584V366.232H79.5075C80.2968 366.232 80.8942 366.435 81.2995 366.84C81.7262 367.245 81.9395 367.832 81.9395 368.6C81.9395 369.368 81.7262 369.965 81.2995 370.392C80.8942 370.797 80.2968 371 79.5075 371H68.2115ZM91.975 371.352C89.2017 371.352 87.0683 370.339 85.575 368.312C84.103 366.264 83.367 363.373 83.367 359.64C83.367 357.123 83.6977 355.011 84.359 353.304C85.0203 351.576 85.991 350.275 87.271 349.4C88.551 348.525 90.119 348.088 91.975 348.088C94.7697 348.088 96.903 349.069 98.375 351.032C99.847 352.995 100.583 355.853 100.583 359.608C100.583 362.104 100.252 364.227 99.591 365.976C98.9297 367.725 97.959 369.059 96.679 369.976C95.399 370.893 93.831 371.352 91.975 371.352ZM91.975 366.68C92.999 366.68 93.7563 366.125 94.247 365.016C94.759 363.885 95.015 362.083 95.015 359.608C95.015 357.155 94.759 355.405 94.247 354.36C93.7563 353.293 92.999 352.76 91.975 352.76C90.951 352.76 90.183 353.293 89.671 354.36C89.1803 355.405 88.935 357.155 88.935 359.608C88.935 362.083 89.1803 363.885 89.671 365.016C90.183 366.125 90.951 366.68 91.975 366.68Z" fill="#00303F"/>
<rect x="24.5" y="307.5" width="164" height="86" rx="4.5" stroke="#C5C5C5"/>
<rect x="201.5" y="307.5" width="164" height="86" rx="4.5" fill="white"/>
<path d="M225.92 336.108C225.016 336.108 224.248 335.936 223.616 335.592C222.992 335.24 222.516 334.74 222.188 334.092C221.868 333.444 221.708 332.672 221.708 331.776C221.708 331.104 221.8 330.504 221.984 329.976C222.168 329.44 222.436 328.984 222.788 328.608C223.148 328.224 223.58 327.932 224.084 327.732C224.596 327.532 225.172 327.432 225.812 327.432C226.308 327.432 226.788 327.5 227.252 327.636C227.716 327.764 228.14 327.976 228.524 328.272C228.62 328.344 228.68 328.428 228.704 328.524C228.736 328.62 228.74 328.716 228.716 328.812C228.692 328.908 228.644 328.992 228.572 329.064C228.508 329.136 228.424 329.18 228.32 329.196C228.224 329.204 228.12 329.172 228.008 329.1C227.68 328.86 227.336 328.688 226.976 328.584C226.624 328.48 226.236 328.428 225.812 328.428C225.18 328.428 224.644 328.56 224.204 328.824C223.764 329.08 223.432 329.46 223.208 329.964C222.992 330.46 222.884 331.064 222.884 331.776C222.884 332.872 223.14 333.704 223.652 334.272C224.172 334.84 224.94 335.124 225.956 335.124C226.332 335.124 226.696 335.088 227.048 335.016C227.408 334.944 227.752 334.844 228.08 334.716L227.84 335.316V332.424H226.208C226.064 332.424 225.948 332.384 225.86 332.304C225.78 332.224 225.74 332.116 225.74 331.98C225.74 331.844 225.78 331.74 225.86 331.668C225.948 331.596 226.064 331.56 226.208 331.56H228.332C228.476 331.56 228.588 331.6 228.668 331.68C228.756 331.76 228.8 331.876 228.8 332.028V335.112C228.8 335.24 228.776 335.352 228.728 335.448C228.68 335.536 228.6 335.6 228.488 335.64C228.152 335.776 227.752 335.888 227.288 335.976C226.824 336.064 226.368 336.108 225.92 336.108ZM234.134 336.108C233.574 336.108 233.078 336.036 232.646 335.892C232.222 335.74 231.866 335.52 231.578 335.232C231.29 334.936 231.07 334.572 230.918 334.14C230.774 333.7 230.702 333.192 230.702 332.616V328.02C230.702 327.828 230.75 327.688 230.846 327.6C230.942 327.504 231.078 327.456 231.254 327.456C231.438 327.456 231.578 327.504 231.674 327.6C231.77 327.688 231.818 327.828 231.818 328.02V332.58C231.818 333.436 232.014 334.076 232.406 334.5C232.798 334.916 233.374 335.124 234.134 335.124C234.894 335.124 235.47 334.916 235.862 334.5C236.254 334.076 236.45 333.436 236.45 332.58V328.02C236.45 327.828 236.498 327.688 236.594 327.6C236.69 327.504 236.826 327.456 237.002 327.456C237.178 327.456 237.314 327.504 237.41 327.6C237.506 327.688 237.554 327.828 237.554 328.02V332.616C237.554 333.376 237.422 334.016 237.158 334.536C236.902 335.056 236.518 335.448 236.006 335.712C235.502 335.976 234.878 336.108 234.134 336.108ZM240.14 336C239.948 336 239.8 335.948 239.696 335.844C239.592 335.74 239.54 335.592 239.54 335.4V328.14C239.54 327.948 239.592 327.8 239.696 327.696C239.8 327.592 239.948 327.54 240.14 327.54H244.556C244.708 327.54 244.824 327.58 244.904 327.66C244.992 327.732 245.036 327.84 245.036 327.984C245.036 328.136 244.992 328.252 244.904 328.332C244.824 328.412 244.708 328.452 244.556 328.452H240.62V331.248H244.304C244.456 331.248 244.572 331.288 244.652 331.368C244.732 331.448 244.772 331.56 244.772 331.704C244.772 331.856 244.732 331.972 244.652 332.052C244.572 332.124 244.456 332.16 244.304 332.16H240.62V335.088H244.556C244.708 335.088 244.824 335.128 244.904 335.208C244.992 335.28 245.036 335.392 245.036 335.544C245.036 335.696 244.992 335.812 244.904 335.892C244.824 335.964 244.708 336 244.556 336H240.14ZM249.226 336.108C248.85 336.108 248.486 336.076 248.134 336.012C247.782 335.956 247.45 335.868 247.138 335.748C246.826 335.628 246.546 335.48 246.298 335.304C246.194 335.232 246.118 335.144 246.07 335.04C246.03 334.936 246.018 334.836 246.034 334.74C246.058 334.636 246.102 334.548 246.166 334.476C246.238 334.404 246.322 334.36 246.418 334.344C246.514 334.328 246.618 334.36 246.73 334.44C247.098 334.688 247.482 334.868 247.882 334.98C248.29 335.092 248.738 335.148 249.226 335.148C249.93 335.148 250.446 335.02 250.774 334.764C251.11 334.508 251.278 334.172 251.278 333.756C251.278 333.412 251.158 333.144 250.918 332.952C250.678 332.752 250.274 332.596 249.706 332.484L248.434 332.22C247.682 332.06 247.118 331.796 246.742 331.428C246.374 331.06 246.19 330.568 246.19 329.952C246.19 329.576 246.266 329.236 246.418 328.932C246.57 328.62 246.786 328.352 247.066 328.128C247.346 327.904 247.674 327.732 248.05 327.612C248.434 327.492 248.858 327.432 249.322 327.432C249.818 327.432 250.282 327.5 250.714 327.636C251.154 327.772 251.55 327.972 251.902 328.236C251.998 328.308 252.062 328.396 252.094 328.5C252.126 328.596 252.13 328.692 252.106 328.788C252.09 328.884 252.046 328.964 251.974 329.028C251.91 329.092 251.826 329.128 251.722 329.136C251.626 329.144 251.518 329.108 251.398 329.028C251.078 328.804 250.75 328.644 250.414 328.548C250.078 328.444 249.71 328.392 249.31 328.392C248.902 328.392 248.546 328.456 248.242 328.584C247.946 328.712 247.714 328.892 247.546 329.124C247.386 329.348 247.306 329.612 247.306 329.916C247.306 330.284 247.418 330.572 247.642 330.78C247.866 330.988 248.242 331.148 248.77 331.26L250.03 331.512C250.83 331.68 251.422 331.94 251.806 332.292C252.198 332.636 252.394 333.1 252.394 333.684C252.394 334.052 252.318 334.384 252.166 334.68C252.022 334.976 251.814 335.232 251.542 335.448C251.27 335.656 250.938 335.82 250.546 335.94C250.154 336.052 249.714 336.108 249.226 336.108ZM256.324 336.084C256.14 336.084 256 336.036 255.904 335.94C255.808 335.836 255.76 335.692 255.76 335.508V328.488H253.132C252.98 328.488 252.86 328.448 252.772 328.368C252.684 328.28 252.64 328.16 252.64 328.008C252.64 327.856 252.684 327.74 252.772 327.66C252.86 327.58 252.98 327.54 253.132 327.54H259.504C259.664 327.54 259.784 327.58 259.864 327.66C259.952 327.74 259.996 327.856 259.996 328.008C259.996 328.16 259.952 328.28 259.864 328.368C259.784 328.448 259.664 328.488 259.504 328.488H256.876V335.508C256.876 335.692 256.828 335.836 256.732 335.94C256.644 336.036 256.508 336.084 256.324 336.084ZM263.464 336.108C263.088 336.108 262.724 336.076 262.372 336.012C262.02 335.956 261.688 335.868 261.376 335.748C261.064 335.628 260.784 335.48 260.536 335.304C260.432 335.232 260.356 335.144 260.308 335.04C260.268 334.936 260.256 334.836 260.272 334.74C260.296 334.636 260.34 334.548 260.404 334.476C260.476 334.404 260.56 334.36 260.656 334.344C260.752 334.328 260.856 334.36 260.968 334.44C261.336 334.688 261.72 334.868 262.12 334.98C262.528 335.092 262.976 335.148 263.464 335.148C264.168 335.148 264.684 335.02 265.012 334.764C265.348 334.508 265.516 334.172 265.516 333.756C265.516 333.412 265.396 333.144 265.156 332.952C264.916 332.752 264.512 332.596 263.944 332.484L262.672 332.22C261.92 332.06 261.356 331.796 260.98 331.428C260.612 331.06 260.428 330.568 260.428 329.952C260.428 329.576 260.504 329.236 260.656 328.932C260.808 328.62 261.024 328.352 261.304 328.128C261.584 327.904 261.912 327.732 262.288 327.612C262.672 327.492 263.096 327.432 263.56 327.432C264.056 327.432 264.52 327.5 264.952 327.636C265.392 327.772 265.788 327.972 266.14 328.236C266.236 328.308 266.3 328.396 266.332 328.5C266.364 328.596 266.368 328.692 266.344 328.788C266.328 328.884 266.284 328.964 266.212 329.028C266.148 329.092 266.064 329.128 265.96 329.136C265.864 329.144 265.756 329.108 265.636 329.028C265.316 328.804 264.988 328.644 264.652 328.548C264.316 328.444 263.948 328.392 263.548 328.392C263.14 328.392 262.784 328.456 262.48 328.584C262.184 328.712 261.952 328.892 261.784 329.124C261.624 329.348 261.544 329.612 261.544 329.916C261.544 330.284 261.656 330.572 261.88 330.78C262.104 330.988 262.48 331.148 263.008 331.26L264.268 331.512C265.068 331.68 265.66 331.94 266.044 332.292C266.436 332.636 266.632 333.1 266.632 333.684C266.632 334.052 266.556 334.384 266.404 334.68C266.26 334.976 266.052 335.232 265.78 335.448C265.508 335.656 265.176 335.82 264.784 335.94C264.392 336.052 263.952 336.108 263.464 336.108Z" fill="#00303F"/>
<path d="M229.928 371.352C228.84 371.352 227.752 371.245 226.664 371.032C225.576 370.819 224.637 370.52 223.848 370.136C223.165 369.816 222.685 369.421 222.408 368.952C222.152 368.483 222.045 368.003 222.088 367.512C222.131 367.021 222.301 366.584 222.6 366.2C222.92 365.816 223.325 365.56 223.816 365.432C224.328 365.283 224.904 365.347 225.544 365.624C226.333 365.965 227.059 366.2 227.72 366.328C228.381 366.456 229.043 366.52 229.704 366.52C230.472 366.52 231.112 366.435 231.624 366.264C232.136 366.093 232.52 365.837 232.776 365.496C233.032 365.133 233.16 364.685 233.16 364.152C233.16 363.405 232.893 362.861 232.36 362.52C231.848 362.157 231.091 361.976 230.088 361.976H228.36C227.549 361.976 226.931 361.773 226.504 361.368C226.077 360.963 225.864 360.387 225.864 359.64C225.864 358.893 226.077 358.317 226.504 357.912C226.931 357.507 227.549 357.304 228.36 357.304H229.512C230.131 357.304 230.653 357.219 231.08 357.048C231.528 356.877 231.869 356.632 232.104 356.312C232.339 355.971 232.456 355.555 232.456 355.064C232.456 354.36 232.2 353.827 231.688 353.464C231.197 353.101 230.461 352.92 229.48 352.92C228.883 352.92 228.275 352.984 227.656 353.112C227.037 353.24 226.376 353.464 225.672 353.784C225.117 354.019 224.605 354.072 224.136 353.944C223.688 353.816 223.315 353.571 223.016 353.208C222.739 352.824 222.568 352.408 222.504 351.96C222.44 351.491 222.515 351.032 222.728 350.584C222.941 350.136 223.347 349.763 223.944 349.464C224.84 349.016 225.811 348.675 226.856 348.44C227.923 348.205 228.989 348.088 230.056 348.088C231.741 348.088 233.181 348.333 234.376 348.824C235.571 349.315 236.477 350.029 237.096 350.968C237.736 351.885 238.056 352.995 238.056 354.296C238.056 355.149 237.896 355.939 237.576 356.664C237.256 357.389 236.787 357.997 236.168 358.488C235.549 358.957 234.824 359.299 233.992 359.512V359.064C235.485 359.299 236.648 359.928 237.48 360.952C238.333 361.955 238.76 363.213 238.76 364.728C238.76 366.093 238.408 367.277 237.704 368.28C237 369.283 235.987 370.051 234.664 370.584C233.341 371.096 231.763 371.352 229.928 371.352Z" fill="#00303F"/>
<rect x="201.5" y="307.5" width="164" height="86" rx="4.5" stroke="#C5C5C5"/>
<rect x="24.5" y="406.5" width="164" height="86" rx="4.5" fill="white"/>
<path d="M47.648 435.084C47.464 435.084 47.324 435.036 47.228 434.94C47.132 434.836 47.084 434.692 47.084 434.508V427.488H44.456C44.304 427.488 44.184 427.448 44.096 427.368C44.008 427.28 43.964 427.16 43.964 427.008C43.964 426.856 44.008 426.74 44.096 426.66C44.184 426.58 44.304 426.54 44.456 426.54H50.828C50.988 426.54 51.108 426.58 51.188 426.66C51.276 426.74 51.32 426.856 51.32 427.008C51.32 427.16 51.276 427.28 51.188 427.368C51.108 427.448 50.988 427.488 50.828 427.488H48.2V434.508C48.2 434.692 48.152 434.836 48.056 434.94C47.968 435.036 47.832 435.084 47.648 435.084ZM55.3937 435.108C54.5937 435.108 53.9017 434.932 53.3177 434.58C52.7337 434.22 52.2777 433.716 51.9497 433.068C51.6297 432.412 51.4697 431.644 51.4697 430.764C51.4697 430.1 51.5617 429.504 51.7457 428.976C51.9297 428.44 52.1897 427.984 52.5257 427.608C52.8697 427.224 53.2817 426.932 53.7617 426.732C54.2497 426.532 54.7937 426.432 55.3937 426.432C56.1937 426.432 56.8857 426.608 57.4697 426.96C58.0537 427.312 58.5057 427.812 58.8257 428.46C59.1457 429.108 59.3057 429.872 59.3057 430.752C59.3057 431.416 59.2137 432.016 59.0297 432.552C58.8457 433.088 58.5817 433.548 58.2377 433.932C57.9017 434.316 57.4937 434.608 57.0137 434.808C56.5337 435.008 55.9937 435.108 55.3937 435.108ZM55.3937 434.124C55.9697 434.124 56.4617 433.992 56.8697 433.728C57.2777 433.464 57.5897 433.08 57.8057 432.576C58.0297 432.072 58.1417 431.468 58.1417 430.764C58.1417 429.7 57.9017 428.876 57.4217 428.292C56.9497 427.708 56.2737 427.416 55.3937 427.416C54.8177 427.416 54.3217 427.548 53.9057 427.812C53.4977 428.068 53.1857 428.448 52.9697 428.952C52.7537 429.448 52.6457 430.052 52.6457 430.764C52.6457 431.82 52.8857 432.644 53.3657 433.236C53.8457 433.828 54.5217 434.124 55.3937 434.124ZM63.1402 435.084C62.9562 435.084 62.8162 435.036 62.7202 434.94C62.6242 434.836 62.5762 434.692 62.5762 434.508V427.488H59.9482C59.7962 427.488 59.6762 427.448 59.5882 427.368C59.5002 427.28 59.4562 427.16 59.4562 427.008C59.4562 426.856 59.5002 426.74 59.5882 426.66C59.6762 426.58 59.7962 426.54 59.9482 426.54H66.3202C66.4802 426.54 66.6002 426.58 66.6802 426.66C66.7682 426.74 66.8122 426.856 66.8122 427.008C66.8122 427.16 66.7682 427.28 66.6802 427.368C66.6002 427.448 66.4802 427.488 66.3202 427.488H63.6922V434.508C63.6922 434.692 63.6442 434.836 63.5482 434.94C63.4602 435.036 63.3242 435.084 63.1402 435.084ZM66.7555 435.084C66.6115 435.084 66.4955 435.052 66.4075 434.988C66.3275 434.924 66.2795 434.836 66.2635 434.724C66.2475 434.612 66.2715 434.488 66.3355 434.352L69.6115 426.936C69.6835 426.768 69.7755 426.648 69.8875 426.576C69.9995 426.496 70.1235 426.456 70.2595 426.456C70.3955 426.456 70.5155 426.496 70.6195 426.576C70.7315 426.648 70.8275 426.768 70.9075 426.936L74.1835 434.352C74.2475 434.488 74.2715 434.616 74.2555 434.736C74.2475 434.848 74.2035 434.936 74.1235 435C74.0435 435.056 73.9315 435.084 73.7875 435.084C73.6275 435.084 73.4995 435.044 73.4035 434.964C73.3075 434.876 73.2235 434.752 73.1515 434.592L72.2995 432.6L72.8155 432.888H67.6795L68.1955 432.6L67.3435 434.592C67.2715 434.768 67.1915 434.896 67.1035 434.976C67.0155 435.048 66.8995 435.084 66.7555 435.084ZM70.2355 427.8L68.3635 432.228L68.0755 431.976H72.4195L72.1435 432.228L70.2595 427.8H70.2355ZM76.2402 435C76.0643 435 75.9243 434.948 75.8203 434.844C75.7243 434.74 75.6763 434.6 75.6763 434.424V427.056C75.6763 426.872 75.7243 426.732 75.8203 426.636C75.9163 426.54 76.0523 426.492 76.2283 426.492C76.4123 426.492 76.5523 426.54 76.6483 426.636C76.7443 426.732 76.7923 426.872 76.7923 427.056V434.04H80.6083C80.7763 434.04 80.9003 434.08 80.9803 434.16C81.0683 434.24 81.1123 434.356 81.1123 434.508C81.1123 434.668 81.0683 434.792 80.9803 434.88C80.9003 434.96 80.7763 435 80.6083 435H76.2402Z" fill="#00303F"/>
<path d="M53.888 473.968C53.2693 473.968 52.7467 473.755 52.32 473.328C51.8933 472.901 51.68 472.368 51.68 471.728V469.36L52.64 470.224C51.2107 470.16 49.9733 469.979 48.928 469.68C47.8827 469.381 47.0293 469.083 46.368 468.784C45.8133 468.528 45.4187 468.165 45.184 467.696C44.9707 467.227 44.8853 466.747 44.928 466.256C44.992 465.765 45.1733 465.317 45.472 464.912C45.7707 464.507 46.1547 464.24 46.624 464.112C47.1147 463.963 47.68 464.027 48.32 464.304C48.7467 464.539 49.3867 464.784 50.24 465.04C51.1147 465.275 52.192 465.392 53.472 465.392C54.368 465.392 55.072 465.307 55.584 465.136C56.1173 464.965 56.4907 464.741 56.704 464.464C56.9387 464.165 57.056 463.845 57.056 463.504C57.056 463.184 56.9707 462.917 56.8 462.704C56.6507 462.469 56.3947 462.267 56.032 462.096C55.6693 461.904 55.168 461.733 54.528 461.584L50.912 460.816C48.928 460.368 47.4453 459.621 46.464 458.576C45.504 457.509 45.024 456.133 45.024 454.448C45.024 453.168 45.3333 452.027 45.952 451.024C46.592 450 47.4773 449.168 48.608 448.528C49.76 447.888 51.104 447.483 52.64 447.312L51.68 447.856V445.712C51.68 445.072 51.8933 444.539 52.32 444.112C52.7467 443.685 53.2693 443.472 53.888 443.472C54.528 443.472 55.0613 443.685 55.488 444.112C55.9147 444.539 56.128 445.072 56.128 445.712V447.856L55.168 447.248C55.9787 447.269 56.8533 447.408 57.792 447.664C58.7307 447.899 59.552 448.229 60.256 448.656C60.7467 448.912 61.088 449.264 61.28 449.712C61.4933 450.16 61.568 450.619 61.504 451.088C61.4613 451.536 61.2907 451.941 60.992 452.304C60.7147 452.667 60.3307 452.912 59.84 453.04C59.3707 453.147 58.8053 453.061 58.144 452.784C57.6533 452.571 57.0987 452.4 56.48 452.272C55.8827 452.123 55.1147 452.048 54.176 452.048C53.0453 452.048 52.1707 452.251 51.552 452.656C50.9547 453.061 50.656 453.584 50.656 454.224C50.656 454.651 50.8267 455.013 51.168 455.312C51.5307 455.589 52.1813 455.835 53.12 456.048L56.768 456.848C58.7947 457.296 60.288 458.043 61.248 459.088C62.2293 460.112 62.72 461.445 62.72 463.088C62.72 464.368 62.4107 465.499 61.792 466.48C61.1733 467.461 60.3093 468.261 59.2 468.88C58.112 469.499 56.8427 469.904 55.392 470.096L56.128 469.328V471.728C56.128 472.368 55.9147 472.901 55.488 473.328C55.0827 473.755 54.5493 473.968 53.888 473.968ZM68.2115 470C67.4222 470 66.8142 469.797 66.3875 469.392C65.9822 468.965 65.7795 468.368 65.7795 467.6C65.7795 466.832 65.9822 466.245 66.3875 465.84C66.8142 465.435 67.4222 465.232 68.2115 465.232H71.0915V452.144H73.7795L69.1395 454.992C68.5848 455.333 68.0622 455.472 67.5715 455.408C67.0808 455.323 66.6648 455.109 66.3235 454.768C65.9822 454.427 65.7582 454.011 65.6515 453.52C65.5448 453.029 65.5875 452.539 65.7795 452.048C65.9715 451.557 66.3555 451.141 66.9315 450.8L71.3475 448.048C71.8168 447.749 72.2968 447.525 72.7875 447.376C73.2995 447.227 73.8328 447.152 74.3875 447.152C75.1982 447.152 75.8275 447.365 76.2755 447.792C76.7235 448.197 76.9475 448.795 76.9475 449.584V465.232H79.5075C80.2968 465.232 80.8942 465.435 81.2995 465.84C81.7262 466.245 81.9395 466.832 81.9395 467.6C81.9395 468.368 81.7262 468.965 81.2995 469.392C80.8942 469.797 80.2968 470 79.5075 470H68.2115ZM92.871 470.352C90.887 470.352 89.2017 469.904 87.815 469.008C86.4497 468.112 85.4043 466.821 84.679 465.136C83.9537 463.429 83.591 461.36 83.591 458.928C83.591 457.072 83.8257 455.408 84.295 453.936C84.7643 452.464 85.447 451.227 86.343 450.224C87.239 449.2 88.327 448.421 89.607 447.888C90.887 447.355 92.3377 447.088 93.959 447.088C94.8337 447.088 95.719 447.195 96.615 447.408C97.511 447.621 98.3643 447.941 99.175 448.368C99.687 448.624 100.039 448.976 100.231 449.424C100.423 449.851 100.487 450.309 100.423 450.8C100.38 451.269 100.22 451.696 99.943 452.08C99.6657 452.443 99.2923 452.699 98.823 452.848C98.375 452.997 97.863 452.944 97.287 452.688C96.647 452.389 96.0497 452.187 95.495 452.08C94.9403 451.973 94.407 451.92 93.895 451.92C92.8283 451.92 91.943 452.144 91.239 452.592C90.535 453.019 90.0017 453.68 89.639 454.576C89.2763 455.451 89.095 456.549 89.095 457.872V459.536H88.615C88.807 458.619 89.159 457.84 89.671 457.2C90.183 456.539 90.8123 456.037 91.559 455.696C92.327 455.355 93.1803 455.184 94.119 455.184C95.3777 455.184 96.4977 455.504 97.479 456.144C98.4603 456.763 99.239 457.627 99.815 458.736C100.391 459.845 100.679 461.104 100.679 462.512C100.679 464.048 100.348 465.403 99.687 466.576C99.0257 467.749 98.1083 468.677 96.935 469.36C95.7617 470.021 94.407 470.352 92.871 470.352ZM92.551 465.872C93.1057 465.872 93.5857 465.744 93.991 465.488C94.4177 465.232 94.7377 464.869 94.951 464.4C95.1857 463.931 95.303 463.387 95.303 462.768C95.303 462.128 95.1857 461.584 94.951 461.136C94.7377 460.667 94.4177 460.304 93.991 460.048C93.5857 459.771 93.1057 459.632 92.551 459.632C92.0177 459.632 91.5377 459.771 91.111 460.048C90.7057 460.304 90.3857 460.667 90.151 461.136C89.9163 461.584 89.799 462.128 89.799 462.768C89.799 463.387 89.9163 463.931 90.151 464.4C90.3857 464.869 90.7057 465.232 91.111 465.488C91.5377 465.744 92.0177 465.872 92.551 465.872Z" fill="#00303F"/>
<rect x="24.5" y="406.5" width="164" height="86" rx="4.5" stroke="#C5C5C5"/>
<rect x="201.5" y="406.5" width="164" height="86" rx="4.5" fill="white"/>
<path d="M222.62 435C222.428 435 222.28 434.948 222.176 434.844C222.072 434.74 222.02 434.592 222.02 434.4V427.14C222.02 426.948 222.072 426.8 222.176 426.696C222.28 426.592 222.428 426.54 222.62 426.54H227.036C227.188 426.54 227.304 426.58 227.384 426.66C227.472 426.732 227.516 426.84 227.516 426.984C227.516 427.136 227.472 427.252 227.384 427.332C227.304 427.412 227.188 427.452 227.036 427.452H223.1V430.248H226.784C226.936 430.248 227.052 430.288 227.132 430.368C227.212 430.448 227.252 430.56 227.252 430.704C227.252 430.856 227.212 430.972 227.132 431.052C227.052 431.124 226.936 431.16 226.784 431.16H223.1V434.088H227.036C227.188 434.088 227.304 434.128 227.384 434.208C227.472 434.28 227.516 434.392 227.516 434.544C227.516 434.696 227.472 434.812 227.384 434.892C227.304 434.964 227.188 435 227.036 435H222.62ZM229.615 435C229.439 435 229.299 434.948 229.195 434.844C229.099 434.74 229.051 434.6 229.051 434.424V427.056C229.051 426.872 229.099 426.732 229.195 426.636C229.291 426.54 229.427 426.492 229.603 426.492C229.787 426.492 229.927 426.54 230.023 426.636C230.119 426.732 230.167 426.872 230.167 427.056V434.04H233.983C234.151 434.04 234.275 434.08 234.355 434.16C234.443 434.24 234.487 434.356 234.487 434.508C234.487 434.668 234.443 434.792 234.355 434.88C234.275 434.96 234.151 435 233.983 435H229.615ZM236.225 435C236.033 435 235.885 434.948 235.781 434.844C235.677 434.74 235.625 434.592 235.625 434.4V427.14C235.625 426.948 235.677 426.8 235.781 426.696C235.885 426.592 236.033 426.54 236.225 426.54H240.641C240.793 426.54 240.909 426.58 240.989 426.66C241.077 426.732 241.121 426.84 241.121 426.984C241.121 427.136 241.077 427.252 240.989 427.332C240.909 427.412 240.793 427.452 240.641 427.452H236.705V430.248H240.389C240.541 430.248 240.657 430.288 240.737 430.368C240.817 430.448 240.857 430.56 240.857 430.704C240.857 430.856 240.817 430.972 240.737 431.052C240.657 431.124 240.541 431.16 240.389 431.16H236.705V434.088H240.641C240.793 434.088 240.909 434.128 240.989 434.208C241.077 434.28 241.121 434.392 241.121 434.544C241.121 434.696 241.077 434.812 240.989 434.892C240.909 434.964 240.793 435 240.641 435H236.225ZM245.742 435.084C245.574 435.084 245.438 435.048 245.334 434.976C245.23 434.896 245.142 434.776 245.07 434.616L241.818 427.188C241.754 427.036 241.734 426.908 241.758 426.804C241.79 426.692 241.85 426.608 241.938 426.552C242.034 426.488 242.146 426.456 242.274 426.456C242.442 426.456 242.566 426.492 242.646 426.564C242.734 426.636 242.81 426.744 242.874 426.888L245.97 434.076H245.55L248.634 426.888C248.698 426.744 248.774 426.636 248.862 426.564C248.95 426.492 249.074 426.456 249.234 426.456C249.362 426.456 249.466 426.488 249.546 426.552C249.634 426.616 249.686 426.704 249.702 426.816C249.726 426.92 249.71 427.044 249.654 427.188L246.39 434.616C246.326 434.776 246.242 434.896 246.138 434.976C246.042 435.048 245.91 435.084 245.742 435.084ZM250.13 435.084C249.986 435.084 249.87 435.052 249.782 434.988C249.702 434.924 249.654 434.836 249.638 434.724C249.622 434.612 249.646 434.488 249.71 434.352L252.986 426.936C253.058 426.768 253.15 426.648 253.262 426.576C253.374 426.496 253.498 426.456 253.634 426.456C253.77 426.456 253.89 426.496 253.994 426.576C254.106 426.648 254.202 426.768 254.282 426.936L257.558 434.352C257.622 434.488 257.646 434.616 257.63 434.736C257.622 434.848 257.578 434.936 257.498 435C257.418 435.056 257.306 435.084 257.162 435.084C257.002 435.084 256.874 435.044 256.778 434.964C256.682 434.876 256.598 434.752 256.526 434.592L255.674 432.6L256.19 432.888H251.054L251.57 432.6L250.718 434.592C250.646 434.768 250.566 434.896 250.478 434.976C250.39 435.048 250.274 435.084 250.13 435.084ZM253.61 427.8L251.738 432.228L251.45 431.976H255.794L255.518 432.228L253.634 427.8H253.61ZM260.753 435.084C260.569 435.084 260.429 435.036 260.333 434.94C260.237 434.836 260.189 434.692 260.189 434.508V427.488H257.561C257.409 427.488 257.289 427.448 257.201 427.368C257.113 427.28 257.069 427.16 257.069 427.008C257.069 426.856 257.113 426.74 257.201 426.66C257.289 426.58 257.409 426.54 257.561 426.54H263.933C264.093 426.54 264.213 426.58 264.293 426.66C264.381 426.74 264.425 426.856 264.425 427.008C264.425 427.16 264.381 427.28 264.293 427.368C264.213 427.448 264.093 427.488 263.933 427.488H261.305V434.508C261.305 434.692 261.257 434.836 261.161 434.94C261.073 435.036 260.937 435.084 260.753 435.084ZM268.499 435.108C267.699 435.108 267.007 434.932 266.423 434.58C265.839 434.22 265.383 433.716 265.055 433.068C264.735 432.412 264.575 431.644 264.575 430.764C264.575 430.1 264.667 429.504 264.851 428.976C265.035 428.44 265.295 427.984 265.631 427.608C265.975 427.224 266.387 426.932 266.867 426.732C267.355 426.532 267.899 426.432 268.499 426.432C269.299 426.432 269.991 426.608 270.575 426.96C271.159 427.312 271.611 427.812 271.931 428.46C272.251 429.108 272.411 429.872 272.411 430.752C272.411 431.416 272.319 432.016 272.135 432.552C271.951 433.088 271.687 433.548 271.343 433.932C271.007 434.316 270.599 434.608 270.119 434.808C269.639 435.008 269.099 435.108 268.499 435.108ZM268.499 434.124C269.075 434.124 269.567 433.992 269.975 433.728C270.383 433.464 270.695 433.08 270.911 432.576C271.135 432.072 271.247 431.468 271.247 430.764C271.247 429.7 271.007 428.876 270.527 428.292C270.055 427.708 269.379 427.416 268.499 427.416C267.923 427.416 267.427 427.548 267.011 427.812C266.603 428.068 266.291 428.448 266.075 428.952C265.859 429.448 265.751 430.052 265.751 430.764C265.751 431.82 265.991 432.644 266.471 433.236C266.951 433.828 267.627 434.124 268.499 434.124ZM274.697 435.084C274.521 435.084 274.385 435.036 274.289 434.94C274.193 434.836 274.145 434.692 274.145 434.508V427.104C274.145 426.92 274.193 426.78 274.289 426.684C274.393 426.588 274.533 426.54 274.709 426.54H277.565C278.477 426.54 279.177 426.756 279.665 427.188C280.161 427.612 280.409 428.216 280.409 429C280.409 429.512 280.297 429.952 280.073 430.32C279.849 430.68 279.525 430.956 279.101 431.148C278.677 431.34 278.165 431.436 277.565 431.436L277.685 431.268H277.949C278.269 431.268 278.545 431.348 278.777 431.508C279.017 431.668 279.229 431.924 279.413 432.276L280.517 434.304C280.589 434.432 280.621 434.556 280.613 434.676C280.605 434.796 280.561 434.896 280.481 434.976C280.401 435.048 280.285 435.084 280.133 435.084C279.973 435.084 279.845 435.052 279.749 434.988C279.653 434.916 279.569 434.812 279.497 434.676L278.201 432.3C278.025 431.964 277.825 431.744 277.601 431.64C277.377 431.528 277.077 431.472 276.701 431.472H275.261V434.508C275.261 434.692 275.213 434.836 275.117 434.94C275.029 435.036 274.889 435.084 274.697 435.084ZM275.261 430.608H277.385C278.025 430.608 278.505 430.476 278.825 430.212C279.145 429.94 279.305 429.544 279.305 429.024C279.305 428.504 279.145 428.112 278.825 427.848C278.505 427.584 278.025 427.452 277.385 427.452H275.261V430.608ZM288.12 435.108C287.744 435.108 287.38 435.076 287.028 435.012C286.676 434.956 286.344 434.868 286.032 434.748C285.72 434.628 285.44 434.48 285.192 434.304C285.088 434.232 285.012 434.144 284.964 434.04C284.924 433.936 284.912 433.836 284.928 433.74C284.952 433.636 284.996 433.548 285.06 433.476C285.132 433.404 285.216 433.36 285.312 433.344C285.408 433.328 285.512 433.36 285.624 433.44C285.992 433.688 286.376 433.868 286.776 433.98C287.184 434.092 287.632 434.148 288.12 434.148C288.824 434.148 289.34 434.02 289.668 433.764C290.004 433.508 290.172 433.172 290.172 432.756C290.172 432.412 290.052 432.144 289.812 431.952C289.572 431.752 289.168 431.596 288.6 431.484L287.328 431.22C286.576 431.06 286.012 430.796 285.636 430.428C285.268 430.06 285.084 429.568 285.084 428.952C285.084 428.576 285.16 428.236 285.312 427.932C285.464 427.62 285.68 427.352 285.96 427.128C286.24 426.904 286.568 426.732 286.944 426.612C287.328 426.492 287.752 426.432 288.216 426.432C288.712 426.432 289.176 426.5 289.608 426.636C290.048 426.772 290.444 426.972 290.796 427.236C290.892 427.308 290.956 427.396 290.988 427.5C291.02 427.596 291.024 427.692 291 427.788C290.984 427.884 290.94 427.964 290.868 428.028C290.804 428.092 290.72 428.128 290.616 428.136C290.52 428.144 290.412 428.108 290.292 428.028C289.972 427.804 289.644 427.644 289.308 427.548C288.972 427.444 288.604 427.392 288.204 427.392C287.796 427.392 287.44 427.456 287.136 427.584C286.84 427.712 286.608 427.892 286.44 428.124C286.28 428.348 286.2 428.612 286.2 428.916C286.2 429.284 286.312 429.572 286.536 429.78C286.76 429.988 287.136 430.148 287.664 430.26L288.924 430.512C289.724 430.68 290.316 430.94 290.7 431.292C291.092 431.636 291.288 432.1 291.288 432.684C291.288 433.052 291.212 433.384 291.06 433.68C290.916 433.976 290.708 434.232 290.436 434.448C290.164 434.656 289.832 434.82 289.44 434.94C289.048 435.052 288.608 435.108 288.12 435.108ZM295.218 435.084C295.034 435.084 294.894 435.036 294.798 434.94C294.702 434.836 294.654 434.692 294.654 434.508V427.488H292.026C291.874 427.488 291.754 427.448 291.666 427.368C291.578 427.28 291.534 427.16 291.534 427.008C291.534 426.856 291.578 426.74 291.666 426.66C291.754 426.58 291.874 426.54 292.026 426.54H298.398C298.558 426.54 298.678 426.58 298.758 426.66C298.846 426.74 298.89 426.856 298.89 427.008C298.89 427.16 298.846 427.28 298.758 427.368C298.678 427.448 298.558 427.488 298.398 427.488H295.77V434.508C295.77 434.692 295.722 434.836 295.626 434.94C295.538 435.036 295.402 435.084 295.218 435.084ZM298.834 435.084C298.69 435.084 298.574 435.052 298.486 434.988C298.406 434.924 298.358 434.836 298.342 434.724C298.326 434.612 298.35 434.488 298.414 434.352L301.69 426.936C301.762 426.768 301.854 426.648 301.966 426.576C302.078 426.496 302.202 426.456 302.338 426.456C302.474 426.456 302.594 426.496 302.698 426.576C302.81 426.648 302.906 426.768 302.986 426.936L306.262 434.352C306.326 434.488 306.35 434.616 306.334 434.736C306.326 434.848 306.282 434.936 306.202 435C306.122 435.056 306.01 435.084 305.866 435.084C305.706 435.084 305.578 435.044 305.482 434.964C305.386 434.876 305.302 434.752 305.23 434.592L304.378 432.6L304.894 432.888H299.758L300.274 432.6L299.422 434.592C299.35 434.768 299.27 434.896 299.182 434.976C299.094 435.048 298.978 435.084 298.834 435.084ZM302.314 427.8L300.442 432.228L300.154 431.976H304.498L304.222 432.228L302.338 427.8H302.314ZM309.457 435.084C309.273 435.084 309.133 435.036 309.037 434.94C308.941 434.836 308.893 434.692 308.893 434.508V427.488H306.265C306.113 427.488 305.993 427.448 305.905 427.368C305.817 427.28 305.773 427.16 305.773 427.008C305.773 426.856 305.817 426.74 305.905 426.66C305.993 426.58 306.113 426.54 306.265 426.54H312.637C312.797 426.54 312.917 426.58 312.997 426.66C313.085 426.74 313.129 426.856 313.129 427.008C313.129 427.16 313.085 427.28 312.997 427.368C312.917 427.448 312.797 427.488 312.637 427.488H310.009V434.508C310.009 434.692 309.961 434.836 309.865 434.94C309.777 435.036 309.641 435.084 309.457 435.084ZM317.49 435.108C316.93 435.108 316.434 435.036 316.002 434.892C315.578 434.74 315.222 434.52 314.934 434.232C314.646 433.936 314.426 433.572 314.274 433.14C314.13 432.7 314.058 432.192 314.058 431.616V427.02C314.058 426.828 314.106 426.688 314.202 426.6C314.298 426.504 314.434 426.456 314.61 426.456C314.794 426.456 314.934 426.504 315.03 426.6C315.126 426.688 315.174 426.828 315.174 427.02V431.58C315.174 432.436 315.37 433.076 315.762 433.5C316.154 433.916 316.73 434.124 317.49 434.124C318.25 434.124 318.826 433.916 319.218 433.5C319.61 433.076 319.806 432.436 319.806 431.58V427.02C319.806 426.828 319.854 426.688 319.95 426.6C320.046 426.504 320.182 426.456 320.358 426.456C320.534 426.456 320.67 426.504 320.766 426.6C320.862 426.688 320.91 426.828 320.91 427.02V431.616C320.91 432.376 320.778 433.016 320.514 433.536C320.258 434.056 319.874 434.448 319.362 434.712C318.858 434.976 318.234 435.108 317.49 435.108ZM325.667 435.108C325.291 435.108 324.927 435.076 324.575 435.012C324.223 434.956 323.891 434.868 323.579 434.748C323.267 434.628 322.987 434.48 322.739 434.304C322.635 434.232 322.559 434.144 322.511 434.04C322.471 433.936 322.459 433.836 322.475 433.74C322.499 433.636 322.543 433.548 322.607 433.476C322.679 433.404 322.763 433.36 322.859 433.344C322.955 433.328 323.059 433.36 323.171 433.44C323.539 433.688 323.923 433.868 324.323 433.98C324.731 434.092 325.179 434.148 325.667 434.148C326.371 434.148 326.887 434.02 327.215 433.764C327.551 433.508 327.719 433.172 327.719 432.756C327.719 432.412 327.599 432.144 327.359 431.952C327.119 431.752 326.715 431.596 326.147 431.484L324.875 431.22C324.123 431.06 323.559 430.796 323.183 430.428C322.815 430.06 322.631 429.568 322.631 428.952C322.631 428.576 322.707 428.236 322.859 427.932C323.011 427.62 323.227 427.352 323.507 427.128C323.787 426.904 324.115 426.732 324.491 426.612C324.875 426.492 325.299 426.432 325.763 426.432C326.259 426.432 326.723 426.5 327.155 426.636C327.595 426.772 327.991 426.972 328.343 427.236C328.439 427.308 328.503 427.396 328.535 427.5C328.567 427.596 328.571 427.692 328.547 427.788C328.531 427.884 328.487 427.964 328.415 428.028C328.351 428.092 328.267 428.128 328.163 428.136C328.067 428.144 327.959 428.108 327.839 428.028C327.519 427.804 327.191 427.644 326.855 427.548C326.519 427.444 326.151 427.392 325.751 427.392C325.343 427.392 324.987 427.456 324.683 427.584C324.387 427.712 324.155 427.892 323.987 428.124C323.827 428.348 323.747 428.612 323.747 428.916C323.747 429.284 323.859 429.572 324.083 429.78C324.307 429.988 324.683 430.148 325.211 430.26L326.471 430.512C327.271 430.68 327.863 430.94 328.247 431.292C328.639 431.636 328.835 432.1 328.835 432.684C328.835 433.052 328.759 433.384 328.607 433.68C328.463 433.976 328.255 434.232 327.983 434.448C327.711 434.656 327.379 434.82 326.987 434.94C326.595 435.052 326.155 435.108 325.667 435.108Z" fill="#00303F"/>
<path d="M233.928 470.352C231.645 470.352 229.64 469.872 227.912 468.912C226.184 467.931 224.84 466.565 223.88 464.816C222.941 463.067 222.472 461.029 222.472 458.704C222.472 456.955 222.739 455.365 223.272 453.936C223.827 452.507 224.605 451.28 225.608 450.256C226.632 449.232 227.848 448.453 229.256 447.92C230.664 447.365 232.221 447.088 233.928 447.088C236.211 447.088 238.205 447.568 239.912 448.528C241.64 449.488 242.984 450.843 243.944 452.592C244.904 454.32 245.384 456.357 245.384 458.704C245.384 460.453 245.107 462.043 244.552 463.472C244.019 464.901 243.24 466.139 242.216 467.184C241.213 468.208 240.008 468.997 238.6 469.552C237.192 470.085 235.635 470.352 233.928 470.352ZM233.928 465.424C235.059 465.424 236.019 465.157 236.808 464.624C237.597 464.091 238.205 463.323 238.632 462.32C239.059 461.317 239.272 460.112 239.272 458.704C239.272 456.592 238.803 454.949 237.864 453.776C236.925 452.603 235.613 452.016 233.928 452.016C232.819 452.016 231.859 452.283 231.048 452.816C230.259 453.328 229.651 454.085 229.224 455.088C228.797 456.069 228.584 457.275 228.584 458.704C228.584 460.816 229.053 462.469 229.992 463.664C230.931 464.837 232.243 465.424 233.928 465.424ZM251.613 470.288C250.717 470.288 250.034 470.053 249.565 469.584C249.095 469.115 248.861 468.421 248.861 467.504V450.064C248.861 449.125 249.095 448.411 249.565 447.92C250.034 447.408 250.653 447.152 251.421 447.152C252.103 447.152 252.637 447.28 253.021 447.536C253.405 447.792 253.831 448.219 254.301 448.816L264.444 461.488H263.549V449.904C263.549 449.008 263.773 448.325 264.221 447.856C264.69 447.387 265.373 447.152 266.269 447.152C267.165 447.152 267.837 447.387 268.285 447.856C268.754 448.325 268.989 449.008 268.989 449.904V467.632C268.989 468.443 268.775 469.093 268.349 469.584C267.922 470.053 267.346 470.288 266.621 470.288C265.895 470.288 265.319 470.16 264.892 469.904C264.487 469.627 264.05 469.2 263.581 468.624L253.437 455.92H254.333V467.504C254.333 468.421 254.098 469.115 253.629 469.584C253.181 470.053 252.509 470.288 251.613 470.288Z" fill="#00303F"/>
<rect x="201.5" y="406.5" width="164" height="86" rx="4.5" stroke="#C5C5C5"/>
<mask id="path-25-inside-1_96_763" fill="white">
<path d="M0 140H390V184H0V140Z"/>
</mask>
<path d="M0 140H390V184H0V140Z" fill="white"/>
<path d="M25.89 167C25.666 167 25.4933 166.939 25.372 166.818C25.2507 166.697 25.19 166.524 25.19 166.3V157.83C25.19 157.606 25.2507 157.433 25.372 157.312C25.4933 157.191 25.666 157.13 25.89 157.13H29.208C29.8893 157.13 30.468 157.233 30.944 157.438C31.4293 157.643 31.798 157.937 32.05 158.32C32.302 158.703 32.428 159.165 32.428 159.706C32.428 160.313 32.2507 160.821 31.896 161.232C31.5413 161.643 31.056 161.918 30.44 162.058V161.848C31.1307 161.932 31.672 162.189 32.064 162.618C32.4653 163.038 32.666 163.589 32.666 164.27C32.666 165.147 32.3767 165.824 31.798 166.3C31.2287 166.767 30.4213 167 29.376 167H25.89ZM26.45 165.978H29.236C29.964 165.978 30.5053 165.838 30.86 165.558C31.2147 165.269 31.392 164.83 31.392 164.242C31.392 163.654 31.2147 163.22 30.86 162.94C30.5053 162.66 29.964 162.52 29.236 162.52H26.45V165.978ZM26.45 161.484H29.012C29.7213 161.484 30.2533 161.344 30.608 161.064C30.972 160.775 31.154 160.359 31.154 159.818C31.154 159.277 30.972 158.866 30.608 158.586C30.2533 158.297 29.7213 158.152 29.012 158.152H26.45V161.484ZM36.96 167.126C36.4093 167.126 35.9473 167.023 35.574 166.818C35.21 166.613 34.9393 166.309 34.762 165.908C34.5846 165.507 34.496 165.003 34.496 164.396V160.728C34.496 160.513 34.5473 160.355 34.65 160.252C34.762 160.14 34.9206 160.084 35.126 160.084C35.3313 160.084 35.49 160.14 35.602 160.252C35.714 160.355 35.77 160.513 35.77 160.728V164.396C35.77 164.975 35.8866 165.404 36.12 165.684C36.3533 165.955 36.722 166.09 37.226 166.09C37.786 166.09 38.2386 165.903 38.584 165.53C38.9386 165.157 39.116 164.662 39.116 164.046V160.728C39.116 160.513 39.1673 160.355 39.27 160.252C39.382 160.14 39.5406 160.084 39.746 160.084C39.9513 160.084 40.11 160.14 40.222 160.252C40.334 160.355 40.39 160.513 40.39 160.728V166.44C40.39 166.879 40.1846 167.098 39.774 167.098C39.5686 167.098 39.41 167.042 39.298 166.93C39.1953 166.818 39.144 166.655 39.144 166.44V165.222L39.326 165.46C39.1393 166.001 38.836 166.417 38.416 166.706C38.0053 166.986 37.52 167.126 36.96 167.126ZM43.07 167.07C42.874 167.07 42.72 167.009 42.608 166.888C42.496 166.767 42.44 166.599 42.44 166.384V160.798C42.44 160.574 42.496 160.406 42.608 160.294C42.72 160.173 42.874 160.112 43.07 160.112C43.2753 160.112 43.434 160.173 43.546 160.294C43.658 160.406 43.714 160.574 43.714 160.798V166.384C43.714 166.599 43.658 166.767 43.546 166.888C43.4433 167.009 43.2846 167.07 43.07 167.07ZM43.07 158.6C42.818 158.6 42.6173 158.535 42.468 158.404C42.328 158.264 42.258 158.082 42.258 157.858C42.258 157.615 42.328 157.433 42.468 157.312C42.6173 157.181 42.818 157.116 43.07 157.116C43.3406 157.116 43.5413 157.181 43.672 157.312C43.812 157.433 43.882 157.615 43.882 157.858C43.882 158.082 43.812 158.264 43.672 158.404C43.5413 158.535 43.3406 158.6 43.07 158.6ZM47.9042 167.126C47.2042 167.126 46.6722 166.921 46.3082 166.51C45.9442 166.09 45.7622 165.488 45.7622 164.704V157.676C45.7622 157.461 45.8182 157.303 45.9302 157.2C46.0422 157.088 46.1962 157.032 46.3922 157.032C46.5976 157.032 46.7562 157.088 46.8682 157.2C46.9802 157.303 47.0362 157.461 47.0362 157.676V164.606C47.0362 165.091 47.1342 165.455 47.3302 165.698C47.5356 165.931 47.8249 166.048 48.1982 166.048C48.2822 166.048 48.3569 166.048 48.4222 166.048C48.4876 166.039 48.5529 166.029 48.6182 166.02C48.7209 166.011 48.7956 166.039 48.8422 166.104C48.8889 166.169 48.9122 166.3 48.9122 166.496C48.9122 166.673 48.8702 166.813 48.7862 166.916C48.7116 167.009 48.5856 167.07 48.4082 167.098C48.3242 167.107 48.2402 167.112 48.1562 167.112C48.0722 167.121 47.9882 167.126 47.9042 167.126ZM52.5088 167.126C51.9115 167.126 51.3841 166.986 50.9268 166.706C50.4788 166.417 50.1288 166.006 49.8768 165.474C49.6248 164.933 49.4988 164.303 49.4988 163.584C49.4988 162.856 49.6201 162.231 49.8628 161.708C50.1148 161.176 50.4648 160.77 50.9128 160.49C51.3701 160.201 51.9021 160.056 52.5088 160.056C53.1155 160.056 53.6381 160.21 54.0768 160.518C54.5155 160.817 54.8095 161.218 54.9588 161.722H54.8048V157.676C54.8048 157.461 54.8561 157.303 54.9588 157.2C55.0708 157.088 55.2295 157.032 55.4348 157.032C55.6401 157.032 55.7988 157.088 55.9108 157.2C56.0228 157.303 56.0788 157.461 56.0788 157.676V166.44C56.0788 166.655 56.0228 166.818 55.9108 166.93C55.7988 167.042 55.6401 167.098 55.4348 167.098C55.2388 167.098 55.0848 167.042 54.9728 166.93C54.8608 166.818 54.8048 166.655 54.8048 166.44V165.166L54.9588 165.418C54.8188 165.941 54.5248 166.356 54.0768 166.664C53.6381 166.972 53.1155 167.126 52.5088 167.126ZM52.8028 166.118C53.2135 166.118 53.5681 166.02 53.8668 165.824C54.1748 165.628 54.4081 165.343 54.5668 164.97C54.7348 164.597 54.8188 164.135 54.8188 163.584C54.8188 162.763 54.6368 162.137 54.2728 161.708C53.9088 161.279 53.4188 161.064 52.8028 161.064C52.4015 161.064 52.0468 161.162 51.7388 161.358C51.4401 161.545 51.2068 161.825 51.0388 162.198C50.8708 162.571 50.7868 163.033 50.7868 163.584C50.7868 164.405 50.9688 165.035 51.3328 165.474C51.7061 165.903 52.1961 166.118 52.8028 166.118ZM58.7516 167.07C58.5556 167.07 58.4016 167.009 58.2896 166.888C58.1776 166.767 58.1216 166.599 58.1216 166.384V160.798C58.1216 160.574 58.1776 160.406 58.2896 160.294C58.4016 160.173 58.5556 160.112 58.7516 160.112C58.9569 160.112 59.1156 160.173 59.2276 160.294C59.3396 160.406 59.3956 160.574 59.3956 160.798V166.384C59.3956 166.599 59.3396 166.767 59.2276 166.888C59.1249 167.009 58.9663 167.07 58.7516 167.07ZM58.7516 158.6C58.4996 158.6 58.2989 158.535 58.1496 158.404C58.0096 158.264 57.9396 158.082 57.9396 157.858C57.9396 157.615 58.0096 157.433 58.1496 157.312C58.2989 157.181 58.4996 157.116 58.7516 157.116C59.0223 157.116 59.2229 157.181 59.3536 157.312C59.4936 157.433 59.5636 157.615 59.5636 157.858C59.5636 158.082 59.4936 158.264 59.3536 158.404C59.2229 158.535 59.0223 158.6 58.7516 158.6ZM62.0739 167.098C61.8779 167.098 61.7239 167.042 61.6119 166.93C61.4999 166.818 61.4439 166.655 61.4439 166.44V160.728C61.4439 160.513 61.4999 160.355 61.6119 160.252C61.7239 160.14 61.8779 160.084 62.0739 160.084C62.2699 160.084 62.4192 160.14 62.5219 160.252C62.6339 160.355 62.6899 160.513 62.6899 160.728V161.876L62.5359 161.666C62.7319 161.134 63.0492 160.733 63.4879 160.462C63.9359 160.191 64.4445 160.056 65.0139 160.056C65.5645 160.056 66.0172 160.154 66.3719 160.35C66.7265 160.546 66.9925 160.845 67.1699 161.246C67.3472 161.647 67.4359 162.156 67.4359 162.772V166.44C67.4359 166.655 67.3799 166.818 67.2679 166.93C67.1652 167.042 67.0112 167.098 66.8059 167.098C66.6005 167.098 66.4419 167.042 66.3299 166.93C66.2179 166.818 66.1619 166.655 66.1619 166.44V162.842C66.1619 162.235 66.0452 161.792 65.8119 161.512C65.5785 161.232 65.2052 161.092 64.6919 161.092C64.0945 161.092 63.6139 161.279 63.2499 161.652C62.8952 162.016 62.7179 162.511 62.7179 163.136V166.44C62.7179 166.879 62.5032 167.098 62.0739 167.098ZM72.5216 169.646C72.0176 169.646 71.5276 169.59 71.0516 169.478C70.5849 169.366 70.1603 169.193 69.7776 168.96C69.6563 168.885 69.5723 168.797 69.5256 168.694C69.4883 168.601 69.4789 168.503 69.4976 168.4C69.5256 168.297 69.5723 168.204 69.6376 168.12C69.7123 168.045 69.7963 167.994 69.8896 167.966C69.9923 167.947 70.0949 167.971 70.1976 168.036C70.6083 168.269 71.0003 168.428 71.3736 168.512C71.7469 168.596 72.1016 168.638 72.4376 168.638C73.1003 168.638 73.5949 168.465 73.9216 168.12C74.2576 167.784 74.4256 167.289 74.4256 166.636V165.124H74.5516C74.4209 165.647 74.1269 166.062 73.6696 166.37C73.2216 166.678 72.6989 166.832 72.1016 166.832C71.4856 166.832 70.9489 166.692 70.4916 166.412C70.0343 166.123 69.6796 165.726 69.4276 165.222C69.1756 164.709 69.0496 164.116 69.0496 163.444C69.0496 162.931 69.1196 162.469 69.2596 162.058C69.4089 161.638 69.6143 161.283 69.8756 160.994C70.1463 160.695 70.4683 160.467 70.8416 160.308C71.2149 160.14 71.6349 160.056 72.1016 160.056C72.7083 160.056 73.2356 160.21 73.6836 160.518C74.1316 160.826 74.4209 161.241 74.5516 161.764L74.3976 161.96V160.728C74.3976 160.513 74.4536 160.355 74.5656 160.252C74.6776 160.14 74.8363 160.084 75.0416 160.084C75.2376 160.084 75.3916 160.14 75.5036 160.252C75.6156 160.355 75.6716 160.513 75.6716 160.728V166.468C75.6716 167.523 75.4009 168.316 74.8596 168.848C74.3276 169.38 73.5483 169.646 72.5216 169.646ZM72.3816 165.824C72.8016 165.824 73.1609 165.731 73.4596 165.544C73.7676 165.348 74.0009 165.073 74.1596 164.718C74.3276 164.354 74.4116 163.929 74.4116 163.444C74.4116 162.707 74.2296 162.128 73.8656 161.708C73.5016 161.279 73.0069 161.064 72.3816 161.064C71.9616 161.064 71.5976 161.162 71.2896 161.358C70.9909 161.545 70.7576 161.815 70.5896 162.17C70.4216 162.525 70.3376 162.949 70.3376 163.444C70.3376 164.172 70.5196 164.751 70.8836 165.18C71.2569 165.609 71.7563 165.824 72.3816 165.824ZM82.1338 167.098C81.9471 167.098 81.7978 167.042 81.6858 166.93C81.5831 166.818 81.5318 166.664 81.5318 166.468V157.69C81.5318 157.475 81.5831 157.312 81.6858 157.2C81.7885 157.088 81.9238 157.032 82.0918 157.032C82.2505 157.032 82.3718 157.06 82.4558 157.116C82.5398 157.172 82.6331 157.27 82.7358 157.41L88.6718 165.278H88.3218V157.662C88.3218 157.457 88.3731 157.303 88.4758 157.2C88.5878 157.088 88.7418 157.032 88.9378 157.032C89.1338 157.032 89.2831 157.088 89.3858 157.2C89.4885 157.303 89.5398 157.457 89.5398 157.662V166.468C89.5398 166.664 89.4885 166.818 89.3858 166.93C89.2925 167.042 89.1665 167.098 89.0078 167.098C88.8585 167.098 88.7325 167.065 88.6298 167C88.5365 166.944 88.4385 166.846 88.3358 166.706L82.4138 158.838H82.7358V166.468C82.7358 166.664 82.6845 166.818 82.5818 166.93C82.4791 167.042 82.3298 167.098 82.1338 167.098ZM93.9108 167.126C93.4441 167.126 93.0194 167.033 92.6368 166.846C92.2634 166.659 91.9694 166.407 91.7548 166.09C91.5494 165.773 91.4468 165.418 91.4468 165.026C91.4468 164.522 91.5728 164.125 91.8248 163.836C92.0768 163.547 92.5014 163.341 93.0988 163.22C93.6961 163.089 94.4988 163.024 95.5068 163.024H96.1648V163.836H95.5348C94.8161 163.836 94.2468 163.869 93.8268 163.934C93.4161 163.999 93.1268 164.116 92.9588 164.284C92.7908 164.443 92.7068 164.667 92.7068 164.956C92.7068 165.32 92.8328 165.619 93.0848 165.852C93.3461 166.085 93.7008 166.202 94.1488 166.202C94.5034 166.202 94.8161 166.118 95.0868 165.95C95.3574 165.773 95.5721 165.539 95.7308 165.25C95.8894 164.951 95.9688 164.611 95.9688 164.228V162.618C95.9688 162.067 95.8568 161.671 95.6328 161.428C95.4088 161.176 95.0308 161.05 94.4988 161.05C94.1908 161.05 93.8734 161.092 93.5468 161.176C93.2201 161.26 92.8794 161.391 92.5248 161.568C92.3848 161.633 92.2634 161.657 92.1608 161.638C92.0581 161.61 91.9741 161.554 91.9088 161.47C91.8528 161.377 91.8201 161.279 91.8108 161.176C91.8108 161.064 91.8341 160.957 91.8808 160.854C91.9368 160.751 92.0301 160.677 92.1608 160.63C92.5714 160.425 92.9774 160.28 93.3788 160.196C93.7894 160.103 94.1721 160.056 94.5268 160.056C95.1334 160.056 95.6328 160.154 96.0248 160.35C96.4168 160.537 96.7108 160.831 96.9068 161.232C97.1028 161.624 97.2008 162.128 97.2008 162.744V166.44C97.2008 166.655 97.1494 166.818 97.0468 166.93C96.9441 167.042 96.7948 167.098 96.5988 167.098C96.4121 167.098 96.2628 167.042 96.1508 166.93C96.0481 166.818 95.9968 166.655 95.9968 166.44V165.446H96.1228C96.0481 165.791 95.9081 166.09 95.7028 166.342C95.4974 166.594 95.2408 166.79 94.9328 166.93C94.6341 167.061 94.2934 167.126 93.9108 167.126ZM99.8636 167.098C99.6676 167.098 99.5136 167.042 99.4016 166.93C99.2896 166.818 99.2336 166.655 99.2336 166.44V160.728C99.2336 160.513 99.2896 160.355 99.4016 160.252C99.5136 160.14 99.6676 160.084 99.8636 160.084C100.06 160.084 100.209 160.14 100.312 160.252C100.424 160.355 100.48 160.513 100.48 160.728V161.918L100.326 161.666C100.503 161.153 100.788 160.756 101.18 160.476C101.581 160.196 102.057 160.056 102.608 160.056C103.186 160.056 103.653 160.196 104.008 160.476C104.362 160.747 104.6 161.162 104.722 161.722H104.526C104.694 161.209 104.992 160.803 105.422 160.504C105.86 160.205 106.369 160.056 106.948 160.056C107.461 160.056 107.881 160.159 108.208 160.364C108.544 160.56 108.796 160.859 108.964 161.26C109.132 161.652 109.216 162.156 109.216 162.772V166.44C109.216 166.655 109.16 166.818 109.048 166.93C108.936 167.042 108.782 167.098 108.586 167.098C108.38 167.098 108.222 167.042 108.11 166.93C107.998 166.818 107.942 166.655 107.942 166.44V162.828C107.942 162.231 107.839 161.792 107.634 161.512C107.428 161.232 107.083 161.092 106.598 161.092C106.066 161.092 105.641 161.279 105.324 161.652C105.016 162.016 104.862 162.52 104.862 163.164V166.44C104.862 166.655 104.806 166.818 104.694 166.93C104.591 167.042 104.437 167.098 104.232 167.098C104.026 167.098 103.868 167.042 103.756 166.93C103.644 166.818 103.588 166.655 103.588 166.44V162.828C103.588 162.231 103.485 161.792 103.28 161.512C103.074 161.232 102.729 161.092 102.244 161.092C101.712 161.092 101.287 161.279 100.97 161.652C100.662 162.016 100.508 162.52 100.508 163.164V166.44C100.508 166.879 100.293 167.098 99.8636 167.098ZM114.414 167.126C113.677 167.126 113.042 166.986 112.51 166.706C111.988 166.417 111.582 166.011 111.292 165.488C111.003 164.956 110.858 164.331 110.858 163.612C110.858 162.903 110.998 162.282 111.278 161.75C111.568 161.218 111.96 160.803 112.454 160.504C112.958 160.205 113.532 160.056 114.176 160.056C114.634 160.056 115.044 160.135 115.408 160.294C115.782 160.443 116.099 160.663 116.36 160.952C116.622 161.241 116.818 161.596 116.948 162.016C117.088 162.427 117.158 162.893 117.158 163.416C117.158 163.565 117.112 163.682 117.018 163.766C116.934 163.841 116.808 163.878 116.64 163.878H111.852V163.066H116.318L116.08 163.262C116.08 162.777 116.006 162.366 115.856 162.03C115.716 161.685 115.506 161.423 115.226 161.246C114.956 161.069 114.615 160.98 114.204 160.98C113.756 160.98 113.374 161.087 113.056 161.302C112.739 161.507 112.496 161.801 112.328 162.184C112.16 162.557 112.076 162.991 112.076 163.486V163.57C112.076 164.41 112.277 165.045 112.678 165.474C113.08 165.903 113.658 166.118 114.414 166.118C114.713 166.118 115.016 166.081 115.324 166.006C115.642 165.931 115.945 165.796 116.234 165.6C116.374 165.516 116.5 165.479 116.612 165.488C116.734 165.488 116.832 165.525 116.906 165.6C116.981 165.665 117.028 165.749 117.046 165.852C117.065 165.945 117.051 166.048 117.004 166.16C116.958 166.272 116.869 166.37 116.738 166.454C116.43 166.669 116.062 166.837 115.632 166.958C115.212 167.07 114.806 167.126 114.414 167.126Z" fill="#00303F"/>
<path d="M279.92 166C279.544 166 279.256 165.904 279.056 165.712C278.864 165.512 278.768 165.228 278.768 164.86V158.68C278.768 158.312 278.864 158.032 279.056 157.84C279.256 157.64 279.544 157.54 279.92 157.54H283.988C284.276 157.54 284.492 157.612 284.636 157.756C284.78 157.9 284.852 158.108 284.852 158.38C284.852 158.66 284.78 158.876 284.636 159.028C284.492 159.172 284.276 159.244 283.988 159.244H280.88V160.852H283.724C284.004 160.852 284.216 160.924 284.36 161.068C284.512 161.212 284.588 161.424 284.588 161.704C284.588 161.984 284.512 162.196 284.36 162.34C284.216 162.484 284.004 162.556 283.724 162.556H280.88V164.296H283.988C284.276 164.296 284.492 164.372 284.636 164.524C284.78 164.668 284.852 164.876 284.852 165.148C284.852 165.428 284.78 165.64 284.636 165.784C284.492 165.928 284.276 166 283.988 166H279.92ZM287.255 166C286.903 166 286.627 165.904 286.427 165.712C286.235 165.512 286.139 165.236 286.139 164.884V158.644C286.139 158.284 286.235 158.008 286.427 157.816C286.619 157.624 286.891 157.528 287.243 157.528C287.603 157.528 287.875 157.624 288.059 157.816C288.251 158.008 288.347 158.284 288.347 158.644V164.164H291.275C291.579 164.164 291.811 164.244 291.971 164.404C292.139 164.556 292.223 164.78 292.223 165.076C292.223 165.372 292.139 165.6 291.971 165.76C291.811 165.92 291.579 166 291.275 166H287.255ZM294.311 166C293.935 166 293.647 165.904 293.447 165.712C293.255 165.512 293.159 165.228 293.159 164.86V158.68C293.159 158.312 293.255 158.032 293.447 157.84C293.647 157.64 293.935 157.54 294.311 157.54H298.379C298.667 157.54 298.883 157.612 299.027 157.756C299.171 157.9 299.243 158.108 299.243 158.38C299.243 158.66 299.171 158.876 299.027 159.028C298.883 159.172 298.667 159.244 298.379 159.244H295.271V160.852H298.115C298.395 160.852 298.607 160.924 298.751 161.068C298.903 161.212 298.979 161.424 298.979 161.704C298.979 161.984 298.903 162.196 298.751 162.34C298.607 162.484 298.395 162.556 298.115 162.556H295.271V164.296H298.379C298.667 164.296 298.883 164.372 299.027 164.524C299.171 164.668 299.243 164.876 299.243 165.148C299.243 165.428 299.171 165.64 299.027 165.784C298.883 165.928 298.667 166 298.379 166H294.311ZM304.249 166.108C303.945 166.108 303.697 166.044 303.505 165.916C303.321 165.788 303.165 165.584 303.037 165.304L300.133 158.896C300.005 158.616 299.965 158.364 300.013 158.14C300.061 157.916 300.173 157.744 300.349 157.624C300.525 157.496 300.745 157.432 301.009 157.432C301.337 157.432 301.581 157.504 301.741 157.648C301.909 157.792 302.053 158.004 302.173 158.284L304.621 163.948H303.949L306.397 158.272C306.517 157.992 306.661 157.784 306.829 157.648C306.997 157.504 307.233 157.432 307.537 157.432C307.785 157.432 307.993 157.496 308.161 157.624C308.329 157.744 308.433 157.916 308.473 158.14C308.521 158.364 308.481 158.616 308.353 158.896L305.437 165.304C305.317 165.584 305.165 165.788 304.981 165.916C304.797 166.044 304.553 166.108 304.249 166.108ZM309.059 166.108C308.811 166.108 308.603 166.052 308.435 165.94C308.267 165.82 308.163 165.66 308.123 165.46C308.083 165.252 308.119 165.02 308.231 164.764L311.219 158.332C311.363 158.02 311.539 157.792 311.747 157.648C311.963 157.504 312.207 157.432 312.479 157.432C312.751 157.432 312.987 157.504 313.187 157.648C313.395 157.792 313.575 158.02 313.727 158.332L316.715 164.764C316.843 165.02 316.887 165.252 316.847 165.46C316.815 165.668 316.715 165.828 316.547 165.94C316.387 166.052 316.187 166.108 315.947 166.108C315.627 166.108 315.379 166.036 315.203 165.892C315.035 165.748 314.883 165.516 314.747 165.196L314.099 163.672L314.939 164.284H309.995L310.847 163.672L310.199 165.196C310.055 165.516 309.907 165.748 309.755 165.892C309.603 166.036 309.371 166.108 309.059 166.108ZM312.455 159.844L311.063 163.168L310.727 162.592H314.219L313.883 163.168L312.479 159.844H312.455ZM319.962 166.108C319.61 166.108 319.338 166.012 319.146 165.82C318.954 165.62 318.858 165.344 318.858 164.992V159.34H316.974C316.678 159.34 316.45 159.264 316.29 159.112C316.138 158.952 316.062 158.728 316.062 158.44C316.062 158.144 316.138 157.92 316.29 157.768C316.45 157.616 316.678 157.54 316.974 157.54H322.95C323.246 157.54 323.47 157.616 323.622 157.768C323.782 157.92 323.862 158.144 323.862 158.44C323.862 158.728 323.782 158.952 323.622 159.112C323.47 159.264 323.246 159.34 322.95 159.34H321.066V164.992C321.066 165.344 320.974 165.62 320.79 165.82C320.606 166.012 320.33 166.108 319.962 166.108ZM328.176 166.132C327.32 166.132 326.568 165.952 325.92 165.592C325.272 165.224 324.768 164.712 324.408 164.056C324.056 163.4 323.88 162.636 323.88 161.764C323.88 161.108 323.98 160.512 324.18 159.976C324.388 159.44 324.68 158.98 325.056 158.596C325.44 158.212 325.896 157.92 326.424 157.72C326.952 157.512 327.536 157.408 328.176 157.408C329.032 157.408 329.78 157.588 330.42 157.948C331.068 158.308 331.572 158.816 331.932 159.472C332.292 160.12 332.472 160.884 332.472 161.764C332.472 162.42 332.368 163.016 332.16 163.552C331.96 164.088 331.668 164.552 331.284 164.944C330.908 165.328 330.456 165.624 329.928 165.832C329.4 166.032 328.816 166.132 328.176 166.132ZM328.176 164.284C328.6 164.284 328.96 164.184 329.256 163.984C329.552 163.784 329.78 163.496 329.94 163.12C330.1 162.744 330.18 162.292 330.18 161.764C330.18 160.972 330.004 160.356 329.652 159.916C329.3 159.476 328.808 159.256 328.176 159.256C327.76 159.256 327.4 159.356 327.096 159.556C326.8 159.748 326.572 160.032 326.412 160.408C326.252 160.776 326.172 161.228 326.172 161.764C326.172 162.556 326.348 163.176 326.7 163.624C327.052 164.064 327.544 164.284 328.176 164.284ZM334.88 166.108C334.528 166.108 334.256 166.012 334.064 165.82C333.872 165.62 333.776 165.344 333.776 164.992V158.656C333.776 158.296 333.872 158.02 334.064 157.828C334.264 157.636 334.54 157.54 334.892 157.54H337.844C338.804 157.54 339.544 157.776 340.064 158.248C340.592 158.712 340.856 159.36 340.856 160.192C340.856 160.728 340.736 161.196 340.496 161.596C340.264 161.988 339.924 162.292 339.476 162.508C339.036 162.716 338.492 162.82 337.844 162.82L337.94 162.604H338.516C338.86 162.604 339.164 162.688 339.428 162.856C339.692 163.016 339.912 163.264 340.088 163.6L340.688 164.68C340.816 164.912 340.876 165.14 340.868 165.364C340.86 165.58 340.772 165.76 340.604 165.904C340.444 166.04 340.208 166.108 339.896 166.108C339.584 166.108 339.328 166.044 339.128 165.916C338.936 165.788 338.764 165.588 338.612 165.316L337.52 163.312C337.424 163.136 337.3 163.016 337.148 162.952C337.004 162.88 336.836 162.844 336.644 162.844H335.984V164.992C335.984 165.344 335.892 165.62 335.708 165.82C335.524 166.012 335.248 166.108 334.88 166.108ZM335.984 161.284H337.448C337.872 161.284 338.196 161.2 338.42 161.032C338.644 160.864 338.756 160.604 338.756 160.252C338.756 159.916 338.644 159.664 338.42 159.496C338.196 159.32 337.872 159.232 337.448 159.232H335.984V161.284Z" fill="#00303F"/>
<rect x="352" y="155" width="14" height="14" rx="7" fill="#1EFF34"/>
<rect x="351" y="154" width="16" height="16" rx="8" stroke="black" stroke-opacity="0.25" stroke-width="2"/>
<path d="M390 183H0V185H390V183Z" fill="#C5C5C5" mask="url(#path-25-inside-1_96_763)"/>
</g>
<defs>
<clipPath id="clip0_96_763">
<rect width="390" height="844" fill="white"/>
</clipPath>
</defs>
</svg>
