<svg width="1363" height="301" viewBox="0 0 1363 301" fill="none" xmlns="http://www.w3.org/2000/svg">
<rect width="1363" height="301" rx="15" fill="#F0F0F0"/>
<path d="M0 15C0 6.71573 6.71573 0 15 0H37V301H15C6.71573 301 0 294.284 0 286V15Z" fill="#59DBAE"/>
<path d="M116.197 104.898H125.623V130.438C125.623 133.482 124.987 136.06 123.716 138.172C122.445 140.267 120.664 141.852 118.372 142.926C116.08 144 113.386 144.537 110.289 144.537C107.227 144.537 104.533 144 102.205 142.926C99.8955 141.852 98.0872 140.267 96.7803 138.172C95.4912 136.06 94.8467 133.482 94.8467 130.438V104.898H104.3V130.438C104.3 132.049 104.533 133.365 104.998 134.386C105.464 135.388 106.144 136.122 107.039 136.588C107.934 137.053 109.017 137.286 110.289 137.286C111.578 137.286 112.661 137.053 113.538 136.588C114.415 136.122 115.078 135.388 115.525 134.386C115.973 133.365 116.197 132.049 116.197 130.438V104.898ZM147.161 130.733H137.439V123.456H147.161C148.486 123.456 149.56 123.232 150.384 122.784C151.207 122.337 151.807 121.719 152.183 120.931C152.577 120.125 152.774 119.221 152.774 118.219C152.774 117.145 152.577 116.151 152.183 115.238C151.807 114.325 151.207 113.591 150.384 113.036C149.56 112.463 148.486 112.176 147.161 112.176H140.984V144H131.558V104.898H147.161C150.294 104.898 152.989 105.471 155.245 106.617C157.518 107.763 159.264 109.339 160.481 111.344C161.699 113.331 162.308 115.605 162.308 118.165C162.308 120.689 161.699 122.892 160.481 124.771C159.264 126.651 157.518 128.119 155.245 129.176C152.989 130.214 150.294 130.733 147.161 130.733ZM180.086 144H171.412L171.465 136.749H180.086C181.876 136.749 183.389 136.319 184.625 135.46C185.878 134.601 186.827 133.32 187.471 131.62C188.134 129.901 188.465 127.788 188.465 125.282V123.59C188.465 121.71 188.277 120.063 187.901 118.648C187.543 117.216 187.006 116.026 186.29 115.077C185.573 114.11 184.678 113.385 183.604 112.901C182.548 112.418 181.33 112.176 179.952 112.176H171.25V104.898H179.952C182.601 104.898 185.027 105.355 187.229 106.268C189.45 107.163 191.365 108.452 192.977 110.135C194.606 111.8 195.859 113.779 196.736 116.07C197.632 118.344 198.079 120.868 198.079 123.644V125.282C198.079 128.039 197.632 130.563 196.736 132.855C195.859 135.147 194.615 137.125 193.003 138.79C191.392 140.455 189.485 141.744 187.283 142.657C185.099 143.552 182.7 144 180.086 144ZM176.81 104.898V144H167.383V104.898H176.81ZM236.08 123.67V125.255C236.08 128.245 235.659 130.93 234.817 133.312C233.994 135.675 232.821 137.698 231.299 139.381C229.778 141.046 227.978 142.326 225.901 143.221C223.825 144.098 221.533 144.537 219.026 144.537C216.502 144.537 214.192 144.098 212.098 143.221C210.021 142.326 208.213 141.046 206.673 139.381C205.151 137.698 203.969 135.675 203.128 133.312C202.304 130.93 201.893 128.245 201.893 125.255V123.67C201.893 120.681 202.304 117.995 203.128 115.614C203.969 113.233 205.142 111.209 206.646 109.544C208.168 107.861 209.967 106.581 212.044 105.704C214.139 104.809 216.448 104.361 218.973 104.361C221.479 104.361 223.771 104.809 225.848 105.704C227.942 106.581 229.751 107.861 231.272 109.544C232.794 111.209 233.976 113.233 234.817 115.614C235.659 117.995 236.08 120.681 236.08 123.67ZM226.519 125.255V123.617C226.519 121.683 226.349 119.982 226.009 118.514C225.687 117.028 225.203 115.784 224.559 114.781C223.914 113.779 223.117 113.027 222.168 112.525C221.237 112.006 220.172 111.747 218.973 111.747C217.719 111.747 216.627 112.006 215.696 112.525C214.765 113.027 213.986 113.779 213.36 114.781C212.733 115.784 212.259 117.028 211.937 118.514C211.632 119.982 211.48 121.683 211.48 123.617V125.255C211.48 127.171 211.632 128.871 211.937 130.357C212.259 131.826 212.733 133.07 213.36 134.09C214.004 135.111 214.792 135.881 215.723 136.4C216.672 136.919 217.773 137.179 219.026 137.179C220.226 137.179 221.291 136.919 222.222 136.4C223.153 135.881 223.932 135.111 224.559 134.09C225.203 133.07 225.687 131.826 226.009 130.357C226.349 128.871 226.519 127.171 226.519 125.255ZM249.991 140.455L257.779 104.898H262.425L264.949 107.933L256.651 144H251.521L249.991 140.455ZM247.923 104.898L254.502 140.724L252.811 144H246.875L238.577 104.898H247.923ZM269.219 140.536L275.745 104.898H285.064L276.766 144H270.857L269.219 140.536ZM265.782 104.898L273.758 140.67L272.146 144H267.017L258.531 107.879L261.163 104.898H265.782ZM321.426 104.898V144H312.027L298.196 119.669V144H288.77V104.898H298.196L312.027 129.229V104.898H321.426Z" fill="black"/>
<path d="M110.816 65.2515V69.2505H97.8276V65.2515H110.816ZM99.3486 55.1172V80H94.2217V55.1172H99.3486ZM114.473 55.1172V80H109.363V55.1172H114.473ZM128.606 75.8301V67.5928C128.606 67.0003 128.51 66.4933 128.316 66.0718C128.122 65.6388 127.82 65.3027 127.41 65.0635C127.011 64.8242 126.493 64.7046 125.855 64.7046C125.308 64.7046 124.835 64.8014 124.437 64.9951C124.038 65.1774 123.73 65.4451 123.514 65.7983C123.297 66.1401 123.189 66.5446 123.189 67.0117H118.267C118.267 66.2256 118.449 65.4793 118.814 64.7729C119.179 64.0666 119.708 63.4456 120.403 62.9102C121.098 62.3633 121.924 61.936 122.881 61.6284C123.85 61.3208 124.932 61.167 126.128 61.167C127.564 61.167 128.84 61.4062 129.957 61.8848C131.073 62.3633 131.95 63.0811 132.588 64.0381C133.238 64.9951 133.562 66.1914 133.562 67.627V75.5396C133.562 76.5535 133.625 77.3853 133.75 78.0347C133.876 78.6727 134.058 79.231 134.297 79.7095V80H129.324C129.085 79.4987 128.903 78.8721 128.777 78.1201C128.663 77.3568 128.606 76.5934 128.606 75.8301ZM129.256 68.7378L129.29 71.5234H126.539C125.889 71.5234 125.325 71.5975 124.847 71.7456C124.368 71.8937 123.975 72.1045 123.667 72.3779C123.36 72.64 123.132 72.9476 122.984 73.3008C122.847 73.654 122.779 74.0413 122.779 74.4629C122.779 74.8844 122.876 75.2661 123.069 75.6079C123.263 75.9383 123.542 76.2004 123.907 76.394C124.271 76.5763 124.699 76.6675 125.188 76.6675C125.929 76.6675 126.573 76.5194 127.12 76.2231C127.667 75.9269 128.088 75.5623 128.384 75.1294C128.692 74.6965 128.851 74.2863 128.863 73.8989L130.162 75.9839C129.979 76.451 129.729 76.9352 129.41 77.4365C129.102 77.9378 128.709 78.4106 128.23 78.855C127.752 79.2879 127.177 79.6468 126.504 79.9316C125.832 80.2051 125.035 80.3418 124.112 80.3418C122.938 80.3418 121.873 80.1082 120.916 79.6411C119.97 79.1626 119.218 78.5075 118.66 77.6758C118.113 76.8327 117.84 75.8757 117.84 74.8047C117.84 73.8363 118.022 72.9761 118.387 72.2241C118.751 71.4722 119.287 70.8398 119.993 70.3271C120.711 69.8031 121.605 69.41 122.676 69.1479C123.747 68.8745 124.989 68.7378 126.402 68.7378H129.256ZM148.277 75.9668V53.75H153.233V80H148.772L148.277 75.9668ZM136.587 70.9766V70.6177C136.587 69.2049 136.747 67.9232 137.066 66.7725C137.385 65.6104 137.852 64.6134 138.467 63.7817C139.083 62.95 139.84 62.3063 140.74 61.8506C141.64 61.3949 142.666 61.167 143.816 61.167C144.899 61.167 145.844 61.3949 146.653 61.8506C147.474 62.3063 148.169 62.9557 148.738 63.7988C149.319 64.6305 149.786 65.616 150.14 66.7554C150.493 67.8833 150.749 69.1195 150.909 70.4639V71.25C150.749 72.5374 150.493 73.7337 150.14 74.8389C149.786 75.944 149.319 76.9124 148.738 77.7441C148.169 78.5645 147.474 79.2025 146.653 79.6582C145.833 80.1139 144.876 80.3418 143.782 80.3418C142.632 80.3418 141.606 80.1082 140.706 79.6411C139.817 79.174 139.065 78.5189 138.45 77.6758C137.846 76.8327 137.385 75.8415 137.066 74.7021C136.747 73.5628 136.587 72.321 136.587 70.9766ZM141.509 70.6177V70.9766C141.509 71.7399 141.566 72.452 141.68 73.1128C141.806 73.7736 142.005 74.3604 142.278 74.873C142.563 75.3743 142.928 75.7674 143.372 76.0522C143.828 76.3257 144.38 76.4624 145.03 76.4624C145.873 76.4624 146.568 76.2744 147.115 75.8984C147.662 75.5111 148.077 74.9813 148.362 74.3091C148.659 73.6369 148.829 72.8621 148.875 71.9849V69.7461C148.841 69.0283 148.738 68.3846 148.567 67.8149C148.408 67.2339 148.169 66.7383 147.85 66.3281C147.542 65.918 147.155 65.599 146.688 65.3711C146.232 65.1432 145.691 65.0293 145.064 65.0293C144.426 65.0293 143.879 65.1774 143.423 65.4736C142.968 65.7585 142.597 66.1515 142.312 66.6528C142.039 67.1541 141.834 67.7466 141.697 68.4302C141.572 69.1024 141.509 69.8315 141.509 70.6177ZM162.273 61.5088V80H157.334V61.5088H162.273ZM157.027 56.6895C157.027 55.9717 157.278 55.3792 157.779 54.9121C158.28 54.445 158.952 54.2114 159.795 54.2114C160.627 54.2114 161.294 54.445 161.795 54.9121C162.308 55.3792 162.564 55.9717 162.564 56.6895C162.564 57.4072 162.308 57.9997 161.795 58.4668C161.294 58.9339 160.627 59.1675 159.795 59.1675C158.952 59.1675 158.28 58.9339 157.779 58.4668C157.278 57.9997 157.027 57.4072 157.027 56.6895ZM183.003 80H177.586L177.62 76.001H183.003C184.348 76.001 185.481 75.6991 186.404 75.0952C187.327 74.48 188.022 73.5856 188.489 72.4121C188.968 71.2386 189.207 69.8201 189.207 68.1567V66.9434C189.207 65.6673 189.07 64.5451 188.797 63.5767C188.535 62.6082 188.142 61.7936 187.618 61.1328C187.094 60.472 186.45 59.9764 185.687 59.646C184.923 59.3042 184.046 59.1333 183.055 59.1333H177.483V55.1172H183.055C184.718 55.1172 186.239 55.402 187.618 55.9717C189.008 56.5299 190.21 57.3332 191.224 58.3813C192.238 59.4295 193.018 60.6828 193.565 62.1411C194.123 63.5881 194.402 65.2002 194.402 66.9775V68.1567C194.402 69.9227 194.123 71.5348 193.565 72.9932C193.018 74.4515 192.238 75.7048 191.224 76.7529C190.221 77.7897 189.019 78.5929 187.618 79.1626C186.228 79.7209 184.69 80 183.003 80ZM180.491 55.1172V80H175.364V55.1172H180.491ZM207.801 75.8301V67.5928C207.801 67.0003 207.704 66.4933 207.51 66.0718C207.317 65.6388 207.015 65.3027 206.604 65.0635C206.206 64.8242 205.687 64.7046 205.049 64.7046C204.502 64.7046 204.03 64.8014 203.631 64.9951C203.232 65.1774 202.924 65.4451 202.708 65.7983C202.492 66.1401 202.383 66.5446 202.383 67.0117H197.461C197.461 66.2256 197.644 65.4793 198.008 64.7729C198.373 64.0666 198.903 63.4456 199.598 62.9102C200.293 62.3633 201.119 61.936 202.076 61.6284C203.044 61.3208 204.126 61.167 205.323 61.167C206.758 61.167 208.034 61.4062 209.151 61.8848C210.267 62.3633 211.145 63.0811 211.783 64.0381C212.432 64.9951 212.757 66.1914 212.757 67.627V75.5396C212.757 76.5535 212.819 77.3853 212.945 78.0347C213.07 78.6727 213.252 79.231 213.492 79.7095V80H208.519C208.279 79.4987 208.097 78.8721 207.972 78.1201C207.858 77.3568 207.801 76.5934 207.801 75.8301ZM208.45 68.7378L208.484 71.5234H205.733C205.083 71.5234 204.52 71.5975 204.041 71.7456C203.562 71.8937 203.169 72.1045 202.862 72.3779C202.554 72.64 202.326 72.9476 202.178 73.3008C202.042 73.654 201.973 74.0413 201.973 74.4629C201.973 74.8844 202.07 75.2661 202.264 75.6079C202.457 75.9383 202.736 76.2004 203.101 76.394C203.466 76.5763 203.893 76.6675 204.383 76.6675C205.123 76.6675 205.767 76.5194 206.314 76.2231C206.861 75.9269 207.282 75.5623 207.579 75.1294C207.886 74.6965 208.046 74.2863 208.057 73.8989L209.356 75.9839C209.174 76.451 208.923 76.9352 208.604 77.4365C208.296 77.9378 207.903 78.4106 207.425 78.855C206.946 79.2879 206.371 79.6468 205.699 79.9316C205.027 80.2051 204.229 80.3418 203.306 80.3418C202.133 80.3418 201.067 80.1082 200.11 79.6411C199.165 79.1626 198.413 78.5075 197.854 77.6758C197.308 76.8327 197.034 75.8757 197.034 74.8047C197.034 73.8363 197.216 72.9761 197.581 72.2241C197.946 71.4722 198.481 70.8398 199.188 70.3271C199.905 69.8031 200.8 69.41 201.871 69.1479C202.942 68.8745 204.183 68.7378 205.596 68.7378H208.45ZM221.473 65.542V80H216.551V61.5088H221.182L221.473 65.542ZM227.044 61.3892L226.958 65.9521C226.719 65.918 226.429 65.8895 226.087 65.8667C225.757 65.8325 225.455 65.8154 225.181 65.8154C224.486 65.8154 223.882 65.9066 223.37 66.0889C222.868 66.2598 222.447 66.5161 222.105 66.8579C221.775 67.1997 221.524 67.6156 221.353 68.1055C221.194 68.5954 221.102 69.1536 221.08 69.7803L220.088 69.4727C220.088 68.2764 220.208 67.1769 220.447 66.1743C220.687 65.1603 221.034 64.2773 221.49 63.5254C221.957 62.7734 222.527 62.1924 223.199 61.7822C223.871 61.3721 224.64 61.167 225.506 61.167C225.779 61.167 226.058 61.1898 226.343 61.2354C226.628 61.2695 226.862 61.3208 227.044 61.3892ZM234.957 75.2148L238.802 61.5088H241.929L240.921 66.8921L237.076 80H234.461L234.957 75.2148ZM233.008 61.5088L235.76 75.1978L236.016 80H232.94L228.257 61.5088H233.008ZM245.45 74.9756L248.133 61.5088H252.901L248.218 80H245.159L245.45 74.9756ZM242.356 61.5088L246.185 75.1123L246.714 80H244.083L240.237 66.9092L239.263 61.5088H242.356ZM260.574 61.5088V80H255.635V61.5088H260.574ZM255.328 56.6895C255.328 55.9717 255.578 55.3792 256.08 54.9121C256.581 54.445 257.253 54.2114 258.096 54.2114C258.928 54.2114 259.594 54.445 260.096 54.9121C260.608 55.3792 260.865 55.9717 260.865 56.6895C260.865 57.4072 260.608 57.9997 260.096 58.4668C259.594 58.9339 258.928 59.1675 258.096 59.1675C257.253 59.1675 256.581 58.9339 256.08 58.4668C255.578 57.9997 255.328 57.4072 255.328 56.6895ZM274.639 74.8901C274.639 74.5369 274.537 74.2179 274.332 73.9331C274.126 73.6483 273.745 73.3862 273.187 73.147C272.64 72.8963 271.848 72.6685 270.811 72.4634C269.877 72.2583 269.005 72.002 268.196 71.6943C267.399 71.3753 266.704 70.9937 266.111 70.5493C265.53 70.105 265.075 69.5809 264.744 68.9771C264.414 68.3618 264.249 67.6611 264.249 66.875C264.249 66.1003 264.414 65.3711 264.744 64.6875C265.086 64.0039 265.57 63.4001 266.197 62.876C266.835 62.3405 267.61 61.9246 268.521 61.6284C269.444 61.3208 270.481 61.167 271.631 61.167C273.238 61.167 274.616 61.4233 275.767 61.936C276.929 62.4487 277.818 63.1551 278.433 64.0552C279.06 64.9438 279.373 65.9578 279.373 67.0972H274.451C274.451 66.6187 274.349 66.1914 274.144 65.8154C273.95 65.4281 273.642 65.1261 273.221 64.9097C272.811 64.6818 272.275 64.5679 271.614 64.5679C271.067 64.5679 270.595 64.6647 270.196 64.8584C269.797 65.0407 269.489 65.2913 269.273 65.6104C269.068 65.918 268.965 66.2598 268.965 66.6357C268.965 66.9206 269.022 67.1769 269.136 67.4048C269.262 67.6213 269.461 67.8206 269.734 68.0029C270.008 68.1852 270.361 68.3561 270.794 68.5156C271.238 68.6637 271.785 68.8005 272.435 68.9258C273.768 69.1992 274.958 69.5581 276.006 70.0024C277.055 70.4354 277.886 71.0278 278.501 71.7798C279.117 72.5203 279.424 73.4945 279.424 74.7021C279.424 75.5225 279.242 76.2744 278.877 76.958C278.513 77.6416 277.989 78.2397 277.305 78.7524C276.622 79.2537 275.801 79.6468 274.844 79.9316C273.899 80.2051 272.833 80.3418 271.648 80.3418C269.928 80.3418 268.47 80.0342 267.273 79.4189C266.089 78.8037 265.188 78.0233 264.573 77.0776C263.969 76.1206 263.667 75.1408 263.667 74.1382H268.333C268.356 74.8104 268.527 75.3516 268.846 75.7617C269.176 76.1719 269.592 76.4681 270.093 76.6504C270.606 76.8327 271.159 76.9238 271.751 76.9238C272.389 76.9238 272.919 76.8384 273.34 76.6675C273.762 76.4852 274.081 76.2459 274.297 75.9497C274.525 75.6421 274.639 75.2889 274.639 74.8901ZM287.422 53.75V80H282.5V53.75H287.422ZM286.722 70.105H285.372C285.383 68.8175 285.554 67.6326 285.884 66.5503C286.215 65.4565 286.688 64.5109 287.303 63.7134C287.918 62.9045 288.653 62.2778 289.507 61.8335C290.373 61.3892 291.33 61.167 292.378 61.167C293.29 61.167 294.116 61.298 294.856 61.5601C295.608 61.8107 296.252 62.2209 296.788 62.7905C297.334 63.3488 297.756 64.0837 298.052 64.9951C298.348 65.9066 298.497 67.0117 298.497 68.3105V80H293.541V68.2764C293.541 67.4561 293.421 66.8123 293.182 66.3452C292.954 65.8667 292.618 65.5306 292.173 65.3369C291.74 65.1318 291.205 65.0293 290.567 65.0293C289.861 65.0293 289.257 65.1603 288.755 65.4224C288.265 65.6844 287.872 66.049 287.576 66.5161C287.28 66.9718 287.063 67.5073 286.927 68.1226C286.79 68.7378 286.722 69.3986 286.722 70.105Z" fill="#888888"/>
<rect x="92" y="181" width="1179" height="80" rx="13.3333" fill="#CCCCCC"/>
<rect x="107" y="196.333" width="208" height="49.3333" rx="4.66667" fill="#888888" stroke="#888888" stroke-width="4"/>
<path d="M171.823 213.167H177.792C178.958 213.167 179.972 213.34 180.833 213.687C181.694 214.035 182.358 214.549 182.823 215.229C183.295 215.91 183.531 216.75 183.531 217.75C183.531 218.618 183.396 219.344 183.125 219.927C182.854 220.51 182.476 220.993 181.99 221.375C181.51 221.75 180.951 222.059 180.312 222.302L179.115 222.979H174.104L174.083 220.156H177.792C178.257 220.156 178.642 220.073 178.948 219.906C179.253 219.74 179.483 219.503 179.635 219.198C179.795 218.885 179.875 218.514 179.875 218.083C179.875 217.646 179.795 217.271 179.635 216.958C179.476 216.646 179.24 216.406 178.927 216.24C178.622 216.073 178.243 215.99 177.792 215.99H175.479V228.333H171.823V213.167ZM180.125 228.333L176.771 221.625L180.646 221.604L184.042 228.177V228.333H180.125ZM191.031 228.542C190.115 228.542 189.295 228.399 188.573 228.115C187.851 227.823 187.24 227.424 186.74 226.917C186.247 226.41 185.868 225.826 185.604 225.167C185.347 224.507 185.219 223.809 185.219 223.073V222.677C185.219 221.851 185.333 221.087 185.562 220.385C185.792 219.677 186.132 219.059 186.583 218.531C187.035 218.003 187.601 217.594 188.281 217.302C188.962 217.003 189.753 216.854 190.656 216.854C191.455 216.854 192.17 216.983 192.802 217.24C193.434 217.497 193.969 217.865 194.406 218.344C194.851 218.823 195.187 219.403 195.417 220.083C195.653 220.764 195.771 221.528 195.771 222.375V223.802H186.562V221.604H192.344V221.333C192.351 220.958 192.285 220.639 192.146 220.375C192.014 220.111 191.819 219.91 191.562 219.771C191.306 219.632 190.993 219.562 190.625 219.562C190.243 219.562 189.927 219.646 189.677 219.812C189.434 219.979 189.243 220.208 189.104 220.5C188.972 220.785 188.878 221.115 188.823 221.49C188.767 221.865 188.74 222.26 188.74 222.677V223.073C188.74 223.49 188.795 223.868 188.906 224.208C189.024 224.549 189.191 224.84 189.406 225.083C189.628 225.319 189.892 225.503 190.198 225.635C190.51 225.767 190.865 225.833 191.26 225.833C191.74 225.833 192.212 225.743 192.677 225.562C193.142 225.382 193.542 225.083 193.875 224.667L195.469 226.562C195.24 226.889 194.913 227.205 194.49 227.51C194.073 227.816 193.573 228.066 192.99 228.26C192.406 228.448 191.753 228.542 191.031 228.542ZM203.052 225.5V220.854C203.052 220.535 203.007 220.26 202.917 220.031C202.826 219.802 202.684 219.625 202.49 219.5C202.295 219.368 202.035 219.302 201.708 219.302C201.444 219.302 201.219 219.347 201.031 219.437C200.844 219.528 200.701 219.663 200.604 219.844C200.507 220.024 200.458 220.253 200.458 220.531H196.948C196.948 220.01 197.062 219.528 197.292 219.083C197.528 218.632 197.861 218.24 198.292 217.906C198.729 217.573 199.25 217.316 199.854 217.135C200.465 216.948 201.146 216.854 201.896 216.854C202.792 216.854 203.59 217.003 204.292 217.302C205 217.601 205.559 218.049 205.969 218.646C206.378 219.236 206.583 219.979 206.583 220.875V225.49C206.583 226.226 206.625 226.785 206.708 227.167C206.792 227.542 206.91 227.872 207.062 228.156V228.333H203.542C203.375 227.986 203.25 227.562 203.167 227.062C203.09 226.556 203.052 226.035 203.052 225.5ZM203.479 221.448L203.5 223.323H201.948C201.622 223.323 201.344 223.368 201.115 223.458C200.892 223.549 200.712 223.674 200.573 223.833C200.441 223.986 200.344 224.16 200.281 224.354C200.226 224.549 200.198 224.753 200.198 224.969C200.198 225.177 200.247 225.365 200.344 225.531C200.448 225.691 200.587 225.816 200.76 225.906C200.934 225.997 201.128 226.042 201.344 226.042C201.733 226.042 202.062 225.969 202.333 225.823C202.611 225.67 202.823 225.486 202.969 225.271C203.115 225.056 203.187 224.854 203.187 224.667L203.958 226.104C203.819 226.382 203.66 226.663 203.479 226.948C203.306 227.233 203.087 227.497 202.823 227.74C202.566 227.976 202.25 228.17 201.875 228.323C201.5 228.469 201.045 228.542 200.51 228.542C199.816 228.542 199.177 228.399 198.594 228.115C198.017 227.83 197.556 227.434 197.208 226.927C196.861 226.413 196.687 225.823 196.687 225.156C196.687 224.573 196.792 224.052 197 223.594C197.215 223.135 197.538 222.747 197.969 222.427C198.399 222.108 198.948 221.865 199.615 221.698C200.281 221.531 201.066 221.448 201.969 221.448H203.479ZM213.292 225.833C213.618 225.833 213.896 225.774 214.125 225.656C214.361 225.531 214.538 225.358 214.656 225.135C214.781 224.906 214.84 224.632 214.833 224.312H218.135C218.142 225.16 217.934 225.903 217.51 226.542C217.094 227.174 216.524 227.667 215.802 228.021C215.087 228.368 214.278 228.542 213.375 228.542C212.493 228.542 211.722 228.399 211.062 228.115C210.403 227.823 209.851 227.42 209.406 226.906C208.969 226.385 208.639 225.778 208.417 225.083C208.201 224.389 208.094 223.635 208.094 222.823V222.583C208.094 221.771 208.201 221.017 208.417 220.323C208.639 219.622 208.969 219.014 209.406 218.5C209.851 217.979 210.399 217.576 211.052 217.292C211.712 217 212.479 216.854 213.354 216.854C214.292 216.854 215.118 217.031 215.833 217.385C216.556 217.74 217.122 218.253 217.531 218.927C217.941 219.601 218.142 220.417 218.135 221.375H214.833C214.84 221.035 214.788 220.729 214.677 220.458C214.566 220.187 214.392 219.972 214.156 219.812C213.927 219.646 213.632 219.562 213.271 219.562C212.91 219.562 212.618 219.642 212.396 219.802C212.174 219.962 212.003 220.184 211.885 220.469C211.774 220.747 211.698 221.066 211.656 221.427C211.622 221.788 211.604 222.174 211.604 222.583V222.823C211.604 223.24 211.622 223.632 211.656 224C211.698 224.361 211.778 224.681 211.896 224.958C212.014 225.229 212.184 225.444 212.406 225.604C212.628 225.757 212.924 225.833 213.292 225.833ZM225.573 217.062V219.5H218.781V217.062H225.573ZM220.208 214.26H223.719V224.656C223.719 224.955 223.753 225.187 223.823 225.354C223.892 225.514 224.01 225.628 224.177 225.698C224.351 225.76 224.58 225.792 224.865 225.792C225.066 225.792 225.233 225.788 225.365 225.781C225.497 225.767 225.622 225.75 225.74 225.729V228.24C225.441 228.337 225.128 228.41 224.802 228.458C224.476 228.514 224.128 228.542 223.76 228.542C223.01 228.542 222.368 228.424 221.833 228.187C221.306 227.951 220.903 227.58 220.625 227.073C220.347 226.566 220.208 225.906 220.208 225.094V214.26ZM233.167 223.573V213.167H236.812V223.573C236.812 224.587 236.58 225.465 236.115 226.208C235.656 226.951 235.031 227.528 234.24 227.937C233.455 228.34 232.573 228.542 231.594 228.542C230.58 228.542 229.677 228.372 228.885 228.031C228.101 227.691 227.483 227.167 227.031 226.458C226.587 225.75 226.365 224.847 226.365 223.75H230.031C230.031 224.264 230.09 224.667 230.208 224.958C230.326 225.243 230.5 225.444 230.729 225.562C230.965 225.674 231.253 225.729 231.594 225.729C231.927 225.729 232.208 225.646 232.437 225.479C232.674 225.306 232.854 225.059 232.979 224.74C233.104 224.413 233.167 224.024 233.167 223.573ZM246.948 224.302C246.948 224.066 246.913 223.854 246.844 223.667C246.774 223.472 246.646 223.292 246.458 223.125C246.271 222.958 246 222.792 245.646 222.625C245.299 222.451 244.84 222.271 244.271 222.083C243.604 221.861 242.962 221.611 242.344 221.333C241.726 221.049 241.174 220.719 240.687 220.344C240.201 219.962 239.816 219.517 239.531 219.01C239.247 218.497 239.104 217.899 239.104 217.219C239.104 216.566 239.25 215.979 239.542 215.458C239.833 214.931 240.24 214.483 240.76 214.115C241.288 213.74 241.906 213.455 242.615 213.26C243.323 213.059 244.097 212.958 244.937 212.958C246.049 212.958 247.028 213.153 247.875 213.542C248.729 213.924 249.396 214.469 249.875 215.177C250.361 215.878 250.604 216.708 250.604 217.667H246.969C246.969 217.285 246.889 216.948 246.729 216.656C246.576 216.365 246.344 216.135 246.031 215.969C245.719 215.802 245.326 215.719 244.854 215.719C244.396 215.719 244.01 215.788 243.698 215.927C243.385 216.066 243.149 216.253 242.99 216.49C242.83 216.719 242.75 216.972 242.75 217.25C242.75 217.479 242.812 217.687 242.937 217.875C243.069 218.056 243.253 218.226 243.49 218.385C243.733 218.545 244.024 218.698 244.365 218.844C244.712 218.99 245.101 219.132 245.531 219.271C246.337 219.528 247.052 219.816 247.677 220.135C248.309 220.448 248.84 220.806 249.271 221.208C249.708 221.604 250.038 222.056 250.26 222.562C250.49 223.069 250.604 223.642 250.604 224.281C250.604 224.962 250.472 225.566 250.208 226.094C249.944 226.622 249.566 227.069 249.073 227.437C248.58 227.799 247.99 228.073 247.302 228.26C246.615 228.448 245.847 228.542 245 228.542C244.222 228.542 243.455 228.444 242.698 228.25C241.948 228.049 241.267 227.743 240.656 227.333C240.045 226.917 239.556 226.385 239.187 225.74C238.826 225.087 238.646 224.312 238.646 223.417H242.312C242.312 223.861 242.372 224.236 242.49 224.542C242.608 224.847 242.781 225.094 243.01 225.281C243.24 225.462 243.521 225.594 243.854 225.677C244.187 225.753 244.569 225.792 245 225.792C245.465 225.792 245.84 225.726 246.125 225.594C246.41 225.455 246.618 225.274 246.75 225.052C246.882 224.823 246.948 224.573 246.948 224.302Z" fill="white"/>
<rect x="339" y="196.333" width="208" height="49.3333" rx="4.66667" fill="#888888" stroke="#888888" stroke-width="4"/>
<path d="M419.073 225.521V228.333H411.406V225.521H419.073ZM412.708 213.167V228.333H409.052V213.167H412.708ZM426.302 225.5V220.854C426.302 220.535 426.257 220.26 426.167 220.031C426.076 219.802 425.934 219.625 425.74 219.5C425.545 219.368 425.285 219.302 424.958 219.302C424.694 219.302 424.469 219.347 424.281 219.437C424.094 219.528 423.951 219.663 423.854 219.844C423.757 220.024 423.708 220.253 423.708 220.531H420.198C420.198 220.01 420.312 219.528 420.542 219.083C420.778 218.632 421.111 218.24 421.542 217.906C421.979 217.573 422.5 217.316 423.104 217.135C423.715 216.948 424.396 216.854 425.146 216.854C426.042 216.854 426.84 217.003 427.542 217.302C428.25 217.601 428.809 218.049 429.219 218.646C429.628 219.236 429.833 219.979 429.833 220.875V225.49C429.833 226.226 429.875 226.785 429.958 227.167C430.042 227.542 430.16 227.872 430.312 228.156V228.333H426.792C426.625 227.986 426.5 227.562 426.417 227.062C426.34 226.556 426.302 226.035 426.302 225.5ZM426.729 221.448L426.75 223.323H425.198C424.872 223.323 424.594 223.368 424.365 223.458C424.142 223.549 423.962 223.674 423.823 223.833C423.691 223.986 423.594 224.16 423.531 224.354C423.476 224.549 423.448 224.753 423.448 224.969C423.448 225.177 423.497 225.365 423.594 225.531C423.698 225.691 423.837 225.816 424.01 225.906C424.184 225.997 424.378 226.042 424.594 226.042C424.983 226.042 425.312 225.969 425.583 225.823C425.861 225.67 426.073 225.486 426.219 225.271C426.365 225.056 426.437 224.854 426.437 224.667L427.208 226.104C427.069 226.382 426.91 226.663 426.729 226.948C426.556 227.233 426.337 227.497 426.073 227.74C425.816 227.976 425.5 228.17 425.125 228.323C424.75 228.469 424.295 228.542 423.76 228.542C423.066 228.542 422.427 228.399 421.844 228.115C421.267 227.83 420.806 227.434 420.458 226.927C420.111 226.413 419.937 225.823 419.937 225.156C419.937 224.573 420.042 224.052 420.25 223.594C420.465 223.135 420.788 222.747 421.219 222.427C421.649 222.108 422.198 221.865 422.865 221.698C423.531 221.531 424.316 221.448 425.219 221.448H426.729ZM435.323 219.854V228.333H431.812V217.062H435.094L435.323 219.854ZM438.656 216.979L438.594 220.24C438.455 220.226 438.267 220.208 438.031 220.187C437.795 220.167 437.597 220.156 437.437 220.156C437.028 220.156 436.674 220.205 436.375 220.302C436.083 220.392 435.84 220.531 435.646 220.719C435.458 220.899 435.319 221.128 435.229 221.406C435.146 221.684 435.108 222.007 435.115 222.375L434.479 221.958C434.479 221.201 434.552 220.514 434.698 219.896C434.851 219.271 435.066 218.733 435.344 218.281C435.622 217.823 435.958 217.472 436.354 217.229C436.75 216.979 437.194 216.854 437.687 216.854C437.861 216.854 438.031 216.865 438.198 216.885C438.372 216.906 438.524 216.937 438.656 216.979ZM445.406 225.5V220.854C445.406 220.535 445.361 220.26 445.271 220.031C445.181 219.802 445.038 219.625 444.844 219.5C444.649 219.368 444.389 219.302 444.063 219.302C443.799 219.302 443.573 219.347 443.385 219.437C443.198 219.528 443.056 219.663 442.958 219.844C442.861 220.024 442.813 220.253 442.813 220.531H439.302C439.302 220.01 439.417 219.528 439.646 219.083C439.882 218.632 440.215 218.24 440.646 217.906C441.083 217.573 441.604 217.316 442.208 217.135C442.819 216.948 443.5 216.854 444.25 216.854C445.146 216.854 445.944 217.003 446.646 217.302C447.354 217.601 447.913 218.049 448.323 218.646C448.733 219.236 448.938 219.979 448.938 220.875V225.49C448.938 226.226 448.979 226.785 449.063 227.167C449.146 227.542 449.264 227.872 449.417 228.156V228.333H445.896C445.729 227.986 445.604 227.562 445.521 227.062C445.444 226.556 445.406 226.035 445.406 225.5ZM445.833 221.448L445.854 223.323H444.302C443.976 223.323 443.698 223.368 443.469 223.458C443.247 223.549 443.066 223.674 442.927 223.833C442.795 223.986 442.698 224.16 442.635 224.354C442.58 224.549 442.552 224.753 442.552 224.969C442.552 225.177 442.601 225.365 442.698 225.531C442.802 225.691 442.941 225.816 443.115 225.906C443.288 225.997 443.483 226.042 443.698 226.042C444.087 226.042 444.417 225.969 444.688 225.823C444.965 225.67 445.177 225.486 445.323 225.271C445.469 225.056 445.542 224.854 445.542 224.667L446.313 226.104C446.174 226.382 446.014 226.663 445.833 226.948C445.66 227.233 445.441 227.497 445.177 227.74C444.92 227.976 444.604 228.17 444.229 228.323C443.854 228.469 443.399 228.542 442.865 228.542C442.17 228.542 441.531 228.399 440.948 228.115C440.372 227.83 439.91 227.434 439.563 226.927C439.215 226.413 439.042 225.823 439.042 225.156C439.042 224.573 439.146 224.052 439.354 223.594C439.569 223.135 439.892 222.747 440.323 222.427C440.753 222.108 441.302 221.865 441.969 221.698C442.635 221.531 443.42 221.448 444.323 221.448H445.833ZM454.781 225.927L457 217.062H460.698L457.01 228.333H454.823L454.781 225.927ZM453.469 217.062L455.656 225.927L455.635 228.333H453.437L449.76 217.062H453.469ZM467.052 228.542C466.135 228.542 465.316 228.399 464.594 228.115C463.872 227.823 463.26 227.424 462.76 226.917C462.267 226.41 461.889 225.826 461.625 225.167C461.368 224.507 461.24 223.809 461.24 223.073V222.677C461.24 221.851 461.354 221.087 461.583 220.385C461.812 219.677 462.153 219.059 462.604 218.531C463.056 218.003 463.622 217.594 464.302 217.302C464.983 217.003 465.774 216.854 466.677 216.854C467.476 216.854 468.191 216.983 468.823 217.24C469.455 217.497 469.99 217.865 470.427 218.344C470.872 218.823 471.208 219.403 471.437 220.083C471.674 220.764 471.792 221.528 471.792 222.375V223.802H462.583V221.604H468.365V221.333C468.372 220.958 468.306 220.639 468.167 220.375C468.035 220.111 467.84 219.91 467.583 219.771C467.326 219.632 467.014 219.562 466.646 219.562C466.264 219.562 465.948 219.646 465.698 219.812C465.455 219.979 465.264 220.208 465.125 220.5C464.993 220.785 464.899 221.115 464.844 221.49C464.788 221.865 464.76 222.26 464.76 222.677V223.073C464.76 223.49 464.816 223.868 464.927 224.208C465.045 224.549 465.212 224.84 465.427 225.083C465.649 225.319 465.913 225.503 466.219 225.635C466.531 225.767 466.885 225.833 467.281 225.833C467.76 225.833 468.233 225.743 468.698 225.562C469.163 225.382 469.562 225.083 469.896 224.667L471.49 226.562C471.26 226.889 470.934 227.205 470.51 227.51C470.094 227.816 469.594 228.066 469.01 228.26C468.427 228.448 467.774 228.542 467.052 228.542ZM476.927 212.333V228.333H473.406V212.333H476.927Z" fill="white"/>
<rect x="571" y="196.333" width="208" height="49.3333" rx="4.66667" fill="#888888" stroke="#888888" stroke-width="4"/>
<path d="M647.833 213.167V228.333H644.177V213.167H647.833ZM653.729 219.479V222.292H646.792V219.479H653.729ZM654.323 213.167V215.99H646.792V213.167H654.323ZM659.385 212.333V228.333H655.865V212.333H659.385ZM668.135 225.594V217.062H671.656V228.333H668.365L668.135 225.594ZM668.469 223.302L669.385 223.281C669.385 224.038 669.295 224.74 669.115 225.385C668.934 226.024 668.667 226.58 668.313 227.052C667.965 227.524 667.535 227.892 667.021 228.156C666.514 228.413 665.927 228.542 665.26 228.542C664.705 228.542 664.194 228.465 663.729 228.312C663.271 228.153 662.875 227.906 662.542 227.573C662.208 227.233 661.948 226.799 661.76 226.271C661.58 225.736 661.49 225.097 661.49 224.354V217.062H665V224.375C665 224.625 665.031 224.84 665.094 225.021C665.156 225.201 665.247 225.354 665.365 225.479C665.483 225.597 665.628 225.687 665.802 225.75C665.983 225.806 666.188 225.833 666.417 225.833C666.944 225.833 667.358 225.722 667.656 225.5C667.955 225.278 668.163 224.976 668.281 224.594C668.406 224.212 668.469 223.781 668.469 223.302ZM679.531 217.062V219.5H672.74V217.062H679.531ZM674.167 214.26H677.677V224.656C677.677 224.955 677.712 225.187 677.781 225.354C677.851 225.514 677.969 225.628 678.135 225.698C678.309 225.76 678.538 225.792 678.823 225.792C679.024 225.792 679.191 225.788 679.323 225.781C679.455 225.767 679.58 225.75 679.698 225.729V228.24C679.399 228.337 679.087 228.41 678.76 228.458C678.434 228.514 678.087 228.542 677.719 228.542C676.969 228.542 676.326 228.424 675.792 228.187C675.264 227.951 674.861 227.58 674.583 227.073C674.306 226.566 674.167 225.906 674.167 225.094V214.26ZM686.865 217.062V219.5H680.073V217.062H686.865ZM681.5 214.26H685.01V224.656C685.01 224.955 685.045 225.187 685.115 225.354C685.184 225.514 685.302 225.628 685.469 225.698C685.642 225.76 685.872 225.792 686.156 225.792C686.358 225.792 686.524 225.788 686.656 225.781C686.788 225.767 686.913 225.75 687.031 225.729V228.24C686.733 228.337 686.42 228.41 686.094 228.458C685.767 228.514 685.42 228.542 685.052 228.542C684.302 228.542 683.66 228.424 683.125 228.187C682.597 227.951 682.194 227.58 681.917 227.073C681.639 226.566 681.5 225.906 681.5 225.094V214.26ZM693.719 228.542C692.802 228.542 691.983 228.399 691.26 228.115C690.538 227.823 689.927 227.424 689.427 226.917C688.934 226.41 688.556 225.826 688.292 225.167C688.035 224.507 687.906 223.809 687.906 223.073V222.677C687.906 221.851 688.021 221.087 688.25 220.385C688.479 219.677 688.819 219.059 689.271 218.531C689.722 218.003 690.288 217.594 690.969 217.302C691.649 217.003 692.441 216.854 693.344 216.854C694.142 216.854 694.858 216.983 695.49 217.24C696.122 217.497 696.656 217.865 697.094 218.344C697.538 218.823 697.875 219.403 698.104 220.083C698.34 220.764 698.458 221.528 698.458 222.375V223.802H689.25V221.604H695.031V221.333C695.038 220.958 694.972 220.639 694.833 220.375C694.701 220.111 694.507 219.91 694.25 219.771C693.993 219.632 693.681 219.562 693.312 219.562C692.931 219.562 692.615 219.646 692.365 219.812C692.122 219.979 691.931 220.208 691.792 220.5C691.66 220.785 691.566 221.115 691.51 221.49C691.455 221.865 691.427 222.26 691.427 222.677V223.073C691.427 223.49 691.483 223.868 691.594 224.208C691.712 224.549 691.878 224.84 692.094 225.083C692.316 225.319 692.58 225.503 692.885 225.635C693.198 225.767 693.552 225.833 693.948 225.833C694.427 225.833 694.899 225.743 695.365 225.562C695.83 225.382 696.229 225.083 696.562 224.667L698.156 226.562C697.927 226.889 697.601 227.205 697.177 227.51C696.76 227.816 696.26 228.066 695.677 228.26C695.094 228.448 694.441 228.542 693.719 228.542ZM703.427 219.854V228.333H699.917V217.062H703.198L703.427 219.854ZM706.76 216.979L706.698 220.24C706.559 220.226 706.372 220.208 706.135 220.187C705.899 220.167 705.701 220.156 705.542 220.156C705.132 220.156 704.778 220.205 704.479 220.302C704.187 220.392 703.944 220.531 703.75 220.719C703.562 220.899 703.424 221.128 703.333 221.406C703.25 221.684 703.212 222.007 703.219 222.375L702.583 221.958C702.583 221.201 702.656 220.514 702.802 219.896C702.955 219.271 703.17 218.733 703.448 218.281C703.726 217.823 704.062 217.472 704.458 217.229C704.854 216.979 705.299 216.854 705.792 216.854C705.965 216.854 706.135 216.865 706.302 216.885C706.476 216.906 706.628 216.937 706.76 216.979Z" fill="white"/>
<rect x="803" y="196.333" width="208" height="49.3333" rx="4.66667" fill="#888888" stroke="#888888" stroke-width="4"/>
<path d="M875.26 213.167H878.24L881.625 223.719L885.01 213.167H887.99L882.833 228.333H880.417L875.26 213.167ZM873.448 213.167H876.531L877.104 224.792V228.333H873.448V213.167ZM886.719 213.167H889.812V228.333H886.146V224.792L886.719 213.167ZM895.448 227.01L898.365 217.062H902.135L897.604 230.01C897.507 230.295 897.378 230.601 897.219 230.927C897.059 231.26 896.84 231.576 896.563 231.875C896.285 232.174 895.927 232.417 895.49 232.604C895.059 232.792 894.524 232.885 893.885 232.885C893.545 232.885 893.295 232.868 893.135 232.833C892.983 232.806 892.747 232.753 892.427 232.677V230.167C892.517 230.167 892.594 230.167 892.656 230.167C892.726 230.167 892.802 230.167 892.885 230.167C893.26 230.167 893.559 230.128 893.781 230.052C894.01 229.976 894.184 229.865 894.302 229.719C894.427 229.573 894.524 229.396 894.594 229.187L895.448 227.01ZM894.708 217.062L896.927 224.948L897.313 228.667H894.958L890.948 217.062H894.708ZM911.031 224.302C911.031 224.066 910.997 223.854 910.927 223.667C910.858 223.472 910.729 223.292 910.542 223.125C910.354 222.958 910.083 222.792 909.729 222.625C909.382 222.451 908.924 222.271 908.354 222.083C907.688 221.861 907.045 221.611 906.427 221.333C905.809 221.049 905.257 220.719 904.771 220.344C904.285 219.962 903.899 219.517 903.615 219.01C903.33 218.497 903.188 217.899 903.188 217.219C903.188 216.566 903.333 215.979 903.625 215.458C903.917 214.931 904.323 214.483 904.844 214.115C905.372 213.74 905.99 213.455 906.698 213.26C907.406 213.059 908.181 212.958 909.021 212.958C910.132 212.958 911.111 213.153 911.958 213.542C912.813 213.924 913.479 214.469 913.958 215.177C914.444 215.878 914.688 216.708 914.688 217.667H911.052C911.052 217.285 910.972 216.948 910.813 216.656C910.66 216.365 910.427 216.135 910.115 215.969C909.802 215.802 909.41 215.719 908.938 215.719C908.479 215.719 908.094 215.788 907.781 215.927C907.469 216.066 907.233 216.253 907.073 216.49C906.913 216.719 906.833 216.972 906.833 217.25C906.833 217.479 906.896 217.687 907.021 217.875C907.153 218.056 907.337 218.226 907.573 218.385C907.816 218.545 908.108 218.698 908.448 218.844C908.795 218.99 909.184 219.132 909.615 219.271C910.42 219.528 911.135 219.816 911.76 220.135C912.392 220.448 912.924 220.806 913.354 221.208C913.792 221.604 914.122 222.056 914.344 222.562C914.573 223.069 914.688 223.642 914.688 224.281C914.688 224.962 914.556 225.566 914.292 226.094C914.028 226.622 913.649 227.069 913.156 227.437C912.663 227.799 912.073 228.073 911.385 228.26C910.698 228.448 909.931 228.542 909.083 228.542C908.306 228.542 907.538 228.444 906.781 228.25C906.031 228.049 905.351 227.743 904.74 227.333C904.128 226.917 903.639 226.385 903.271 225.74C902.91 225.087 902.729 224.312 902.729 223.417H906.396C906.396 223.861 906.455 224.236 906.573 224.542C906.691 224.847 906.865 225.094 907.094 225.281C907.323 225.462 907.604 225.594 907.938 225.677C908.271 225.753 908.653 225.792 909.083 225.792C909.549 225.792 909.924 225.726 910.208 225.594C910.493 225.455 910.701 225.274 910.833 225.052C910.965 224.823 911.031 224.573 911.031 224.302ZM925.031 225.833L929.26 229.187L926.99 231.104L922.833 227.75L925.031 225.833ZM929.437 220.448V221.062C929.437 222.222 929.274 223.264 928.948 224.187C928.628 225.104 928.17 225.889 927.573 226.542C926.983 227.187 926.285 227.684 925.479 228.031C924.674 228.372 923.785 228.542 922.812 228.542C921.833 228.542 920.937 228.372 920.125 228.031C919.319 227.684 918.618 227.187 918.021 226.542C917.431 225.889 916.972 225.104 916.646 224.187C916.326 223.264 916.167 222.222 916.167 221.062V220.448C916.167 219.288 916.326 218.247 916.646 217.323C916.972 216.399 917.427 215.615 918.01 214.969C918.601 214.316 919.299 213.819 920.104 213.479C920.917 213.132 921.812 212.958 922.792 212.958C923.764 212.958 924.653 213.132 925.458 213.479C926.271 213.819 926.972 214.316 927.562 214.969C928.16 215.615 928.622 216.399 928.948 217.323C929.274 218.247 929.437 219.288 929.437 220.448ZM925.719 221.062V220.427C925.719 219.677 925.653 219.017 925.521 218.448C925.396 217.872 925.208 217.389 924.958 217C924.708 216.611 924.399 216.319 924.031 216.125C923.67 215.924 923.257 215.823 922.792 215.823C922.306 215.823 921.882 215.924 921.521 216.125C921.16 216.319 920.858 216.611 920.615 217C920.372 217.389 920.187 217.872 920.062 218.448C919.944 219.017 919.885 219.677 919.885 220.427V221.062C919.885 221.806 919.944 222.465 920.062 223.042C920.187 223.611 920.372 224.094 920.615 224.49C920.865 224.885 921.17 225.184 921.531 225.385C921.899 225.587 922.326 225.687 922.812 225.687C923.278 225.687 923.691 225.587 924.052 225.385C924.413 225.184 924.715 224.885 924.958 224.49C925.208 224.094 925.396 223.611 925.521 223.042C925.653 222.465 925.719 221.806 925.719 221.062ZM941.323 225.521V228.333H933.656V225.521H941.323ZM934.958 213.167V228.333H931.302V213.167H934.958Z" fill="white"/>
<rect x="1035" y="196.333" width="208" height="49.3333" rx="4.66667" fill="#888888" stroke="#888888" stroke-width="4"/>
<path d="M1108.4 216.354L1104.7 228.333H1100.77L1106.34 213.167H1108.83L1108.4 216.354ZM1111.46 228.333L1107.75 216.354L1107.27 213.167H1109.79L1115.4 228.333H1111.46ZM1111.31 222.677V225.5H1103.53V222.677H1111.31ZM1119.89 219.854V228.333H1116.37V217.062H1119.66L1119.89 219.854ZM1123.22 216.979L1123.16 220.24C1123.02 220.226 1122.83 220.208 1122.59 220.187C1122.36 220.167 1122.16 220.156 1122 220.156C1121.59 220.156 1121.24 220.205 1120.94 220.302C1120.65 220.392 1120.4 220.531 1120.21 220.719C1120.02 220.899 1119.88 221.128 1119.79 221.406C1119.71 221.684 1119.67 222.007 1119.68 222.375L1119.04 221.958C1119.04 221.201 1119.11 220.514 1119.26 219.896C1119.41 219.271 1119.63 218.733 1119.91 218.281C1120.18 217.823 1120.52 217.472 1120.92 217.229C1121.31 216.979 1121.76 216.854 1122.25 216.854C1122.42 216.854 1122.59 216.865 1122.76 216.885C1122.93 216.906 1123.09 216.937 1123.22 216.979ZM1130.7 225.75V212.333H1134.23V228.333H1131.06L1130.7 225.75ZM1123.78 222.833V222.615C1123.78 221.76 1123.88 220.983 1124.06 220.281C1124.25 219.573 1124.53 218.965 1124.9 218.458C1125.26 217.944 1125.72 217.549 1126.27 217.271C1126.82 216.993 1127.45 216.854 1128.17 216.854C1128.81 216.854 1129.36 217.003 1129.84 217.302C1130.32 217.594 1130.73 218.003 1131.07 218.531C1131.41 219.059 1131.69 219.677 1131.91 220.385C1132.12 221.087 1132.28 221.844 1132.4 222.656V222.917C1132.28 223.681 1132.12 224.403 1131.91 225.083C1131.69 225.757 1131.41 226.354 1131.07 226.875C1130.73 227.396 1130.32 227.806 1129.83 228.104C1129.35 228.396 1128.79 228.542 1128.15 228.542C1127.43 228.542 1126.8 228.399 1126.25 228.115C1125.71 227.83 1125.25 227.431 1124.89 226.917C1124.52 226.403 1124.25 225.799 1124.06 225.104C1123.88 224.41 1123.78 223.653 1123.78 222.833ZM1127.29 222.615V222.833C1127.29 223.257 1127.32 223.649 1127.38 224.01C1127.43 224.372 1127.52 224.691 1127.66 224.969C1127.8 225.24 1127.98 225.451 1128.2 225.604C1128.43 225.757 1128.71 225.833 1129.04 225.833C1129.49 225.833 1129.86 225.726 1130.16 225.51C1130.45 225.295 1130.67 224.99 1130.81 224.594C1130.96 224.198 1131.02 223.733 1131 223.198V222.375C1131.01 221.917 1130.98 221.514 1130.91 221.167C1130.83 220.812 1130.71 220.517 1130.54 220.281C1130.38 220.045 1130.18 219.868 1129.93 219.75C1129.68 219.625 1129.4 219.562 1129.06 219.562C1128.74 219.562 1128.46 219.639 1128.23 219.792C1128.01 219.944 1127.83 220.16 1127.69 220.437C1127.55 220.708 1127.45 221.031 1127.39 221.406C1127.32 221.774 1127.29 222.177 1127.29 222.615ZM1142.8 225.594V217.062H1146.32V228.333H1143.03L1142.8 225.594ZM1143.14 223.302L1144.05 223.281C1144.05 224.038 1143.96 224.74 1143.78 225.385C1143.6 226.024 1143.33 226.58 1142.98 227.052C1142.63 227.524 1142.2 227.892 1141.69 228.156C1141.18 228.413 1140.59 228.542 1139.93 228.542C1139.37 228.542 1138.86 228.465 1138.4 228.312C1137.94 228.153 1137.54 227.906 1137.21 227.573C1136.88 227.233 1136.61 226.799 1136.43 226.271C1136.25 225.736 1136.16 225.097 1136.16 224.354V217.062H1139.67V224.375C1139.67 224.625 1139.7 224.84 1139.76 225.021C1139.82 225.201 1139.91 225.354 1140.03 225.479C1140.15 225.597 1140.3 225.687 1140.47 225.75C1140.65 225.806 1140.85 225.833 1141.08 225.833C1141.61 225.833 1142.02 225.722 1142.32 225.5C1142.62 225.278 1142.83 224.976 1142.95 224.594C1143.07 224.212 1143.14 223.781 1143.14 223.302ZM1151.97 217.062V228.333H1148.45V217.062H1151.97ZM1148.24 214.156C1148.24 213.656 1148.42 213.247 1148.78 212.927C1149.14 212.608 1149.61 212.448 1150.19 212.448C1150.76 212.448 1151.23 212.608 1151.59 212.927C1151.95 213.247 1152.14 213.656 1152.14 214.156C1152.14 214.656 1151.95 215.066 1151.59 215.385C1151.23 215.705 1150.76 215.865 1150.19 215.865C1149.61 215.865 1149.14 215.705 1148.78 215.385C1148.42 215.066 1148.24 214.656 1148.24 214.156ZM1157.58 219.469V228.333H1154.07V217.062H1157.36L1157.58 219.469ZM1157.17 222.312L1156.34 222.333C1156.34 221.472 1156.45 220.705 1156.66 220.031C1156.86 219.351 1157.16 218.774 1157.54 218.302C1157.92 217.83 1158.38 217.472 1158.91 217.229C1159.44 216.979 1160.03 216.854 1160.69 216.854C1161.21 216.854 1161.68 216.931 1162.11 217.083C1162.55 217.236 1162.93 217.483 1163.24 217.823C1163.56 218.163 1163.8 218.615 1163.97 219.177C1164.14 219.733 1164.23 220.42 1164.23 221.24V228.333H1160.7V221.229C1160.7 220.778 1160.64 220.434 1160.51 220.198C1160.39 219.955 1160.2 219.788 1159.97 219.698C1159.73 219.608 1159.44 219.562 1159.1 219.562C1158.74 219.562 1158.44 219.632 1158.19 219.771C1157.94 219.91 1157.74 220.104 1157.58 220.354C1157.44 220.597 1157.33 220.885 1157.26 221.219C1157.2 221.552 1157.17 221.917 1157.17 222.312ZM1165.74 222.812V222.594C1165.74 221.767 1165.86 221.007 1166.09 220.312C1166.33 219.611 1166.68 219.003 1167.14 218.49C1167.59 217.976 1168.16 217.576 1168.83 217.292C1169.51 217 1170.28 216.854 1171.17 216.854C1172.06 216.854 1172.84 217 1173.51 217.292C1174.19 217.576 1174.76 217.976 1175.22 218.49C1175.68 219.003 1176.02 219.611 1176.26 220.312C1176.5 221.007 1176.61 221.767 1176.61 222.594V222.812C1176.61 223.632 1176.5 224.392 1176.26 225.094C1176.02 225.788 1175.68 226.396 1175.22 226.917C1174.76 227.431 1174.19 227.83 1173.52 228.115C1172.85 228.399 1172.07 228.542 1171.19 228.542C1170.31 228.542 1169.52 228.399 1168.84 228.115C1168.16 227.83 1167.59 227.431 1167.14 226.917C1166.68 226.396 1166.33 225.788 1166.09 225.094C1165.86 224.392 1165.74 223.632 1165.74 222.812ZM1169.25 222.594V222.812C1169.25 223.236 1169.28 223.632 1169.34 224C1169.41 224.368 1169.51 224.691 1169.66 224.969C1169.8 225.24 1170 225.451 1170.25 225.604C1170.5 225.757 1170.81 225.833 1171.19 225.833C1171.56 225.833 1171.86 225.757 1172.1 225.604C1172.35 225.451 1172.55 225.24 1172.7 224.969C1172.84 224.691 1172.95 224.368 1173.01 224C1173.07 223.632 1173.1 223.236 1173.1 222.812V222.594C1173.1 222.184 1173.07 221.799 1173.01 221.437C1172.95 221.069 1172.84 220.747 1172.7 220.469C1172.55 220.184 1172.35 219.962 1172.1 219.802C1171.85 219.642 1171.54 219.562 1171.17 219.562C1170.8 219.562 1170.49 219.642 1170.24 219.802C1170 219.962 1169.8 220.184 1169.66 220.469C1169.51 220.747 1169.41 221.069 1169.34 221.437C1169.28 221.799 1169.25 222.184 1169.25 222.594Z" fill="white"/>
</svg>
