<svg width="136" height="81" viewBox="0 0 136 81" fill="none" xmlns="http://www.w3.org/2000/svg">
<path d="M57.4229 30.3937L59.1066 33.0929L60.8146 30.4089L73.1456 11.0317C74.7547 8.50303 78.5252 8.76084 79.7752 11.485C80.303 12.6352 80.2206 13.9733 79.5557 15.0501L62.778 42.2204C61.0997 44.9383 57.1474 44.9383 55.4691 42.2204L38.6873 15.0435C38.0163 13.9568 37.922 12.6098 38.4351 11.4402C39.6904 8.57894 43.6378 8.29369 45.2914 10.9448L57.4229 30.3937Z" stroke="white" stroke-opacity="0.5" stroke-width="4.00872"/>
<path d="M75.1758 22.5453L76.8594 19.8461L78.5674 22.53L90.8984 41.9073C92.5075 44.4359 96.2781 44.1781 97.5281 41.454C98.0559 40.3037 97.9735 38.9657 97.3085 37.8889L80.5309 10.7185C78.8526 8.00064 74.9002 8.00064 73.2219 10.7185L56.4402 37.8955C55.7691 38.9822 55.6749 40.3292 56.188 41.4987C57.4433 44.36 61.3906 44.6453 63.0443 41.9942L75.1758 22.5453Z" stroke="#59DBAE" stroke-width="4.00872"/>
<path d="M8.24715 79.2001C7.21825 79.2001 6.3096 79.0732 5.52122 78.8193C4.73284 78.5521 4.06472 78.1579 3.51686 77.6367C2.98236 77.1156 2.57481 76.4675 2.2942 75.6925C2.02695 74.9041 1.89333 73.9955 1.89333 72.9666V66.5326C1.89333 65.9179 2.05368 65.4569 2.37437 65.1496C2.69507 64.8289 3.14939 64.6685 3.73734 64.6685C4.33865 64.6685 4.79297 64.8289 5.1003 65.1496C5.421 65.4569 5.58135 65.9179 5.58135 66.5326V73.0067C5.58135 74.0356 5.80851 74.8106 6.26283 75.3317C6.71716 75.8529 7.37859 76.1134 8.24715 76.1134C9.10234 76.1134 9.7571 75.8529 10.2114 75.3317C10.6657 74.8106 10.8929 74.0356 10.8929 73.0067V66.5326C10.8929 65.9179 11.0466 65.4569 11.3539 65.1496C11.6746 64.8289 12.1289 64.6685 12.7169 64.6685C13.3048 64.6685 13.7525 64.8289 14.0598 65.1496C14.3671 65.4569 14.5208 65.9179 14.5208 66.5326V72.9666C14.5208 74.3429 14.2803 75.4988 13.7992 76.4341C13.3315 77.3561 12.63 78.051 11.6947 78.5187C10.7593 78.973 9.61012 79.2001 8.24715 79.2001ZM26.5706 79.1601C25.9827 79.1601 25.5283 78.9997 25.2076 78.679C24.8869 78.3449 24.7266 77.8839 24.7266 77.296V66.713C24.7266 66.1117 24.8869 65.6507 25.2076 65.33C25.5417 65.0093 26.0027 64.8489 26.5907 64.8489H31.5214C33.1249 64.8489 34.3609 65.2632 35.2294 66.0916C36.1114 66.9067 36.5523 68.0359 36.5523 69.479C36.5523 70.9221 36.1114 72.0579 35.2294 72.8864C34.3609 73.7015 33.1249 74.1091 31.5214 74.1091H28.4146V77.296C28.4146 77.8839 28.261 78.3449 27.9536 78.679C27.6463 78.9997 27.1853 79.1601 26.5706 79.1601ZM28.4146 71.2829H30.88C31.5748 71.2829 32.1093 71.1359 32.4835 70.842C32.8576 70.5346 33.0447 70.0803 33.0447 69.479C33.0447 68.8643 32.8576 68.41 32.4835 68.116C32.1093 67.8221 31.5748 67.6751 30.88 67.6751H28.4146V71.2829Z" fill="#59DBAE"/>
<path d="M46.8065 78.9797C46.5125 78.9797 46.2854 78.9062 46.125 78.7592C45.978 78.5988 45.9045 78.3717 45.9045 78.0777V65.7509C45.9045 65.4569 45.978 65.2364 46.125 65.0894C46.2854 64.9291 46.5125 64.8489 46.8065 64.8489H50.6749C52.9599 64.8489 54.7237 65.4502 55.9664 66.6528C57.2091 67.8555 57.8305 69.6059 57.8305 71.9043C57.8305 73.0534 57.6701 74.069 57.3494 74.9509C57.0421 75.8195 56.5811 76.5544 55.9664 77.1557C55.3518 77.757 54.6035 78.2113 53.7216 78.5187C52.8396 78.826 51.8241 78.9797 50.6749 78.9797H46.8065ZM47.5481 77.5766H50.5547C51.49 77.5766 52.2985 77.4563 52.9799 77.2158C53.6748 76.9753 54.2494 76.6212 54.7037 76.1535C55.1714 75.6858 55.5188 75.0979 55.746 74.3897C55.9731 73.6681 56.0867 72.8396 56.0867 71.9043C56.0867 70.0202 55.6257 68.6104 54.7037 67.6751C53.7817 66.7263 52.3987 66.252 50.5547 66.252H47.5481V77.5766ZM73.8854 79.1601C72.5759 79.1601 71.4334 78.8661 70.458 78.2781C69.4959 77.6768 68.7476 76.835 68.2131 75.7526C67.6919 74.6703 67.4314 73.3875 67.4314 71.9043C67.4314 70.7818 67.5784 69.7796 67.8723 68.8977C68.1797 68.0024 68.614 67.2475 69.1752 66.6328C69.7364 66.0048 70.4112 65.5237 71.1996 65.1897C72.0013 64.8422 72.8966 64.6685 73.8854 64.6685C75.2217 64.6685 76.3708 64.9625 77.3329 65.5504C78.3084 66.1384 79.0567 66.9735 79.5778 68.0559C80.1123 69.1249 80.3795 70.401 80.3795 71.8842C80.3795 73.0067 80.2259 74.0155 79.9185 74.9108C79.6112 75.8061 79.1769 76.5677 78.6157 77.1958C78.0545 77.8238 77.373 78.3115 76.5713 78.659C75.7829 78.993 74.8876 79.1601 73.8854 79.1601ZM73.8854 77.6969C74.901 77.6969 75.7562 77.4697 76.451 77.0154C77.1592 76.5611 77.7004 75.8996 78.0745 75.0311C78.4487 74.1625 78.6358 73.1202 78.6358 71.9043C78.6358 70.0736 78.2215 68.6572 77.393 67.655C76.5779 66.6395 75.4087 66.1317 73.8854 66.1317C72.8966 66.1317 72.0481 66.3589 71.3399 66.8132C70.645 67.2675 70.1105 67.929 69.7364 68.7975C69.3622 69.6527 69.1752 70.6883 69.1752 71.9043C69.1752 73.7216 69.5894 75.1447 70.4179 76.1736C71.2463 77.1891 72.4022 77.6969 73.8854 77.6969ZM95.0197 79.12C94.7792 79.12 94.5854 79.0598 94.4384 78.9396C94.2914 78.8059 94.1712 78.6122 94.0776 78.3583L89.648 65.7108C89.5545 65.4302 89.5745 65.1963 89.7081 65.0093C89.8551 64.8088 90.0823 64.7086 90.3896 64.7086C90.6168 64.7086 90.7972 64.7687 90.9308 64.889C91.0644 64.9959 91.178 65.1696 91.2715 65.4101L95.4206 77.5766H94.719L98.9482 65.4703C99.0418 65.2164 99.1553 65.0293 99.289 64.909C99.4226 64.7754 99.603 64.7086 99.8301 64.7086C100.044 64.7086 100.211 64.7754 100.331 64.909C100.465 65.0293 100.578 65.2164 100.672 65.4703L104.841 77.5766H104.22L108.409 65.4101C108.476 65.183 108.576 65.0093 108.709 64.889C108.856 64.7687 109.044 64.7086 109.271 64.7086C109.551 64.7086 109.758 64.8021 109.892 64.9892C110.026 65.1763 110.039 65.4168 109.932 65.7108L105.482 78.3583C105.389 78.6122 105.269 78.8059 105.122 78.9396C104.988 79.0598 104.794 79.12 104.54 79.12C104.3 79.12 104.106 79.0598 103.959 78.9396C103.826 78.8059 103.705 78.6122 103.598 78.3583L99.5696 66.7531H100.011L95.9417 78.3583C95.8482 78.6122 95.7346 78.8059 95.6009 78.9396C95.4673 79.0598 95.2736 79.12 95.0197 79.12ZM120.503 79.12C120.249 79.12 120.055 79.0532 119.922 78.9195C119.788 78.7725 119.721 78.5654 119.721 78.2982V65.5504C119.721 65.2832 119.788 65.0761 119.922 64.9291C120.055 64.7821 120.229 64.7086 120.443 64.7086C120.657 64.7086 120.81 64.7487 120.904 64.8289C121.011 64.8957 121.131 65.0226 121.265 65.2097L130.004 76.855H129.523V65.5104C129.523 65.2565 129.59 65.0627 129.723 64.9291C129.857 64.7821 130.051 64.7086 130.304 64.7086C130.545 64.7086 130.725 64.7821 130.846 64.9291C130.979 65.0627 131.046 65.2565 131.046 65.5104V78.3182C131.046 78.5721 130.986 78.7725 130.866 78.9195C130.759 79.0532 130.598 79.12 130.385 79.12C130.184 79.12 130.024 79.0799 129.904 78.9997C129.783 78.9195 129.656 78.7926 129.523 78.6189L120.804 66.9735H121.265V78.2982C121.265 78.5654 121.198 78.7725 121.064 78.9195C120.931 79.0532 120.744 79.12 120.503 79.12Z" fill="white"/>
</svg>
